<svg xmlns="http://www.w3.org/2000/svg" viewBox="0 0 176.54 19.36"><defs><style>.cls-1{fill:#006795;}</style></defs><g id="Layer_2" data-name="Layer 2"><g id="レイヤー_1" data-name="レイヤー 1"><path class="cls-1" d="M2.44,16.14a1.08,1.08,0,0,1-1.2,1.14A1.11,1.11,0,0,1,0,16.14V4.56c0-1.92.7-2.7,3-2.7H5.1c3.4,0,5,1.58,5,4.18a4.14,4.14,0,0,1-2.68,4l3.34,5.22A1.32,1.32,0,0,1,11,16a1.34,1.34,0,0,1-1.4,1.24,1.3,1.3,0,0,1-1.06-.74l-3.6-6.06H2.44Zm2.5-7.52c1.74,0,2.7-.94,2.7-2.48S6.7,3.82,4.94,3.82H3.56c-.92,0-1.12.26-1.12,1.06V8.62Z"/><path class="cls-1" d="M16.44,3.26a1.8,1.8,0,0,1,1.84-1.42,1.78,1.78,0,0,1,1.86,1.4l4.34,12.4a1.82,1.82,0,0,1,.1.54c0,.66-.54,1.1-1.38,1.1a1,1,0,0,1-1-.76L20.72,12h-5l-1.46,4.5a1,1,0,0,1-1.06.76c-.82,0-1.3-.44-1.3-1a2,2,0,0,1,.1-.58Zm1.72.88c-.28,1.06-.58,2.2-.88,3.14l-.9,2.8H20.1l-.9-2.84c-.3-1-.62-2-.9-3.1Z"/><path class="cls-1" d="M34.62,2.3a1.15,1.15,0,0,1,.9-.46A1.21,1.21,0,0,1,36.78,3a1.33,1.33,0,0,1-.44,1L31.88,8.54l5.58,6.76a1.19,1.19,0,0,1,.3.82,1.22,1.22,0,0,1-1.26,1.16,1.06,1.06,0,0,1-1-.42L30.3,10.18l-1,1v4.94a1.09,1.09,0,0,1-1.22,1.14,1.13,1.13,0,0,1-1.26-1.14V3a1.13,1.13,0,0,1,1.26-1.14A1.09,1.09,0,0,1,29.3,3v5.4Z"/><path class="cls-1" d="M39.88,3a1.14,1.14,0,0,1,1.28-1.14A1.11,1.11,0,0,1,42.4,3v8.38c0,2.82,1.12,4,3.28,4S49,14,49,11.36V3a1.12,1.12,0,0,1,1.24-1.14A1.09,1.09,0,0,1,51.46,3v8.48c0,3.7-2.12,6-5.8,6s-5.78-2-5.78-6Z"/><path class="cls-1" d="M64,15.06a1,1,0,0,1,0,2h-6c-2.36,0-3-.78-3-2.7V4.72c0-1.92.66-2.7,3-2.7h5.52a.94.94,0,0,1,1,1,.94.94,0,0,1-1,1H58.5c-.92,0-1.12.26-1.12,1.06V8.2H62.3a.94.94,0,0,1,1,1,.94.94,0,0,1-1,1H57.38V14c0,.8.2,1.06,1.12,1.06Z"/><path class="cls-1" d="M71.36,4.74a.84.84,0,0,1,.88-.82.87.87,0,0,1,.9.82v4.1h4.1a.8.8,0,0,1,.82.82.82.82,0,0,1-.82.86h-4.1V14.7a.87.87,0,0,1-.9.82.84.84,0,0,1-.88-.82V10.52H67.28a.82.82,0,0,1-.82-.86.8.8,0,0,1,.82-.82h4.08Z"/><path class="cls-1" d="M92.26,9.38A13.47,13.47,0,0,1,95.68,9c3.2,0,5.22,1.48,5.22,4s-1.74,4.22-4.66,4.64A1.05,1.05,0,0,1,95,16.54a1,1,0,0,1,.92-1c2-.34,2.74-1.22,2.74-2.52,0-1.1-1-2-2.92-2a11.81,11.81,0,0,0-3.44.52V15c0,2.08-.9,2.84-2.76,2.84s-3.74-1.38-3.74-3.12c0-1.46.84-3.06,4.34-4.68V6.7c-1,.1-2,.18-2.76.18a1,1,0,0,1-1-1,1,1,0,0,1,1-1c.8,0,1.76-.08,2.76-.2v-3a1.09,1.09,0,0,1,2.16,0V4.32c.68-.12,1.34-.24,1.9-.38a1.11,1.11,0,0,1,.36,0,1,1,0,0,1,1.06,1,1,1,0,0,1-.84,1c-.74.18-1.58.36-2.48.5Zm-2.16,2.9c-1.74,1-2.1,1.64-2.1,2.42s.72,1,1.46,1c.58,0,.64-.38.64-.88ZM101.7,5.4a1.24,1.24,0,0,1,.46.94A1.17,1.17,0,0,1,101,7.48a1.22,1.22,0,0,1-.82-.34A15.39,15.39,0,0,0,97.76,5.4a1,1,0,0,1-.56-.9,1.2,1.2,0,0,1,1.14-1.18,1.09,1.09,0,0,1,.54.14A15,15,0,0,1,101.7,5.4Z"/><path class="cls-1" d="M114.84,3c1.56,0,2.36.64,2.36,1.72A3.35,3.35,0,0,1,117,5.82a18.56,18.56,0,0,1-2.74,4.78,29.73,29.73,0,0,1,5.36,4.74,1.41,1.41,0,0,1,.38.9,1.27,1.27,0,0,1-1.28,1.2,1.25,1.25,0,0,1-1-.48,30.84,30.84,0,0,0-4.92-4.7,23.14,23.14,0,0,1-6.52,5,1.3,1.3,0,0,1-.58.14,1.17,1.17,0,0,1-1.16-1.16,1.11,1.11,0,0,1,.68-1,19.28,19.28,0,0,0,9.24-9.38.75.75,0,0,0,.08-.32c0-.18-.16-.26-.5-.26l-7.16.14a1,1,0,0,1-1-1.08,1,1,0,0,1,1-1.12Z"/><path class="cls-1" d="M133.14,3c1.56,0,2.36.64,2.36,1.72a3.35,3.35,0,0,1-.22,1.08,18.56,18.56,0,0,1-2.74,4.78,29.73,29.73,0,0,1,5.36,4.74,1.41,1.41,0,0,1,.38.9,1.27,1.27,0,0,1-1.28,1.2,1.25,1.25,0,0,1-1-.48,30.84,30.84,0,0,0-4.92-4.7,23.14,23.14,0,0,1-6.52,5,1.3,1.3,0,0,1-.58.14,1.17,1.17,0,0,1-1.16-1.16,1.11,1.11,0,0,1,.68-1,19.28,19.28,0,0,0,9.24-9.38.75.75,0,0,0,.08-.32c0-.18-.16-.26-.5-.26l-7.16.14a1,1,0,0,1-1-1.08,1,1,0,0,1,1-1.12Z"/><path class="cls-1" d="M145.18,8.1a1.09,1.09,0,0,1-.62-.94A1.21,1.21,0,0,1,145.78,6a1.37,1.37,0,0,1,.66.18A28.05,28.05,0,0,1,149.22,8,28.36,28.36,0,0,0,152,2.52a1.16,1.16,0,0,1,1.12-.78,1.2,1.2,0,0,1,1.26,1.14,1.37,1.37,0,0,1-.1.48,30.74,30.74,0,0,1-3.2,6.12,30.08,30.08,0,0,1,2.78,2.58,1.47,1.47,0,0,1,.4,1,1.2,1.2,0,0,1-1.16,1.2,1.35,1.35,0,0,1-1-.48c-.68-.7-1.52-1.52-2.44-2.3A26.57,26.57,0,0,1,143,17.58a1.59,1.59,0,0,1-.78.24,1.17,1.17,0,0,1-1.18-1.16,1.28,1.28,0,0,1,.68-1.08,24.86,24.86,0,0,0,6.1-5.66A25.48,25.48,0,0,0,145.18,8.1Z"/><path class="cls-1" d="M176.54,9.68A9.68,9.68,0,1,1,166.86,0,9.69,9.69,0,0,1,176.54,9.68Zm-18.42,0A8.74,8.74,0,1,0,166.86.94,8.75,8.75,0,0,0,158.12,9.68Zm11.66,4.24c.64,0,.92.26.92.84s-.3.82-.92.82H163.9c-.56,0-.9-.36-.9-1a1.55,1.55,0,0,1,.56-1.18,33.44,33.44,0,0,0,3.58-3.56A4.45,4.45,0,0,0,168.5,7a1.58,1.58,0,0,0-1.58-1.78,2.91,2.91,0,0,0-2.14,1,.92.92,0,0,1-.7.26.88.88,0,0,1-.88-.84.86.86,0,0,1,.28-.7,4.93,4.93,0,0,1,3.4-1.38c2.24,0,3.58,1.28,3.58,3.42,0,1.38-.56,2.54-2,4-.82.86-2,2-3,2.92Z"/></g></g></svg>