<svg xmlns="http://www.w3.org/2000/svg" viewBox="0 0 178.47 38.36"><defs><style>.cls-1{fill:#fafa00;}</style></defs><g id="Layer_2" data-name="Layer 2"><g id="レイヤー_1" data-name="レイヤー 1"><path class="cls-1" d="M97.6,38.21a.73.73,0,0,1-1-.13L86.18,24.71a9.33,9.33,0,0,1,.12-11.55L96.57.28a.73.73,0,0,1,1-.12l2.7,2.14a.73.73,0,0,1,.11,1L90.14,16.23a4.42,4.42,0,0,0-.07,5.48l10.38,13.36a.73.73,0,0,1-.13,1Z"/><rect class="cls-1" x="75.8" y="2.71" width="4.91" height="32.93" rx="0.74"/><path class="cls-1" d="M125,35.64h-1.61a11,11,0,0,1-11-11V3.45a.74.74,0,0,1,.73-.74h3.44a.74.74,0,0,1,.74.74V24.62a6.1,6.1,0,0,0,6.1,6.1H125a6.1,6.1,0,0,0,6.1-6.1V3.45a.74.74,0,0,1,.74-.74h3.44a.74.74,0,0,1,.74.74V24.62A11,11,0,0,1,125,35.64Z"/><path class="cls-1" d="M170.15,35.64H159.52a11.75,11.75,0,0,1-11.74-11.75V14.45A11.74,11.74,0,0,1,159.52,2.71h10.63a.74.74,0,0,1,.73.74V6.89a.73.73,0,0,1-.73.73H159.52a6.83,6.83,0,0,0-6.83,6.83v9.44a6.83,6.83,0,0,0,6.83,6.83h10.63a.74.74,0,0,1,.73.74V34.9A.74.74,0,0,1,170.15,35.64Z"/><rect class="cls-1" x="156.55" y="16.72" width="12.6" height="4.91" rx="0.74"/><path class="cls-1" d="M58,27.3H47.48a.74.74,0,0,1-.7-1l1.1-3.44a.74.74,0,0,1,.71-.51H58Z"/><path class="cls-1" d="M13.79,21.83H11.27a1,1,0,0,0-.85,1.46l6.74,12a.75.75,0,0,0,.64.38h3.95a.74.74,0,0,0,.64-1.1L17.56,26a9.64,9.64,0,0,0,5.87-8.86V12.73A9.83,9.83,0,0,0,13.6,2.9H2.46A2.46,2.46,0,0,0,0,5.36V34.9a.74.74,0,0,0,.74.74H4.18a.74.74,0,0,0,.73-.74V8.8a1,1,0,0,1,1-1h7.7a4.91,4.91,0,0,1,4.92,4.91v4.38A4.72,4.72,0,0,1,13.79,21.83Z"/><path class="cls-1" d="M63,35.64a.74.74,0,0,0,.71-1L55.05,7.06A6.15,6.15,0,0,0,43.31,7L34.39,34.67a.74.74,0,0,0,.7,1H38.7a.75.75,0,0,0,.71-.51L48,8.53a1.24,1.24,0,0,1,2.38,0L58.7,35.12a.73.73,0,0,0,.7.52Z"/><path class="cls-1" d="M174.65,33.72a1.91,1.91,0,1,1,1.91,1.92A1.88,1.88,0,0,1,174.65,33.72Zm3.52,0a1.61,1.61,0,1,0-1.61,1.63A1.58,1.58,0,0,0,178.17,33.72Zm-2.24,1.06a.08.08,0,0,1-.09-.09v-2a.08.08,0,0,1,.09-.09h.78a.61.61,0,0,1,.68.63.56.56,0,0,1-.42.58l.42.83c0,.07,0,.1-.06.1h-.17a.13.13,0,0,1-.1-.07l-.42-.82h-.44s0,0,0,0v.78a.08.08,0,0,1-.09.09Zm1.15-1.51c0-.21-.11-.34-.38-.34h-.5s0,0,0,0v.62s0,0,0,0h.5C177,33.59,177.08,33.48,177.08,33.27Z"/></g></g></svg>