<svg xmlns="http://www.w3.org/2000/svg" viewBox="0 0 202.01 202"><defs><style>.cls-1{fill:#fff;}.cls-2{fill:none;stroke:#006795;stroke-width:2px;}.cls-3{fill:#006795;}</style></defs><g id="Layer_2" data-name="Layer 2"><g id="レイヤー_1" data-name="レイヤー 1"><path class="cls-1" d="M179.57,162.88a100,100,0,1,0-16.68,16.68l22.87,9.9a2.82,2.82,0,0,0,4-2.59,2.91,2.91,0,0,0-.23-1.12Z"/><path class="cls-2" d="M179.57,162.88a100,100,0,1,0-16.68,16.68l22.87,9.9a2.82,2.82,0,0,0,4-2.59,2.91,2.91,0,0,0-.23-1.12Z"/><path class="cls-3" d="M72.55,66.92H64.88a1.38,1.38,0,0,1,0-2.73H83.34a1.38,1.38,0,0,1,0,2.73H75.51V79.58H85a1.38,1.38,0,0,1,0,2.73H63.26a1.38,1.38,0,0,1,0-2.73h9.29Z"/><path class="cls-3" d="M92.44,75.81A22.81,22.81,0,0,1,89.86,80a1.51,1.51,0,0,1-1.17.62,1.25,1.25,0,0,1-1.27-1.25,1.43,1.43,0,0,1,.39-1,24.68,24.68,0,0,0,3.92-6.86H89A1.11,1.11,0,0,1,88,70.3,1.14,1.14,0,0,1,89,69.05H92.8c-.57-.59-1.12-1.09-1.69-1.58a1.3,1.3,0,0,1-.52-1,1.19,1.19,0,0,1,1.25-1.1,1.55,1.55,0,0,1,.91.32c.15.13.34.23.49.36A13.6,13.6,0,0,0,94.52,65a.56.56,0,0,0,.18-.29q0-.15-.39-.15H89.84a1.27,1.27,0,0,1,0-2.5h5.27c1.8,0,2.73.86,2.73,1.92a2.67,2.67,0,0,1-.78,1.77,14.4,14.4,0,0,1-2.13,1.93,1.37,1.37,0,0,1,.24.72,1.12,1.12,0,0,1-.21.65h1.58c1.62,0,2.4.76,2.4,1.82a2.62,2.62,0,0,1-.19.94,10.19,10.19,0,0,1-1.22,2.42,1.42,1.42,0,0,1-1.17.67,1.13,1.13,0,0,1-1.17-1.06,1.17,1.17,0,0,1,.26-.7,5.77,5.77,0,0,0,.76-1.25,1.23,1.23,0,0,0,.05-.21c0-.13-.13-.18-.42-.18H95V82.39c0,2-1,2.71-2.55,2.71A8.73,8.73,0,0,1,90.77,85a1.28,1.28,0,0,1-1.09-1.3,1.25,1.25,0,0,1,1.22-1.33.77.77,0,0,1,.26,0,4.2,4.2,0,0,0,.7.07c.32,0,.45-.1.45-.52V80.31Zm10.32-.41a11,11,0,0,0,.16-1.3A1.22,1.22,0,0,1,104.27,73a1.25,1.25,0,0,1,1.4,1.14v.13a7.45,7.45,0,0,1-.13,1.07l2.52,0c2.08,0,3,.81,3,2.52a16,16,0,0,1-.65,4c-.63,2.05-1.69,2.73-3.56,2.73a9.56,9.56,0,0,1-1.85-.19,1.26,1.26,0,0,1-1.07-1.27,1.35,1.35,0,0,1,1.35-1.38.74.74,0,0,1,.26,0,6.45,6.45,0,0,0,1.15.1.92.92,0,0,0,1-.7,10.92,10.92,0,0,0,.55-2.94c0-.34-.16-.47-.65-.47l-2.57,0a11,11,0,0,1-6.22,7,1.28,1.28,0,0,1-.62.13,1.35,1.35,0,0,1-1.33-1.32,1.41,1.41,0,0,1,.94-1.3,8,8,0,0,0,4.39-4.47l-3.3.05a1.08,1.08,0,0,1-1-1.2,1.1,1.1,0,0,1,1-1.22Zm7-9A13.09,13.09,0,0,1,107.26,70a16.37,16.37,0,0,0,3.9,1.56,1.34,1.34,0,0,1-.24,2.66,2.06,2.06,0,0,1-.52-.08,17.67,17.67,0,0,1-5.09-2.45,17,17,0,0,1-4.81,2.45,1.59,1.59,0,0,1-.45.08,1.24,1.24,0,0,1-.26-2.45A13.2,13.2,0,0,0,103.33,70a15.56,15.56,0,0,1-1.79-2.08,9.37,9.37,0,0,1-.76.78,1.5,1.5,0,0,1-1,.41,1.29,1.29,0,0,1-1.32-1.22,1.34,1.34,0,0,1,.44-.94,16.21,16.21,0,0,0,3.3-4.86,1.43,1.43,0,0,1,2.73.34,1.2,1.2,0,0,1-.1.52c-.16.34-.31.7-.52,1.07h6.52c.68,0,1,.57,1,1.17a1,1,0,0,1-1,1.17Zm-6.48,0a12.34,12.34,0,0,0,1.93,2.1,11.82,11.82,0,0,0,1.61-2.1Z"/><path class="cls-3" d="M125.27,61.83c0-.73.71-1.07,1.41-1.07s1.4.34,1.4,1.07V64h8.38c.67,0,1,.62,1,1.25s-.34,1.25-1,1.25H120.7c-1.17,0-1.51.33-1.51,1.22V71c0,5-.83,9-2.57,12.25a1.6,1.6,0,0,1-1.43.93,1.37,1.37,0,0,1-1.41-1.35A1.9,1.9,0,0,1,114,82c1.53-2.88,2.28-6.37,2.28-11V67.1c0-2.13,1-3.09,3.7-3.09h5.27Zm.68,6.65a1.41,1.41,0,0,1,2.76,0v2h6.78a1.27,1.27,0,0,1,0,2.5h-6.78V76h2.83c2.68,0,3.62.86,3.62,2.78V82c0,2.39-1.51,2.78-3.62,2.78h-7.07c-2.68,0-3.62-.86-3.62-2.78V78.8c0-1.92.94-2.78,3.62-2.78H126Zm5.33,13.89c.91,0,1.09-.21,1.09-.86V79.27c0-.65-.18-.86-1.09-.86h-6.55c-.91,0-1.09.21-1.09.86v2.24c0,.73.28.86,1.09.86Z"/><path class="cls-3" d="M25.11,106.59a1.42,1.42,0,0,1-1.56,1.35A1.42,1.42,0,0,1,22,106.59V96.37A1.43,1.43,0,0,1,23.55,95a1.43,1.43,0,0,1,1.56,1.38ZM32,95.93a1.42,1.42,0,0,1,1.59-1.32,1.39,1.39,0,0,1,1.53,1.32v7.72c0,6.58-2.8,10.56-7.82,12.95a2,2,0,0,1-.78.21,1.49,1.49,0,0,1-.57-2.89c4.34-2.13,6-5.27,6-10.47Z"/><path class="cls-3" d="M55.09,96.71c2.73,0,3.79,1,3.79,2.71a6.4,6.4,0,0,1-.18,1.48,22,22,0,0,1-12.09,14.45,1.84,1.84,0,0,1-.86.21,1.51,1.51,0,0,1-1.5-1.53,1.55,1.55,0,0,1,.91-1.38c5.74-3,9-7.15,10.34-11.8a1.83,1.83,0,0,0,.08-.52c0-.5-.34-.68-1.09-.68L42,99.81a1.48,1.48,0,0,1-1.51-1.54,1.37,1.37,0,0,1,1.38-1.43Z"/><path class="cls-3" d="M65.05,105.14a1.19,1.19,0,0,1,0-2.37h7.72l-.1-3.46c0-.7.64-1.09,1.32-1.09a1.15,1.15,0,0,1,1.27,1l.08,3.51h4.32a1.19,1.19,0,0,1,0,2.37H75.39l.19,8.34v.13a2.58,2.58,0,0,1-2.81,2.84,13.32,13.32,0,0,1-1.72-.13,1.22,1.22,0,0,1-1.12-1.23,1.18,1.18,0,0,1,1.17-1.24c.42,0,.81.07,1.23.07s.7-.13.7-.7v-.1l0-1.82v-4.19a26.9,26.9,0,0,1-8.06,7,1.38,1.38,0,0,1-.67.18,1.26,1.26,0,0,1-.5-2.42,23.6,23.6,0,0,0,7.72-6.73Z"/><path class="cls-3" d="M103.29,103.76a1.48,1.48,0,0,1,0,3h-19a1.48,1.48,0,0,1,0-3Z"/><path class="cls-3" d="M122.66,110.13a35,35,0,0,0-2.47-3.51,1.56,1.56,0,0,1-.34-.89,1.43,1.43,0,0,1,1.49-1.3,1.73,1.73,0,0,1,1.32.65,41.37,41.37,0,0,1,5.23,8.09,1.9,1.9,0,0,1,.18.78,1.58,1.58,0,0,1-1.61,1.53,1.46,1.46,0,0,1-1.35-.91c-.29-.65-.65-1.3-1-2a125,125,0,0,1-14.82,2c-.41,0-1,.08-1.17.08a1.49,1.49,0,0,1,0-3l2.21-.13a129.37,129.37,0,0,0,5-15.7,1.49,1.49,0,0,1,1.54-1.12,1.53,1.53,0,0,1,1.66,1.43,2,2,0,0,1,0,.39,121.57,121.57,0,0,1-4.81,14.72C116.66,111,119.67,110.6,122.66,110.13Z"/><path class="cls-3" d="M154.1,101.86a1.58,1.58,0,0,1,1,1.4,1.39,1.39,0,0,1-1.41,1.43,1.86,1.86,0,0,1-.91-.23,35.56,35.56,0,0,1-10.11-8,38.83,38.83,0,0,1-10.09,8.4,1.37,1.37,0,0,1-2.08-1.17,1.46,1.46,0,0,1,.81-1.25,34.41,34.41,0,0,0,10.24-9.08,1.6,1.6,0,0,1,1.28-.65A1.37,1.37,0,0,1,144.24,94a1.15,1.15,0,0,1-.08.42A32.36,32.36,0,0,0,154.1,101.86ZM141.88,109a48.09,48.09,0,0,1-2.58,4.53c2.34-.18,4.68-.37,7-.68-.37-.39-.76-.75-1.1-1.06a1.22,1.22,0,0,1-.44-.89,1.33,1.33,0,0,1,1.38-1.22,1.63,1.63,0,0,1,1,.39,30.11,30.11,0,0,1,4.4,4.5,1.75,1.75,0,0,1,.41,1,1.36,1.36,0,0,1-1.4,1.3,1.67,1.67,0,0,1-1.35-.73c-.29-.39-.63-.81-1-1.2a120.55,120.55,0,0,1-13,1.41c-.19,0-.81,0-1.07,0a1.28,1.28,0,0,1-1.3-1.33,1.29,1.29,0,0,1,1.33-1.32l1.79-.08a41.75,41.75,0,0,0,2.73-4.71h-5.36a1.18,1.18,0,0,1-1.14-1.27,1.16,1.16,0,0,1,1.14-1.27h18.8a1.15,1.15,0,0,1,1.15,1.27,1.17,1.17,0,0,1-1.15,1.27Zm5-7.25A1.15,1.15,0,0,1,148,103a1.17,1.17,0,0,1-1.15,1.28h-8.19a1.18,1.18,0,0,1-1.14-1.28,1.16,1.16,0,0,1,1.14-1.27Z"/><path class="cls-3" d="M163,116.21c0,.73-.68,1.09-1.35,1.09s-1.38-.36-1.38-1.09V108c-.6.49-1.2.93-1.8,1.35a1.41,1.41,0,0,1-.85.28,1.28,1.28,0,0,1-1.25-1.27,1.37,1.37,0,0,1,.67-1.14,17.36,17.36,0,0,0,5.91-6.56.75.75,0,0,0,.07-.28c0-.18-.15-.26-.46-.26h-4.63c-.65,0-1-.63-1-1.25s.31-1.22,1-1.22h2.34V94.06c0-.73.67-1.07,1.38-1.07s1.35.34,1.35,1.07v3.59h.75c1.48,0,2.32.67,2.32,1.87a3.86,3.86,0,0,1-.34,1.46,17.1,17.1,0,0,1-2.52,4,16.87,16.87,0,0,1,3,1.82,1.38,1.38,0,0,1,.63,1.09,1.27,1.27,0,0,1-1.23,1.25,1.34,1.34,0,0,1-.85-.34,15.65,15.65,0,0,0-1.77-1.22ZM171.75,105H168a1.22,1.22,0,0,1-1.15-1.33,1.2,1.2,0,0,1,1.15-1.32h3.74V94.71a1.47,1.47,0,0,1,2.91,0v7.62h4.21a1.19,1.19,0,0,1,1.15,1.32,1.21,1.21,0,0,1-1.15,1.33h-4.21v8.42h5a1.18,1.18,0,0,1,1.14,1.33,1.2,1.2,0,0,1-1.14,1.33H166.39a1.22,1.22,0,0,1-1.14-1.33,1.2,1.2,0,0,1,1.14-1.33h5.36Z"/><path class="cls-3" d="M84.29,129.44a28.48,28.48,0,0,0,1.32-3.33A1.51,1.51,0,0,1,87.09,125a1.39,1.39,0,0,1,1.49,1.33,1.67,1.67,0,0,1-.11.57,20,20,0,0,1-1.19,2.52H94.4c2.57,0,3.67,1.12,3.67,3.07v13.13c0,2.26-1,3.2-3.38,3.2a7.88,7.88,0,0,1-1.72-.19,1.38,1.38,0,0,1,.21-2.73,1.42,1.42,0,0,1,.34,0,5.63,5.63,0,0,0,1.06.13c.47,0,.68-.18.68-.81V133.13c0-.7-.26-1.14-1.25-1.14H81.22c-1,0-1.25.44-1.25,1.14v14.69a1.42,1.42,0,0,1-2.81,0V132.51c0-1.95,1.09-3.07,3.67-3.07Zm1.58,14c-2.42,0-3.17-.78-3.17-2.57v-3.59c0-1.8.75-2.58,3.17-2.58h3.38c2.42,0,3.17.78,3.17,2.58v3.59c0,2.21-1.19,2.57-3.17,2.57Zm3.07-2.29c.73,0,.88-.18.88-.7v-2.76c0-.52-.15-.7-.88-.7H86.18c-.72,0-.88.18-.88.7v2.76c0,.62.31.7.88.7Z"/><path class="cls-3" d="M106.28,126.79a1.39,1.39,0,0,1,1.51,1.3,2.8,2.8,0,0,1-.05.36,44.34,44.34,0,0,0-1.2,10.17,35.84,35.84,0,0,0,.55,6.19,2.6,2.6,0,0,1,0,.39,1.42,1.42,0,0,1-1.51,1.4,1.45,1.45,0,0,1-1.48-1.17,32.94,32.94,0,0,1-.62-6.79,45.15,45.15,0,0,1,1.3-10.79A1.41,1.41,0,0,1,106.28,126.79ZM117.41,135c-1.12.08-2.21.13-3.2.13s-1.56,0-2.23-.05a1.29,1.29,0,0,1-1.25-1.35,1.25,1.25,0,0,1,1.25-1.33c.72,0,1.43.05,2.15.05,1,0,2.14-.05,3.2-.13,0-1.56-.1-2.36-.21-3.92,0-.16-.05-.57-.05-.78a1.27,1.27,0,0,1,1.43-1.22,1.3,1.3,0,0,1,1.43,1.14c.13,1.46.21,3,.26,4.52.94-.13,1.82-.26,2.6-.41a.86.86,0,0,1,.26,0,1.3,1.3,0,0,1,1.3,1.33,1.26,1.26,0,0,1-1,1.27c-.93.18-2,.37-3.07.5,0,.65,0,1.3,0,2,0,5-1.35,8.73-3.54,11.2a1.57,1.57,0,0,1-1.19.57,1.44,1.44,0,0,1-1.48-1.37,1.52,1.52,0,0,1,.41-1c1.9-2.24,2.94-5.1,2.94-9.36Z"/></g></g></svg>