<svg xmlns="http://www.w3.org/2000/svg" viewBox="0 0 141.62 141.63"><defs><style>.cls-1{fill:#006795;}.cls-2{fill:none;stroke:#006795;stroke-width:1.62px;}.cls-3{fill:#fff;}</style></defs><g id="Layer_2" data-name="Layer 2"><g id="レイヤー_1" data-name="レイヤー 1"><path class="cls-1" d="M70.81.81a70,70,0,0,0-55,113.31l-6.94,16a2,2,0,0,0,1.81,2.76,2,2,0,0,0,.79-.17l16-6.93A70,70,0,1,0,70.81.81Z"/><path class="cls-2" d="M70.81.81a70,70,0,0,0-55,113.31l-6.94,16a2,2,0,0,0,1.81,2.76,2,2,0,0,0,.79-.17l16-6.93A70,70,0,1,0,70.81.81Z"/><path class="cls-3" d="M60,47.49a24.17,24.17,0,0,0,1.76-3.41,1.41,1.41,0,0,1,2.68.44,1.17,1.17,0,0,1-.13.57,20.65,20.65,0,0,1-1.27,2.4H64.9c2.33,0,3.25.83,3.25,2.6V52a1.26,1.26,0,0,1-1.41,1.14A1.28,1.28,0,0,1,65.31,52V50.55c0-.65-.18-.8-1-.8H49.55c-.85,0-1,.15-1,.8v1.59c0,.73-.7,1.12-1.4,1.12s-1.43-.39-1.43-1.12v-2c0-1.77.91-2.6,3.25-2.6H51a1.51,1.51,0,0,1-.71-.65,16.69,16.69,0,0,0-1-1.62,1,1,0,0,1-.2-.62,1.33,1.33,0,0,1,1.4-1.17,1.39,1.39,0,0,1,1.12.55,9.63,9.63,0,0,1,1.09,1.71,1.2,1.2,0,0,1-.73,1.8Zm-6.5,10.29c-2.16,0-3-.67-3-2.21V53.65c0-1.54.83-2.24,3-2.24H60.4c2.15,0,3,.7,3,2.24v1.92c0,1.54-.84,2.21-3,2.21H57.72a20,20,0,0,1-.78,1.93h5.43c2.45,0,3.33.78,3.33,2.44v2.29c0,1.66-.88,2.44-3.33,2.44H51.63c-2.44,0-3.32-.78-3.32-2.44V62.15c0-1.66.88-2.44,3.32-2.44h2.53c.28-.63.54-1.28.8-1.93ZM62,64.7c.78,0,1-.18,1-.7V62.51c0-.52-.2-.67-1-.67H52c-.75,0-1,.15-1,.67V64c0,.65.42.7,1,.7Zm-2-8.92c.49,0,.83,0,.83-.6V54.06c0-.46-.16-.59-.83-.59H54c-.67,0-.83.13-.83.59v1.12c0,.47.16.6.83.6ZM58.08,45.35a1.26,1.26,0,0,1,.13.6,1.28,1.28,0,0,1-1.35,1.2,1.31,1.31,0,0,1-1.22-.78,17.59,17.59,0,0,0-.83-1.61,1.13,1.13,0,0,1-.21-.65A1.25,1.25,0,0,1,55.92,43a1.36,1.36,0,0,1,1.2.65A14.71,14.71,0,0,1,58.08,45.35Z"/><path class="cls-3" d="M73.45,54.17a1.11,1.11,0,0,1,0-2.19H78.8l0-.07c-.26-.39-.49-.76-.75-1.1a1.09,1.09,0,0,1-.26-.67.94.94,0,0,1,.47-.81h-6a1.15,1.15,0,0,1,0-2.26h4a1.39,1.39,0,0,1-.54-.49,11,11,0,0,0-1-1.28,1,1,0,0,1-.29-.67,1.24,1.24,0,0,1,1.28-1.12,1.36,1.36,0,0,1,1,.41,7.15,7.15,0,0,1,1.09,1.28,1.56,1.56,0,0,1,.31.86,1.16,1.16,0,0,1-.7,1h2v-3.2c0-.73.65-1.06,1.3-1.06s1.3.33,1.3,1.06v3.2h1.82v-3.2c0-.73.65-1.06,1.33-1.06s1.3.33,1.3,1.06v3.2H88.4a1.11,1.11,0,0,1-.68-1,1.13,1.13,0,0,1,.29-.75A8.94,8.94,0,0,0,89,44a1.23,1.23,0,0,1,1.09-.62,1.29,1.29,0,0,1,1.33,1.14,1.41,1.41,0,0,1-.21.63A10.21,10.21,0,0,1,90,46.76a1.53,1.53,0,0,1-.41.31h4a1.14,1.14,0,0,1,0,2.26h-6a.93.93,0,0,1,.44.78,1.05,1.05,0,0,1-.16.55,13.56,13.56,0,0,1-.8,1.32h5.72a1.11,1.11,0,0,1,0,2.19H84.19v1.32h6.44c.63,0,.91.52.91,1.07a1,1,0,0,1-.91,1.07H84.19V59h9.07a1.1,1.1,0,0,1,0,2.19H85.88A31.18,31.18,0,0,0,94,64.05a1.27,1.27,0,0,1-.21,2.52,4.24,4.24,0,0,1-.44,0,30.29,30.29,0,0,1-9.25-4L84.19,65v1.56c0,.68-.65,1-1.33,1s-1.33-.33-1.33-1V65l.11-2.37a31.51,31.51,0,0,1-9.13,4.09,3.26,3.26,0,0,1-.41,0,1.18,1.18,0,0,1-.24-2.34,30.41,30.41,0,0,0,8-3.25H72.54a1.1,1.1,0,0,1,0-2.19h9V57.63H75.24a1,1,0,0,1-.91-1.07,1,1,0,0,1,.91-1.07h6.29V54.17ZM84.16,52a13.33,13.33,0,0,0,1.17-2.08,1.52,1.52,0,0,1,.47-.57h-6a.89.89,0,0,1,.26.21,10.43,10.43,0,0,1,.86,1.2,1.09,1.09,0,0,1,.18.59,1,1,0,0,1-.26.65Z"/><path class="cls-3" d="M33.58,89.39a1.53,1.53,0,0,1-3,0V84.87h-4a1.3,1.3,0,0,1,0-2.6h4V78a1.53,1.53,0,0,1,3,0v4.27h5.87V77.64a1.53,1.53,0,0,1,3,0v4.63H47a1.3,1.3,0,0,1,0,2.6H42.47v.8c0,6.32-2.89,10.48-7.62,12.61a1.62,1.62,0,0,1-.7.16A1.45,1.45,0,0,1,32.69,97a1.48,1.48,0,0,1,1-1.37c3.84-1.85,5.79-4.74,5.79-10.14v-.6H33.58Z"/><path class="cls-3" d="M56.64,86.64A1.45,1.45,0,0,1,58.15,88a1.57,1.57,0,0,1-.13.65,17.38,17.38,0,0,1-3.72,5.62,1.72,1.72,0,0,1-1.22.54,1.5,1.5,0,0,1-1.54-1.4,1.56,1.56,0,0,1,.55-1.15,14.76,14.76,0,0,0,3.14-4.73A1.49,1.49,0,0,1,56.64,86.64Zm7.59,8.42c0,2.63-1.3,3.64-3.56,3.64a11.25,11.25,0,0,1-2-.16,1.44,1.44,0,0,1-1.23-1.48A1.48,1.48,0,0,1,58.9,95.5a1.06,1.06,0,0,1,.29,0,6.45,6.45,0,0,0,1.12.1c.57,0,.8-.18.8-.93V84.17H53.57a1.28,1.28,0,0,1-1.25-1.38,1.27,1.27,0,0,1,1.25-1.38h7.54V77.54a1.43,1.43,0,0,1,1.59-1.33,1.36,1.36,0,0,1,1.53,1.27v3.93h7.44a1.27,1.27,0,0,1,1.25,1.38,1.28,1.28,0,0,1-1.25,1.38H64.23ZM72.81,92a1.92,1.92,0,0,1,.5,1.19,1.56,1.56,0,0,1-1.56,1.51,1.79,1.79,0,0,1-1.46-.81,32,32,0,0,1-3.12-5.25,1.76,1.76,0,0,1-.16-.67,1.39,1.39,0,0,1,1.49-1.33,1.55,1.55,0,0,1,1.43.88A26.6,26.6,0,0,0,72.81,92Zm1.61-14.1a2.8,2.8,0,1,1-2.78-2.78A2.76,2.76,0,0,1,74.42,77.87Zm-1.3,0a1.46,1.46,0,0,0-1.48-1.48,1.49,1.49,0,0,0-1.51,1.48,1.51,1.51,0,0,0,1.51,1.51A1.48,1.48,0,0,0,73.12,77.87Z"/><path class="cls-3" d="M95.9,85.83a1.48,1.48,0,0,1,0,3h-19a1.48,1.48,0,0,1,0-3Z"/><path class="cls-3" d="M106.33,84.58a1.46,1.46,0,0,1,1.27-.8,1.71,1.71,0,0,1,.68.15,31,31,0,0,1,5.51,3.33,1.67,1.67,0,0,1,.73,1.35A1.52,1.52,0,0,1,113,90.15a1.82,1.82,0,0,1-1.09-.39,45,45,0,0,0-4.86-3.12,1.88,1.88,0,0,1-.75-.73v11.2a1.55,1.55,0,0,1-3.07,0V77.28a1.54,1.54,0,0,1,3.07,0Z"/></g></g></svg>