<svg xmlns="http://www.w3.org/2000/svg" viewBox="0 0 141.63 141.62"><defs><style>.cls-1{fill:#006795;}.cls-2{fill:none;stroke:#006795;stroke-width:1.62px;}.cls-3{fill:#fff;}</style></defs><g id="Layer_2" data-name="Layer 2"><g id="レイヤー_1" data-name="レイヤー 1"><path class="cls-1" d="M70.82.81a69.64,69.64,0,0,0-43.3,15l-16-6.94A2,2,0,0,0,9.3,9.3a2,2,0,0,0-.57,1.4,2,2,0,0,0,.16.79l6.94,16A70,70,0,1,0,70.82.81Z"/><path class="cls-2" d="M70.82.81a69.64,69.64,0,0,0-43.3,15l-16-6.94A2,2,0,0,0,9.3,9.3a2,2,0,0,0-.57,1.4,2,2,0,0,0,.16.79l6.94,16A70,70,0,1,0,70.82.81Z"/><path class="cls-3" d="M60,47.48a25.28,25.28,0,0,0,1.77-3.41,1.32,1.32,0,0,1,1.25-.8,1.34,1.34,0,0,1,1.43,1.25,1.36,1.36,0,0,1-.13.57,21.33,21.33,0,0,1-1.28,2.39H64.9c2.34,0,3.25.83,3.25,2.6V52a1.25,1.25,0,0,1-1.4,1.14c-.71,0-1.43-.39-1.43-1.14V50.55c0-.65-.19-.81-1-.81H49.56c-.86,0-1,.16-1,.81v1.58c0,.73-.7,1.12-1.4,1.12s-1.44-.39-1.44-1.12V50.08c0-1.77.91-2.6,3.25-2.6H51a1.36,1.36,0,0,1-.7-.65,17.42,17.42,0,0,0-1-1.61,1,1,0,0,1-.21-.63,1.33,1.33,0,0,1,1.4-1.17,1.37,1.37,0,0,1,1.12.55,9.16,9.16,0,0,1,1.09,1.72A1.18,1.18,0,0,1,52,47.48Zm-6.5,10.3c-2.16,0-3-.68-3-2.21V53.64c0-1.53.83-2.23,3-2.23H60.4c2.16,0,3,.7,3,2.23v1.93c0,1.53-.83,2.21-3,2.21H57.72a16.78,16.78,0,0,1-.78,1.92h5.44c2.44,0,3.33.78,3.33,2.45v2.28c0,1.67-.89,2.45-3.33,2.45H51.64c-2.44,0-3.33-.78-3.33-2.45V62.15c0-1.67.89-2.45,3.33-2.45h2.52c.29-.62.55-1.27.81-1.92ZM62,64.69c.78,0,1-.18,1-.7V62.51c0-.52-.21-.68-1-.68H52c-.75,0-1,.16-1,.68V64c0,.65.41.7,1,.7Zm-2-8.91c.5,0,.84,0,.84-.6V54.06c0-.47-.16-.6-.84-.6H54c-.68,0-.83.13-.83.6v1.12c0,.47.15.6.83.6ZM58.09,45.35a1.36,1.36,0,0,1,.13.6,1.28,1.28,0,0,1-1.35,1.19,1.3,1.3,0,0,1-1.23-.78,15.39,15.39,0,0,0-.83-1.61,1.16,1.16,0,0,1-.21-.65A1.25,1.25,0,0,1,55.93,43a1.34,1.34,0,0,1,1.19.65A13.58,13.58,0,0,1,58.09,45.35Z"/><path class="cls-3" d="M73.45,54.16a1.1,1.1,0,0,1,0-2.18h5.36l0-.08c-.26-.39-.5-.75-.76-1.09a1.14,1.14,0,0,1-.26-.68.94.94,0,0,1,.47-.8H72.26a1.15,1.15,0,0,1,0-2.27h3.95a1.41,1.41,0,0,1-.55-.49,9.14,9.14,0,0,0-1-1.27,1.06,1.06,0,0,1-.28-.68,1.24,1.24,0,0,1,1.27-1.12,1.32,1.32,0,0,1,1,.42,7.49,7.49,0,0,1,1.1,1.27,1.65,1.65,0,0,1,.31.86,1.16,1.16,0,0,1-.7,1h2V43.87c0-.73.65-1.07,1.3-1.07s1.3.34,1.3,1.07v3.19H83.7V43.87c0-.73.65-1.07,1.32-1.07s1.3.34,1.3,1.07v3.19H88.4a1.09,1.09,0,0,1-.67-1,1.2,1.2,0,0,1,.28-.76A9.61,9.61,0,0,0,89,44a1.21,1.21,0,0,1,1.09-.63,1.29,1.29,0,0,1,1.32,1.15,1.31,1.31,0,0,1-.2.62A11.62,11.62,0,0,1,90,46.75a1.39,1.39,0,0,1-.42.31h4a1.15,1.15,0,0,1,0,2.27h-6a.93.93,0,0,1,.44.78,1.1,1.1,0,0,1-.15.54A12,12,0,0,1,87.05,52h5.72a1.1,1.1,0,0,1,0,2.18H84.19v1.33h6.45a1.08,1.08,0,0,1,0,2.13H84.19V59h9.08a1.1,1.1,0,0,1,0,2.18H85.88A30.76,30.76,0,0,0,94,64a1.24,1.24,0,0,1,1,1.25,1.22,1.22,0,0,1-1.25,1.28,2.43,2.43,0,0,1-.44-.06,30.1,30.1,0,0,1-9.26-4L84.19,65v1.56c0,.67-.65,1-1.32,1s-1.33-.34-1.33-1V65l.1-2.37a31.82,31.82,0,0,1-9.12,4.08,2.27,2.27,0,0,1-.42,0,1.18,1.18,0,0,1-.23-2.34,30,30,0,0,0,7.95-3.25H72.54a1.1,1.1,0,0,1,0-2.18h9V57.62H75.25a1.08,1.08,0,0,1,0-2.13h6.29V54.16ZM84.16,52a13,13,0,0,0,1.17-2.08,1.61,1.61,0,0,1,.47-.57h-6a1.28,1.28,0,0,1,.26.2,9.27,9.27,0,0,1,.85,1.2,1.16,1.16,0,0,1,.19.6,1.06,1.06,0,0,1-.26.65Z"/><path class="cls-3" d="M33.58,89.39a1.35,1.35,0,0,1-1.51,1.27,1.34,1.34,0,0,1-1.5-1.27V84.86h-4a1.31,1.31,0,0,1,0-2.6h4V78a1.52,1.52,0,0,1,3,0v4.26h5.88V77.63a1.53,1.53,0,0,1,3,0v4.63H47a1.3,1.3,0,0,1,0,2.6H42.47v.81c0,6.32-2.88,10.48-7.61,12.61a1.83,1.83,0,0,1-.71.16A1.46,1.46,0,0,1,32.7,97a1.5,1.5,0,0,1,1-1.38c3.85-1.84,5.8-4.73,5.8-10.14v-.6H33.58Z"/><path class="cls-3" d="M56.64,86.63A1.46,1.46,0,0,1,58.15,88a1.48,1.48,0,0,1-.13.65A17.08,17.08,0,0,1,54.3,94.3a1.73,1.73,0,0,1-1.22.55,1.5,1.5,0,0,1-1.53-1.41,1.51,1.51,0,0,1,.54-1.14,15.06,15.06,0,0,0,3.15-4.73A1.49,1.49,0,0,1,56.64,86.63Zm7.6,8.43c0,2.62-1.3,3.64-3.57,3.64a11.32,11.32,0,0,1-2-.16,1.45,1.45,0,0,1-1.22-1.48,1.5,1.5,0,0,1,1.74-1.54,6.81,6.81,0,0,0,1.12.11c.57,0,.81-.18.81-.94V84.16H53.58a1.39,1.39,0,0,1,0-2.76h7.54V77.53A1.43,1.43,0,0,1,62.7,76.2a1.37,1.37,0,0,1,1.54,1.28V81.4h7.43a1.39,1.39,0,0,1,0,2.76H64.24ZM72.82,92a2,2,0,0,1,.49,1.2,1.55,1.55,0,0,1-1.56,1.51,1.83,1.83,0,0,1-1.46-.81,32,32,0,0,1-3.12-5.25,1.78,1.78,0,0,1-.15-.68,1.38,1.38,0,0,1,1.48-1.32,1.54,1.54,0,0,1,1.43.88A26.19,26.19,0,0,0,72.82,92Zm1.61-14.09a2.8,2.8,0,1,1-2.78-2.78A2.76,2.76,0,0,1,74.43,77.87Zm-1.3,0a1.46,1.46,0,0,0-1.48-1.48,1.48,1.48,0,0,0-1.51,1.48,1.51,1.51,0,0,0,1.51,1.51A1.49,1.49,0,0,0,73.13,77.87Z"/><path class="cls-3" d="M95.9,85.83a1.38,1.38,0,0,1,1.41,1.48,1.4,1.4,0,0,1-1.41,1.48h-19a1.39,1.39,0,0,1-1.4-1.48,1.38,1.38,0,0,1,1.4-1.48Z"/><path class="cls-3" d="M106.33,84.58a1.49,1.49,0,0,1,1.27-.81,1.51,1.51,0,0,1,.68.16,29.51,29.51,0,0,1,5.51,3.33,1.67,1.67,0,0,1,.73,1.35A1.51,1.51,0,0,1,113,90.14a1.72,1.72,0,0,1-1.09-.39,47.18,47.18,0,0,0-4.87-3.12,1.89,1.89,0,0,1-.75-.73V97.11a1.38,1.38,0,0,1-1.53,1.35,1.4,1.4,0,0,1-1.54-1.35V77.27a1.42,1.42,0,0,1,1.54-1.38,1.41,1.41,0,0,1,1.53,1.38Z"/></g></g></svg>