<svg xmlns="http://www.w3.org/2000/svg" viewBox="0 0 174.35 174.34"><defs><style>.cls-3{fill:#006795}</style></defs><g id="Layer_2" data-name="Layer 2"><g id="レイヤー_1" data-name="レイヤー 1"><path d="M154.87 140.47a86.3 86.3 0 10-14.39 14.38l19.73 8.55a2.43 2.43 0 003.4-2.23 2.51 2.51 0 00-.2-1z" fill="#fafa00"/><path d="M154.87 140.47a86.3 86.3 0 10-14.39 14.38l19.73 8.55a2.43 2.43 0 003.4-2.23 2.51 2.51 0 00-.2-1z" fill="none" stroke="#006795" stroke-width="2"/><path class="cls-3" d="M62.47 110.29a1.51 1.51 0 013 0 44.94 44.94 0 00.6 7.62 34.55 34.55 0 015.12-2 1.55 1.55 0 01.47-.08 1.42 1.42 0 011.34 1.43 1.29 1.29 0 01-1 1.27 30.22 30.22 0 00-6.84 3c-2.24 1.45-3 2.88-3 4.21 0 1.61 1.07 2.44 5.2 2.44a28.15 28.15 0 005.38-.47 2.12 2.12 0 01.34 0 1.37 1.37 0 011.41 1.43 1.43 1.43 0 01-1.17 1.45 29.61 29.61 0 01-6 .5c-5.46 0-8.19-1.67-8.19-5.18 0-2.13 1-4.23 4.23-6.44a41.58 41.58 0 01-.89-9.18zm19.79-.63a1.38 1.38 0 011.51 1.28 1 1 0 010 .28A49.82 49.82 0 0082.36 122a68.76 68.76 0 00.57 7.72v.24a1.43 1.43 0 01-1.51 1.3 1.38 1.38 0 01-1.42-1.21 49.84 49.84 0 01-.6-8.11 50.94 50.94 0 011.43-11.26 1.36 1.36 0 011.43-1.02zm12.84 4.79c1-.11 2-.26 2.86-.42a2.12 2.12 0 01.34 0 1.17 1.17 0 011.22 1.24 1.37 1.37 0 01-1.14 1.38c-1 .21-2.13.37-3.25.5 0 2.23.08 4.47.31 6.68a17.84 17.84 0 014.34 2.42 1.56 1.56 0 01.71 1.27 1.41 1.41 0 01-1.38 1.4 1.67 1.67 0 01-1-.39 21.2 21.2 0 00-2.57-1.71c-.29 2.16-1.77 3.72-5 3.72-2.91 0-4.73-1.46-4.73-3.8 0-2.16 1.74-3.77 5.12-3.77a13.06 13.06 0 011.72.13c-.16-1.9-.21-3.8-.23-5.69-1.12.07-2.22.1-3.23.1a12.92 12.92 0 01-1.43 0 1.31 1.31 0 01-1.19-1.38 1.22 1.22 0 011.24-1.3h1.38c1 0 2.08 0 3.2-.1v-3.88a1.36 1.36 0 012.7 0zm-2.31 11.23a7.41 7.41 0 00-1.85-.29c-1.82 0-2.39.58-2.39 1.33s.7 1.22 2 1.22a2 2 0 002.24-2.26zm16.85-1.92a1.15 1.15 0 01-1.28 1.22 1.17 1.17 0 01-1.27-1.22v-.58c0-2.05.49-3.27 2.6-4.88 1.66-1.28 2.08-2.11 2.08-3.46 0-1.74-1.2-2.68-3-2.68a4.54 4.54 0 00-4 2.29 1.21 1.21 0 01-1 .52 1.46 1.46 0 01-1.53-1.3 1.66 1.66 0 01.36-1 7.46 7.46 0 016.16-3c3.62 0 6.11 2 6.11 5.15 0 2.24-.75 3.56-2.91 5.1-1.9 1.32-2.31 2.13-2.31 3.35zm.75 4.86a2 2 0 01-4 0 2 2 0 014 0zM62 53.88a16.82 16.82 0 00-1.69.06c-.11 0-.15 0-.18-.16a6.17 6.17 0 01-.08-.75c.61.06 1.23.08 2 .08h4.29a1.36 1.36 0 00.59-.08c.14-.07.2-.08.32 0a2.64 2.64 0 01.45.43c.12.16.11.23 0 .33a.85.85 0 00-.27.4 10.43 10.43 0 01-5.06 5.41c-.15.08-.23.08-.33 0a2 2 0 00-.67-.37 9.87 9.87 0 005.22-5.34zm1-2.49h-1.7c-.11 0-.13 0-.14-.16a5.37 5.37 0 01-.06-.72 17 17 0 002 .08h1.86c.76 0 1.28 0 1.86-.06.11 0 .13 0 .13.14a4.86 4.86 0 010 .54c0 .14 0 .17-.15.16h-1.79zm23.06.4c.36 0 .47 0 .6-.13s.18 0 .31.05a3.39 3.39 0 01.48.4c.14.14.12.26 0 .36a1.12 1.12 0 00-.31.42 16.54 16.54 0 01-2.31 3.74 15.11 15.11 0 01-3.74 3.1.21.21 0 01-.27 0 1.58 1.58 0 00-.67-.35 13.66 13.66 0 006.22-6.85l-3.45.1a17.7 17.7 0 01-2.37 2.56.27.27 0 01-.38 0 1.44 1.44 0 00-.61-.25 12.93 12.93 0 003.13-3.49 3.51 3.51 0 00.6-1.5 2.7 2.7 0 01.9.42.17.17 0 010 .31 1.33 1.33 0 00-.36.41c-.18.28-.31.51-.48.75zm18.71 5.33h4.29c.12 0 .17 0 .17.14v.56c0 .12 0 .15-.17.15h-7.27c-.59 0-1.41 0-1.94.06-.13 0-.17 0-.19-.18a4.71 4.71 0 01-.06-.71c.78.06 1.45.06 2.19.06h2.1v-4.59h-1.17c-.72 0-1.26 0-1.83.06-.11 0-.12 0-.14-.18a4.83 4.83 0 010-.71c.65 0 1.18.06 2 .06h5.21c.1 0 .12 0 .12.12v.57c0 .12 0 .16-.14.16h-3.07zM93.34 98.66a.54.54 0 01-.76-.09l-7.65-9.85a6.87 6.87 0 01.08-8.5l7.57-9.49a.54.54 0 01.76-.08l2 1.57a.54.54 0 01.09.76l-7.57 9.5a3.26 3.26 0 000 4l7.65 9.83a.54.54 0 01-.1.76z"/><rect class="cls-3" x="77.28" y="72.53" width="3.62" height="24.24" rx=".54"/><path class="cls-3" d="M113.54 96.77h-1.18a8.11 8.11 0 01-8.11-8.11V73.07a.54.54 0 01.54-.54h2.53a.54.54 0 01.54.54v15.59a4.5 4.5 0 004.5 4.49h1.18a4.5 4.5 0 004.5-4.49V73.07a.54.54 0 01.54-.54h2.53a.54.54 0 01.54.54v15.59a8.11 8.11 0 01-8.11 8.11zm33.22 0h-7.83a8.65 8.65 0 01-8.65-8.65v-7a8.65 8.65 0 018.65-8.64h7.83a.54.54 0 01.54.54v2.58a.54.54 0 01-.54.54h-7.83a5 5 0 00-5 5v7a5 5 0 005 5h7.83a.55.55 0 01.54.55v2.53a.54.54 0 01-.54.55z"/><rect class="cls-3" x="136.74" y="82.84" width="9.28" height="3.62" rx=".54"/><path class="cls-3" d="M64.19 90.63h-7.76a.54.54 0 01-.51-.71l.81-2.53a.53.53 0 01.51-.38h6.95zM31.63 86.6h-1.86a.73.73 0 00-.63 1.08l5 8.81a.56.56 0 00.48.28h2.9A.54.54 0 0038 96l-3.6-6.35a7.09 7.09 0 004.32-6.52V79.9a7.23 7.23 0 00-7.23-7.23h-8.21a1.81 1.81 0 00-1.81 1.81v21.75a.54.54 0 00.54.54h2.53a.55.55 0 00.55-.54V77a.73.73 0 01.72-.73h5.68a3.62 3.62 0 013.61 3.63v3.23a3.47 3.47 0 01-3.47 3.47z"/><path class="cls-3" d="M67.86 96.77a.55.55 0 00.52-.71L62 75.73a4.52 4.52 0 00-8.64 0l-6.57 20.33a.55.55 0 00.52.71H50a.53.53 0 00.51-.38l6.29-19.58a.91.91 0 011.75 0l6.14 19.57a.54.54 0 00.52.38zm82.21-1.41a1.41 1.41 0 111.41 1.41 1.38 1.38 0 01-1.41-1.41zm2.59 0a1.19 1.19 0 10-1.18 1.2 1.16 1.16 0 001.18-1.2zm-1.64.78c-.05 0-.07 0-.07-.06v-1.45a.06.06 0 01.07-.07h.57a.45.45 0 01.5.46.43.43 0 01-.31.44l.31.61c0 .05 0 .07-.05.07h-.12a.08.08 0 01-.07 0l-.31-.61h-.33v.58s0 .06-.07.06zm.84-1.12c0-.15-.08-.24-.28-.24h-.37v.46h.37c.2.03.28-.06.28-.24z"/></g></g></svg>