<svg xmlns="http://www.w3.org/2000/svg" viewBox="0 0 174.35 195.26"><defs><style>.cls-3{fill:#006795}</style></defs><g id="Layer_2" data-name="Layer 2"><g id="レイヤー_1" data-name="レイヤー 1"><path d="M148.11 26.24A86.18 86.18 0 1077 172.72l7.92 20a2.42 2.42 0 004 .82 2.54 2.54 0 00.54-.82l7.91-20a86.14 86.14 0 0050.74-146.48z" fill="#fafa00"/><path d="M148.11 26.24A86.18 86.18 0 1077 172.72l7.92 20a2.42 2.42 0 004 .82 2.54 2.54 0 00.54-.82l7.91-20a86.14 86.14 0 0050.74-146.48z" fill="none" stroke="#006795" stroke-width="2"/><path class="cls-3" d="M62.47 110.29a1.51 1.51 0 013 0 46.1 46.1 0 00.59 7.62 36.27 36.27 0 015.13-2 1.48 1.48 0 01.46-.08 1.42 1.42 0 011.35 1.43 1.28 1.28 0 01-1 1.27 30.79 30.79 0 00-6.83 3c-2.24 1.46-3 2.89-3 4.21 0 1.61 1.07 2.45 5.2 2.45a29 29 0 005.38-.47 1.42 1.42 0 01.34 0 1.37 1.37 0 011.4 1.43 1.43 1.43 0 01-1.17 1.46 30.33 30.33 0 01-6 .49c-5.46 0-8.19-1.66-8.19-5.17 0-2.13 1-4.24 4.24-6.45a41.58 41.58 0 01-.9-9.19zm19.79-.62a1.36 1.36 0 011.5 1.27 1.57 1.57 0 010 .29 49.74 49.74 0 00-1.4 10.77 69 69 0 00.57 7.72v.23a1.42 1.42 0 01-1.51 1.3 1.38 1.38 0 01-1.42-1.2 49.05 49.05 0 01.84-19.37 1.35 1.35 0 011.42-1.01zm12.84 4.78c1-.1 2-.26 2.86-.42a2.06 2.06 0 01.34 0 1.18 1.18 0 011.22 1.25 1.38 1.38 0 01-1.14 1.38c-1 .2-2.14.36-3.25.49 0 2.24.07 4.47.31 6.68a18.18 18.18 0 014.34 2.42 1.58 1.58 0 01.7 1.27 1.42 1.42 0 01-1.38 1.41 1.64 1.64 0 01-1-.39 19.6 19.6 0 00-2.58-1.72c-.28 2.16-1.77 3.72-5 3.72-2.91 0-4.73-1.46-4.73-3.8 0-2.15 1.74-3.77 5.12-3.77a15 15 0 011.72.13c-.16-1.89-.21-3.79-.24-5.69-1.12.08-2.21.1-3.22.1a12.92 12.92 0 01-1.43 0 1.31 1.31 0 01-1.2-1.38 1.23 1.23 0 011.25-1.3h1.38c1 0 2.08 0 3.2-.1v-3.87a1.36 1.36 0 012.7 0zm-2.31 11.23a7.36 7.36 0 00-1.85-.28c-1.82 0-2.39.57-2.39 1.32s.7 1.23 2 1.23a2 2 0 002.24-2.27zm16.84-1.92a1.14 1.14 0 01-1.27 1.22 1.17 1.17 0 01-1.27-1.22v-.57c0-2.06.49-3.28 2.6-4.89 1.66-1.28 2.08-2.11 2.08-3.46 0-1.74-1.2-2.68-3-2.68a4.57 4.57 0 00-4 2.29 1.19 1.19 0 01-1 .52 1.48 1.48 0 01-1.54-1.3 1.61 1.61 0 01.37-1 7.45 7.45 0 016.16-3c3.62 0 6.11 2 6.11 5.14 0 2.24-.75 3.57-2.91 5.1-1.9 1.33-2.32 2.13-2.32 3.36zm.76 4.86a2 2 0 11-2-2 1.92 1.92 0 012 2zM62 53.88c-.67 0-1.2 0-1.69.06-.11 0-.16 0-.18-.15a4.79 4.79 0 01-.08-.76 19.78 19.78 0 002 .09h4.29a1.33 1.33 0 00.59-.09c.14-.07.2-.08.32 0a2 2 0 01.44.44c.12.15.11.22 0 .32a.83.83 0 00-.27.41 10.53 10.53 0 01-5.07 5.41c-.14.07-.22.07-.32 0a2.41 2.41 0 00-.67-.37 9.87 9.87 0 005.22-5.34zm1-2.49h-1.7c-.11 0-.13 0-.15-.17s-.06-.5-.06-.72a17.32 17.32 0 002 .08h1.86c.75 0 1.28 0 1.86-.06.11 0 .13 0 .13.15a4.86 4.86 0 010 .54c0 .13 0 .17-.16.15H65zm23.06.41a1 1 0 00.6-.13c.08-.06.18 0 .31 0a5.35 5.35 0 01.48.4c.14.14.12.26 0 .36a1.21 1.21 0 00-.31.42 15.77 15.77 0 01-2.32 3.74 14.59 14.59 0 01-3.74 3.11.2.2 0 01-.26 0 1.93 1.93 0 00-.67-.35 13.66 13.66 0 006.22-6.85l-3.45.1a17.84 17.84 0 01-2.38 2.57.25.25 0 01-.37 0 1.75 1.75 0 00-.61-.25 12.78 12.78 0 003.13-3.49 3.65 3.65 0 00.6-1.5 3.16 3.16 0 01.9.42.18.18 0 010 .31 1.45 1.45 0 00-.36.41c-.18.29-.31.52-.48.76zm18.7 5.32h4.3c.12 0 .17 0 .17.15v.55c0 .12 0 .16-.17.16h-7.27c-.59 0-1.42 0-1.94.06-.14 0-.17 0-.2-.18a6.76 6.76 0 01-.05-.71c.77.06 1.45.06 2.19.06h2.1v-4.6h-1.18c-.72 0-1.26 0-1.82.06-.11 0-.12 0-.14-.18a4.68 4.68 0 010-.7c.65 0 1.17.06 2 .06h5.2c.11 0 .12 0 .12.12v.57c0 .12 0 .16-.13.16h-3.07zM93.34 98.67a.55.55 0 01-.77-.1l-7.65-9.84a6.87 6.87 0 01.09-8.5l7.56-9.49a.54.54 0 01.77-.09l2 1.57a.56.56 0 01.09.77l-7.57 9.49a3.26 3.26 0 000 4l7.64 9.84a.53.53 0 01-.09.76z"/><rect class="cls-3" x="77.28" y="72.53" width="3.62" height="24.24" rx=".54"/><path class="cls-3" d="M113.54 96.77h-1.18a8.12 8.12 0 01-8.12-8.11V73.07a.55.55 0 01.55-.54h2.53a.54.54 0 01.54.54v15.59a4.5 4.5 0 004.5 4.5h1.18a4.5 4.5 0 004.49-4.5V73.07a.55.55 0 01.55-.54h2.53a.54.54 0 01.54.54v15.59a8.11 8.11 0 01-8.11 8.11zm33.21 0h-7.82a8.64 8.64 0 01-8.65-8.64v-6.95a8.65 8.65 0 018.65-8.65h7.82a.55.55 0 01.55.54v2.53a.55.55 0 01-.55.55h-7.82a5 5 0 00-5 5v6.95a5 5 0 005 5h7.82a.55.55 0 01.55.54v2.53a.55.55 0 01-.55.6z"/><rect class="cls-3" x="136.74" y="82.84" width="9.28" height="3.62" rx=".54"/><path class="cls-3" d="M64.19 90.63h-7.76a.55.55 0 01-.52-.71l.82-2.53a.54.54 0 01.51-.37h6.95zm-32.57-4.02h-1.85a.72.72 0 00-.63 1.08l5 8.81a.55.55 0 00.47.27h2.91A.54.54 0 0038 96l-3.55-6.3a7.1 7.1 0 004.32-6.53V79.9a7.24 7.24 0 00-7.24-7.23h-8.26a1.81 1.81 0 00-1.8 1.81v21.75a.54.54 0 00.54.54h2.53a.54.54 0 00.54-.54V77a.73.73 0 01.73-.72h5.67a3.62 3.62 0 013.62 3.62v3.23a3.48 3.48 0 01-3.48 3.48z"/><path class="cls-3" d="M67.86 96.77a.54.54 0 00.52-.7L62 75.73a4.52 4.52 0 00-8.64 0l-6.57 20.33a.54.54 0 00.51.71H50a.54.54 0 00.51-.37l6.29-19.59a.92.92 0 011.75 0l6.14 19.57a.53.53 0 00.51.38zm82.21-1.41a1.41 1.41 0 111.41 1.41 1.38 1.38 0 01-1.41-1.41zm2.59 0a1.19 1.19 0 10-1.18 1.2 1.16 1.16 0 001.18-1.2zm-1.65.79s-.06 0-.06-.07v-1.45a.05.05 0 01.06-.06h.58a.44.44 0 01.49.46.41.41 0 01-.3.43l.3.61v.08h-.12s-.06 0-.08-.06l-.3-.6h-.33v.58a.07.07 0 01-.07.07zm.85-1.12c0-.16-.08-.25-.28-.25h-.37v.46h.37c.2.03.28-.06.28-.24z"/></g></g></svg>