<svg xmlns="http://www.w3.org/2000/svg" viewBox="0 0 246.56 43.75"><defs><style>.cls-1{fill:#006795}</style></defs><g id="Layer_2" data-name="Layer 2"><g id="レイヤー_1" data-name="レイヤー 1"><path class="cls-1" d="M111.3 43.57a.84.84 0 01-1.18-.15L98.27 28.18A10.65 10.65 0 0198.41 15L110.12.32a.83.83 0 011.18-.14l3.07 2.44a.84.84 0 01.13 1.18l-11.71 14.71a5 5 0 00-.08 6.25L114.55 40a.84.84 0 01-.15 1.18z"/><rect class="cls-1" x="86.44" y="3.09" width="5.6" height="37.55" rx=".84"/><path class="cls-1" d="M142.59 40.64h-1.84a12.57 12.57 0 01-12.56-12.57V3.93a.85.85 0 01.84-.84H133a.84.84 0 01.84.84v24.15a7 7 0 007 7h1.83a7 7 0 007-7V3.93a.84.84 0 01.84-.84h3.92a.85.85 0 01.84.84v24.15a12.57 12.57 0 01-12.68 12.56zm51.41 0h-12.09a13.4 13.4 0 01-13.4-13.4V16.48A13.4 13.4 0 01181.9 3.09H194a.84.84 0 01.84.84v3.92a.83.83 0 01-.84.84h-12.09a7.8 7.8 0 00-7.8 7.79v10.77a7.8 7.8 0 007.8 7.79H194a.83.83 0 01.84.84v3.92a.84.84 0 01-.84.84z"/><rect class="cls-1" x="178.52" y="19.06" width="14.37" height="5.6" rx=".84"/><path class="cls-1" d="M66.16 31.13h-12a.84.84 0 01-.8-1.1l1.25-3.92a.85.85 0 01.8-.58h10.75zm-50.43-6.24h-2.87a1.12 1.12 0 00-1 1.67l7.69 13.65a.85.85 0 00.73.43h4.5a.84.84 0 00.73-1.26L20 29.62a11 11 0 006.69-10.11v-5a11.21 11.21 0 00-11.18-11.2H2.8A2.8 2.8 0 000 6.11V39.8a.85.85 0 00.84.84h3.92a.84.84 0 00.84-.84V10a1.12 1.12 0 011.12-1.09h8.79a5.6 5.6 0 015.6 5.6v5a5.38 5.38 0 01-5.38 5.38z"/><path class="cls-1" d="M71.84 40.64a.84.84 0 00.81-1.09l-9.88-31.5A7 7 0 0049.39 8L39.21 39.54a.84.84 0 00.8 1.1h4.12a.84.84 0 00.8-.59l9.79-30.33a1.42 1.42 0 012.71 0l9.5 30.31a.85.85 0 00.8.59zm127.32-2.19a2.18 2.18 0 112.18 2.19 2.13 2.13 0 01-2.18-2.19zm4 0a1.84 1.84 0 10-1.83 1.86 1.8 1.8 0 001.84-1.86zm-2.55 1.21c-.07 0-.1 0-.1-.1v-2.24a.09.09 0 01.1-.1h.89a.68.68 0 01.76.71.63.63 0 01-.47.67l.47.95c0 .08 0 .11-.06.11h-.2a.16.16 0 01-.12-.07l-.47-.94h-.51v.89a.09.09 0 01-.1.1zm1.31-1.73c0-.23-.13-.38-.43-.38h-.58v.72h.58c.31.04.44-.1.44-.34z"/><rect class="cls-1" x="214.71" y="17.64" width="31.85" height="8.45" rx=".84"/><rect class="cls-1" x="226.41" y="5.94" width="8.45" height="31.85" rx=".84"/></g></g></svg>