<svg xmlns="http://www.w3.org/2000/svg" viewBox="0 0 141.62 141.63"><g id="Layer_2" data-name="Layer 2"><g id="レイヤー_1" data-name="レイヤー 1"><path d="M70.81.81a70 70 0 00-55 113.31l-6.94 16a2 2 0 001.81 2.76 2 2 0 00.79-.17l16-6.93A70 70 0 1070.81.81z" fill="#006795"/><path d="M70.81.81a70 70 0 00-55 113.31l-6.94 16a2 2 0 001.81 2.76 2 2 0 00.79-.17l16-6.93A70 70 0 1070.81.81z" fill="none" stroke="#006795" stroke-width="1.62"/><path d="M60 47.49a24.17 24.17 0 001.76-3.41 1.41 1.41 0 012.68.44 1.17 1.17 0 01-.13.57 20.65 20.65 0 01-1.27 2.4h1.86c2.33 0 3.25.83 3.25 2.6V52a1.26 1.26 0 01-1.41 1.14A1.28 1.28 0 0165.31 52v-1.45c0-.65-.18-.8-1-.8H49.55c-.85 0-1 .15-1 .8v1.59c0 .73-.7 1.12-1.4 1.12s-1.43-.39-1.43-1.12v-2c0-1.77.91-2.6 3.25-2.6H51a1.51 1.51 0 01-.71-.65 16.69 16.69 0 00-1-1.62 1 1 0 01-.2-.62 1.33 1.33 0 011.4-1.17 1.39 1.39 0 011.12.55 9.63 9.63 0 011.09 1.71 1.2 1.2 0 01-.73 1.8zm-6.5 10.29c-2.16 0-3-.67-3-2.21v-1.92c0-1.54.83-2.24 3-2.24h6.9c2.15 0 3 .7 3 2.24v1.92c0 1.54-.84 2.21-3 2.21h-2.68a20 20 0 01-.78 1.93h5.43c2.45 0 3.33.78 3.33 2.44v2.29c0 1.66-.88 2.44-3.33 2.44H51.63c-2.44 0-3.32-.78-3.32-2.44v-2.29c0-1.66.88-2.44 3.32-2.44h2.53c.28-.63.54-1.28.8-1.93zM62 64.7c.78 0 1-.18 1-.7v-1.49c0-.52-.2-.67-1-.67H52c-.75 0-1 .15-1 .67V64c0 .65.42.7 1 .7zm-2-8.92c.49 0 .83 0 .83-.6v-1.12c0-.46-.16-.59-.83-.59h-6c-.67 0-.83.13-.83.59v1.12c0 .47.16.6.83.6zm-1.92-10.43a1.26 1.26 0 01.13.6 1.28 1.28 0 01-1.35 1.2 1.31 1.31 0 01-1.22-.78 17.59 17.59 0 00-.83-1.61 1.13 1.13 0 01-.21-.65A1.25 1.25 0 0155.92 43a1.36 1.36 0 011.2.65 14.71 14.71 0 01.96 1.7zm15.37 8.82a1.11 1.11 0 010-2.19h5.35v-.07c-.26-.39-.49-.76-.75-1.1a1.09 1.09 0 01-.26-.67.94.94 0 01.47-.81h-6a1.15 1.15 0 010-2.26h4a1.39 1.39 0 01-.54-.49 11 11 0 00-1-1.28 1 1 0 01-.29-.67 1.24 1.24 0 011.28-1.12 1.36 1.36 0 011 .41 7.15 7.15 0 011.09 1.28 1.56 1.56 0 01.31.86 1.16 1.16 0 01-.7 1h2v-3.2c0-.73.65-1.06 1.3-1.06s1.3.33 1.3 1.06v3.2h1.82v-3.2c0-.73.65-1.06 1.33-1.06s1.3.33 1.3 1.06v3.2h1.94a1.11 1.11 0 01-.68-1 1.13 1.13 0 01.29-.75A8.94 8.94 0 0089 44a1.23 1.23 0 011.09-.62 1.29 1.29 0 011.33 1.14 1.41 1.41 0 01-.21.63A10.21 10.21 0 0190 46.76a1.53 1.53 0 01-.41.31h4a1.14 1.14 0 010 2.26h-6a.93.93 0 01.44.78 1.05 1.05 0 01-.16.55 13.56 13.56 0 01-.8 1.32h5.72a1.11 1.11 0 010 2.19h-8.6v1.32h6.44c.63 0 .91.52.91 1.07a1 1 0 01-.91 1.07h-6.44V59h9.07a1.1 1.1 0 010 2.19h-7.38A31.18 31.18 0 0094 64.05a1.27 1.27 0 01-.21 2.52 4.24 4.24 0 01-.44 0 30.29 30.29 0 01-9.25-4l.09 2.43v1.56c0 .68-.65 1-1.33 1s-1.33-.33-1.33-1V65l.11-2.37a31.51 31.51 0 01-9.13 4.09 3.26 3.26 0 01-.41 0 1.18 1.18 0 01-.24-2.34 30.41 30.41 0 008-3.25h-7.32a1.1 1.1 0 010-2.19h9v-1.31h-6.3a1 1 0 01-.91-1.07 1 1 0 01.91-1.07h6.29v-1.32zM84.16 52a13.33 13.33 0 001.17-2.08 1.52 1.52 0 01.47-.57h-6a.89.89 0 01.26.21 10.43 10.43 0 01.86 1.2 1.09 1.09 0 01.18.59 1 1 0 01-.26.65zM33.58 89.39a1.53 1.53 0 01-3 0v-4.52h-4a1.3 1.3 0 010-2.6h4V78a1.53 1.53 0 013 0v4.27h5.87v-4.63a1.53 1.53 0 013 0v4.63H47a1.3 1.3 0 010 2.6h-4.53v.8c0 6.32-2.89 10.48-7.62 12.61a1.62 1.62 0 01-.7.16A1.45 1.45 0 0132.69 97a1.48 1.48 0 011-1.37c3.84-1.85 5.79-4.74 5.79-10.14v-.6h-5.9zm23.06-2.75A1.45 1.45 0 0158.15 88a1.57 1.57 0 01-.13.65 17.38 17.38 0 01-3.72 5.62 1.72 1.72 0 01-1.22.54 1.5 1.5 0 01-1.54-1.4 1.56 1.56 0 01.55-1.15 14.76 14.76 0 003.14-4.73 1.49 1.49 0 011.41-.89zm7.59 8.42c0 2.63-1.3 3.64-3.56 3.64a11.25 11.25 0 01-2-.16 1.44 1.44 0 01-1.23-1.48 1.48 1.48 0 011.46-1.56 1.06 1.06 0 01.29 0 6.45 6.45 0 001.12.1c.57 0 .8-.18.8-.93v-10.5h-7.54a1.28 1.28 0 01-1.25-1.38 1.27 1.27 0 011.25-1.38h7.54v-3.87a1.43 1.43 0 011.59-1.33 1.36 1.36 0 011.53 1.27v3.93h7.44a1.27 1.27 0 011.25 1.38 1.28 1.28 0 01-1.25 1.38h-7.44zM72.81 92a1.92 1.92 0 01.5 1.19 1.56 1.56 0 01-1.56 1.51 1.79 1.79 0 01-1.46-.81 32 32 0 01-3.12-5.25 1.76 1.76 0 01-.16-.67 1.39 1.39 0 011.49-1.33 1.55 1.55 0 011.43.88A26.6 26.6 0 0072.81 92zm1.61-14.1a2.8 2.8 0 11-2.78-2.78 2.76 2.76 0 012.78 2.75zm-1.3 0a1.46 1.46 0 00-1.48-1.48 1.49 1.49 0 00-1.51 1.48 1.51 1.51 0 001.51 1.51 1.48 1.48 0 001.48-1.54zm22.78 7.93a1.48 1.48 0 010 3h-19a1.48 1.48 0 010-3zm10.43-1.25a1.46 1.46 0 011.27-.8 1.71 1.71 0 01.68.15 31 31 0 015.51 3.33 1.67 1.67 0 01.73 1.35 1.52 1.52 0 01-1.52 1.54 1.82 1.82 0 01-1.09-.39 45 45 0 00-4.86-3.12 1.88 1.88 0 01-.75-.73v11.2a1.55 1.55 0 01-3.07 0V77.28a1.54 1.54 0 013.07 0z" fill="#fff"/></g></g></svg>