<svg xmlns="http://www.w3.org/2000/svg" viewBox="0 0 141.63 141.62"><g id="Layer_2" data-name="Layer 2"><g id="レイヤー_1" data-name="レイヤー 1"><path d="M70.82.81a69.64 69.64 0 00-43.3 15l-16-6.94a2 2 0 00-2.22.43 2 2 0 00-.57 1.4 2 2 0 00.16.79l6.94 16A70 70 0 1070.82.81z" fill="#006795"/><path d="M70.82.81a69.64 69.64 0 00-43.3 15l-16-6.94a2 2 0 00-2.22.43 2 2 0 00-.57 1.4 2 2 0 00.16.79l6.94 16A70 70 0 1070.82.81z" fill="none" stroke="#006795" stroke-width="1.62"/><path d="M60 47.48a25.28 25.28 0 001.77-3.41 1.32 1.32 0 011.25-.8 1.34 1.34 0 011.43 1.25 1.36 1.36 0 01-.13.57 21.33 21.33 0 01-1.28 2.39h1.86c2.34 0 3.25.83 3.25 2.6V52a1.25 1.25 0 01-1.4 1.14c-.71 0-1.43-.39-1.43-1.14v-1.45c0-.65-.19-.81-1-.81H49.56c-.86 0-1 .16-1 .81v1.58c0 .73-.7 1.12-1.4 1.12s-1.44-.39-1.44-1.12v-2.05c0-1.77.91-2.6 3.25-2.6H51a1.36 1.36 0 01-.7-.65 17.42 17.42 0 00-1-1.61 1 1 0 01-.21-.63 1.33 1.33 0 011.4-1.17 1.37 1.37 0 011.12.55 9.16 9.16 0 011.09 1.72 1.18 1.18 0 01-.7 1.79zm-6.5 10.3c-2.16 0-3-.68-3-2.21v-1.93c0-1.53.83-2.23 3-2.23h6.9c2.16 0 3 .7 3 2.23v1.93c0 1.53-.83 2.21-3 2.21h-2.68a16.78 16.78 0 01-.78 1.92h5.44c2.44 0 3.33.78 3.33 2.45v2.28c0 1.67-.89 2.45-3.33 2.45H51.64c-2.44 0-3.33-.78-3.33-2.45v-2.28c0-1.67.89-2.45 3.33-2.45h2.52c.29-.62.55-1.27.81-1.92zm8.5 6.91c.78 0 1-.18 1-.7v-1.48c0-.52-.21-.68-1-.68H52c-.75 0-1 .16-1 .68V64c0 .65.41.7 1 .7zm-2-8.91c.5 0 .84 0 .84-.6v-1.12c0-.47-.16-.6-.84-.6h-6c-.68 0-.83.13-.83.6v1.12c0 .47.15.6.83.6zm-1.91-10.43a1.36 1.36 0 01.13.6 1.28 1.28 0 01-1.35 1.19 1.3 1.3 0 01-1.23-.78 15.39 15.39 0 00-.83-1.61 1.16 1.16 0 01-.21-.65 1.25 1.25 0 011.33-1.1 1.34 1.34 0 011.19.65 13.58 13.58 0 01.97 1.7zm15.36 8.81a1.1 1.1 0 010-2.18h5.36v-.08c-.26-.39-.5-.75-.76-1.09a1.14 1.14 0 01-.26-.68.94.94 0 01.47-.8h-6a1.15 1.15 0 010-2.27h3.95a1.41 1.41 0 01-.55-.49 9.14 9.14 0 00-1-1.27 1.06 1.06 0 01-.28-.68 1.24 1.24 0 011.27-1.12 1.32 1.32 0 011 .42 7.49 7.49 0 011.1 1.27 1.65 1.65 0 01.31.86 1.16 1.16 0 01-.7 1h2v-3.18c0-.73.65-1.07 1.3-1.07s1.3.34 1.3 1.07v3.19h1.74v-3.19c0-.73.65-1.07 1.32-1.07s1.3.34 1.3 1.07v3.19h2.08a1.09 1.09 0 01-.67-1 1.2 1.2 0 01.28-.76A9.61 9.61 0 0089 44a1.21 1.21 0 011.09-.63 1.29 1.29 0 011.32 1.15 1.31 1.31 0 01-.2.62A11.62 11.62 0 0190 46.75a1.39 1.39 0 01-.42.31h4a1.15 1.15 0 010 2.27h-6a.93.93 0 01.44.78 1.1 1.1 0 01-.15.54 12 12 0 01-.82 1.35h5.72a1.1 1.1 0 010 2.18h-8.58v1.33h6.45a1.08 1.08 0 010 2.13h-6.45V59h9.08a1.1 1.1 0 010 2.18h-7.39A30.76 30.76 0 0094 64a1.24 1.24 0 011 1.25 1.22 1.22 0 01-1.25 1.28 2.43 2.43 0 01-.44-.06 30.1 30.1 0 01-9.26-4l.14 2.53v1.56c0 .67-.65 1-1.32 1s-1.33-.34-1.33-1V65l.1-2.37a31.82 31.82 0 01-9.12 4.08 2.27 2.27 0 01-.42 0 1.18 1.18 0 01-.23-2.34 30 30 0 007.95-3.25h-7.28a1.1 1.1 0 010-2.18h9v-1.32h-6.29a1.08 1.08 0 010-2.13h6.29v-1.33zM84.16 52a13 13 0 001.17-2.08 1.61 1.61 0 01.47-.57h-6a1.28 1.28 0 01.26.2 9.27 9.27 0 01.85 1.2 1.16 1.16 0 01.19.6 1.06 1.06 0 01-.26.65zM33.58 89.39a1.35 1.35 0 01-1.51 1.27 1.34 1.34 0 01-1.5-1.27v-4.53h-4a1.31 1.31 0 010-2.6h4V78a1.52 1.52 0 013 0v4.26h5.88v-4.63a1.53 1.53 0 013 0v4.63H47a1.3 1.3 0 010 2.6h-4.53v.81c0 6.32-2.88 10.48-7.61 12.61a1.83 1.83 0 01-.71.16A1.46 1.46 0 0132.7 97a1.5 1.5 0 011-1.38c3.85-1.84 5.8-4.73 5.8-10.14v-.6h-5.92zm23.06-2.76A1.46 1.46 0 0158.15 88a1.48 1.48 0 01-.13.65 17.08 17.08 0 01-3.72 5.65 1.73 1.73 0 01-1.22.55 1.5 1.5 0 01-1.53-1.41 1.51 1.51 0 01.54-1.14 15.06 15.06 0 003.15-4.73 1.49 1.49 0 011.4-.94zm7.6 8.43c0 2.62-1.3 3.64-3.57 3.64a11.32 11.32 0 01-2-.16 1.45 1.45 0 01-1.22-1.48 1.5 1.5 0 011.74-1.54 6.81 6.81 0 001.12.11c.57 0 .81-.18.81-.94V84.16h-7.54a1.39 1.39 0 010-2.76h7.54v-3.87a1.43 1.43 0 011.58-1.33 1.37 1.37 0 011.54 1.28v3.92h7.43a1.39 1.39 0 010 2.76h-7.43zM72.82 92a2 2 0 01.49 1.2 1.55 1.55 0 01-1.56 1.51 1.83 1.83 0 01-1.46-.81 32 32 0 01-3.12-5.25 1.78 1.78 0 01-.15-.68 1.38 1.38 0 011.48-1.32 1.54 1.54 0 011.43.88A26.19 26.19 0 0072.82 92zm1.61-14.09a2.8 2.8 0 11-2.78-2.78 2.76 2.76 0 012.78 2.74zm-1.3 0a1.46 1.46 0 00-1.48-1.48 1.48 1.48 0 00-1.51 1.48 1.51 1.51 0 001.51 1.51 1.49 1.49 0 001.48-1.55zm22.77 7.92a1.38 1.38 0 011.41 1.48 1.4 1.4 0 01-1.41 1.48h-19a1.39 1.39 0 01-1.4-1.48 1.38 1.38 0 011.4-1.48zm10.43-1.25a1.49 1.49 0 011.27-.81 1.51 1.51 0 01.68.16 29.51 29.51 0 015.51 3.33 1.67 1.67 0 01.73 1.35 1.51 1.51 0 01-1.52 1.53 1.72 1.72 0 01-1.09-.39 47.18 47.18 0 00-4.87-3.12 1.89 1.89 0 01-.75-.73v11.21a1.38 1.38 0 01-1.53 1.35 1.4 1.4 0 01-1.54-1.35V77.27a1.42 1.42 0 011.54-1.38 1.41 1.41 0 011.53 1.38z" fill="#fff"/></g></g></svg>