<svg xmlns="http://www.w3.org/2000/svg" viewBox="0 0 202.01 202"><g id="Layer_2" data-name="Layer 2"><g id="レイヤー_1" data-name="レイヤー 1"><path d="M179.57 162.88a100 100 0 10-16.68 16.68l22.87 9.9a2.82 2.82 0 004-2.59 2.91 2.91 0 00-.23-1.12z" fill="#fff"/><path d="M179.57 162.88a100 100 0 10-16.68 16.68l22.87 9.9a2.82 2.82 0 004-2.59 2.91 2.91 0 00-.23-1.12z" fill="none" stroke="#006795" stroke-width="2"/><path d="M72.55 66.92h-7.67a1.38 1.38 0 010-2.73h18.46a1.38 1.38 0 010 2.73h-7.83v12.66H85a1.38 1.38 0 010 2.73H63.26a1.38 1.38 0 010-2.73h9.29zm19.89 8.89A22.81 22.81 0 0189.86 80a1.51 1.51 0 01-1.17.62 1.25 1.25 0 01-1.27-1.25 1.43 1.43 0 01.39-1 24.68 24.68 0 003.92-6.86H89a1.11 1.11 0 01-1-1.21 1.14 1.14 0 011-1.25h3.8c-.57-.59-1.12-1.09-1.69-1.58a1.3 1.3 0 01-.52-1 1.19 1.19 0 011.25-1.1 1.55 1.55 0 01.91.32c.15.13.34.23.49.36A13.6 13.6 0 0094.52 65a.56.56 0 00.18-.29q0-.15-.39-.15h-4.47a1.27 1.27 0 010-2.5h5.27c1.8 0 2.73.86 2.73 1.92a2.67 2.67 0 01-.78 1.77 14.4 14.4 0 01-2.13 1.93 1.37 1.37 0 01.24.72 1.12 1.12 0 01-.21.65h1.58c1.62 0 2.4.76 2.4 1.82a2.62 2.62 0 01-.19.94 10.19 10.19 0 01-1.22 2.42 1.42 1.42 0 01-1.17.67 1.13 1.13 0 01-1.17-1.06 1.17 1.17 0 01.26-.7 5.77 5.77 0 00.76-1.25 1.23 1.23 0 00.05-.21c0-.13-.13-.18-.42-.18H95v10.89c0 2-1 2.71-2.55 2.71a8.73 8.73 0 01-1.68-.1 1.28 1.28 0 01-1.09-1.3 1.25 1.25 0 011.22-1.33.77.77 0 01.26 0 4.2 4.2 0 00.7.07c.32 0 .45-.1.45-.52v-1.61zm10.32-.41a11 11 0 00.16-1.3 1.22 1.22 0 011.35-1.1 1.25 1.25 0 011.4 1.14v.13a7.45 7.45 0 01-.13 1.07h2.52c2.08 0 3 .81 3 2.52a16 16 0 01-.65 4c-.63 2.05-1.69 2.73-3.56 2.73a9.56 9.56 0 01-1.85-.19 1.26 1.26 0 01-1.07-1.27 1.35 1.35 0 011.35-1.38.74.74 0 01.26 0 6.45 6.45 0 001.15.1.92.92 0 001-.7 10.92 10.92 0 00.55-2.94c0-.34-.16-.47-.65-.47h-2.57a11 11 0 01-6.22 7 1.28 1.28 0 01-.62.13 1.35 1.35 0 01-1.33-1.32 1.41 1.41 0 01.94-1.3 8 8 0 004.39-4.47l-3.3.05a1.08 1.08 0 01-1-1.2 1.1 1.1 0 011-1.22zm7-9a13.09 13.09 0 01-2.5 3.6 16.37 16.37 0 003.9 1.56 1.34 1.34 0 01-.24 2.66 2.06 2.06 0 01-.52-.08 17.67 17.67 0 01-5.09-2.45 17 17 0 01-4.81 2.45 1.59 1.59 0 01-.45.08 1.24 1.24 0 01-.26-2.45 13.2 13.2 0 003.54-1.77 15.56 15.56 0 01-1.79-2.08 9.37 9.37 0 01-.76.78 1.5 1.5 0 01-1 .41 1.29 1.29 0 01-1.32-1.22 1.34 1.34 0 01.44-.94 16.21 16.21 0 003.3-4.86 1.43 1.43 0 012.73.34 1.2 1.2 0 01-.1.52c-.16.34-.31.7-.52 1.07h6.52c.68 0 1 .57 1 1.17a1 1 0 01-1 1.17zm-6.48 0a12.34 12.34 0 001.93 2.1 11.82 11.82 0 001.61-2.1zm21.99-4.57c0-.73.71-1.07 1.41-1.07s1.4.34 1.4 1.07V64h8.38c.67 0 1 .62 1 1.25s-.34 1.25-1 1.25H120.7c-1.17 0-1.51.33-1.51 1.22V71c0 5-.83 9-2.57 12.25a1.6 1.6 0 01-1.43.93 1.37 1.37 0 01-1.41-1.35A1.9 1.9 0 01114 82c1.53-2.88 2.28-6.37 2.28-11v-3.9c0-2.13 1-3.09 3.7-3.09h5.27zm.68 6.65a1.41 1.41 0 012.76 0v2h6.78a1.27 1.27 0 010 2.5h-6.78V76h2.83c2.68 0 3.62.86 3.62 2.78V82c0 2.39-1.51 2.78-3.62 2.78h-7.07c-2.68 0-3.62-.86-3.62-2.78v-3.2c0-1.92.94-2.78 3.62-2.78H126zm5.33 13.89c.91 0 1.09-.21 1.09-.86v-2.24c0-.65-.18-.86-1.09-.86h-6.55c-.91 0-1.09.21-1.09.86v2.24c0 .73.28.86 1.09.86zM25.11 106.59a1.42 1.42 0 01-1.56 1.35 1.42 1.42 0 01-1.55-1.35V96.37A1.43 1.43 0 0123.55 95a1.43 1.43 0 011.56 1.38zM32 95.93a1.42 1.42 0 011.59-1.32 1.39 1.39 0 011.53 1.32v7.72c0 6.58-2.8 10.56-7.82 12.95a2 2 0 01-.78.21 1.49 1.49 0 01-.57-2.89c4.34-2.13 6-5.27 6-10.47zm23.09.78c2.73 0 3.79 1 3.79 2.71a6.4 6.4 0 01-.18 1.48 22 22 0 01-12.09 14.45 1.84 1.84 0 01-.86.21 1.51 1.51 0 01-1.5-1.53 1.55 1.55 0 01.91-1.38c5.74-3 9-7.15 10.34-11.8a1.83 1.83 0 00.08-.52c0-.5-.34-.68-1.09-.68L42 99.81a1.48 1.48 0 01-1.51-1.54 1.37 1.37 0 011.38-1.43zm9.96 8.43a1.19 1.19 0 010-2.37h7.72l-.1-3.46c0-.7.64-1.09 1.32-1.09a1.15 1.15 0 011.27 1l.08 3.51h4.32a1.19 1.19 0 010 2.37h-4.27l.19 8.34v.13a2.58 2.58 0 01-2.81 2.84 13.32 13.32 0 01-1.72-.13 1.22 1.22 0 01-1.12-1.23 1.18 1.18 0 011.17-1.24c.42 0 .81.07 1.23.07s.7-.13.7-.7v-6.11a26.9 26.9 0 01-8.06 7 1.38 1.38 0 01-.67.18 1.26 1.26 0 01-.5-2.42 23.6 23.6 0 007.72-6.73zm38.24-1.38a1.48 1.48 0 010 3h-19a1.48 1.48 0 010-3zm19.37 6.37a35 35 0 00-2.47-3.51 1.56 1.56 0 01-.34-.89 1.43 1.43 0 011.49-1.3 1.73 1.73 0 011.32.65 41.37 41.37 0 015.23 8.09 1.9 1.9 0 01.18.78 1.58 1.58 0 01-1.61 1.53 1.46 1.46 0 01-1.35-.91c-.29-.65-.65-1.3-1-2a125 125 0 01-14.82 2c-.41 0-1 .08-1.17.08a1.49 1.49 0 010-3l2.21-.13a129.37 129.37 0 005-15.7 1.49 1.49 0 011.54-1.12 1.53 1.53 0 011.66 1.43 2 2 0 010 .39 121.57 121.57 0 01-4.81 14.72c2.94-.24 5.95-.64 8.94-1.11zm31.44-8.27a1.58 1.58 0 011 1.4 1.39 1.39 0 01-1.41 1.43 1.86 1.86 0 01-.91-.23 35.56 35.56 0 01-10.11-8 38.83 38.83 0 01-10.09 8.4 1.37 1.37 0 01-2.08-1.17 1.46 1.46 0 01.81-1.25 34.41 34.41 0 0010.24-9.08 1.6 1.6 0 011.28-.65 1.37 1.37 0 011.41 1.29 1.15 1.15 0 01-.08.42 32.36 32.36 0 009.94 7.44zM141.88 109a48.09 48.09 0 01-2.58 4.53c2.34-.18 4.68-.37 7-.68-.37-.39-.76-.75-1.1-1.06a1.22 1.22 0 01-.44-.89 1.33 1.33 0 011.38-1.22 1.63 1.63 0 011 .39 30.11 30.11 0 014.4 4.5 1.75 1.75 0 01.41 1 1.36 1.36 0 01-1.4 1.3 1.67 1.67 0 01-1.35-.73c-.29-.39-.63-.81-1-1.2a120.55 120.55 0 01-13 1.41h-1.07a1.28 1.28 0 01-1.3-1.33 1.29 1.29 0 011.33-1.32l1.79-.08a41.75 41.75 0 002.73-4.71h-5.36a1.18 1.18 0 01-1.14-1.27 1.16 1.16 0 011.14-1.27h18.8a1.15 1.15 0 011.15 1.27 1.17 1.17 0 01-1.15 1.27zm5-7.25A1.15 1.15 0 01148 103a1.17 1.17 0 01-1.15 1.28h-8.19a1.18 1.18 0 01-1.14-1.28 1.16 1.16 0 011.14-1.27zM163 116.21c0 .73-.68 1.09-1.35 1.09s-1.38-.36-1.38-1.09V108c-.6.49-1.2.93-1.8 1.35a1.41 1.41 0 01-.85.28 1.28 1.28 0 01-1.25-1.27 1.37 1.37 0 01.67-1.14 17.36 17.36 0 005.91-6.56.75.75 0 00.07-.28c0-.18-.15-.26-.46-.26h-4.63c-.65 0-1-.63-1-1.25s.31-1.22 1-1.22h2.34v-3.59c0-.73.67-1.07 1.38-1.07s1.35.34 1.35 1.07v3.59h.75c1.48 0 2.32.67 2.32 1.87a3.86 3.86 0 01-.34 1.46 17.1 17.1 0 01-2.52 4 16.87 16.87 0 013 1.82 1.38 1.38 0 01.63 1.09 1.27 1.27 0 01-1.23 1.25 1.34 1.34 0 01-.85-.34 15.65 15.65 0 00-1.77-1.22zm8.75-11.21H168a1.22 1.22 0 01-1.15-1.33 1.2 1.2 0 011.15-1.32h3.74v-7.64a1.47 1.47 0 012.91 0v7.62h4.21a1.19 1.19 0 011.15 1.32 1.21 1.21 0 01-1.15 1.33h-4.21v8.42h5a1.18 1.18 0 011.14 1.33 1.2 1.2 0 01-1.14 1.33h-13.26a1.22 1.22 0 01-1.14-1.33 1.2 1.2 0 011.14-1.33h5.36zm-87.46 24.44a28.48 28.48 0 001.32-3.33 1.51 1.51 0 011.48-1.11 1.39 1.39 0 011.49 1.33 1.67 1.67 0 01-.11.57 20 20 0 01-1.19 2.52h7.12c2.57 0 3.67 1.12 3.67 3.07v13.13c0 2.26-1 3.2-3.38 3.2a7.88 7.88 0 01-1.72-.19 1.38 1.38 0 01.21-2.73 1.42 1.42 0 01.34 0 5.63 5.63 0 001.06.13c.47 0 .68-.18.68-.81v-12.09c0-.7-.26-1.14-1.25-1.14H81.22c-1 0-1.25.44-1.25 1.14v14.69a1.42 1.42 0 01-2.81 0v-15.31c0-1.95 1.09-3.07 3.67-3.07zm1.58 14c-2.42 0-3.17-.78-3.17-2.57v-3.59c0-1.8.75-2.58 3.17-2.58h3.38c2.42 0 3.17.78 3.17 2.58v3.59c0 2.21-1.19 2.57-3.17 2.57zm3.07-2.29c.73 0 .88-.18.88-.7v-2.76c0-.52-.15-.7-.88-.7h-2.76c-.72 0-.88.18-.88.7v2.76c0 .62.31.7.88.7zm17.34-14.36a1.39 1.39 0 011.51 1.3 2.8 2.8 0 01-.05.36 44.34 44.34 0 00-1.2 10.17 35.84 35.84 0 00.55 6.19 2.6 2.6 0 010 .39 1.42 1.42 0 01-1.51 1.4 1.45 1.45 0 01-1.48-1.17 32.94 32.94 0 01-.62-6.79 45.15 45.15 0 011.3-10.79 1.41 1.41 0 011.5-1.06zm11.13 8.21c-1.12.08-2.21.13-3.2.13s-1.56 0-2.23-.05a1.29 1.29 0 01-1.25-1.35 1.25 1.25 0 011.25-1.33c.72 0 1.43.05 2.15.05 1 0 2.14-.05 3.2-.13 0-1.56-.1-2.36-.21-3.92 0-.16-.05-.57-.05-.78a1.27 1.27 0 011.43-1.22 1.3 1.3 0 011.43 1.14c.13 1.46.21 3 .26 4.52.94-.13 1.82-.26 2.6-.41a.86.86 0 01.26 0 1.3 1.3 0 011.3 1.33 1.26 1.26 0 01-1 1.27c-.93.18-2 .37-3.07.5v2c0 5-1.35 8.73-3.54 11.2a1.57 1.57 0 01-1.19.57 1.44 1.44 0 01-1.48-1.37 1.52 1.52 0 01.41-1c1.9-2.24 2.94-5.1 2.94-9.36z" fill="#006795"/></g></g></svg>