<svg xmlns="http://www.w3.org/2000/svg" viewBox="0 0 360 90.57"><defs><style>.cls-1{fill:#006795}</style></defs><g id="Layer_2" data-name="Layer 2"><g id="レイヤー_1" data-name="レイヤー 1"><path class="cls-1" d="M113.18 5.9c-.84 0-1.5 0-2.11.07-.14 0-.2 0-.23-.19a7.12 7.12 0 01-.1-1 23.32 23.32 0 002.48.11h5.36a1.58 1.58 0 00.73-.11c.18-.08.26-.1.41 0a3.13 3.13 0 01.55.54c.15.19.14.28 0 .4a1.22 1.22 0 00-.34.51 13.07 13.07 0 01-6.32 6.75c-.18.09-.28.09-.4 0a2.74 2.74 0 00-.84-.46 12.31 12.31 0 006.51-6.66zm1.21-3.12c-.8 0-1.47 0-2.13.06-.13 0-.16 0-.18-.21a7.85 7.85 0 01-.07-.89 20.86 20.86 0 002.44.1h2.32c.94 0 1.6 0 2.32-.07.13 0 .16 0 .16.18a3.75 3.75 0 010 .67c0 .16 0 .21-.19.19h-2.23zm28.79.51c.45 0 .59 0 .75-.16s.23 0 .39.06a4.31 4.31 0 01.6.49c.18.18.15.33 0 .45a1.52 1.52 0 00-.39.53 20.12 20.12 0 01-2.89 4.67A18.71 18.71 0 01137 13.2a.25.25 0 01-.33 0 2.09 2.09 0 00-.84-.44 16.6 16.6 0 005-4 16.93 16.93 0 002.81-4.58l-4.31.12a22.38 22.38 0 01-3 3.2.32.32 0 01-.47 0 2 2 0 00-.76-.32 16 16 0 003.9-4.32 4.33 4.33 0 00.75-1.86 3.74 3.74 0 011.13.52.22.22 0 010 .39 1.72 1.72 0 00-.45.51c-.23.36-.39.64-.6.94zm23.35 6.65h2.6c1 0 1.78 0 2.76-.06.15 0 .21 0 .21.18v.69c0 .15 0 .19-.21.19h-9.07c-.74 0-1.77 0-2.43.07-.16 0-.21 0-.24-.22a7.16 7.16 0 01-.07-.89c1 .08 1.81.08 2.74.08h2.62V4.31H164c-.9 0-1.57 0-2.28.08-.13 0-.15 0-.18-.23a7.16 7.16 0 01-.06-.88c.81.06 1.47.07 2.47.07h6.5c.13 0 .15 0 .15.15v.72c0 .15 0 .19-.17.19-1 0-1.7-.06-2.58-.06h-1.29zm23.1-6.03c-.88 0-1.7 0-2.51.09-.18 0-.24 0-.27-.24s-.06-.68-.08-.93a28.39 28.39 0 002.88.12H195a1.37 1.37 0 00.75-.14.37.37 0 01.39 0 4 4 0 01.67.61.33.33 0 010 .47 1.5 1.5 0 00-.33.51 15.85 15.85 0 01-2.93 4.91 16.24 16.24 0 01-4.44 3.6.37.37 0 01-.51 0 2.77 2.77 0 00-.78-.51 14.23 14.23 0 004.83-3.69 14 14 0 002.82-4.79zm9.78-2.4A1.52 1.52 0 11197.9 0a1.5 1.5 0 011.51 1.51zm-2.46 0a.95.95 0 101-.94.93.93 0 00-.95.94zm18.98 4.39c-.84 0-1.5 0-2.11.07-.14 0-.2 0-.23-.19a7.12 7.12 0 01-.1-1 23.32 23.32 0 002.48.11h5.36a1.6 1.6 0 00.74-.11c.18-.08.25-.1.4 0a3.13 3.13 0 01.55.54c.15.19.14.28 0 .4a1.22 1.22 0 00-.34.51 13 13 0 01-6.32 6.75c-.18.09-.28.09-.4 0a2.74 2.74 0 00-.84-.46 12.31 12.31 0 006.48-6.62zm1.21-3.12c-.79 0-1.47 0-2.12.06-.14 0-.17 0-.18-.21a7.74 7.74 0 01-.08-.89 20.86 20.86 0 002.44.1h2.32c.94 0 1.6 0 2.32-.07.14 0 .17 0 .17.18v.67c0 .21 0 .21-.2.19h-2.23zm28.65-.1a1.62 1.62 0 00.85-.12c.09-.06.19 0 .3 0a4 4 0 01.61.62c.09.12.06.22-.07.34a2 2 0 00-.44.56 27.18 27.18 0 01-2.21 3.21 30.9 30.9 0 014.29 3.76c.14.12.14.17 0 .32s-.36.37-.54.54-.16.08-.27 0a27.86 27.86 0 00-4.13-3.81 23 23 0 01-5.34 4.18c-.17.09-.26.1-.38 0a2.45 2.45 0 00-.78-.54 19.24 19.24 0 005.51-4.06 19 19 0 002.85-4h-4.51c-.84 0-1.48.05-2.16.09-.13 0-.15 0-.18-.16a6.41 6.41 0 01-.09-1c.74.06 1.4.06 2.33.06zm-83.28 87.63a1.22 1.22 0 01-1.72-.22l-17.3-22.25a15.53 15.53 0 01.2-19.23l17.1-21.45a1.22 1.22 0 011.72-.2l4.49 3.56a1.24 1.24 0 01.2 1.73l-17.12 21.47a7.38 7.38 0 00-.12 9.13l17.29 22.24a1.22 1.22 0 01-.22 1.72z"/><rect class="cls-1" x="126.21" y="31.21" width="8.18" height="54.82" rx="1.23"/><path class="cls-1" d="M208.19 86h-2.68a18.34 18.34 0 01-18.34-18.34V32.44a1.23 1.23 0 011.23-1.23h5.72a1.23 1.23 0 011.23 1.23v35.25a10.16 10.16 0 0010.17 10.16h2.67a10.16 10.16 0 0010.16-10.16V32.44a1.23 1.23 0 011.23-1.23h5.73a1.23 1.23 0 011.22 1.23v35.25A18.34 18.34 0 01208.19 86zm75.1 0H265.6a19.55 19.55 0 01-19.55-19.55V50.76a19.55 19.55 0 0119.55-19.55h17.69a1.23 1.23 0 011.23 1.23v5.72a1.23 1.23 0 01-1.23 1.23H265.6a11.37 11.37 0 00-11.37 11.37v15.72a11.37 11.37 0 0011.37 11.37h17.69a1.23 1.23 0 011.23 1.23v5.72a1.23 1.23 0 01-1.23 1.2z"/><rect class="cls-1" x="260.66" y="54.53" width="20.98" height="8.18" rx="1.23"/><path class="cls-1" d="M96.6 72.15H79.06a1.23 1.23 0 01-1.17-1.61l1.84-5.72A1.22 1.22 0 0180.9 64h15.7zM23 63h-4.2a1.63 1.63 0 00-1.42 2.44l11.19 19.97a1.24 1.24 0 001.07.62h6.57a1.23 1.23 0 001.07-1.83l-8-14.26A16.07 16.07 0 0039 55.18v-7.29a16.36 16.36 0 00-16.35-16.36H4.09A4.09 4.09 0 000 35.62V84.8A1.23 1.23 0 001.23 86H7a1.23 1.23 0 001.18-1.2V41.34a1.63 1.63 0 011.64-1.63h12.83a8.18 8.18 0 018.18 8.18v7.29A7.86 7.86 0 0123 63z"/><path class="cls-1" d="M104.9 86a1.22 1.22 0 001.17-1.59l-14.41-46a10.24 10.24 0 00-19.55-.08l-14.86 46.1A1.23 1.23 0 0058.42 86h6a1.22 1.22 0 001.17-.85l14.3-44.26a2.08 2.08 0 014 0l13.84 44.28a1.22 1.22 0 001.17.83zm185.89-3.16A3.18 3.18 0 11294 86a3.12 3.12 0 01-3.21-3.16zm5.86 0a2.68 2.68 0 10-2.65 2.71 2.63 2.63 0 002.65-2.71zm-3.73 1.77c-.09 0-.14 0-.14-.15v-3.27c0-.1.05-.15.14-.15h1.3a1 1 0 011.12 1 .94.94 0 01-.69 1l.69 1.38c.07.12 0 .17-.1.17H295a.2.2 0 01-.17-.12l-.69-1.37h-.8v1.3a.13.13 0 01-.14.15zm1.91-2.53c0-.34-.18-.56-.62-.56h-.9v1h.9c.44.11.62-.09.62-.44z"/><rect class="cls-1" x="313.5" y="52.45" width="46.5" height="12.34" rx="1.23"/><rect class="cls-1" x="330.58" y="35.37" width="12.34" height="46.5" rx="1.23"/></g></g></svg>