<svg xmlns="http://www.w3.org/2000/svg" viewBox="0 0 360 98.13"><defs><style>.cls-1{fill:#fff;}.cls-2{fill:none;stroke:#fff;stroke-miterlimit:10;stroke-width:2px;}</style></defs><g id="Layer_2" data-name="Layer 2"><g id="レイヤー_1" data-name="レイヤー 1"><path class="cls-1" d="M68.09,58h12a2.13,2.13,0,0,1,0,4.26H51.6a2.13,2.13,0,0,1,0-4.26H63.53V43.24H55A2.13,2.13,0,0,1,55,39H77.28a2.13,2.13,0,0,1,0,4.25H68.09Z"/><path class="cls-1" d="M109.05,44.84c0-1.41-.57-1.79-2.43-1.79H89.75a2.14,2.14,0,0,1,0-4.25h17.7c4.34,0,6,1.67,6,5.09v14c0,3.42-1.67,5.09-6,5.09H89.29a2.14,2.14,0,0,1,0-4.25h17.33c1.86,0,2.43-.38,2.43-1.79Z"/><path class="cls-1" d="M141.77,36a2.29,2.29,0,0,1,2.39,2.21,2.36,2.36,0,0,1-.15.83C140.55,49.85,133.45,59.32,124.78,65a2.63,2.63,0,0,1-1.55.53A2.29,2.29,0,0,1,121,63.23a2.75,2.75,0,0,1,1.4-2.28,44.56,44.56,0,0,0,17.1-23.22A2.4,2.4,0,0,1,141.77,36Z"/><path class="cls-1" d="M169.51,61.71A2.46,2.46,0,0,1,171,64a2.13,2.13,0,0,1-2.13,2.17,2.7,2.7,0,0,1-1.25-.31,102,102,0,0,0-14.29-5.7,2.08,2.08,0,0,1-1.59-2,2.16,2.16,0,0,1,2.16-2.2,2.45,2.45,0,0,1,.76.11A75.87,75.87,0,0,1,169.51,61.71Zm-2.09-12.27a2.26,2.26,0,0,1,1.37,2,2.23,2.23,0,0,1-2.21,2.2,2.77,2.77,0,0,1-1.25-.34,64.19,64.19,0,0,0-8.85-3.72,1.9,1.9,0,0,1-1.41-1.86,2.11,2.11,0,0,1,2.13-2.17,3.2,3.2,0,0,1,.83.12A62.08,62.08,0,0,1,167.42,49.44Zm2.81-10a2.53,2.53,0,0,1,1.52,2.25,2.1,2.1,0,0,1-2.05,2.2,2.45,2.45,0,0,1-1.07-.27,90.08,90.08,0,0,0-11.77-4.44,1.94,1.94,0,0,1-1.52-1.94,2.21,2.21,0,0,1,2.2-2.24,5,5,0,0,1,.61.07A70.37,70.37,0,0,1,170.23,39.44Z"/><path class="cls-1" d="M206.63,48.18a2.17,2.17,0,0,1,0,4.33H178.9a2.17,2.17,0,0,1,0-4.33Z"/><path class="cls-1" d="M233.35,38.65c4,0,5.55,1.4,5.55,4a9.29,9.29,0,0,1-.27,2.16c-2.09,9-8.7,16.76-17.67,21.13a2.68,2.68,0,0,1-1.25.3A2.22,2.22,0,0,1,217.5,64a2.26,2.26,0,0,1,1.33-2C227.23,57.57,232,51.49,234,44.69a3.38,3.38,0,0,0,.11-.76c0-.72-.49-1-1.6-1l-18.31.23a2.14,2.14,0,0,1-2.2-2.24,2,2,0,0,1,2-2.09ZM245,35.45a4.08,4.08,0,1,1-4.06-4.06A4,4,0,0,1,245,35.45Zm-6.26,0a2.19,2.19,0,1,0,4.37,0,2.19,2.19,0,0,0-4.37,0Z"/><path class="cls-1" d="M270.4,44.46c3.49,0,5.13,1.44,5.13,3.76a7,7,0,0,1-.38,2.17c-2.36,7-8.55,12.65-16,15.57a2.82,2.82,0,0,1-.95.19,2.17,2.17,0,0,1-.64-4.25c6.65-2.66,11.24-6.95,13.14-12a2.26,2.26,0,0,0,.19-.76c0-.45-.38-.65-1.21-.65l-19.23.23a2.06,2.06,0,0,1-.07-4.1Zm.3-8.28a2.06,2.06,0,0,1,0,4.1H254.14a2.06,2.06,0,0,1,0-4.1Z"/><path class="cls-1" d="M291.19,42.64a2.24,2.24,0,0,1,.68,1.63,2.57,2.57,0,0,1-2.43,2.51,2.41,2.41,0,0,1-1.71-.76,55.58,55.58,0,0,0-5.17-4.6,2.12,2.12,0,0,1-.91-1.71,2.45,2.45,0,0,1,2.43-2.32,2.69,2.69,0,0,1,1.52.5A33.83,33.83,0,0,1,291.19,42.64Zm16.71-1.11a2.21,2.21,0,0,1,2.32,2.09,2.25,2.25,0,0,1-.38,1.22,45.59,45.59,0,0,1-23.48,20,2.53,2.53,0,0,1-1,.19,2.31,2.31,0,0,1-2.28-2.31,2,2,0,0,1,1.48-2c8.62-3.26,16.87-9.84,21.43-18A2.16,2.16,0,0,1,307.9,41.53Z"/><path class="cls-1" d="M252.8,15.16h2.86V17.1h-8.24V15.16h3V4.28a11.22,11.22,0,0,1-2.82,1.36l-.4-2.1a11.27,11.27,0,0,0,3.56-1.8h2Z"/><path class="cls-1" d="M267.62,9.42c0,5.66-1.72,8-4.84,8S258,15.12,258,9.46s1.74-7.88,4.82-7.88S267.62,3.78,267.62,9.42Zm-7,0c0,4.5.62,6,2.2,6s2.26-1.48,2.26-6-.62-5.88-2.22-5.88S260.58,4.92,260.58,9.44Z"/><path class="cls-1" d="M279.08,9.42c0,5.66-1.72,8-4.84,8s-4.78-2.26-4.78-7.92,1.74-7.88,4.82-7.88S279.08,3.78,279.08,9.42Zm-7,0c0,4.5.62,6,2.2,6s2.26-1.48,2.26-6-.62-5.88-2.22-5.88S272,4.92,272,9.44Z"/><path class="cls-1" d="M283.22,6.33c-1.43,0-1.92,0-2,0s-.19,0-.19-.18V4.88c0-.16,0-.18.19-.18s.59,0,2,0h9.63c1.44,0,1.94,0,2,0s.16,0,.16.18V6.19c0,.16,0,.18-.16.18s-.6,0-2,0H287.3c0,1-.07,1.8-.15,2.58h4.17c1.36,0,1.82,0,1.92,0s.17,0,.17.18c0,.46,0,1.15,0,1.56a28.29,28.29,0,0,1-.54,5.13A2.39,2.39,0,0,1,290.15,18a13.45,13.45,0,0,1-1.51-.07c-.49-.05-.49-.06-.6-.59a5.4,5.4,0,0,0-.42-1.27,13.06,13.06,0,0,0,2.32.21c.59,0,1-.22,1.2-1.07a24.79,24.79,0,0,0,.46-4.66h-4.67a13.68,13.68,0,0,1-.78,2.72,10.14,10.14,0,0,1-3.72,4.65c-.17.12-.27.19-.35.19s-.18-.11-.35-.34a3.82,3.82,0,0,0-1-.85,8.53,8.53,0,0,0,3.82-4.33,17.09,17.09,0,0,0,1-6.22Z"/><path class="cls-1" d="M310.41,13.49c0,1.39,0,2.22,0,2.77a1.54,1.54,0,0,1-.51,1.33c-.39.3-.92.41-2.61.41-.52,0-.53,0-.63-.51a4.67,4.67,0,0,0-.41-1.23c.67.06,1.42.08,1.8.08s.63-.15.63-.55v-4h-9.35V15.2c0,1.75,0,2.64,0,2.74s0,.18-.19.18h-1.39c-.16,0-.18,0-.18-.18s0-1.09,0-3.14V8c0-2,0-3.06,0-3.15s0-.19.18-.19.65,0,2.18,0h8.11c1.52,0,2.07,0,2.16,0s.18,0,.18.19,0,1.17,0,3.22Zm-7.29-3.25v-4h-3.76v4Zm1.67-4v4h3.92v-4Z"/><path class="cls-1" d="M319.41,3.65a8.84,8.84,0,0,0-3.6,7.33,8.87,8.87,0,0,0,3.6,7.33l-.41.49c-3.08-2.24-4.34-4.67-4.34-7.82s1.26-5.59,4.34-7.83Z"/><path class="cls-1" d="M322.18,6.46c-.5.1-.5.1-.71-.38a2.94,2.94,0,0,0-.53-.87,15.39,15.39,0,0,0,3.83-1,3.24,3.24,0,0,0,.67-.36,10.86,10.86,0,0,1,1,1,.35.35,0,0,1,.13.27c0,.13-.11.21-.27.21a1.72,1.72,0,0,0-.53.16c-.32.12-.66.24-1,.35V8.08c1.07,0,1.44,0,1.54,0s.17,0,.17.17V9.33c0,.17,0,.19-.17.19s-.42,0-1.3,0a8,8,0,0,0,1.78,2.5,5,5,0,0,0-.56,1.16c-.05.18-.11.26-.18.26s-.14-.1-.25-.26a8.87,8.87,0,0,1-1.08-2c0,4,.1,6.74.1,7s0,.16-.18.16h-1.26c-.18,0-.19,0-.19-.16s.09-2.9.13-6.34a12.66,12.66,0,0,1-1.64,3.2c-.11.16-.19.24-.27.24s-.13-.08-.19-.26a4.55,4.55,0,0,0-.64-1.13A11.74,11.74,0,0,0,323,9.49h-.39c-1.16,0-1.53,0-1.64,0s-.16,0-.16-.19V8.22c0-.16,0-.17.16-.17s.48,0,1.64,0h.57V6.22Zm8.91.31a20.1,20.1,0,0,0,.82-2.1,6.06,6.06,0,0,0,.17-1,10.47,10.47,0,0,1,1.59.4c.13,0,.21.13.21.22a.34.34,0,0,1-.15.27,1.31,1.31,0,0,0-.28.5c-.23.46-.45,1-.8,1.7,1.13,0,1.58,0,1.68,0s.17,0,.17.2,0,.46,0,1.37v1.94c0,.9,0,1.3,0,1.39s0,.18-.17.18-.58,0-1.85,0V16c0,.29,0,.43.17.53a1,1,0,0,0,.54.11c.38,0,.54-.06.66-.19s.17-.55.19-1.83a3.33,3.33,0,0,0,1,.47c.42.13.42.13.39.54-.07,1.33-.29,1.89-.61,2.15a3.21,3.21,0,0,1-1.78.38,3.26,3.26,0,0,1-1.6-.25c-.29-.21-.46-.52-.46-1.28V11.78h-1c-.08,3.49-1,5.22-3,6.38a1.06,1.06,0,0,1-.4.18c-.09,0-.16-.1-.33-.34a4.47,4.47,0,0,0-.85-.84c2.11-.92,3-2.31,3.09-5.38-.9,0-1.25,0-1.32,0s-.19,0-.19-.18,0-.49,0-1.39V8.3c0-.91,0-1.28,0-1.37s0-.2.19-.2.58,0,2,0Zm-2.54-3c.21-.1.22-.1.32,0A10.35,10.35,0,0,1,330,5.93c.05.17,0,.2-.17.29l-1,.45c-.19.1-.22.1-.29-.08a9.23,9.23,0,0,0-1.05-2.11c-.08-.15-.07-.18.14-.27Zm4.37,4.4h-4.39v2.11h4.39Z"/><path class="cls-1" d="M342.69,11.23c.88,0,1.14,0,1.23,0s.21,0,.21.19c0,.56-.05,1-.05,1.43a19.7,19.7,0,0,1-.3,3.65,1.86,1.86,0,0,1-2,1.58,7.22,7.22,0,0,1-.79,0c-.43-.05-.46,0-.54-.51a3,3,0,0,0-.45-1.19c.64.08,1.22.15,1.54.15.48,0,.65-.21.76-1a18.31,18.31,0,0,0,.2-2.84h-2.1a9.41,9.41,0,0,1-2.37,5c-.14.16-.22.24-.3.24s-.15-.1-.28-.3a4,4,0,0,0-.86-1c1.82-1.68,2.4-3.46,2.5-7.06l-1.59,0c-.17,0-.19,0-.19-.17s0-.5,0-1.43V6c0-.93,0-1.32,0-1.43s0-.17.19-.17.55,0,1.88,0H342c1.31,0,1.76,0,1.88,0s.17,0,.17.17S344,5,344,6V8c0,.93,0,1.33,0,1.43s0,.17-.17.17-.57,0-1.88,0h-1.34c0,.58-.05,1.12-.1,1.63Zm-3.78-3h3.51V5.81h-3.51Zm6.73-.82a16.28,16.28,0,0,0-.12-2.37c.56,0,1.09,0,1.64.12.16,0,.24.08.24.17a1.21,1.21,0,0,1-.12.35,13.3,13.3,0,0,0,0,1.72v4.42c0,1.36,0,2,0,2.11s0,.17-.19.17h-1.3c-.16,0-.18,0-.18-.17s0-.75,0-2.11Zm5,5.48c0,1.12.05,2.38.05,3.18s-.13,1.25-.58,1.57-.93.39-2.48.4c-.5,0-.5,0-.61-.51a3.48,3.48,0,0,0-.51-1.2,14,14,0,0,0,1.78.08c.51,0,.7-.11.7-.63V6.17a14.83,14.83,0,0,0-.13-2.28,16.39,16.39,0,0,1,1.73.11c.16,0,.26.09.26.17a.85.85,0,0,1-.11.34,5.61,5.61,0,0,0-.1,1.63Z"/><path class="cls-1" d="M353,3.15c3.07,2.24,4.34,4.67,4.34,7.83s-1.27,5.58-4.34,7.82l-.42-.49a8.84,8.84,0,0,0,3.6-7.33,8.82,8.82,0,0,0-3.6-7.33Z"/><polyline class="cls-2" points="0 86.71 170 86.71 180 96.71 190 86.71 360 86.71"/><path class="cls-1" d="M49.65,19.44a.37.37,0,0,1-.52-.07l-5.29-6.8A4.75,4.75,0,0,1,43.9,6.7L49.13.14a.38.38,0,0,1,.53-.06L51,1.17a.38.38,0,0,1,.07.53L45.86,8.26a2.25,2.25,0,0,0,0,2.79l5.28,6.79a.38.38,0,0,1-.06.53Z"/><rect class="cls-1" x="38.56" y="1.38" width="2.5" height="16.75" rx="0.37"/><path class="cls-1" d="M63.61,18.13H62.8a5.61,5.61,0,0,1-5.61-5.6V1.75a.38.38,0,0,1,.38-.37h1.75a.38.38,0,0,1,.37.37V12.53a3.1,3.1,0,0,0,3.11,3.1h.81a3.1,3.1,0,0,0,3.11-3.1V1.75a.38.38,0,0,1,.37-.37h1.75a.38.38,0,0,1,.38.37V12.53A5.61,5.61,0,0,1,63.61,18.13Z"/><path class="cls-1" d="M86.56,18.13h-5.4a6,6,0,0,1-6-6V7.35a6,6,0,0,1,6-6h5.4a.38.38,0,0,1,.38.37V3.5a.38.38,0,0,1-.38.38h-5.4a3.47,3.47,0,0,0-3.48,3.47v4.81a3.47,3.47,0,0,0,3.48,3.47h5.4a.38.38,0,0,1,.38.38v1.75A.38.38,0,0,1,86.56,18.13Z"/><rect class="cls-1" x="79.64" y="8.51" width="6.41" height="2.5" rx="0.37"/><path class="cls-1" d="M29.52,13.89H24.16a.37.37,0,0,1-.36-.49l.56-1.75a.38.38,0,0,1,.36-.26h4.8Z"/><path class="cls-1" d="M7,11.11H5.74a.5.5,0,0,0-.44.74l3.43,6.09a.37.37,0,0,0,.33.19h2a.38.38,0,0,0,.33-.56L8.94,13.21a4.89,4.89,0,0,0,3-4.51V6.48a5,5,0,0,0-5-5H1.25A1.25,1.25,0,0,0,0,2.73v15a.38.38,0,0,0,.37.37H2.12a.38.38,0,0,0,.38-.37V4.48A.5.5,0,0,1,3,4H6.92a2.49,2.49,0,0,1,2.5,2.49V8.7A2.41,2.41,0,0,1,7,11.11Z"/><path class="cls-1" d="M32.05,18.13a.37.37,0,0,0,.36-.49L28,3.59a3.13,3.13,0,0,0-6,0L17.49,17.64a.38.38,0,0,0,.36.49h1.84a.39.39,0,0,0,.36-.26L24.41,4.34A.64.64,0,0,1,25,3.89a.63.63,0,0,1,.6.45l4.24,13.53a.38.38,0,0,0,.36.26Z"/><path class="cls-1" d="M88.85,17.16a1,1,0,0,1,1-1,1,1,0,1,1-1,1Zm1.79,0a.82.82,0,1,0-.81.82A.79.79,0,0,0,90.64,17.16Zm-1.14.54s0,0,0-.05v-1s0,0,0,0h.4a.3.3,0,0,1,.34.31.28.28,0,0,1-.21.3l.21.43s0,.05,0,.05h-.08s0,0,0,0l-.21-.42h-.25v.4a0,0,0,0,1,0,.05Zm.59-.78c0-.1-.06-.17-.19-.17h-.28v.32s0,0,0,0h.26C90,17.09,90.09,17,90.09,16.92Z"/><rect class="cls-1" x="95.79" y="7.87" width="14.21" height="3.77" rx="0.37"/><rect class="cls-1" x="101.01" y="2.65" width="3.77" height="14.21" rx="0.37"/></g></g></svg>