<svg xmlns="http://www.w3.org/2000/svg" viewBox="0 0 357.35 72.54"><defs><style>.cls-1{fill:#fff;}</style></defs><g id="Layer_2" data-name="Layer 2"><g id="レイヤー_1" data-name="レイヤー 1"><path class="cls-1" d="M49.65,25.79a.38.38,0,0,1-.52-.07l-5.29-6.8a4.75,4.75,0,0,1,.06-5.87l5.23-6.56a.38.38,0,0,1,.53-.06L51,7.52a.38.38,0,0,1,.07.53l-5.23,6.56a2.25,2.25,0,0,0,0,2.79l5.28,6.79a.38.38,0,0,1-.06.53Z"/><rect class="cls-1" x="38.56" y="7.73" width="2.5" height="16.75" rx="0.37"/><path class="cls-1" d="M63.61,24.48H62.8a5.61,5.61,0,0,1-5.61-5.61V8.1a.38.38,0,0,1,.38-.37h1.75a.38.38,0,0,1,.37.37V18.88A3.1,3.1,0,0,0,62.8,22h.81a3.1,3.1,0,0,0,3.11-3.1V8.1a.38.38,0,0,1,.37-.37h1.75a.38.38,0,0,1,.38.37V18.88A5.61,5.61,0,0,1,63.61,24.48Z"/><path class="cls-1" d="M86.56,24.48h-5.4a6,6,0,0,1-6-6V13.7a6,6,0,0,1,6-6h5.4a.38.38,0,0,1,.38.37V9.85a.38.38,0,0,1-.38.38h-5.4a3.47,3.47,0,0,0-3.48,3.47v4.81A3.48,3.48,0,0,0,81.16,22h5.4a.38.38,0,0,1,.38.38V24.1A.38.38,0,0,1,86.56,24.48Z"/><rect class="cls-1" x="79.64" y="14.85" width="6.41" height="2.5" rx="0.37"/><path class="cls-1" d="M29.52,20.24H24.16a.37.37,0,0,1-.36-.49L24.36,18a.38.38,0,0,1,.36-.26h4.8Z"/><path class="cls-1" d="M7,17.46H5.74a.5.5,0,0,0-.44.74l3.43,6.09a.37.37,0,0,0,.33.19h2a.38.38,0,0,0,.33-.56L8.94,19.56a4.89,4.89,0,0,0,3-4.51V12.82a5,5,0,0,0-5-5H1.25A1.25,1.25,0,0,0,0,9.08v15a.38.38,0,0,0,.37.38H2.12a.38.38,0,0,0,.38-.38V10.83a.5.5,0,0,1,.5-.5H6.92a2.49,2.49,0,0,1,2.5,2.49v2.23A2.41,2.41,0,0,1,7,17.46Z"/><path class="cls-1" d="M32.05,24.48a.37.37,0,0,0,.36-.49L28,9.94a3.13,3.13,0,0,0-6,0L17.49,24a.38.38,0,0,0,.36.49h1.84a.39.39,0,0,0,.36-.26l4.36-13.53a.64.64,0,0,1,.61-.45.63.63,0,0,1,.6.45l4.24,13.53a.38.38,0,0,0,.36.26Z"/><path class="cls-1" d="M88.85,14.51a1,1,0,0,1,1-1,1,1,0,1,1-1,1Zm1.79,0a.82.82,0,1,0-.81.82A.79.79,0,0,0,90.64,14.51Zm-1.14.54s0,0,0-.05V14s0,0,0,0h.4a.3.3,0,0,1,.34.31.28.28,0,0,1-.21.3l.21.43s0,.05,0,.05h-.08s0,0,0,0l-.21-.42h-.25V15a0,0,0,0,1,0,.05Zm.59-.78c0-.1-.06-.17-.19-.17h-.28v.32h.28C90,14.44,90.09,14.38,90.09,14.27Z"/><rect class="cls-1" x="95.79" y="5.22" width="14.21" height="3.77" rx="0.37"/><rect class="cls-1" x="101.01" width="3.77" height="14.21" rx="0.37"/><path class="cls-1" d="M81.77,68.06a2.46,2.46,0,0,1,1.48,2.24,2.14,2.14,0,0,1-2.13,2.17,2.7,2.7,0,0,1-1.25-.31,102,102,0,0,0-14.29-5.7,2.09,2.09,0,0,1-1.6-2,2.17,2.17,0,0,1,2.17-2.2,2.5,2.5,0,0,1,.76.11A75.87,75.87,0,0,1,81.77,68.06ZM79.68,55.79a2.27,2.27,0,0,1,1.36,2,2.22,2.22,0,0,1-2.2,2.2,2.77,2.77,0,0,1-1.25-.34,64.29,64.29,0,0,0-8.86-3.72,1.9,1.9,0,0,1-1.4-1.86,2.1,2.1,0,0,1,2.13-2.17,3.65,3.65,0,0,1,.83.11A63.25,63.25,0,0,1,79.68,55.79Zm2.81-10A2.53,2.53,0,0,1,84,48,2.1,2.1,0,0,1,82,50.24,2.45,2.45,0,0,1,80.89,50a89.68,89.68,0,0,0-11.78-4.44,2,2,0,0,1-1.52-1.94,2.21,2.21,0,0,1,2.21-2.24,4.62,4.62,0,0,1,.6.07A70.47,70.47,0,0,1,82.49,45.79Z"/><path class="cls-1" d="M120.49,63.69a2,2,0,0,1,2.05,2.16A2,2,0,0,1,120.49,68H92.75a2,2,0,0,1-2-2.17,2,2,0,0,1,2-2.16ZM116.31,46a2,2,0,0,1,2,2.16,2,2,0,0,1-2,2.17H96.93a2,2,0,0,1-2.05-2.17A2,2,0,0,1,96.93,46Z"/><path class="cls-1" d="M152.45,45.64c3.3,0,5.09,1.37,5.09,3.46a6.76,6.76,0,0,1-1.37,3.65A46.14,46.14,0,0,1,145.91,63c1.22,1.22,2.36,2.43,3.31,3.54A2.79,2.79,0,0,1,150,68.4a2.41,2.41,0,0,1-2.44,2.36,2.57,2.57,0,0,1-2-1.07,71.45,71.45,0,0,0-9.92-9.53,2.19,2.19,0,0,1-1-1.68,2.34,2.34,0,0,1,2.36-2.2,2.68,2.68,0,0,1,1.52.49,45,45,0,0,1,4.18,3.31,37.32,37.32,0,0,0,9.08-8.82,1.58,1.58,0,0,0,.38-.87c0-.38-.34-.53-1.14-.53l-22,.27A1.94,1.94,0,0,1,127.14,48a2,2,0,0,1,1.9-2.17Z"/><path class="cls-1" d="M185.92,63.84a52.45,52.45,0,0,0-3.61-5.13,2.2,2.2,0,0,1-.49-1.29,2.08,2.08,0,0,1,2.17-1.9,2.51,2.51,0,0,1,1.93.95,59.91,59.91,0,0,1,7.64,11.82,2.7,2.7,0,0,1,.27,1.14,2.32,2.32,0,0,1-2.36,2.24,2.15,2.15,0,0,1-2-1.33c-.42-1-.95-1.9-1.49-2.93a169.82,169.82,0,0,1-23.17,3,2.17,2.17,0,0,1-.27-4.33c1.07-.07,2.13-.11,3.23-.19a189.5,189.5,0,0,0,7.37-23,2.16,2.16,0,0,1,2.24-1.63,2.25,2.25,0,0,1,2.44,2.09,3.24,3.24,0,0,1-.08.57,176.9,176.9,0,0,1-7,21.5Q179.36,64.86,185.92,63.84Z"/><path class="cls-1" d="M220.24,45c4,0,5.55,1.4,5.55,4a9.29,9.29,0,0,1-.27,2.16c-2.09,9-8.7,16.76-17.67,21.13a2.68,2.68,0,0,1-1.25.3,2.22,2.22,0,0,1-2.21-2.24,2.26,2.26,0,0,1,1.33-2c8.4-4.37,13.15-10.45,15.13-17.25a3.46,3.46,0,0,0,.11-.76c0-.72-.49-1-1.6-1l-18.31.23a2.14,2.14,0,0,1-2.2-2.24,2,2,0,0,1,2-2.09Zm11.62-3.2a4.08,4.08,0,1,1-4.06-4.06A4,4,0,0,1,231.86,41.8Zm-6.26,0A2.2,2.2,0,0,0,227.8,44,2.17,2.17,0,0,0,230,41.8a2.14,2.14,0,0,0-2.16-2.16A2.17,2.17,0,0,0,225.6,41.8Z"/><path class="cls-1" d="M257.29,50.81c3.49,0,5.13,1.44,5.13,3.76a7,7,0,0,1-.38,2.17c-2.36,7-8.55,12.65-16,15.57a2.82,2.82,0,0,1-.95.19,2.17,2.17,0,0,1-.64-4.25c6.65-2.66,11.24-7,13.14-12a2.26,2.26,0,0,0,.19-.76c0-.46-.38-.65-1.21-.65l-19.23.23a2.06,2.06,0,0,1-.07-4.1Zm.3-8.28a2.06,2.06,0,0,1,0,4.1H241a2.06,2.06,0,0,1,0-4.1Z"/><path class="cls-1" d="M278.08,49a2.24,2.24,0,0,1,.68,1.63,2.57,2.57,0,0,1-2.43,2.51,2.41,2.41,0,0,1-1.71-.76,55.58,55.58,0,0,0-5.17-4.6,2.12,2.12,0,0,1-.91-1.71A2.45,2.45,0,0,1,271,43.74a2.69,2.69,0,0,1,1.52.5A33.83,33.83,0,0,1,278.08,49Zm16.71-1.11A2.21,2.21,0,0,1,297.11,50a2.25,2.25,0,0,1-.38,1.22,45.59,45.59,0,0,1-23.48,20,2.53,2.53,0,0,1-1,.19A2.31,2.31,0,0,1,270,69.05a2,2,0,0,1,1.48-2c8.62-3.26,16.87-9.84,21.43-18A2.16,2.16,0,0,1,294.79,47.88Z"/><path class="cls-1" d="M266.88,10.19h-6l-.12,3.08c0,.46-.06,1-.12,1.44a3.09,3.09,0,0,1,2.62-1.32c2.52,0,4.3,2,4.3,5,0,3.22-2,5.34-4.88,5.34-2.4,0-4.1-1.08-4.64-3.32l2.44-.74c.28,1.48,1.06,2.12,2.18,2.12,1.44,0,2.34-1.24,2.34-3.36s-.82-3.1-2.22-3.1a2.22,2.22,0,0,0-2.16,1.72l-2.08-.3.3-8.56h8.08Z"/><path class="cls-1" d="M279.08,15.77c0,5.66-1.72,8-4.84,8s-4.78-2.26-4.78-7.92,1.74-7.88,4.82-7.88S279.08,10.13,279.08,15.77Zm-7,0c0,4.5.62,6,2.2,6s2.26-1.48,2.26-6-.62-5.88-2.22-5.88S272,11.27,272,15.79Z"/><path class="cls-1" d="M283.22,12.68c-1.43,0-1.92,0-2,0s-.19,0-.19-.18V11.23c0-.16,0-.18.19-.18s.59,0,2,0h9.63c1.44,0,1.94,0,2,0s.16,0,.16.18v1.31c0,.16,0,.18-.16.18s-.6,0-2,0H287.3c0,1-.07,1.8-.15,2.58h4.17c1.36,0,1.82,0,1.92,0s.17,0,.17.18c0,.46,0,1.15,0,1.56a28.29,28.29,0,0,1-.54,5.13,2.39,2.39,0,0,1-2.69,2.21,13.45,13.45,0,0,1-1.51-.07c-.49,0-.49-.06-.6-.59a5.4,5.4,0,0,0-.42-1.27,13.06,13.06,0,0,0,2.32.21c.59,0,1-.22,1.2-1.07a24.79,24.79,0,0,0,.46-4.66h-4.67a13.68,13.68,0,0,1-.78,2.72,10.14,10.14,0,0,1-3.72,4.65c-.17.12-.27.19-.35.19s-.18-.11-.35-.34a3.82,3.82,0,0,0-1-.85,8.53,8.53,0,0,0,3.82-4.33,17.09,17.09,0,0,0,1-6.22Z"/><path class="cls-1" d="M310.41,19.84c0,1.39,0,2.22,0,2.77a1.54,1.54,0,0,1-.51,1.33c-.39.3-.92.41-2.61.41-.52,0-.53,0-.63-.51a4.55,4.55,0,0,0-.41-1.23c.67.06,1.42.08,1.8.08s.63-.15.63-.55v-4h-9.35v3.41c0,1.75,0,2.64,0,2.74s0,.18-.19.18h-1.39c-.16,0-.18,0-.18-.18s0-1.09,0-3.14V14.3c0-2.05,0-3.06,0-3.15s0-.19.18-.19.65,0,2.18,0h8.11c1.52,0,2.07,0,2.16,0s.18,0,.18.19,0,1.17,0,3.22Zm-7.29-3.25v-4h-3.76v4Zm1.67-4v4h3.92v-4Z"/><path class="cls-1" d="M319.41,10a8.84,8.84,0,0,0-3.6,7.33,8.87,8.87,0,0,0,3.6,7.33l-.41.49c-3.08-2.24-4.34-4.67-4.34-7.82s1.26-5.59,4.34-7.83Z"/><path class="cls-1" d="M322.18,12.81c-.5.1-.5.1-.71-.38a2.94,2.94,0,0,0-.53-.87,15.39,15.39,0,0,0,3.83-1,3.24,3.24,0,0,0,.67-.36,10.86,10.86,0,0,1,1,1,.35.35,0,0,1,.13.27c0,.13-.11.21-.27.21a1.72,1.72,0,0,0-.53.16c-.32.12-.66.24-1,.35v2.32c1.07,0,1.44,0,1.54,0s.17,0,.17.17v1.11c0,.17,0,.19-.17.19s-.42,0-1.3,0a7.8,7.8,0,0,0,1.78,2.49,5.31,5.31,0,0,0-.56,1.17c-.05.18-.11.26-.18.26s-.14-.1-.25-.26a8.87,8.87,0,0,1-1.08-2c0,4,.1,6.74.1,7s0,.16-.18.16h-1.26c-.18,0-.19,0-.19-.16s.09-2.9.13-6.34a12.66,12.66,0,0,1-1.64,3.2c-.11.16-.19.24-.27.24s-.13-.08-.19-.26a4.55,4.55,0,0,0-.64-1.13A11.74,11.74,0,0,0,323,15.84h-.39c-1.16,0-1.53,0-1.64,0s-.16,0-.16-.19V14.57c0-.16,0-.17.16-.17s.48,0,1.64,0h.57V12.57Zm8.91.31a20.1,20.1,0,0,0,.82-2.1,6.06,6.06,0,0,0,.17-1,10.47,10.47,0,0,1,1.59.4c.13.05.21.13.21.22a.34.34,0,0,1-.15.27,1.31,1.31,0,0,0-.28.5c-.23.46-.45,1-.8,1.7,1.13,0,1.58,0,1.68,0s.17,0,.17.2,0,.46,0,1.37v1.94c0,.9,0,1.3,0,1.39s0,.18-.17.18-.58,0-1.85,0v4.19c0,.29,0,.43.17.53a1,1,0,0,0,.54.11c.38,0,.54-.06.66-.19s.17-.55.19-1.83a3.33,3.33,0,0,0,1,.47c.42.13.42.13.39.54-.07,1.33-.29,1.89-.61,2.15a3.21,3.21,0,0,1-1.78.38,3.26,3.26,0,0,1-1.6-.25c-.29-.21-.46-.52-.46-1.29V18.13h-1c-.08,3.49-1,5.21-3,6.38a1.06,1.06,0,0,1-.4.18c-.09,0-.16-.1-.33-.34a4.87,4.87,0,0,0-.85-.85c2.11-.91,3-2.3,3.09-5.37-.9,0-1.25,0-1.32,0s-.19,0-.19-.18,0-.49,0-1.39V14.65c0-.91,0-1.28,0-1.37s0-.2.19-.2.58,0,2,0Zm-2.54-3c.21-.1.22-.1.32,0A10.35,10.35,0,0,1,330,12.28c.05.16,0,.2-.17.29l-1,.45c-.19.1-.22.1-.29-.08a9.23,9.23,0,0,0-1.05-2.11c-.08-.15-.07-.18.14-.27Zm4.37,4.4h-4.39v2.11h4.39Z"/><path class="cls-1" d="M342.69,17.58c.88,0,1.14,0,1.23,0s.21,0,.21.19c0,.56-.05,1-.05,1.43a19.7,19.7,0,0,1-.3,3.65,1.86,1.86,0,0,1-2,1.58,7.22,7.22,0,0,1-.79,0c-.43-.05-.46,0-.54-.51a3,3,0,0,0-.45-1.19c.64.08,1.22.15,1.54.15.48,0,.65-.21.76-1a18.31,18.31,0,0,0,.2-2.84h-2.1a9.41,9.41,0,0,1-2.37,5c-.14.16-.22.24-.3.24s-.15-.1-.28-.3a3.8,3.8,0,0,0-.86-1c1.82-1.68,2.4-3.46,2.5-7.06l-1.59,0c-.17,0-.19,0-.19-.17s0-.5,0-1.43V12.32c0-.93,0-1.32,0-1.43s0-.17.19-.17.55,0,1.88,0H342c1.31,0,1.76,0,1.88,0s.17,0,.17.17,0,.5,0,1.43v2.06c0,.93,0,1.33,0,1.43s0,.17-.17.17-.57,0-1.88,0h-1.34c0,.58-.05,1.12-.1,1.63Zm-3.78-3h3.51V12.16h-3.51Zm6.73-.82a16.28,16.28,0,0,0-.12-2.37c.56,0,1.09,0,1.64.12.16,0,.24.08.24.17a1.21,1.21,0,0,1-.12.35,13.3,13.3,0,0,0,0,1.72v4.41c0,1.37,0,2,0,2.12s0,.17-.19.17h-1.3c-.16,0-.18,0-.18-.17s0-.75,0-2.12Zm5,5.48c0,1.12.05,2.38.05,3.18s-.13,1.25-.58,1.57-.93.39-2.48.4c-.5,0-.5,0-.61-.51a3.4,3.4,0,0,0-.51-1.2,14,14,0,0,0,1.78.08c.51,0,.7-.11.7-.63V12.52a14.83,14.83,0,0,0-.13-2.28,16.39,16.39,0,0,1,1.73.11c.16,0,.26.09.26.17a.85.85,0,0,1-.11.34,5.61,5.61,0,0,0-.1,1.63Z"/><path class="cls-1" d="M353,9.5c3.07,2.24,4.34,4.67,4.34,7.83s-1.27,5.58-4.34,7.82l-.42-.49a8.84,8.84,0,0,0,3.6-7.33,8.82,8.82,0,0,0-3.6-7.33Z"/></g></g></svg>