<svg xmlns="http://www.w3.org/2000/svg" xmlns:xlink="http://www.w3.org/1999/xlink" viewBox="0 0 210 100"><defs><style>.cls-1{fill:none;}.cls-2{fill:#006795;}.cls-3{fill:#fafa00;}.cls-4{clip-path:url(#clip-path);}.cls-5{fill:#fff;}.cls-6{clip-path:url(#clip-path-2);}</style><clipPath id="clip-path"><rect class="cls-1" x="138.07" y="10.25" width="43.86" height="26.71"/></clipPath><clipPath id="clip-path-2"><rect class="cls-1" x="28.07" y="10.25" width="43.86" height="26.71"/></clipPath></defs><g id="Layer_2" data-name="Layer 2"><g id="レイヤー_1" data-name="レイヤー 1"><circle class="cls-2" cx="160" cy="50" r="50"/><path class="cls-3" d="M147.72,54c.56,0,1.1.3,1.1.88,0,.06,0,.1,0,.16-.46,3.4-2.84,5.78-6.22,6.88a1.49,1.49,0,0,1-.4.06,1,1,0,0,1-.28-2c2.94-1,4.34-2.68,4.7-5.14A1,1,0,0,1,147.72,54ZM156,51.28c2,0,2.66.6,2.66,2.14v1.3a1,1,0,0,1-1.1.92,1,1,0,0,1-1.1-.92v-1c0-.48-.12-.66-.74-.66H144.34c-.62,0-.76.18-.76.66v1.08a1,1,0,0,1-1.1.92,1,1,0,0,1-1.1-.92V53.44c0-1.54.7-2.16,2.66-2.16Zm-7.08-4.06H142.2a.84.84,0,0,1-.8-.9.83.83,0,0,1,.8-.9h6.68v-1c0-.58.56-.86,1.1-.86s1.1.28,1.1.86v1H158a.83.83,0,0,1,.82.9.84.84,0,0,1-.82.9h-6.88v1.16h4.8a.83.83,0,0,1,.82.9.84.84,0,0,1-.82.9H144.4a.84.84,0,0,1-.8-.9.83.83,0,0,1,.8-.9h4.48ZM151,54.88a1.09,1.09,0,0,1,2.14,0V59.3c0,.46.2.6,1.58.6,1.58,0,2-.18,2.1-1.34a1,1,0,0,1,1-.84,1,1,0,0,1,1.06.94v.12c-.24,2.28-1.24,2.92-4.26,2.92S151,61.16,151,59.64Z"/><path class="cls-3" d="M176.42,50.7a1.05,1.05,0,0,1,0,2.08h-5.58V59h7.22a1.05,1.05,0,0,1,0,2.08H161.9a1.05,1.05,0,0,1,0-2.08h6.66V45c0-.58.58-.88,1.14-.88s1.14.3,1.14.88V50.7Z"/><path class="cls-3" d="M147.55,67.78c1.76,0,2.62.76,2.62,1.82a2.94,2.94,0,0,1-.52,1.52,14.9,14.9,0,0,1-3.18,3.48,1.39,1.39,0,0,1-.84.32,1.09,1.09,0,0,1-1.08-1.1,1.31,1.31,0,0,1,.56-1,10.38,10.38,0,0,0,2.1-2.22.63.63,0,0,0,.14-.36c0-.16-.14-.24-.46-.24l-11.36.08a1,1,0,0,1-1.06-1.1,1,1,0,0,1,1.06-1.1Zm-6.64,4.68a1.17,1.17,0,0,1,2.32,0v.94A10.47,10.47,0,0,1,138,82.88a1.47,1.47,0,0,1-.76.24A1.14,1.14,0,0,1,136,82a1.33,1.33,0,0,1,.74-1.1,8.05,8.05,0,0,0,4.14-7.5Z"/><path class="cls-3" d="M156.57,74.56a1.13,1.13,0,0,1,.06.36,1.09,1.09,0,0,1-1.14,1,1,1,0,0,1-.92-.62,19.37,19.37,0,0,0-1.28-2.58.88.88,0,0,1-.14-.48,1,1,0,0,1,1.1-.92,1.07,1.07,0,0,1,.92.52A15.37,15.37,0,0,1,156.57,74.56Zm8.1-3.58a1.08,1.08,0,0,1,1.16,1,1.38,1.38,0,0,1,0,.26,18,18,0,0,1-8.28,11,1.26,1.26,0,0,1-.56.16,1.06,1.06,0,0,1-1-1.06,1.08,1.08,0,0,1,.62-1,15.15,15.15,0,0,0,7.14-9.66A.94.94,0,0,1,164.67,71Zm-4.26,2.62a1.11,1.11,0,0,1,.06.34,1,1,0,0,1-1.1,1,.94.94,0,0,1-.92-.66,17.53,17.53,0,0,0-1.2-2.54.87.87,0,0,1-.14-.46,1,1,0,0,1,1.08-.88,1,1,0,0,1,.94.52A14,14,0,0,1,160.41,73.6Z"/><path class="cls-3" d="M180.13,68.7c2.1,0,2.92.74,2.92,2.08a4.91,4.91,0,0,1-.14,1.14A16.94,16.94,0,0,1,173.61,83a1.45,1.45,0,0,1-.66.16A1.16,1.16,0,0,1,171.79,82a1.19,1.19,0,0,1,.7-1.06c4.42-2.3,6.92-5.5,8-9.08a1.62,1.62,0,0,0,.06-.4c0-.38-.26-.52-.84-.52l-9.64.12a1.14,1.14,0,0,1-1.16-1.18,1,1,0,0,1,1.06-1.1ZM186.25,67a2.15,2.15,0,1,1-2.14-2.14A2.12,2.12,0,0,1,186.25,67ZM183,67a1.16,1.16,0,0,0,1.16,1.16A1.14,1.14,0,0,0,185.25,67a1.13,1.13,0,0,0-1.14-1.14A1.14,1.14,0,0,0,183,67Z"/><g class="cls-4"><path class="cls-5" d="M151.35,16.55a1.15,1.15,0,0,0,.36,1.23l3.87,3.87a.39.39,0,0,1,0,.55L125.64,52.14a1.7,1.7,0,0,0,0,2.4l7.74,7.73a1.68,1.68,0,0,0,2.39,0l29.94-29.94a.4.4,0,0,1,.56,0L170,36.1a1.08,1.08,0,0,0,1.94-.7l1.75-19.57a1.51,1.51,0,0,0-.43-1.22h0a1.51,1.51,0,0,0-1.22-.43l-19.66,1.66A1.15,1.15,0,0,0,151.35,16.55Z"/></g><circle class="cls-2" cx="50" cy="50" r="50"/><path class="cls-3" d="M24.84,54.36A18,18,0,0,1,22.7,58a1.17,1.17,0,0,1-.92.5.93.93,0,0,1-.94-.92,1,1,0,0,1,.24-.64,22.94,22.94,0,0,0,3.34-6.24H21.88a.86.86,0,0,1-.8-1c0-.48.26-1,.78-1h2.9V46.88a20.77,20.77,0,0,1-2.12.3h-.1a1,1,0,0,1-.1-2A24.62,24.62,0,0,0,28,43.89a1.21,1.21,0,0,1,.44-.08,1,1,0,0,1,1,1.08,1,1,0,0,1-.64.91c-.6.22-1.26.42-1.94.6v2.36h2.28a1,1,0,0,1,0,1.92H26.88v1.46A13.18,13.18,0,0,1,29.52,54a1.12,1.12,0,0,1,.36.78,1,1,0,0,1-.94,1,1,1,0,0,1-.74-.36,15.18,15.18,0,0,0-1.32-1.16V61c0,.56-.52.84-1.06.84s-1.06-.28-1.06-.84V58.88Zm6.66-8.54a1,1,0,0,1,1.1-.91,1,1,0,0,1,1.1.91V56.26c0,.6-.54.9-1.1.9a1,1,0,0,1-1.1-.9ZM37.94,59c0,1.66-.68,2.36-2.52,2.36a9.18,9.18,0,0,1-1.52-.12,1,1,0,0,1-.86-1,1,1,0,0,1,1-1.06l.2,0a8.29,8.29,0,0,0,1,.08c.26,0,.5-.08.5-.62v-14c0-.62.56-.92,1.12-.92s1.12.3,1.12.92Z"/><path class="cls-3" d="M58,47a.88.88,0,0,1,.88.94.89.89,0,0,1-.88.94H54.22a16.85,16.85,0,0,0,4.6,4.1,1.1,1.1,0,0,1,.6,1,1,1,0,0,1-1,1,1.25,1.25,0,0,1-.7-.22A18.91,18.91,0,0,1,52,48.92H47.92a20.29,20.29,0,0,1-5.64,6.18,1.13,1.13,0,0,1-.68.24,1,1,0,0,1-1-1,1,1,0,0,1,.46-.82,18.28,18.28,0,0,0,4.58-4.62h-3.6a.88.88,0,0,1-.86-.94.87.87,0,0,1,.86-.94H51a17.88,17.88,0,0,0,1.6-3.13,1.11,1.11,0,0,1,2.12.28,1.11,1.11,0,0,1-.08.42A16.83,16.83,0,0,1,53.34,47Zm.06,12.38a.89.89,0,0,1,0,1.76H41.92a.89.89,0,0,1,0-1.76h1.84V56c0-1.46.64-2.14,2.34-2.14h8c1.56,0,2.2.68,2.2,2.14v3.38Zm-10-14.35a1.31,1.31,0,0,1,.18.61,1.07,1.07,0,0,1-1.12,1,1.16,1.16,0,0,1-1-.6,12.85,12.85,0,0,0-.74-1.19,1,1,0,0,1-.2-.58,1.08,1.08,0,0,1,1.12-1,1.15,1.15,0,0,1,.92.48A14.15,14.15,0,0,1,48.12,45.07Zm-.84,14.35V55.64H46.4c-.5,0-.6.14-.6.58v3.2Zm3.48,0V55.64h-1.6v3.78Zm3.52-3.2c0-.44-.14-.58-.62-.58h-1v3.78h1.64Z"/><path class="cls-3" d="M70.44,46.74a.68.68,0,0,1,.22.5.83.83,0,0,1-.12.4,11.76,11.76,0,0,1-1.34,1.84c.26.24.52.5.76.74a19.77,19.77,0,0,0,1.18-1.66,1,1,0,0,1,1.8.38.9.9,0,0,1-.18.5A30.49,30.49,0,0,1,69.82,53c.68-.06,1.36-.1,2-.18-.08-.14-.18-.28-.28-.42a.74.74,0,0,1-.16-.42.79.79,0,0,1,.82-.72,1,1,0,0,1,.84.46,21.77,21.77,0,0,1,1.38,2.06,1.11,1.11,0,0,1,.16.52.9.9,0,0,1-1.72.3c0-.1-.1-.18-.14-.28-.58.08-1.16.16-1.74.22v1.5h7.36a.82.82,0,0,1,.82.9.83.83,0,0,1-.82.9H71v3.3c0,.58-.54.86-1.08.86s-1.1-.28-1.1-.86v-3.3H61.6a.82.82,0,0,1-.8-.9.81.81,0,0,1,.8-.9h7.24v-1.3q-1.2.09-2.28.12a.87.87,0,0,1-1-.88.81.81,0,0,1,.86-.84l.94,0c.5-.5,1-1,1.42-1.52a17,17,0,0,0-2-1.78.94.94,0,0,1-.42-.76.89.89,0,0,1,.9-.86,1,1,0,0,1,.6.18,11.2,11.2,0,0,0,1-1.48.72.72,0,0,1,.14-.2H62a.8.8,0,0,1-.78-.88A.81.81,0,0,1,62,45h6.82V43.83c0-.56.54-.84,1.08-.84s1.08.28,1.08.84V45h7a.81.81,0,0,1,.78.89.8.8,0,0,1-.78.88ZM62,55a.93.93,0,0,1-.92-.94.91.91,0,0,1,.6-.84A20.4,20.4,0,0,0,65,51.38a1,1,0,0,1,.56-.18,1,1,0,0,1,.94.9.86.86,0,0,1-.38.68,19.67,19.67,0,0,1-3.68,2.1A1.26,1.26,0,0,1,62,55Zm.2-6.76a1,1,0,0,1,1-.9,1.08,1.08,0,0,1,.64.22,13.77,13.77,0,0,1,1.44,1.32,1,1,0,0,1,.32.7,1,1,0,0,1-1,1,1,1,0,0,1-.78-.4c-.32-.34-.94-.94-1.34-1.3A.83.83,0,0,1,62.24,48.22Zm12.38,2.64a1,1,0,0,1-.94-.92.87.87,0,0,1,.4-.72,15.07,15.07,0,0,0,2-1.72.91.91,0,0,1,.7-.34,1,1,0,0,1,1,.9.85.85,0,0,1-.24.58,13.94,13.94,0,0,1-2.28,2A.93.93,0,0,1,74.62,50.86Zm-.2,1.36a1,1,0,0,1,1-.94,1,1,0,0,1,.56.16,18.67,18.67,0,0,1,2.38,1.76,1,1,0,0,1,.4.78,1,1,0,0,1-1,.94,1.07,1.07,0,0,1-.74-.3c-.54-.48-1.46-1.2-2.22-1.74A.8.8,0,0,1,74.42,52.22Z"/><path class="cls-3" d="M37.55,67.33c1.76,0,2.62.76,2.62,1.82a2.94,2.94,0,0,1-.52,1.52,14.9,14.9,0,0,1-3.18,3.48,1.39,1.39,0,0,1-.84.32,1.09,1.09,0,0,1-1.08-1.1,1.31,1.31,0,0,1,.56-1,10.38,10.38,0,0,0,2.1-2.22.63.63,0,0,0,.14-.36c0-.16-.14-.24-.46-.24l-11.36.08a1,1,0,0,1-1.06-1.1,1,1,0,0,1,1.06-1.1ZM30.91,72a1.17,1.17,0,0,1,2.32,0V73A10.47,10.47,0,0,1,28,82.44a1.47,1.47,0,0,1-.76.24A1.14,1.14,0,0,1,26,81.56a1.33,1.33,0,0,1,.74-1.1A8.06,8.06,0,0,0,30.91,73Z"/><path class="cls-3" d="M46.57,74.11a1.13,1.13,0,0,1,.06.36,1.09,1.09,0,0,1-1.14,1,1,1,0,0,1-.92-.62,19.37,19.37,0,0,0-1.28-2.58.88.88,0,0,1-.14-.48,1,1,0,0,1,1.1-.92,1.07,1.07,0,0,1,.92.52A15.37,15.37,0,0,1,46.57,74.11Zm8.1-3.58a1.08,1.08,0,0,1,1.16,1,1.38,1.38,0,0,1,0,.26,18,18,0,0,1-8.28,11,1.26,1.26,0,0,1-.56.16,1.06,1.06,0,0,1-1-1.06,1.08,1.08,0,0,1,.62-1,15.17,15.17,0,0,0,7.14-9.67A.94.94,0,0,1,54.67,70.53Zm-4.26,2.62a1.11,1.11,0,0,1,.06.34,1,1,0,0,1-1.1,1,.94.94,0,0,1-.92-.66,17.53,17.53,0,0,0-1.2-2.54.87.87,0,0,1-.14-.46,1,1,0,0,1,1.08-.88,1,1,0,0,1,.94.52A14,14,0,0,1,50.41,73.15Z"/><path class="cls-3" d="M70.13,68.25c2.1,0,2.92.74,2.92,2.08a4.91,4.91,0,0,1-.14,1.14,16.93,16.93,0,0,1-9.3,11.13,1.45,1.45,0,0,1-.66.16,1.16,1.16,0,0,1-1.16-1.18,1.19,1.19,0,0,1,.7-1.06c4.42-2.3,6.92-5.51,8-9.09a1.62,1.62,0,0,0,.06-.4c0-.38-.26-.52-.84-.52L60,70.63a1.14,1.14,0,0,1-1.16-1.18,1,1,0,0,1,1.06-1.1Zm6.12-1.68a2.15,2.15,0,1,1-2.14-2.14A2.12,2.12,0,0,1,76.25,66.57Zm-3.3,0a1.16,1.16,0,0,0,1.16,1.16,1.14,1.14,0,0,0,1.14-1.16,1.13,1.13,0,0,0-1.14-1.14A1.14,1.14,0,0,0,73,66.57Z"/><g class="cls-6"><path class="cls-5" d="M41.35,16.55a1.15,1.15,0,0,0,.36,1.23l3.87,3.87a.39.39,0,0,1,0,.55L15.64,52.14a1.7,1.7,0,0,0,0,2.4l7.74,7.73a1.68,1.68,0,0,0,2.39,0L55.71,32.33a.4.4,0,0,1,.56,0L60,36.1A1.08,1.08,0,0,0,62,35.4l1.75-19.57a1.51,1.51,0,0,0-.43-1.22h0a1.51,1.51,0,0,0-1.22-.43L42.42,15.84A1.15,1.15,0,0,0,41.35,16.55Z"/></g></g></g></svg>