<svg xmlns="http://www.w3.org/2000/svg" viewBox="0 0 174.34 174.35"><defs><style>.cls-1{fill:#fafa00;}.cls-2{fill:none;stroke:#006795;stroke-width:2px;}.cls-3{fill:#006795;}</style></defs><g id="Layer_2" data-name="Layer 2"><g id="レイヤー_1" data-name="レイヤー 1"><path class="cls-1" d="M87.17,1A86.15,86.15,0,0,0,19.49,140.48l-8.55,19.73a2.43,2.43,0,0,0,2.23,3.4,2.51,2.51,0,0,0,1-.2l19.73-8.54A86.17,86.17,0,1,0,87.17,1Z"/><path class="cls-2" d="M87.17,1A86.15,86.15,0,0,0,19.49,140.48l-8.55,19.73a2.43,2.43,0,0,0,2.23,3.4,2.51,2.51,0,0,0,1-.2l19.73-8.54A86.17,86.17,0,1,0,87.17,1Z"/><path class="cls-3" d="M69.38,68a1,1,0,0,1,1.08-.86,1,1,0,0,1,1.08,1,1.14,1.14,0,0,1,0,.26c-.16.76-.36,1.56-.58,2.36l1.76-.3a.9.9,0,0,1,.22,0,1,1,0,0,1,.14,2.08c-.86.18-1.84.34-2.82.48a36.75,36.75,0,0,1-3.08,6.74,1.32,1.32,0,0,1-1.12.72,1.09,1.09,0,0,1-1.12-1.06,1.25,1.25,0,0,1,.22-.7,30.65,30.65,0,0,0,2.7-5.44c-.74.08-1.46.12-2.08.14a1,1,0,0,1-1-1.1,1,1,0,0,1,1-1c.9,0,1.9-.1,2.92-.2C68.9,70,69.18,69,69.38,68ZM73,84.74c-2.38,0-3.82-1-3.82-2.9,0-1.6,1.36-2.92,3.92-2.92a8.91,8.91,0,0,1,1,.06,14.55,14.55,0,0,1-.2-2.12A10.86,10.86,0,0,1,74,74.92a1,1,0,0,1,1-.8,1,1,0,0,1,1.12.92c0,.06,0,.1,0,.16A11.59,11.59,0,0,0,76,76.84a15.21,15.21,0,0,0,.28,2.6A13.92,13.92,0,0,1,80,81.18a1.12,1.12,0,0,1,.54.94,1.1,1.1,0,0,1-1.06,1.1,1.27,1.27,0,0,1-.68-.24,12.4,12.4,0,0,0-2.28-1.28C76.52,83.94,74.88,84.74,73,84.74Zm1.42-3.26a4,4,0,0,0,0-.5,7,7,0,0,0-1.26-.12c-1.4,0-1.84.44-1.84,1s.4.92,1.7.92C73.88,82.76,74.38,82.36,74.38,81.48Zm6.16-9.34a1.24,1.24,0,0,1,.66,1,1.1,1.1,0,0,1-1.06,1.1,1.16,1.16,0,0,1-.6-.18,19.54,19.54,0,0,0-2.86-1.38,1,1,0,0,1-.72-.9,1.13,1.13,0,0,1,1.14-1.1,1.36,1.36,0,0,1,.38.06A12.66,12.66,0,0,1,80.54,72.14Z"/><path class="cls-3" d="M86.66,77a9.38,9.38,0,0,1,5.8-2.14c3.14,0,5.08,1.72,5.08,4,0,3.08-2.54,5.28-7.36,5.84l-.18,0a1.09,1.09,0,0,1-.08-2.18c3.92-.46,5.28-1.94,5.28-3.66,0-1-.82-2-2.74-2a8.48,8.48,0,0,0-6.2,3,1.3,1.3,0,0,1-1,.48,1.15,1.15,0,0,1-1.18-1.16,1,1,0,0,1,0-.24c.2-1.48.68-4.1,1.26-6.84a1.07,1.07,0,0,1,1.1-.84,1,1,0,0,1,1.14.94.68.68,0,0,1,0,.2c-.38,1.86-.72,3.38-.94,4.54Zm6.12-8.18a1.21,1.21,0,0,1,.7,1.1A1.07,1.07,0,0,1,92.42,71a1.44,1.44,0,0,1-.6-.14,29,29,0,0,0-3.26-1.24,1,1,0,0,1-.76-1A1.18,1.18,0,0,1,89,67.54a2.23,2.23,0,0,1,.34,0A16.38,16.38,0,0,1,92.78,68.84Z"/><path class="cls-3" d="M99.86,80.78a1.07,1.07,0,0,1,1.08-1,1.43,1.43,0,0,1,.7.22,16,16,0,0,1,3.58,3.16,1.46,1.46,0,0,1,.36.92,1.14,1.14,0,0,1-1.16,1.12,1.22,1.22,0,0,1-1-.5,19.46,19.46,0,0,0-3.12-3.06A1,1,0,0,1,99.86,80.78Z"/><path class="cls-3" d="M39.08,97.09c-2.22.48-3.46.68-4.24.78H34.7a1,1,0,0,1-1-1.08,1,1,0,0,1,.88-1,50.94,50.94,0,0,0,5.86-1,1.5,1.5,0,0,1,.42,0A1.33,1.33,0,0,1,42.28,96a1.49,1.49,0,0,1-.36.92,25.1,25.1,0,0,1-4.9,4.62l0,0c2.52-.56,4.88-1,8.2-1.72a1,1,0,0,1,.24,0,1,1,0,0,1,.18,2.08A15.85,15.85,0,0,0,42.24,103a4.37,4.37,0,0,0-2.78,3.83c0,1.38.92,2.2,3.62,2.3a1.08,1.08,0,0,1,1.1,1.08,1.1,1.1,0,0,1-1.2,1.12c-3.62-.06-5.76-1.72-5.76-4.32a4.92,4.92,0,0,1,1.84-3.89l0,0c-1.64.38-3.2.76-5,1.2-.7.18-1.36.36-2,.56a1.36,1.36,0,0,1-.38.06,1.12,1.12,0,0,1-.28-2.2,14.61,14.61,0,0,0,3.12-1.54,26.94,26.94,0,0,0,4.64-4Z"/><path class="cls-3" d="M49.18,104.35c0-4.56,3.78-8.3,9.28-8.3,4.88,0,7.7,3.06,7.7,7a7.49,7.49,0,0,1-5.58,7.39,1.31,1.31,0,0,1-.46.08A1.12,1.12,0,0,1,59,109.42a1.15,1.15,0,0,1,.84-1.1c2.84-1,4-2.75,4-5.23a4.89,4.89,0,0,0-4.82-5,20.1,20.1,0,0,1-2.26,8.51c-1.1,1.94-2.28,2.52-3.82,2.52C50.88,109.12,49.18,107.48,49.18,104.35Zm2.3,0c0,1.84.72,2.53,1.44,2.53s1.16-.33,1.74-1.35a18.09,18.09,0,0,0,2-7.3A6.34,6.34,0,0,0,51.48,104.35Z"/><path class="cls-3" d="M75.68,102.57a13.47,13.47,0,0,1,3.42-.4c3.2,0,5.22,1.48,5.22,4s-1.74,4.23-4.66,4.65a.82.82,0,0,1-.22,0,1.06,1.06,0,0,1-.14-2.12c2-.34,2.74-1.22,2.74-2.53,0-1.1-1-2-2.92-2a11.81,11.81,0,0,0-3.44.52v3.57c0,2.08-.9,2.84-2.76,2.84s-3.74-1.38-3.74-3.12c0-1.46.84-3.07,4.34-4.69V99.89c-1,.1-2,.16-2.76.18a1,1,0,0,1,0-2.06c.8,0,1.76-.08,2.76-.2v-3a1.09,1.09,0,0,1,2.16,0v2.74c.68-.12,1.34-.24,1.9-.38a1.11,1.11,0,0,1,.36,0,1,1,0,0,1,1.06,1,1,1,0,0,1-.84,1c-.74.18-1.58.36-2.48.5Zm-2.16,2.9c-1.74,1-2.1,1.65-2.1,2.43s.72,1.06,1.46,1c.58,0,.64-.38.64-.88Zm11.6-6.88a1.24,1.24,0,0,1,.46.94,1.17,1.17,0,0,1-1.16,1.14,1.22,1.22,0,0,1-.82-.34,15.39,15.39,0,0,0-2.42-1.74,1,1,0,0,1-.56-.9,1.2,1.2,0,0,1,1.14-1.18,1.09,1.09,0,0,1,.54.14A15,15,0,0,1,85.12,98.59Z"/><path class="cls-3" d="M88.56,97.93a.77.77,0,0,1,.8.76,14.16,14.16,0,0,1-.54,3,.81.81,0,0,1-.8.62.74.74,0,0,1-.78-.72,1.35,1.35,0,0,1,0-.28,16.14,16.14,0,0,0,.54-2.7A.73.73,0,0,1,88.56,97.93Zm3.18,13.47a1.09,1.09,0,0,1-2.14,0v-17a1.09,1.09,0,0,1,2.14,0Zm2.1-11.53V100a.78.78,0,0,1-.8.8.7.7,0,0,1-.7-.64,14.21,14.21,0,0,0-.38-1.8,1.17,1.17,0,0,1,0-.26.69.69,0,0,1,.72-.66.77.77,0,0,1,.74.56A11.46,11.46,0,0,1,93.84,99.87Zm3.32-1.66a1.58,1.58,0,0,1,.12.58,1.06,1.06,0,0,1-1.08,1.06A1.22,1.22,0,0,1,95.1,99a16.69,16.69,0,0,0-1.26-2.44,1.07,1.07,0,0,1-.2-.6,1,1,0,0,1,1.08-1,1.15,1.15,0,0,1,.94.52A15.92,15.92,0,0,1,97.16,98.21Zm-.78,13.25c-1.92,0-2.62-.6-2.62-2.24V103a1.1,1.1,0,0,1,2.16,0v5.93c0,.46.24.64.66.64h5.8c.42,0,.66-.18.66-.64v-5.77a1.1,1.1,0,0,1,2.16,0v6.09c0,1.64-.7,2.24-2.62,2.24Zm5.8-4.72a1.17,1.17,0,0,1,.34.78,1,1,0,0,1-1,1,1,1,0,0,1-.78-.38c-.28-.34-.6-.68-.94-1a15.64,15.64,0,0,1-1.74,1.72,1.17,1.17,0,0,1-.72.3,1,1,0,0,1-.94-.94,1,1,0,0,1,.4-.78,13.28,13.28,0,0,0,1.6-1.65c-.42-.36-.84-.68-1.22-1a1,1,0,0,1-.48-.8,1,1,0,0,1,1-.94,1,1,0,0,1,.56.18,13.73,13.73,0,0,1,1.32,1,14.52,14.52,0,0,0,1-1.74,1,1,0,0,1,.94-.62.94.94,0,0,1,1,.9,1.05,1.05,0,0,1-.12.46,17.48,17.48,0,0,1-1.36,2.32A14.54,14.54,0,0,1,102.18,106.74Zm-1.56-9.17a1.11,1.11,0,0,1,.08.42,1.1,1.1,0,0,1-1.12,1.08,1,1,0,0,1-1-.76,19.92,19.92,0,0,0-1.16-2.7,1.07,1.07,0,0,1-.14-.52,1,1,0,0,1,1-.9,1.14,1.14,0,0,1,1,.56A15,15,0,0,1,100.62,97.57Zm2.24,3a1.12,1.12,0,0,1-1,.58,1,1,0,0,1-1.08-1,1.19,1.19,0,0,1,.2-.64A20.16,20.16,0,0,0,103.1,95a1,1,0,0,1,1-.72,1.08,1.08,0,0,1,1.12,1,1.21,1.21,0,0,1-.08.44A24.32,24.32,0,0,1,102.86,100.61Z"/><path class="cls-3" d="M114.86,95a3,3,0,0,1,.6,0,1.71,1.71,0,0,1,1.94,1.76,2.2,2.2,0,0,1,0,.5,39.24,39.24,0,0,1-1.06,4.34,22.21,22.21,0,0,1,3.9,1,20,20,0,0,0,.38-3,1,1,0,0,1,1.12-.94,1.08,1.08,0,0,1,1.16,1.06,17.56,17.56,0,0,1-.54,3.8,23.59,23.59,0,0,1,2.94,1.62,1.2,1.2,0,0,1-.56,2.21,1.25,1.25,0,0,1-.7-.22,24.55,24.55,0,0,0-2.36-1.39,13.93,13.93,0,0,1-3.2,5.11,1.39,1.39,0,0,1-1,.46,1.14,1.14,0,0,1-1.12-1.12,1.1,1.1,0,0,1,.34-.78,12.42,12.42,0,0,0,2.9-4.63,18.07,18.07,0,0,0-3.94-1.12,29.68,29.68,0,0,1-1.24,2.87c-1,2-2.06,2.66-3.5,2.66-1.66,0-2.88-1.08-2.88-3.15,0-2.5,2.26-4.56,5.6-4.56h.46a23.28,23.28,0,0,0,.94-3.88c0-.06,0-.12,0-.16s-.12-.2-.4-.16l-2.8.46a.9.9,0,0,1-.22,0,1,1,0,0,1-1-1.08,1,1,0,0,1,.94-1.06Zm-2.5,10.7a21.18,21.18,0,0,0,1-2.32c-2.08,0-3.18,1.2-3.18,2.46,0,.73.32,1,.72,1C111.5,106.92,111.82,106.74,112.36,105.73Z"/><path class="cls-3" d="M134.44,97.67h.14c.78,0,1.44,0,2.06-.1h.1a1,1,0,0,1,1,1.06,1,1,0,0,1-.86,1,21,21,0,0,1-2.22.1h-.56c-.12.94-.28,1.86-.42,2.8H134a19.17,19.17,0,0,0,3.14-.26.68.68,0,0,1,.2,0,1,1,0,0,1,1,1.06,1,1,0,0,1-.86,1.06,18.73,18.73,0,0,1-3.48.32h-.56c-.06.7-.08,1.26-.08,1.75,0,2.16.9,2.9,2.66,2.9,2.2,0,3.38-.78,3.38-2.76a5.52,5.52,0,0,0-.24-1.49,1.54,1.54,0,0,1,0-.3,1,1,0,0,1,1.14-1,1.18,1.18,0,0,1,1.18.86,6,6,0,0,1,.3,1.84c0,3.43-2.32,5.09-5.68,5.09-3.12,0-5-1.6-5-5a19.18,19.18,0,0,1,.1-2,16.15,16.15,0,0,1-2.4-.4,1.09,1.09,0,0,1-.84-1.08,1,1,0,0,1,1-1.1,1.11,1.11,0,0,1,.36,0,16.34,16.34,0,0,0,2.12.38c.12-.94.26-1.86.42-2.8a14.56,14.56,0,0,1-2.1-.32,1,1,0,0,1-.86-1,1,1,0,0,1,1-1.08,1,1,0,0,1,.24,0,18.63,18.63,0,0,0,2.06.32l.5-2.88a1.07,1.07,0,0,1,1.14-.84,1,1,0,0,1,1.12.94.75.75,0,0,1,0,.2Z"/><path class="cls-3" d="M38.11,123.41h1.28c1.16,0,2.26,0,3.28,0a1,1,0,0,1,1,1.08,1,1,0,0,1-1,1c-.78,0-1.64,0-2.54,0l-2,0q0,1.05.06,2.1c1.32-.08,2.6-.18,3.76-.32h.16a1,1,0,0,1,1.06,1,1.06,1.06,0,0,1-1,1.06c-1.22.16-2.54.26-3.88.34,0,.88.12,1.76.2,2.64a18.4,18.4,0,0,1,5,2.18,1.28,1.28,0,0,1,.68,1.08,1.18,1.18,0,0,1-1.86,1,18.67,18.67,0,0,0-3.7-1.92v.14c0,2.16-1.88,3.2-4.2,3.2-2.54,0-4.1-1.22-4.1-3.08s1.44-3.08,4.3-3.08a15,15,0,0,1,1.62.1c-.06-.72-.14-1.44-.16-2.14H35c-1.2,0-2.42,0-3.12-.12a1,1,0,0,1-1-1.06,1,1,0,0,1,1-1.06h.14a27.62,27.62,0,0,0,2.88.14H36c0-.72-.06-1.42-.08-2.14-1.7,0-3.36.1-4.76.16a1.06,1.06,0,0,1,0-2.12c1.4-.06,3.06-.14,4.76-.16v-2c0-.6.56-.9,1.12-.9a1,1,0,0,1,1.1.9Zm-1.64,11.08v-.44a9.31,9.31,0,0,0-1.8-.18c-1.56,0-2,.48-2,1.08s.52,1,1.82,1S36.47,135.33,36.47,134.49Z"/><path class="cls-3" d="M52.57,128.37a6.91,6.91,0,0,1,2.54-.5c3.12,0,5.16,1.7,5.16,4.48,0,3.5-2.52,5.74-6.42,5.74-2.74,0-4.48-1.4-4.48-3.18a2.49,2.49,0,0,1,2.78-2.56c1.92,0,3.26,1.28,3.84,3.28a3.43,3.43,0,0,0,1.94-3.26c0-1.42-1.12-2.56-3-2.56s-4,.7-6.44,2.6a1.39,1.39,0,0,1-.84.32,1.13,1.13,0,0,1-1.12-1.1,1.18,1.18,0,0,1,.5-.94,45,45,0,0,0,6.76-6.76c-1,.16-2.28.3-3.28.38-.08,0-.6.06-.86.06a1,1,0,0,1-1-1.08,1,1,0,0,1,1-1c1.62-.08,3.74-.34,5.66-.64a1.32,1.32,0,0,1,.28,0,1.3,1.3,0,0,1,1.38,1.26,1.59,1.59,0,0,1-.36.94,44,44,0,0,1-4,4.52Zm1.32,7.72c-.34-1.28-.94-2-1.78-2a.73.73,0,0,0-.72.78c0,.66.76,1.18,2.34,1.18Z"/><path class="cls-3" d="M76.81,131.59c0,3.12-2.34,5.32-6.82,6a.68.68,0,0,1-.2,0,1,1,0,0,1-.1-1.92c3.8-.66,5.1-1.94,5.1-4.06,0-1.28-.92-2.28-2.9-2.28a19.63,19.63,0,0,0-7.58,2,1,1,0,0,1-.48.1.94.94,0,0,1-.94-.94,1,1,0,0,1,.68-.94,21.8,21.8,0,0,1,8.32-2C74.81,127.49,76.81,129.07,76.81,131.59Z"/><path class="cls-3" d="M83.21,121.91a1.16,1.16,0,0,1,2.32,0,35,35,0,0,0,.46,5.86,27.38,27.38,0,0,1,3.94-1.56,1.13,1.13,0,0,1,.36-.06,1.09,1.09,0,0,1,1,1.12,1,1,0,0,1-.74,1,23.58,23.58,0,0,0-5.26,2.32c-1.72,1.12-2.32,2.22-2.32,3.24,0,1.24.82,1.88,4,1.88a22,22,0,0,0,4.14-.36,1.23,1.23,0,0,1,.26,0,1.05,1.05,0,0,1,1.08,1.1,1.1,1.1,0,0,1-.9,1.12,23.13,23.13,0,0,1-4.6.38c-4.2,0-6.3-1.28-6.3-4,0-1.64.76-3.26,3.26-5A31.86,31.86,0,0,1,83.21,121.91Z"/><path class="cls-3" d="M101.39,125.19c1.4,0,2,.52,2,1.86V137c0,1.3-.76,1.84-2,1.84a6.35,6.35,0,0,1-1.14-.08,1,1,0,0,1,0-1.94l.16,0a4.87,4.87,0,0,0,.76.06c.22,0,.32-.08.32-.34v-3H97.79a14.9,14.9,0,0,1-1.06,4.72,1.07,1.07,0,0,1-1,.68.92.92,0,0,1-1-.88,1.21,1.21,0,0,1,.12-.48,17.13,17.13,0,0,0,1.18-7.1v-3.46a2.2,2.2,0,0,1,.16-.94,1.08,1.08,0,0,1-.62.2.93.93,0,0,1-1-.84,1,1,0,0,1,.3-.7,16.17,16.17,0,0,0,2.38-3.92.9.9,0,0,1,.86-.56.92.92,0,0,1,1,.82,1,1,0,0,1-.06.34c-.1.28-.24.56-.36.84h1.1c1,0,1.48.56,1.48,1.2a1.34,1.34,0,0,1-.08.48,8.29,8.29,0,0,1-.5,1.22Zm-2.64,0a5.91,5.91,0,0,0,.48-1,.22.22,0,0,0,0-.1q0-.18-.3-.18H97.89q-.51.81-1.08,1.56a2.81,2.81,0,0,1,1.28-.24Zm.14,6.7v-1.8h-1v.6c0,.4,0,.8,0,1.2Zm-.68-5.08c-.26,0-.32.08-.32.38v1.3h1v-1.68Zm3.38.38c0-.3-.06-.38-.32-.38h-.74v1.68h1.06Zm0,2.9h-1.06v1.8h1.06Zm6.76-7.1a7.36,7.36,0,0,1-3,4.52,1.13,1.13,0,0,1-.66.22,1,1,0,0,1-1-.94,1.06,1.06,0,0,1,.52-.88,5.12,5.12,0,0,0,2.1-2.92h-1.7a.82.82,0,0,1-.78-.9.81.81,0,0,1,.78-.9h5.88c1.46,0,2.06.58,2.06,1.56a9.92,9.92,0,0,1-.42,2.58,2,2,0,0,1-2.28,1.68,7.68,7.68,0,0,1-1.1-.08,1,1,0,0,1-.88-1,.9.9,0,0,1,.92-.92l.18,0a5.51,5.51,0,0,0,.68.06c.28,0,.42-.08.54-.4a4.75,4.75,0,0,0,.3-1.44c0-.26-.1-.3-.56-.3Zm-.58,6.54v-1.36c0-.54.52-.82,1-.82s1,.28,1,.82v1.36h2.26a.9.9,0,0,1,0,1.76h-2.26V133h2.88c.48,0,.72.44.72.9s-.24.9-.72.9h-2.88v3.48c0,.54-.52.82-1,.82s-1-.28-1-.82v-3.48h-3.06a.82.82,0,0,1-.74-.9.81.81,0,0,1,.74-.9h3.06v-1.66h-1.58a6.08,6.08,0,0,1-.38.72,1.06,1.06,0,0,1-.94.56.86.86,0,0,1-.92-.82,1.18,1.18,0,0,1,.2-.62,10.38,10.38,0,0,0,1.1-2.64.89.89,0,0,1,.9-.66.88.88,0,0,1,.94.82,1,1,0,0,1,0,.24l-.18.64Z"/><path class="cls-3" d="M118.49,127.33a1.19,1.19,0,0,1,.36.82,1.12,1.12,0,0,1-1.12,1.08,1,1,0,0,1-.76-.34,19.83,19.83,0,0,0-1.76-1.58,1,1,0,0,1-.42-.76,1.1,1.1,0,0,1,1.12-1,1.25,1.25,0,0,1,.7.22A11.75,11.75,0,0,1,118.49,127.33Zm.44,3.9a1.12,1.12,0,0,1,1.18,1,1,1,0,0,1-.06.34,21.79,21.79,0,0,1-2.44,5.22,1.27,1.27,0,0,1-1.08.62,1.07,1.07,0,0,1-1.12-1,1.19,1.19,0,0,1,.22-.68,21.75,21.75,0,0,0,2.3-4.84A1,1,0,0,1,118.93,131.23Zm1-8.68a1.19,1.19,0,0,1,.36.82,1.05,1.05,0,0,1-1.86.68,21.39,21.39,0,0,0-1.66-1.52,1,1,0,0,1-.4-.76,1.06,1.06,0,0,1,1.1-1,1.23,1.23,0,0,1,.7.24A12.62,12.62,0,0,1,119.89,122.55Zm7.72,8.52a11.43,11.43,0,0,0,4.8,5.26,1.17,1.17,0,0,1,.66,1,1.18,1.18,0,0,1-1.14,1.16,1.11,1.11,0,0,1-.58-.16,12.94,12.94,0,0,1-5.14-5.84,10.78,10.78,0,0,1-5.36,6.1,1.07,1.07,0,0,1-.52.14,1,1,0,0,1-.42-2,8.55,8.55,0,0,0,4.48-5.72H121a.86.86,0,0,1-.8-.94.85.85,0,0,1,.8-.94h3.76a16.41,16.41,0,0,0,.1-2v-1.14h-2.88a1,1,0,0,1,0-1.9h2.88v-2.88a1.1,1.1,0,0,1,2.16,0v2.88h1.84c1.7,0,2.48.76,2.48,2.2v2.82h1.16a.84.84,0,0,1,.8.94.85.85,0,0,1-.8.94Zm1.56-1.88v-2.52c0-.48-.16-.6-.64-.6H127v1.26c0,.62,0,1.24-.08,1.86Z"/><path class="cls-3" d="M140.49,136a1.52,1.52,0,0,1-3,0,1.52,1.52,0,0,1,3,0Zm-2.94-13.08a1.42,1.42,0,0,1,2.84,0c0,.54-.12,1.74-.16,2.32-.14,1.94-.28,4.9-.34,7.12a.86.86,0,0,1-.94.84.83.83,0,0,1-.9-.84c-.08-2.2-.2-5.16-.34-7.12C137.69,124.89,137.55,123.47,137.55,122.93Z"/><path class="cls-3" d="M82,59.93a.34.34,0,0,1-.5-.06l-5.1-6.56a4.58,4.58,0,0,1,.06-5.67l5-6.32a.36.36,0,0,1,.5-.06l1.33,1.05a.36.36,0,0,1,0,.51l-5,6.33a2.18,2.18,0,0,0,0,2.69l5.09,6.55a.36.36,0,0,1-.06.51Z"/><rect class="cls-3" x="71.32" y="42.52" width="2.41" height="16.16" rx="0.36"/><path class="cls-3" d="M95.48,58.67h-.79a5.41,5.41,0,0,1-5.41-5.4V42.88a.37.37,0,0,1,.37-.36h1.68a.36.36,0,0,1,.36.36V53.27a3,3,0,0,0,3,3h.79a3,3,0,0,0,3-3V42.88a.36.36,0,0,1,.36-.36h1.69a.36.36,0,0,1,.36.36V53.27A5.4,5.4,0,0,1,95.48,58.67Z"/><path class="cls-3" d="M117.61,58.67H112.4a5.76,5.76,0,0,1-5.76-5.76V48.28a5.76,5.76,0,0,1,5.76-5.76h5.21a.36.36,0,0,1,.36.36v1.68a.37.37,0,0,1-.36.37H112.4a3.35,3.35,0,0,0-3.35,3.35v4.63a3.35,3.35,0,0,0,3.35,3.35h5.21a.36.36,0,0,1,.36.36v1.69A.36.36,0,0,1,117.61,58.67Z"/><rect class="cls-3" x="110.94" y="49.39" width="6.18" height="2.41" rx="0.36"/><path class="cls-3" d="M62.59,54.58H57.42a.36.36,0,0,1-.34-.47l.54-1.69a.36.36,0,0,1,.34-.25h4.63Z"/><path class="cls-3" d="M40.89,51.9H39.65a.48.48,0,0,0-.42.72l3.31,5.87a.38.38,0,0,0,.32.18h1.93a.37.37,0,0,0,.32-.54l-2.37-4.2a4.74,4.74,0,0,0,2.88-4.35V47.43a4.82,4.82,0,0,0-4.82-4.82H35.33a1.21,1.21,0,0,0-1.21,1.2v14.5a.36.36,0,0,0,.36.36h1.69a.36.36,0,0,0,.36-.36V45.5A.49.49,0,0,1,37,45H40.8a2.41,2.41,0,0,1,2.41,2.41v2.15A2.32,2.32,0,0,1,40.89,51.9Z"/><path class="cls-3" d="M65,58.67a.36.36,0,0,0,.34-.47L61.13,44.65a3,3,0,0,0-5.76,0L51,58.2a.36.36,0,0,0,.35.47h1.77a.37.37,0,0,0,.35-.25l4.21-13.05a.61.61,0,0,1,1.16,0l4.09,13.05a.37.37,0,0,0,.35.25Z"/><path class="cls-3" d="M119.82,57.73a.94.94,0,1,1,1.87,0,.94.94,0,1,1-1.87,0Zm1.73,0a.79.79,0,1,0-.79.8A.77.77,0,0,0,121.55,57.73Zm-1.1.52s0,0,0,0v-1s0,0,0,0h.38a.29.29,0,0,1,.33.31.27.27,0,0,1-.2.29l.2.4s0,0,0,0h-.08a.09.09,0,0,1,0,0l-.2-.4h-.23v.38s0,0,0,0Zm.56-.74c0-.1-.05-.17-.18-.17h-.26v.31s0,0,0,0h.25C121,57.67,121,57.61,121,57.51Z"/><rect class="cls-3" x="126.51" y="48.78" width="13.7" height="3.64" rx="0.36"/><rect class="cls-3" x="131.55" y="43.74" width="3.64" height="13.7" rx="0.36"/></g></g></svg>