<svg xmlns="http://www.w3.org/2000/svg" viewBox="0 0 304.04 395.23"><defs><style>.cls-1{fill:#e9e9e9;}.cls-2{fill:#006795;}</style></defs><g id="Layer_2" data-name="Layer 2"><g id="レイヤー_1" data-name="レイヤー 1"><path class="cls-1" d="M301.68,225.32a16,16,0,0,1-1.12-1.61c-1.34-2.26-2.77-4.47-4.31-6.6a46.6,46.6,0,0,0-5.34-5.54c-1.64-1.16-3.3-2.27-4.91-3.47a47.88,47.88,0,0,1-10.72-10.64,9.84,9.84,0,0,1-.9-1.49c-.47-.39-.94-.77-1.41-1.18a10.07,10.07,0,0,1-1.24-1.29,15.91,15.91,0,0,1-3-1.67l-.11-.05a13.76,13.76,0,0,1-1.68-1.3c-2.14-1.65-1.14-.77-1.68-1.31,0,0-.43-.54-.9-1.15l-.76-.62a3,3,0,0,1-.25-.25l-.38-.43a13.15,13.15,0,0,1-1.88-1.48l-.75-.52a12.25,12.25,0,0,1-3.78-2.78l-.13-.13,0,0a13,13,0,0,1-1.85-1.57l-.17-.13a16.16,16.16,0,0,1-2.39-1.53,15.54,15.54,0,0,1-1.65-1.25,12.27,12.27,0,0,1-2.74-1.86c-.17-.11-.35-.21-.52-.33a17.22,17.22,0,0,1-1.94-1.24,15.93,15.93,0,0,1-6.24-4.42,13,13,0,0,1-1.33-.92,14.52,14.52,0,0,1-2.61-1.2,14.78,14.78,0,0,1-5-4.73,39.72,39.72,0,0,1-4.86-3.39,16.1,16.1,0,0,1-1.57-1.63,52,52,0,0,1-6.29-.78c-4.11-.82-7.47-4-9.66-7.43a13.26,13.26,0,0,1-1.84-4.63,15.55,15.55,0,0,1-9.78-4.94l-.22-.15a17.89,17.89,0,0,0-2.23-.15,17.24,17.24,0,0,0-1.74.1c0-.26,0-.52,0-.78-.27,0-.53-.1-.8-.15a121.79,121.79,0,0,1-34-12.24,16.13,16.13,0,0,1-10-8.4c-1-.26-1.94-.5-2.93-.71l-.7,0a16.8,16.8,0,0,1-1.89-.15,30.38,30.38,0,0,1,.26,3.23,44.16,44.16,0,0,0,1.23,6.49,3.75,3.75,0,0,1,.55,5.73c-.22,4.77-2.09,9.25-4.41,13.43a3.45,3.45,0,0,1-1.88,4h0c.13-.07.11-.07,0,0a2.58,2.58,0,0,1,0,.48v.52a3.68,3.68,0,0,1-1,2.49,3,3,0,0,1-.59.48l-.14.47a3.68,3.68,0,0,1-1.48,4.31c-1.16,3-2.5,6-3.91,8.83-3.55,7.22-7.59,14.2-11.46,21.25a3.66,3.66,0,0,1-.39.58,16.08,16.08,0,0,1-.84,2c-.1.28-.2.56-.29.84-.93,2.73-1.44,5.55-2.78,8.12a.52.52,0,0,1,.09.52c-1,3.23-1.24,7.36-3.38,10.1-.68.86-1.71,1.34-2.53.32s-.6-3.2-.51-4.69c0,0,0,0,0-.06a3.26,3.26,0,0,1-1.52-2.83c0-1,0-1.87,0-2.78a2.79,2.79,0,0,1-.8-1.57,50.21,50.21,0,0,1-.52-8l-.66,1.3c.24-.9.46-1.81.67-2.72,0-2.13.12-4.27.18-6.43a3,3,0,0,1,.08-.68,88.56,88.56,0,0,1-1.22-12.58,3.23,3.23,0,0,1,1-2.5l-.35-.67.79-1.43s0,0,0-.07c.53-2.47-.08-5.32,0-7.86.13-2.81.53-5.59.84-8.38.65-5.64,1-11.36,2.65-16.81a3.58,3.58,0,0,1,1.13-1.72c.09-.64.15-1.3.18-2l-.35-.37a3.18,3.18,0,0,0,.37-.27v-.66a3.1,3.1,0,0,1,1.4-2.83,4.07,4.07,0,0,0-1.87-3.35,3.74,3.74,0,0,1-1.8,1.44,2.81,2.81,0,0,1-.39.82c-.95,1.33-1.71,2.75-3.23,3.54a2.12,2.12,0,0,1-.31.14,3.44,3.44,0,0,1-.53.76,1.19,1.19,0,0,1-.19.18l0,.05c-.14.21-.27.41-.4.63-.22.39-.42.79-.62,1.18a14.21,14.21,0,0,1-2,2.94,3.19,3.19,0,0,1-3,.95,8.78,8.78,0,0,1-1.24,1.12c-2.94,2.12-6.76,2.79-10.13,4-7.26,2.54-14.13,5.86-21.83,6.58-1.19.86-2.44,1.55-3.67,2.4A11.45,11.45,0,0,0,58,151.52a54.06,54.06,0,0,0-3.47,5.84,3.54,3.54,0,0,1-.39,2c-.61,1.24-1.21,2.47-1.76,3.73a2.51,2.51,0,0,1-1.06,1.19h.07a3.45,3.45,0,0,1,5.32,3.17c.6,2-.35,4.64-1.36,6.37-2.87,4.93-10.79,1.89-14.27-.8a7,7,0,0,1-1.4-.29,14.67,14.67,0,0,1-3.31-1.6L36,170.9a7.19,7.19,0,0,1-1.6-.78c-.44,0-.87.09-1.31.15a18.38,18.38,0,0,0-5.71-1.5l-.26-.17c-.86-.77-1.69-1.57-2.47-2.42a14.09,14.09,0,0,0-4.24-4.25,13.92,13.92,0,0,0-2.29-1.71l-.07.13a4.49,4.49,0,0,1-.54,3.38,24.63,24.63,0,0,1-1.17,4.79,3.55,3.55,0,0,1,.33,2c0,.41-.1.81-.16,1.21h0c-.46,3.21-1.29,6.33-1.95,9.49a67.47,67.47,0,0,0-.79,8.51,59.39,59.39,0,0,1-1.28,8.13,4,4,0,0,1,0,2.36c-.33,1-.66,1.94-1,2.9l.82.46A158.53,158.53,0,0,0,8.7,219.89a17.84,17.84,0,0,0-1.73,7c-5.2,7-5.3,16.35-3.27,24.65a36.08,36.08,0,0,0,2.37,6.66c0,.87.08,1.74.13,2.61A34.28,34.28,0,0,1,7.71,266c.9,3.61,3.43,6.74,5.48,10.37a18.93,18.93,0,0,0,11.93,4.28,24.77,24.77,0,0,0,5-.74l.07,0a14.64,14.64,0,0,1,5.92-1.5,3.87,3.87,0,0,1,2.65-1.76h0s0,0,0,0a3.34,3.34,0,0,1,.58-.36l.09-.06.14-.11c.39-.31.78-.62,1.18-.92a7.59,7.59,0,0,1,4.26-1.57,2.56,2.56,0,0,1,.88.09,17.25,17.25,0,0,0,4.68-3,20.77,20.77,0,0,0,4-5.72A26.43,26.43,0,0,0,56,256.34c.1-4.53,7.14-4.53,7,0a40.42,40.42,0,0,1-.55,5.8,3.38,3.38,0,0,1,.84,3.32c-.11.35-.22.7-.31,1.05.18,3.38.37,6.77.39,10.16a16.93,16.93,0,0,0-4.52,2.45,31.73,31.73,0,0,1-2.25,10.17,3.26,3.26,0,0,1-.85,3.32c.42-.44-.07.67-.09.8-.11.5-.17,1-.24,1.52a20.06,20.06,0,0,1-.8,3.23c-1,3.19-2.05,6.37-3,9.59s-1.86,7.79-4.07,10.83a36.3,36.3,0,0,1-3.19,12.53c-.51,3.67-.85,7.37-1,11.06-1.16,2.25-2.4,4.47-3.72,6.64a3.49,3.49,0,0,1,.46,3.91,1.22,1.22,0,0,0-.07.17,2.94,2.94,0,0,1,1.27,2.82c0,.12,0,.24,0,.36,2.86.45,3.51,4,2,5.85a8.61,8.61,0,0,1,.36,1.34c.56,3.51,0,7,.26,10.54l.44.35c.08.94.16,1.88.25,2.82,0,.45,0,.89-.06,1.34s-.23,1.1-.37,1.64a19.4,19.4,0,0,0,1.73,13.88,5.07,5.07,0,0,1,1.32,1.25H193.09a43.67,43.67,0,0,1,4.31-.8c1.72-.22,3.38-.15,5.09-.24.77-.05.47.15,1.08-.27-.62.43.83-.53.82-.52a5.22,5.22,0,0,1,2.46-.74l.11-.05c-.19-1.11-.41-2.23-.67-3.33-1.14-4.7-2.75-9.64-2.57-14.52a10,10,0,0,0-1.25-.83s0,0,0-.07c-.06-.53-.09-1.17-.16-1.81-.6-.83-1.22-1.65-1.88-2.45-.5-.62-1-1.19-1.59-1.75.14-.44.27-.88.37-1.33a30.11,30.11,0,0,0,.55-3.24h0l-.17-.24a5.66,5.66,0,0,1-2-4.17,4,4,0,0,0,2.63-3.78,4.41,4.41,0,0,0-2.11-3.63,22.86,22.86,0,0,0-2.56-4.84c-.62-.9-1.24-1.71-1.86-2.46a7.55,7.55,0,0,1-6.38-3.81,7,7,0,0,0-1.51-2.13c-.7-.63-2.2-1.45-3.25-2.49-2.35-2.32-2.72-5.51-2.67-8.65.06-3.64.75-7.21,3.4-9.89l.34-.32c-.4-.31-.81-.61-1.24-.9l1.67-4.05c1.74-4.2.28-10.8-1.9-14.53a14,14,0,0,0-.77-1.18,98.4,98.4,0,0,0,3.19-20.51q.13-2.21.18-4.41c-4.93-1.41-5-9.1-.21-10.68-.09-1.8-.21-3.61-.34-5.41-.25-3.31-.54-6.62-.81-9.92l2.1-4.07a69.83,69.83,0,0,1-.58-10.22c.14-3.59.92-7,.94-10.59,0-4.12,3.69-5.88,6.81-5.29a3,3,0,0,1,.31,0c4.48-.2,8.49,2.22,12.06,4.95a4,4,0,0,1,2.27.22c3.25,1.36,6.67,2,9.73,3.88a46.23,46.23,0,0,1,8.1,6.15,50.48,50.48,0,0,1,6.26,7.86,5.85,5.85,0,0,1,3.29,2.51c.15.23.24.37.29.46.39.54.83,1,1.21,1.58a9.05,9.05,0,0,1,1.06,2,4.81,4.81,0,0,1,1.21.64,3.64,3.64,0,0,1,1.07-.15,3.25,3.25,0,0,1,2.36.9h.27c1.58,0,2.34,2.33.83,3.08l-.09.05a3.29,3.29,0,0,1-2.65,2.95,5,5,0,0,1-3,3.05,5.1,5.1,0,0,1-.67,1.73,7.18,7.18,0,0,1-1.07,1.38,5.89,5.89,0,0,1-1.17.9l-.08.07a5.53,5.53,0,0,1-1.74,1.18,4.83,4.83,0,0,1-1.76,1.18,5,5,0,0,1-.73.56,4.22,4.22,0,0,1-.25.76,5.32,5.32,0,0,1-.35.94,5.22,5.22,0,0,1-3.6,4.5c-.18.36-.36.73-.51,1.09a12.77,12.77,0,0,0-1.51,0c-.14.26-.29.52-.44.78a22.53,22.53,0,0,1-4.19,5.54,38.26,38.26,0,0,1-4.88,3.43,20,20,0,0,0-3.55,3.39,20.23,20.23,0,0,1-2.51,2.38l1.06.94c.56.5,1.09,1,1.6,1.53a3.91,3.91,0,0,1,1.25.41,4.25,4.25,0,0,1,1.45.82,5.06,5.06,0,0,1,1.91,1.23,4.33,4.33,0,0,1,1,.74,4.93,4.93,0,0,1,.88.61l.38.2.27.21a4.41,4.41,0,0,1,.8.35,15.89,15.89,0,0,1,7.64,3.29c1.29,1,2.54,2,3.81,3-.1-.09.62.46.75.55a12.87,12.87,0,0,0,1.51.91,5.09,5.09,0,0,1,2.51,3.23c.4.45.8.92,1.19,1.41a43.54,43.54,0,0,1,4.44,6c.2.36.38.74.55,1.11.51-.49,1-1,1.59-1.4a37.29,37.29,0,0,0,4.81-3.95c1.77-1.87,3.7-3.49,5.54-5.29a26.63,26.63,0,0,1,6.26-5.08,7.75,7.75,0,0,1,.79-.33c1.79-2.53,3.61-5.08,5.53-7.39a4.35,4.35,0,0,1,2-1.33c1.16-2.34,2.1-4.81,3.05-7.25a50.59,50.59,0,0,1,4.2-7.23,70.4,70.4,0,0,1,9-8.73l.71-.51a15.7,15.7,0,0,1,1.45-3.36,17.69,17.69,0,0,1,3.85-4.45c.38-.72.77-1.45,1.19-2.15,1.17-1.92,2.3-3.85,3.29-5.86,2.05-5.44,3.75-11,8.24-15.09a11,11,0,0,1,.11-1.53A17.76,17.76,0,0,1,301.68,225.32Z"/><path class="cls-2" d="M94.53,37.71c-.44,1.44-.91,2.86-1.3,4.31s-.69,2.71-1,4.08-.45,2.82-.62,4.24-.34,2.88-.47,4.33q-.32,3.34-.45,6.7c0,1.11-.06,2.22,0,3.34s.15,2.42.21,3.63a1.2,1.2,0,1,0,2.39,0c0-1.44.14-2.87.18-4.31s.08-2.85.16-4.28c.13-2.78.38-5.56.69-8.33.08-.76.17-1.51.26-2.27s.22-1.54.36-2.3q.27-1.37.6-2.7c.23-.9.46-1.79.73-2.67s.61-2,.93-3a1.41,1.41,0,0,0-1-1.72,1.18,1.18,0,0,0-.37-.05,1.44,1.44,0,0,0-1.35,1Zm.07,11.53,0,.25,0-.25Z"/><path class="cls-2" d="M91,77.34c0,.87,0,1.74.06,2.62,0,.45,0,.89.09,1.34s.12.94.19,1.41c0-.09,0-.18,0-.26.18,1.36.42,2.72.65,4.08s.44,2.58.76,3.84c.18.72.38,1.44.58,2.16s.35,1.17.57,1.73a22,22,0,0,0,.91,2c.31.56.65,1.11,1,1.63a27.23,27.23,0,0,0,2.42,3c.39.42.8.82,1.2,1.23l1.23,1.33c.86,1,1.75,1.88,2.67,2.78.49.48,1,1,1.49,1.42s1.2,1,1.82,1.43,1.48,1.13,2.24,1.68,1.48,1.09,2.26,1.59a8.89,8.89,0,0,0,2.91,1.08c.43.1.86.16,1.29.24s.94.21,1.41.33a1.4,1.4,0,0,0,.74-2.71c-.64-.13-1.29-.21-1.93-.3a8.18,8.18,0,0,1-1.68-.45,6.11,6.11,0,0,1-.79-.44c-.28-.19-.54-.39-.79-.59q-.89-.68-1.77-1.32c-1-.75-2-1.52-3-2.29a67.52,67.52,0,0,1-5.15-5c-.75-.77-1.53-1.5-2.3-2.25a23.67,23.67,0,0,1-2-2.32,15.4,15.4,0,0,1-1.2-1.78,16.2,16.2,0,0,1-.92-1.87c-.36-1-.69-1.92-1-2.9s-.48-1.81-.67-2.72c-.4-1.9-.77-3.8-1.06-5.73-.13-1.35-.15-2.71-.18-4.07a1,1,0,0,0-2,0Z"/><path class="cls-2" d="M151.9,91.53c-.51.73-1.06,1.43-1.61,2.14s-1.07,1.34-1.61,2c-.25.3-.52.59-.78.88s-.55.61-.83.89-.59.59-.89.87-.64.61-1,.89l-1,.88c-.33.28-.68.53-1,.79l.17-.13c-.74.54-1.48,1.08-2.24,1.59s-1.65,1.09-2.48,1.62-1.69,1-2.55,1.54-1.6.9-2.42,1.32c-.66.34-1.33.66-2,1s-1.16.52-1.74.77c-2.11.88-4.23,1.72-6.36,2.57a.82.82,0,0,0-.45.35.75.75,0,0,0,.27,1,.72.72,0,0,0,.59.08c1.91-.77,3.83-1.51,5.74-2.28.88-.36,1.77-.72,2.64-1.12l1.46-.66,1.31-.65c.88-.43,1.73-.93,2.58-1.42s1.5-.88,2.24-1.35a58,58,0,0,0,4.8-3.27c.44-.34.86-.68,1.28-1s.73-.63,1.09-1c.71-.65,1.38-1.34,2-2s1.17-1.32,1.72-2,1.28-1.6,1.9-2.41c.34-.45.68-.9,1-1.36l-1.18-1.47c-.22.32-.44.64-.67,1Z"/><path class="cls-2" d="M165.52,65c-.59.29-1.18.57-1.76.88A6.13,6.13,0,0,0,162,67.24a6.88,6.88,0,0,0-1,1.59c-.09.17-.15.35-.22.52a5.66,5.66,0,0,0-.27.79,4.11,4.11,0,0,0-.13,1.31,3.45,3.45,0,0,0,.36,1.25,6,6,0,0,0,.6.92,6.14,6.14,0,0,1,.54,1,5,5,0,0,1,.24.81,4.37,4.37,0,0,1,0,.81,6.7,6.7,0,0,1-.4,1.37,15.52,15.52,0,0,1-1,1.92.74.74,0,0,0,.27,1,.73.73,0,0,0,.58.08.77.77,0,0,0,.44-.35,10.22,10.22,0,0,0,.82-1.34,10.89,10.89,0,0,0,.54-1.21,7,7,0,0,0,.4-1.7,5.66,5.66,0,0,0-.63-2.91c-.17-.37-.39-.72-.56-1.1-.05-.14-.09-.29-.13-.44s0-.29,0-.43a6.13,6.13,0,0,1,.39-1.26,8.05,8.05,0,0,1,.66-1.14,6,6,0,0,1,.66-.67,11.08,11.08,0,0,1,1.34-.77c.37-.2.76-.37,1.14-.55a1,1,0,0,0,.46-.61,1,1,0,0,0-.1-.78,1,1,0,0,0-.6-.46l-.25,0a1.29,1.29,0,0,0-.53.13Zm-3.9,12.7,0,0,0,0Z"/><path class="cls-2" d="M87.74,58.17a4.88,4.88,0,0,0-1.23.44,3.92,3.92,0,0,0-.89.56A8.1,8.1,0,0,0,84,61.08a14.94,14.94,0,0,0-1.61,3.66,20.09,20.09,0,0,0-.83,7.35c0,.57.12,1.14.2,1.71s.18,1,.3,1.42a8.7,8.7,0,0,0,.61,1.56,6,6,0,0,0,.57.9,11,11,0,0,0,.87,1,18.31,18.31,0,0,0,2,1.78q2.61,2.11,5.35,4a1,1,0,0,0,1.22-.16,1,1,0,0,0,.29-.71,1,1,0,0,0-.29-.7c-1.07-.86-2.12-1.74-3.16-2.63L88,79.08a21.63,21.63,0,0,1-2.45-2.43,8.18,8.18,0,0,1-.73-1.2A12,12,0,0,1,84.23,73a22.45,22.45,0,0,1-.18-2.72,25.57,25.57,0,0,1,.15-2.77c.11-.62.22-1.25.39-1.87s.41-1.36.66-2a11.28,11.28,0,0,1,1.17-2.09,6.08,6.08,0,0,1,.7-.74,5.38,5.38,0,0,1,.66-.38,5.84,5.84,0,0,1,.82-.22,4.69,4.69,0,0,1,.75,0,3.45,3.45,0,0,1,.46.12c.3.15.59.32.88.49A1.07,1.07,0,1,0,91.77,59a8.54,8.54,0,0,0-1.31-.68A4.24,4.24,0,0,0,89,58a6.1,6.1,0,0,0-1.27.14Z"/><path class="cls-2" d="M112.28,112a.75.75,0,0,0-.43.33.78.78,0,0,0-.07.56c.14.72.29,1.45.4,2.18,0,.36.07.71.09,1.06s0,1,0,1.45-.07.88-.12,1.33c-.1.62-.22,1.24-.35,1.86-.08.33-.14.66-.23,1-.18.7-.36,1.41-.58,2.1-.43,1.4-.9,2.78-1.37,4.16a.68.68,0,0,0,.47.84.7.7,0,0,0,.53-.07.68.68,0,0,0,.31-.41l.87-2.36c.27-.71.54-1.43.75-2.16s.43-1.51.59-2.27.28-1.29.38-1.93.15-1.12.19-1.67a14.1,14.1,0,0,0,0-1.72c0-.35,0-.7-.08-1s-.08-.61-.13-.92c-.09-.6-.22-1.19-.34-1.79a.71.71,0,0,0-.71-.53.57.57,0,0,0-.18,0Z"/><path class="cls-2" d="M141.44,103.24l-.18.23a1.21,1.21,0,0,0-.16.59c-.18,1.41-.34,2.81-.46,4.23s-.18,2.57-.17,3.86.07,2.51.2,3.76c.15,1.41.32,2.81.49,4.21.23,1.81.51,3.61.81,5.41s.63,3.77,1,5.65a1.11,1.11,0,0,0,.52.68,1.18,1.18,0,0,0,.88.11,1.15,1.15,0,0,0,.68-.52,1.28,1.28,0,0,0,.12-.88c-.47-3.18-.91-6.37-1.35-9.55-.15-1.3-.31-2.59-.46-3.89s-.29-2.59-.36-3.89a42.76,42.76,0,0,1,.26-7.67c.06-.51.12-1,.19-1.51a1.13,1.13,0,0,0-.34-.82,1.17,1.17,0,0,0-1.65,0Z"/><path class="cls-2" d="M37.33,99.92c-.39.09-.78.18-1.16.29a9.11,9.11,0,0,0-.92.33c-.7.28-1.39.59-2.07.9l-1.62.78-.93.45a8.8,8.8,0,0,0-2.21,1.55,16.78,16.78,0,0,0-1.62,2c-.38.5-.74,1-1.08,1.55s-.75,1.18-1.11,1.79-.67,1.1-1.05,1.62l-.27.36-.23.3a6.51,6.51,0,0,1-.92,1,12,12,0,0,1-1.44.8,7.79,7.79,0,0,0-1.48.92,6.43,6.43,0,0,0-1,1c-.27.34-.53.71-.78,1.07a9.83,9.83,0,0,0-1,1.8,5.18,5.18,0,0,0-.39,1.27,4.51,4.51,0,0,0,0,1.27,7.82,7.82,0,0,0,.36,1.52,38.07,38.07,0,0,0,1.67,3.82c.54,1.19,1.06,2.38,1.6,3.56.94,2,1.84,4,2.86,6s2,3.93,2.91,6a6.13,6.13,0,0,1,.39,1.26,3.9,3.9,0,0,1,0,.59c-.05.3-.11.6-.16.9a1.2,1.2,0,0,0,.11.85,1.11,1.11,0,0,0,1.51.39,1,1,0,0,0,.5-.66c.05-.29.11-.59.16-.88s.08-.6.1-.89a4.32,4.32,0,0,0-.13-1.08,8.2,8.2,0,0,0-.53-1.51c-.14-.3-.27-.6-.41-.91-.4-.93-.88-1.84-1.34-2.75s-1-1.86-1.41-2.81-.83-1.83-1.22-2.75q-1.12-2.69-2.21-5.39c-.37-.92-.73-1.84-1.11-2.75a12.16,12.16,0,0,1-.88-2.61,5,5,0,0,1,0-.55c.05-.22.11-.43.18-.64a15.44,15.44,0,0,1,1.61-2.6,5.32,5.32,0,0,1,.47-.48,10.46,10.46,0,0,1,1.39-.77,7.17,7.17,0,0,0,1.2-.69A6.83,6.83,0,0,0,25,113.85a21.44,21.44,0,0,0,1.67-2.33c.45-.74.89-1.49,1.35-2.22s.87-1.3,1.34-1.93a11.76,11.76,0,0,1,1.41-1.5,14.15,14.15,0,0,1,2.3-1.24c.55-.26,1.08-.53,1.62-.8s1.13-.54,1.68-.84,1.21-.68,1.83-1a1.16,1.16,0,0,0,.53-1.28,1.14,1.14,0,0,0-1.12-.83,1.33,1.33,0,0,0-.28,0Z"/><path class="cls-2" d="M38.22,101.28a.91.91,0,0,0,0,1.31,1,1,0,0,0,.65.28l.46,0c.2,0,.41.07.61.13a3.76,3.76,0,0,1,.5.31,7.41,7.41,0,0,1,1,1A23.23,23.23,0,0,1,43.57,108c.47,1,.91,2,1.34,2.95.25.6.51,1.21.72,1.83a15.45,15.45,0,0,1,.66,2.42,6.2,6.2,0,0,1,0,1.14,18.76,18.76,0,0,1-.64,2.42c-.15.49-.3,1-.47,1.48s-.37,1.09-.57,1.63-.43,1.15-.65,1.73a1.42,1.42,0,0,0-.08.18l-.12.24a1.06,1.06,0,0,0-.15.55,1.1,1.1,0,0,0,.32.77,1.07,1.07,0,0,0,.48.28,1.14,1.14,0,0,0,.85-.11,3,3,0,0,0,1.3-1.71c.15-.35.28-.72.41-1.09.21-.56.38-1.14.56-1.71s.37-1.19.54-1.79c.1-.33.19-.65.28-1a8.27,8.27,0,0,0,.37-2.66,12.67,12.67,0,0,0-1.38-4.3c-.48-1-1-2.09-1.49-3.12-.26-.54-.53-1.07-.81-1.61-.09-.18-.19-.35-.29-.53s-.27-.53-.43-.78a20.55,20.55,0,0,0-1.66-2.37,7.07,7.07,0,0,0-.74-.71,6.53,6.53,0,0,0-.91-.65,5.55,5.55,0,0,0-2.14-.5h-.06a.94.94,0,0,0-.59.28Z"/><path class="cls-2" d="M34.08,109.74a1.05,1.05,0,0,0-.32.75,1.11,1.11,0,0,0,.32.75c.62.73,1.24,1.46,1.84,2.2a35.11,35.11,0,0,1,3.46,5.48,17.35,17.35,0,0,1,1.06,3.74,5.57,5.57,0,0,1,0,1.08c0,.29-.1.58-.17.87a10.51,10.51,0,0,1-.33,1.09l-.36,1.09c-.13.41-.21.84-.32,1.25a1.23,1.23,0,0,0,.55,1.37,1.19,1.19,0,0,0,.94.12,1.28,1.28,0,0,0,.72-.55,6.68,6.68,0,0,0,1-2.11,14,14,0,0,0,.41-2.22c0-.33.06-.66.07-1a8.72,8.72,0,0,0-.29-2.1c-.16-.65-.37-1.29-.58-1.93l-.3-.78a10.36,10.36,0,0,0-.47-1.08c-.33-.62-.68-1.21-1.05-1.8-.68-1.1-1.42-2.16-2.2-3.19s-1.65-2.05-2.51-3.05a.92.92,0,0,0-.72-.32,1.12,1.12,0,0,0-.78.32Z"/><path class="cls-2" d="M29.56,114.08a1.33,1.33,0,0,0-.8.61,1.4,1.4,0,0,0-.13,1c.06.35.14.69.22,1a11.18,11.18,0,0,0,.65,1.87,22.36,22.36,0,0,0,1.18,2.28c.55,1,1.11,1.93,1.59,2.94.11.3.22.61.32.92a7.81,7.81,0,0,1,.3,1.29,15.55,15.55,0,0,1-.06,3c-.06.56-.11,1.13-.17,1.69,0,.08,0,.16,0,.24a1.26,1.26,0,0,0,0,.61,1.15,1.15,0,0,0,.53.69,1.17,1.17,0,0,0,.88.11,1.09,1.09,0,0,0,.68-.52,7.25,7.25,0,0,0,.6-1.73,11.45,11.45,0,0,0,.24-1.66c0-.27,0-.53.05-.79a11.55,11.55,0,0,0-.6-4.17,10.87,10.87,0,0,0-.64-1.54c-.22-.43-.44-.86-.68-1.28-.64-1.14-1.33-2.26-1.86-3.46a13,13,0,0,1-.62-2.28,1.27,1.27,0,0,0-.61-.8,1.32,1.32,0,0,0-.67-.18,1.34,1.34,0,0,0-.35,0Z"/><path class="cls-2" d="M21,121.16a.92.92,0,0,0,0,1.28c.86.87,1.73,1.74,2.62,2.57a26.27,26.27,0,0,1,2.35,2.37,5.59,5.59,0,0,1,.54.91,12.26,12.26,0,0,1,.63,2.54l.06.5c0,.25.06.5.1.74a3.32,3.32,0,0,0,.37,1.07,2.56,2.56,0,0,0,.33.46c.1.12.21.22.32.33a3.57,3.57,0,0,0,.87.58,3,3,0,0,0,1.2.26,2.77,2.77,0,0,0,1.17-.29A7.21,7.21,0,0,0,34,132a11.24,11.24,0,0,0,.92-1.49,1.06,1.06,0,1,0-1.84-1.07c-.25.39-.51.77-.79,1.14a15.5,15.5,0,0,1-1.47,1.56,3.54,3.54,0,0,1-.41.26,1.41,1.41,0,0,1-.22.06h-.06l-.17,0-.3-.18-.21-.22-.1-.15a12.81,12.81,0,0,1-.32-1.52c-.09-.46-.2-.91-.33-1.36s-.25-.8-.4-1.18a6.19,6.19,0,0,0-.91-1.58,12,12,0,0,0-1-1.11c-.64-.61-1.31-1.21-1.95-1.82s-1.49-1.44-2.22-2.18a.89.89,0,0,0-.63-.26.94.94,0,0,0-.65.26Z"/><path class="cls-2" d="M44.94,122.78c-.36.53-.75,1-1.14,1.56h0c-.24.32-.49.62-.75.91a7.87,7.87,0,0,1-.94.89c-.23.16-.45.32-.69.47a5.94,5.94,0,0,1-.67.33,14,14,0,0,0-1.26.7,17.33,17.33,0,0,1-2,1.16,6.36,6.36,0,0,1-.85.25,3.49,3.49,0,0,1-.56,0l-.66-.14a1.25,1.25,0,0,0-.91.12,1.21,1.21,0,0,0-.54.71,1.18,1.18,0,0,0,.82,1.45,9.4,9.4,0,0,0,1.18.21,3.87,3.87,0,0,0,.48,0,5.44,5.44,0,0,0,.8-.09,4.13,4.13,0,0,0,1.17-.39,4.83,4.83,0,0,0,1.16-.73,5.3,5.3,0,0,0,.86-.91l.51-.68a2.5,2.5,0,0,1,.32-.33l.38-.24.47-.25c.18-.11.35-.23.51-.35a7.94,7.94,0,0,0,1-.88,12.14,12.14,0,0,0,.87-1c.53-.69,1-1.39,1.52-2.12a.65.65,0,0,0-.55-1,.71.71,0,0,0-.57.32Z"/><path class="cls-2" d="M27.82,64.33a3.63,3.63,0,0,0-1.94.7,2.2,2.2,0,0,0-.6.72,2.1,2.1,0,0,0-.18,1.08,7.08,7.08,0,0,0,.17,1.2c.06.26.12.53.19.8.27,1,.62,2,1,2.92s.63,1.87,1,2.8.8,2.11,1.27,3.13.86,1.82,1.27,2.74.74,2,1.05,3,.64,2.22.93,3.34.61,2.24.91,3.36.56,2.22.8,3.34c.14.64.24,1.3.35,2,0,.27.07.53.1.8s0,.62.07.93c.06.72.07,1.44.09,2.17a1.2,1.2,0,0,0,2.4,0c0-.65,0-1.29-.07-1.93s-.1-1.25-.17-1.88c-.14-1.2-.37-2.39-.62-3.57s-.5-2.13-.78-3.19-.56-2.14-.85-3.21a47.29,47.29,0,0,0-1.69-5.34c-.21-.52-.43-1-.67-1.54l-.56-1.12c-.4-.81-.8-1.63-1.18-2.46-.54-1.32-1-2.65-1.6-4-.29-.66-.58-1.31-.91-1.95s-.6-1.13-.87-1.72a5.08,5.08,0,0,1-.29-1s0-.09,0-.14a.24.24,0,0,0,0-.08l.06-.08.11-.12.33-.19a3.19,3.19,0,0,1,.59-.15,6.63,6.63,0,0,1,1.18,0,5.53,5.53,0,0,1,1.14.33,8.65,8.65,0,0,1,1.44.85,10.81,10.81,0,0,1,1.52,1.58c.34.46.68.91,1,1.38s.8,1.22,1.18,1.83A30.53,30.53,0,0,1,36.67,75a12.17,12.17,0,0,1,.47,1.32c.18.56.34,1.13.51,1.7.31,1,.64,2.09,1,3.13q1.09,3.3,2.14,6.62c.5,1.59,1.06,3.15,1.66,4.7.34.89.71,1.77,1.1,2.65l.9,2c.42,1,.84,2.09,1.34,3.09s1.06,2,1.61,3.07,1.1,1.93,1.68,2.87a21.14,21.14,0,0,0,2.13,2.85c.39.43.79.85,1.17,1.29a.76.76,0,0,0,.92.12.77.77,0,0,0,.27-1c-.25-.47-.48-1-.74-1.41s-.51-.91-.79-1.36c-.5-.82-1-1.62-1.5-2.45s-.94-1.78-1.38-2.69S48.35,99.83,48,99c-.18-.45-.36-.89-.52-1.34s-.37-1-.56-1.54c-.4-1.08-.82-2.15-1.23-3.22-.8-2.13-1.51-4.29-2.22-6.45S42,82.21,41.24,80.12c-.39-1.07-.78-2.14-1.16-3.22-.22-.61-.43-1.23-.7-1.82a7.45,7.45,0,0,0-.32-.7c-.16-.29-.32-.58-.49-.87-.56-1-1.16-1.89-1.8-2.79s-1.46-2-2.27-3a10.81,10.81,0,0,0-2.59-2.37,8.76,8.76,0,0,0-1.9-.85,5.45,5.45,0,0,0-1.56-.22c-.21,0-.43,0-.63,0ZM26.5,66.11l0,0,0,0Zm-.14.27a.59.59,0,0,1,0,.13s0-.09,0-.13Zm0,.15s0,.08,0,.13,0-.09,0-.13Z"/><path class="cls-2" d="M52.35,116.33a10.44,10.44,0,0,0-1.09,1.48c-.27.43-.52.87-.77,1.3-.49.85-1,1.7-1.43,2.56-.23.43-.45.88-.66,1.32s-.41,1-.59,1.49c-.33.89-.59,1.81-.84,2.73s-.44,1.74-.65,2.62a.76.76,0,1,0,1.47.4,48.25,48.25,0,0,1,1.69-5.77c.11-.25.22-.49.34-.73s.33-.64.51-1c.31-.54.64-1.09,1-1.61.78-1.12,1.61-2.2,2.43-3.28l.06-.07.17-.22a1,1,0,0,0,.14-.52,1,1,0,0,0-1.78-.74Z"/><path class="cls-2" d="M64.79,91a8.29,8.29,0,0,0-1.22.14,5.28,5.28,0,0,0-1.19.42,5.1,5.1,0,0,0-1,.59,7.35,7.35,0,0,0-1.11,1A11.26,11.26,0,0,0,59,94.94c-.13.24-.27.49-.38.74a23.07,23.07,0,0,0-1.32,3.5c-.15.54-.3,1.08-.41,1.63s-.23,1.18-.34,1.77c-.23,1.15-.47,2.29-.74,3.43-.44,1.82-1,3.63-1.48,5.44a.88.88,0,1,0,1.7.46c.67-2.3,1.38-4.6,2-6.93.29-1.08.53-2.18.81-3.27.14-.53.29-1.06.46-1.58.09-.27.16-.55.26-.81s.23-.57.34-.86a15.31,15.31,0,0,1,1.63-3,9,9,0,0,1,1.13-1.18,7.27,7.27,0,0,1,1-.6,4.93,4.93,0,0,1,.86-.22,8.42,8.42,0,0,1,1.42,0,5.39,5.39,0,0,1,.66.18,2.17,2.17,0,0,1,.33.19l.15.14c.06.09.11.19.17.29s.09.31.13.48a6.15,6.15,0,0,1,0,1,13.23,13.23,0,0,1-.62,2.15c-.18.53-.37,1.05-.56,1.58-.4,1.12-.75,2.25-1.06,3.4a29.29,29.29,0,0,0-.7,3.35c-.19,1.26-.3,2.53-.38,3.8-.07,1-.12,2-.12,3.06,0,1.18.06,2.36.12,3.55s.12,2.24.16,3.36c0,.5,0,1,0,1.51s-.08,1-.14,1.53c-.05.26-.1.53-.14.8s-.14.58-.22.87c-.12.49-.27,1-.43,1.46-.39,1.21-.79,2.42-1.21,3.62-.37,1-.76,2-1.15,3.08S60.12,135,59.7,136c-.06.13-.11.27-.17.4a13.24,13.24,0,0,1-1.33,2.49,18.77,18.77,0,0,1-2.58,2.38l-2,1.62a1.32,1.32,0,0,0-.3.51,1.18,1.18,0,0,0,.12.9,1.16,1.16,0,0,0,.7.54,1.11,1.11,0,0,0,.89-.12,34.81,34.81,0,0,0,3-2.35l.72-.64a10.82,10.82,0,0,0,1.65-1.86,11.64,11.64,0,0,0,1-1.84c.51-1.14.94-2.29,1.37-3.45s.8-2.14,1.19-3.21a64.52,64.52,0,0,0,2.15-6.75,24.16,24.16,0,0,0,.44-3.49c0-1.2,0-2.4-.08-3.6,0-.85-.07-1.7-.08-2.55s0-1.86,0-2.79c.06-1.67.2-3.33.38-5q.12-.8.27-1.59c.1-.56.24-1.12.38-1.67.26-1.12.6-2.21,1-3.3.18-.54.37-1.08.56-1.62s.36-1.12.54-1.69a7.53,7.53,0,0,0,.3-2.17,5,5,0,0,0-.2-1.33,3.26,3.26,0,0,0-.6-1.19,3.67,3.67,0,0,0-.4-.47,3.38,3.38,0,0,0-.46-.37,4.61,4.61,0,0,0-1.91-.69,8.38,8.38,0,0,0-1.32-.1Zm-4.88,7.34h0Z"/><path class="cls-2" d="M30.75,149.29a.5.5,0,1,0,.5-.5.51.51,0,0,0-.5.5Z"/><path class="cls-2" d="M31.36,147a1.4,1.4,0,0,0-.5,1.91,18.34,18.34,0,0,0,1.55,2.35,5.32,5.32,0,0,0,.9.81,4.86,4.86,0,0,0,.85.5,5.28,5.28,0,0,0,2.71.48,9.48,9.48,0,0,0,1.39-.27,11,11,0,0,0,1.24-.49,7.64,7.64,0,0,0,1.15-.64c.64-.43,1.26-.88,1.87-1.34a1.28,1.28,0,0,0,.53-.68,1.13,1.13,0,0,0-.12-.88,1.14,1.14,0,0,0-1.56-.41c-.44.29-.9.56-1.37.83a11.61,11.61,0,0,1-1.12.55,10.63,10.63,0,0,1-2,.57,3.74,3.74,0,0,1-.67,0,4.23,4.23,0,0,1-.7-.18,4.83,4.83,0,0,1-.62-.37,4.51,4.51,0,0,1-.54-.53c-.4-.55-.73-1.14-1.07-1.72a1.42,1.42,0,0,0-1.22-.69,1.37,1.37,0,0,0-.7.19Z"/><path class="cls-2" d="M35.77,134a1.11,1.11,0,0,0,.39,1.49l1.17.73c.26.16.5.35.75.53l.94.79c.35.31.68.63,1,1s.69.7,1,1.06.83.8,1.26,1.19a1.13,1.13,0,0,0,.76.31A1.08,1.08,0,0,0,44.16,140a1.16,1.16,0,0,0-.32-.76,14.55,14.55,0,0,0-1.44-1.6c-.51-.48-1-1-1.55-1.42a24.06,24.06,0,0,0-3.59-2.59.93.93,0,0,0-.53-.15,1.12,1.12,0,0,0-1,.54Z"/><path class="cls-2" d="M25.7,142.41a1.18,1.18,0,0,0-.36.86,23.07,23.07,0,0,1,.19,4.62c-.09.56-.2,1.12-.32,1.68s-.35,1.26-.53,1.88c-.32,1.06-.68,2.1-1,3.15a1.94,1.94,0,0,1,.86-.2h0a1.52,1.52,0,0,1,1.21.82,3.25,3.25,0,0,1,.18.5l0-.14A35.28,35.28,0,0,0,28,147.37a15.66,15.66,0,0,0-.08-2.27c0-.61-.11-1.22-.17-1.83a1.33,1.33,0,0,0-.36-.86,1.22,1.22,0,0,0-1.71,0Z"/><path class="cls-2" d="M54.77,142.75a1,1,0,0,0-.64.49c-.6,1.36-1.2,2.73-1.78,4.11-.5,1.19-1,2.41-1.39,3.63s-.88,2.5-1.3,3.76-.81,2.39-1.17,3.6c-.59,2-1,4-1.46,6h.15a4.09,4.09,0,0,1,1.48.48l.33,0,.6.08c.2-1.09.42-2.18.65-3.27.28-1.32.6-2.62,1-3.92s.73-2.48,1.12-3.72.81-2.51,1.23-3.76.84-2.26,1.29-3.37c.37-.88.75-1.74,1.14-2.61a1.19,1.19,0,0,0,.11-.83,1.08,1.08,0,0,0-.5-.63,1,1,0,0,0-.54-.15.9.9,0,0,0-.28,0Z"/><path class="cls-2" d="M228.62,311.57c-.35,1-.7,1.91-1.08,2.85-.27.58-.54,1.15-.83,1.72s-.6,1.13-.9,1.69c-.65,1.2-1.4,2.35-2.14,3.49-1.42,2.17-2.93,4.29-4.51,6.35-.41.51-.82,1-1.25,1.52s-.88,1-1.33,1.43a27.43,27.43,0,0,1-2.76,2.4l-1,.78h0l-.13.11,0,0,0,0,0,0,0,0-.06,0-.18.14,0,0,0,0h0c-.64.51-1.27,1-1.86,1.6s-1.05,1-1.57,1.56l-1.56,1.59c-.61.61-1.24,1.19-1.87,1.77a1.34,1.34,0,0,0,.95,2.29,1.47,1.47,0,0,0,.95-.39c1.19-1,2.27-2.11,3.38-3.19.49-.48,1-1,1.48-1.43s1.07-.94,1.62-1.38c1.11-.82,2.24-1.63,3.3-2.51.46-.39.92-.79,1.34-1.22s.93-.92,1.34-1.42a63.43,63.43,0,0,0,4.82-6.58c.7-1.1,1.41-2.19,2.06-3.32s1.33-2.34,1.89-3.56A34,34,0,0,0,230.3,314c.19-.64.39-1.28.58-1.91l-.12,0a1.37,1.37,0,0,1-1.5-.68c-.13-.2-.24-.4-.36-.6-.09.25-.19.5-.28.74Z"/><path class="cls-2" d="M212.81,333.79l.13-.1-.13.1Z"/><path class="cls-2" d="M212.65,333.92l0,0,0,0Z"/><path class="cls-2" d="M212.48,334.05h0Z"/><polygon class="cls-2" points="212.47 334.06 212.49 334.05 212.47 334.06 212.47 334.06 212.47 334.06"/><path class="cls-2" d="M212.46,334.07v0Z"/><path class="cls-2" d="M212.43,334.09l0,0,0,0Z"/><polygon class="cls-2" points="212.43 334.09 212.43 334.09 212.43 334.09 212.43 334.09 212.43 334.09"/><path class="cls-2" d="M212.42,334.1l-.17.13.18-.14Z"/><path class="cls-2" d="M210.4,337.73l-.15.2a.92.92,0,0,0-.13.49l-.06.41c0,.32-.08.64-.13,1s-.12.7-.18,1.06-.14.68-.22,1a12.77,12.77,0,0,1-.56,1.89,13.83,13.83,0,0,1-1.27,2.12c-.44.61-.86,1.23-1.27,1.85a.89.89,0,0,0,.14,1.07.88.88,0,0,0,1.06.13,5.7,5.7,0,0,0,1.84-1.94,15.55,15.55,0,0,0,1.35-2.55,11.18,11.18,0,0,0,.59-2.05c.08-.37.16-.73.23-1.1.16-1,.29-1.91.41-2.87a.94.94,0,0,0-.28-.69,1,1,0,0,0-1.37,0Z"/><path class="cls-2" d="M219.83,342a.44.44,0,0,0-.31.42h0v0a3.73,3.73,0,0,1-.34.57,20.81,20.81,0,0,1-1.58,1.68c-.56.56-1.12,1.12-1.65,1.71-.27.31-.54.61-.8.92s-.62.77-.92,1.17a16,16,0,0,0-1.3,2.1c-.1.18-.19.36-.31.54l-.06.06-.2.1-.84.32c-.31.11-.61.24-.91.37l-1.93.83-.11,0,0,0h0l-.05,0h0l-.42.18h0l-.07,0-1,.41a14.12,14.12,0,0,1-1.8.61,11.65,11.65,0,0,1,.16,2.16l.24,0a5.82,5.82,0,0,0,1.35-.4l1.26-.49,1.09-.46.19-.08,1.12-.52,1.64-.8.72-.38a3.6,3.6,0,0,0,.76-.57,2.69,2.69,0,0,0,.57-1,17,17,0,0,1,1-1.93,17.61,17.61,0,0,1,1.13-1.59c.71-.87,1.43-1.74,2.17-2.58.36-.41.73-.81,1.06-1.24a6.17,6.17,0,0,0,.52-.74,3.1,3.1,0,0,0,.21-.45,1,1,0,0,0-.06-.86.42.42,0,0,0-.37-.21Zm-11,10.72-.15.07.15-.07Zm-.92.39-.25.1.25-.1Z"/><path class="cls-2" d="M211,341.42a1,1,0,0,0-.72,1.26c.19.72.38,1.44.54,2.16.13.54.21,1.08.29,1.63,0,.14,0,.27,0,.41a1,1,0,0,0,.28.69,1,1,0,0,0,1.66-.69,7.12,7.12,0,0,0,0-.8c0-.22-.05-.43-.08-.65s-.11-.71-.18-1.07c-.14-.75-.36-1.49-.56-2.22a1,1,0,0,0-1-.76,1.26,1.26,0,0,0-.27,0Z"/><path class="cls-2" d="M215.2,336q-.44.13-.84.3a7.1,7.1,0,0,0-2,1.22,6.34,6.34,0,0,0-1.11,1.41l-.54.91a1.15,1.15,0,0,0,2,1.16c.27-.45.53-.9.83-1.33a5,5,0,0,1,.51-.52,5.88,5.88,0,0,1,.77-.44,11.06,11.06,0,0,1,2.27-.55,9.41,9.41,0,0,1,1.76,0,4,4,0,0,1,.66.17l.2.11.18.18a.41.41,0,0,1,0,.09,2.76,2.76,0,0,1,.08.27,7.43,7.43,0,0,1-.06,1.25c-.19,1.22-.39,2.42-.65,3.62a1.34,1.34,0,0,0,.12,1,1.44,1.44,0,0,0,.42.43,8.84,8.84,0,0,1,1.33-1.58,10.8,10.8,0,0,1,.89-.78c.13-.62.24-1.24.35-1.86a12.92,12.92,0,0,0,.19-1.63,3.92,3.92,0,0,0-.55-2.2,3.58,3.58,0,0,0-.65-.75,3.52,3.52,0,0,0-1-.59,5.41,5.41,0,0,0-1.83-.35h-.31a11,11,0,0,0-3.07.52Z"/><path class="cls-2" d="M205.3,355.81a.75.75,0,0,0,0-.67c0,.23,0,.45,0,.67Z"/><path class="cls-2" d="M205.85,294.8c-.8.59-1.63,1.13-2.48,1.65s-1.71,1.05-2.53,1.62-1.84,1.3-2.71,2-1.69,1.42-2.51,2.15a101.65,101.65,0,0,0-9.11,8.74c-1,1.18-2,2.42-3,3.59a23.07,23.07,0,0,1-1.64,1.64c-.27.25-.57.48-.86.72s-.37.28-.54.44a2,2,0,0,0-.5.64,1.23,1.23,0,0,0-.14.42,1.9,1.9,0,0,0,0,.63,1.15,1.15,0,0,0,.33.77,1.06,1.06,0,0,0,.77.32,1.09,1.09,0,0,0,1.09-1.09h0l.43-.34-.23.18c.45-.34.92-.68,1.35-1.05s.76-.69,1.13-1.06c.73-.73,1.41-1.5,2.07-2.29s1.34-1.63,2-2.41,1.42-1.54,2.16-2.27,1.52-1.48,2.3-2.21,1.53-1.39,2.3-2.08c1.59-1.46,3.17-2.94,4.85-4.3l.43-.33c.83-.62,1.66-1.2,2.51-1.77s1.73-1.09,2.56-1.69a29.7,29.7,0,0,0,2.62-2.13l1.21-1.09a7.34,7.34,0,0,0-.8-.34,4.34,4.34,0,0,1-.62-.28,1.35,1.35,0,0,1-.45-.47c-.64.57-1.29,1.14-2,1.69Zm-5,6-.05,0,.05,0Z"/><path class="cls-2" d="M180.77,319.61l-1.12,1.67a13.15,13.15,0,0,0-.93,1.52,7.35,7.35,0,0,0-.32.77,3.61,3.61,0,0,0-.2,1.3,8.07,8.07,0,0,0,.13,1.3c.09.56.22,1.11.31,1.67a18.4,18.4,0,0,1,.1,2.46,11.74,11.74,0,0,0,.34,4,5.58,5.58,0,0,0,1.7,2.52,10.45,10.45,0,0,0,1.29.92,10.26,10.26,0,0,0,1.14.59c.45.2.91.36,1.37.54l.14.06a1.12,1.12,0,0,0,.8.11,1.1,1.1,0,0,0,.62-.48,1,1,0,0,0-.38-1.41c-.59-.36-1.23-.64-1.85-.95a13,13,0,0,1-1.52-.91,6,6,0,0,1-.81-.78,4.42,4.42,0,0,1-.44-.76,6.29,6.29,0,0,1-.31-1.15c-.06-.59-.07-1.18-.08-1.78s0-1.33-.06-2a13.12,13.12,0,0,0-.33-2.07c-.12-.54-.27-1.06-.37-1.61a4.31,4.31,0,0,1,0-.72,4.06,4.06,0,0,1,.25-.84,28.41,28.41,0,0,1,2-3.1.83.83,0,0,0-.29-1.13.87.87,0,0,0-.41-.11.89.89,0,0,0-.72.41Z"/><path class="cls-2" d="M184.43,338.42a.9.9,0,0,0,0,1.27c1.43,1.2,2.83,2.45,4.32,3.58a7.52,7.52,0,0,0,2.49,1.14c.41.11.83.18,1.25.26a8,8,0,0,1,1.38.28,1.18,1.18,0,0,1,.19.11,3,3,0,0,1,.35.36,20.15,20.15,0,0,1,1.84,3.14,9.62,9.62,0,0,0,.88,1.48,9.2,9.2,0,0,0,1.62,1.62c.35.27.7.53,1.06.78s.7.44,1.06.65a1.05,1.05,0,0,0,1.06-1.82c-.47-.29-.92-.6-1.36-.93a12.88,12.88,0,0,1-1.73-1.65c-.56-.77-1-1.63-1.48-2.44a17.66,17.66,0,0,0-1.46-2.08,4.17,4.17,0,0,0-.89-.79,2.7,2.7,0,0,0-1.1-.4l-1.16-.19a11.48,11.48,0,0,1-2.11-.55,6,6,0,0,1-.7-.39,8.29,8.29,0,0,1-.68-.48c-.58-.46-1.16-.92-1.73-1.4l-1.83-1.55a.91.91,0,0,0-1.27,0Zm4.66,2.82.13.1-.13-.1Z"/><path class="cls-2" d="M117,48.42l-.45.08a17,17,0,0,0-3.1,1c-1,.45-2,1-3,1.52a1.13,1.13,0,0,0-.45,1.51,1.14,1.14,0,0,0,1.52.46c1-.51,1.89-1,2.89-1.46a13.19,13.19,0,0,1,1.26-.4c.4-.11.81-.22,1.22-.3a11.63,11.63,0,0,1,.34,1.53c.09.51.18,1,.25,1.53.14.92.25,1.84.36,2.76.1,1.13.18,2.25.2,3.38s0,2.57,0,3.85,0,2.43,0,3.65,0,2.47,0,3.71c0,.42-.1.85-.15,1.27s-.13.77-.19,1.16c-.31,1.64-.58,3.29-1,4.91a.91.91,0,0,0,1.74.54c.43-1.2.84-2.43,1.15-3.67.17-.64.32-1.28.46-1.93s.27-1.39.38-2.09a15.51,15.51,0,0,0,.15-1.66c0-.65.08-1.29.11-1.93.06-1.16.11-2.32.14-3.48s0-2.61,0-3.92-.14-2.67-.29-4S120.2,54,120,52.79q-.18-.93-.42-1.86a6,6,0,0,0-.2-.69,3.11,3.11,0,0,0-.6-1.19,1.89,1.89,0,0,0-1-.6,1.58,1.58,0,0,0-.41-.05l-.35,0Zm-.24,2.08.08.07-.08-.07Zm1.15,21.7,0,.17a1,1,0,0,0,0-.17Z"/><path class="cls-2" d="M109.38,65.79A1.56,1.56,0,1,0,111,64.28a1.56,1.56,0,0,0-1.61,1.51Z"/><path class="cls-2" d="M128.84,65.53a1.8,1.8,0,1,0,1.86-1.74,1.81,1.81,0,0,0-1.86,1.74Z"/><path class="cls-2" d="M124.51,87.47c-1.2,0-2.39.17-3.59.27s-2.51.18-3.76.29c-.75.06-1.49.16-2.23.26l-.91.18-1.4.31a1.12,1.12,0,0,0-.81,1.33,1.1,1.1,0,0,0,1.33.81c.53-.11,1-.24,1.59-.34s1-.18,1.53-.25c1.88-.17,3.77-.21,5.66-.33,1-.06,2-.11,3-.12a16.47,16.47,0,0,1,2.72.24c.52.09,1,.19,1.54.31a17.11,17.11,0,0,0,2.14.38,1.07,1.07,0,0,0,1-.74,1.1,1.1,0,0,0,0-.57,1,1,0,0,0-.46-.65,10.63,10.63,0,0,0-1.1-.46c-.28-.1-.57-.18-.85-.25-.58-.15-1.16-.26-1.75-.37a15.06,15.06,0,0,0-1.89-.26c-.43,0-.86,0-1.29,0Z"/><path class="cls-2" d="M132.59,89.74a1,1,0,0,0-.67.47c-.46.94-.91,1.89-1.36,2.84-.21.42-.44.83-.67,1.25a11,11,0,0,1-.89,1.26,15.83,15.83,0,0,1-1.18,1.28,11.47,11.47,0,0,1-1.31,1.09,12.48,12.48,0,0,1-1.09.69,10.67,10.67,0,0,1-1.18.57,13.57,13.57,0,0,1-2.66.57,6.65,6.65,0,0,1-1,0,8.71,8.71,0,0,1-1.29-.48,14.12,14.12,0,0,1-2.24-1.42,8.66,8.66,0,0,1-1-1c-.16-.25-.32-.49-.47-.75a10,10,0,0,1-.55-1.14c-.3-.73-.63-1.44-.91-2.17l-.17-.44,0,.12c-.07-.18-.13-.36-.19-.54a1.22,1.22,0,0,0-2-.61,1.18,1.18,0,0,0-.38.85,5.3,5.3,0,0,0,.14,1.05,9,9,0,0,0,.35,1l-.07-.17c.21.52.43,1,.63,1.57a14.5,14.5,0,0,0,.75,1.82,10.37,10.37,0,0,0,1.26,1.89,6.85,6.85,0,0,0,.66.66c.35.3.71.6,1.09.87a8.56,8.56,0,0,0,1.56,1,14.08,14.08,0,0,0,1.65.7,6,6,0,0,0,2.83.08,11.91,11.91,0,0,0,1.86-.42,10.92,10.92,0,0,0,2.1-.93,16.48,16.48,0,0,0,1.89-1.33,15.77,15.77,0,0,0,3-3.28,11.67,11.67,0,0,0,1-1.78l1-2.1c.21-.45.42-.89.64-1.34a1.18,1.18,0,0,0,.14-.82,1.1,1.1,0,0,0-.48-.67,1.06,1.06,0,0,0-.58-.16,1,1,0,0,0-.24,0Zm-18.38,3.19,0,.11,0-.11Zm15,2.43-.06.07.06-.07Zm-7.8,4.42h0Z"/><path class="cls-2" d="M90.65,24.18a16,16,0,0,0-1.87,1.25,8.33,8.33,0,0,0-1.66,1.94,18.39,18.39,0,0,0-1.22,2.16A21,21,0,0,0,85,31.65l-.39,1.06c-.1.27-.21.54-.29.81l-.6,2c-.07.24-.12.5-.18.75-.09.42-.19.83-.29,1.25,0,.2-.07.4-.1.6-.08.44-.16.88-.23,1.32-.12.7-.19,1.41-.28,2.11s-.12,1.27-.18,1.9-.05,1.16-.07,1.73,0,1.19,0,1.78c0,1.13.05,2.26.11,3.38s.17,2.38.31,3.57a11.65,11.65,0,0,0,1.3,4.86,1.33,1.33,0,1,0,2.3-1.34l-.19-.37a13.43,13.43,0,0,1-.53-2.34c-.1-.57-.19-1.15-.27-1.73s-.13-1.08-.19-1.62-.09-1.11-.14-1.67c-.08-1-.13-2-.16-3s-.06-2.18,0-3.27c0-.54,0-1.09.09-1.63s.12-1.17.17-1.75l.12-.84c0-.32.07-.65.14-1L85.65,37c.06-.31.11-.63.2-.93s.23-.89.35-1.33c.07-.24.13-.49.21-.74.32-1,.64-1.94,1-2.89a17.46,17.46,0,0,1,1.88-3.38,6.74,6.74,0,0,1,.92-.93,14.66,14.66,0,0,1,1.41-.9A1,1,0,0,0,92,24.53a1,1,0,0,0-.85-.47,1.07,1.07,0,0,0-.49.12Z"/><path class="cls-2" d="M181,49.2c-.09-1.48-.24-3-.41-4.44s-.45-3.15-.74-4.72c-.13-.69-.29-1.38-.43-2.07s-.32-1.33-.51-2-.45-1.52-.71-2.27-.55-1.5-.85-2.25-.64-1.49-1-2.22l-.24-.51a17.32,17.32,0,0,0-1.52-2.9l-1.41-2.54c-.34-.6-.68-1.19-1.05-1.78-.18-.3-.36-.61-.56-.91l-.72-1a7.56,7.56,0,0,0-2.06-2.12,3.05,3.05,0,0,0-1.42-.39h-.17a3.57,3.57,0,0,0-.86.12,5.69,5.69,0,0,0-2.43-1.08,1.13,1.13,0,0,0,.06-.36,1.35,1.35,0,0,0-.35-.87c-.84-1-1.65-2.07-2.48-3.11A29.33,29.33,0,0,0,158.69,9a27,27,0,0,0-3.19-2.55,33.32,33.32,0,0,0-3-2,32.22,32.22,0,0,0-3.76-1.77,21.57,21.57,0,0,0-3.51-1.08c-1.26-.29-2.54-.52-3.82-.75s-2.64-.45-4-.59A33.05,33.05,0,0,0,133.72,0c-1.25,0-2.49,0-3.74.12s-2.5.17-3.74.33c-.76.11-1.51.2-2.26.33l-1.84.32c-2.36.38-4.72.79-7,1.38-.59.15-1.18.32-1.76.52s-1.39.51-2.07.8-1.12.54-1.68.83-1,.55-1.47.85c-2.24,1.38-4.43,2.85-6.58,4.38l-3,2.18a26.22,26.22,0,0,0-2.11,1.67,16.05,16.05,0,0,0-1.63,1.77,16.44,16.44,0,0,0-2,2.9c-.36.71-.69,1.43-1,2.15a.93.93,0,0,0-.09.69.77.77,0,0,0,.19.34,12,12,0,0,0-1.1,3.79C85.88,28,84.62,34.81,84,39.93a77.23,77.23,0,0,0-.52,10.86c0,2.7-.67,6.67,2,8.36,2.25,1.4,5.75,1.23,6.41-1.74.81-3.62.67-7.57,1.18-11.26.27-2,.62-4,1.08-5.91a19.15,19.15,0,0,0,3.19-1,1.12,1.12,0,0,0,.58.15c.77-.08,1.53-.19,2.29-.32.55-.1,1.09-.2,1.62-.34l3.11-.86c1.09-.3,2.19-.62,3.29-.9s2.3-.58,3.45-.84l3.46-.76c1.08-.25,2.14-.58,3.2-.89,2.35-.71,4.71-1.38,7.06-2.08,2.2-.65,4.4-1.31,6.59-2a69.42,69.42,0,0,0,6.62-2.61l1.37-.61c.36-.16.7-.35,1-.52l2.51-1.31c.71-.38,1.43-.75,2.15-1.11.47-.23.95-.44,1.42-.65,1.28-.43,2.53-.92,3.77-1.44-.32.6-.62,1.2-.93,1.76a2.44,2.44,0,0,0-.25.62.84.84,0,0,0-.26.44c-.14.8-.28,1.59-.39,2.4a14.75,14.75,0,0,0-.09,2.74,28.67,28.67,0,0,0,.46,3.33c.21,1.19.43,2.37.64,3.56s.4,2.32.63,3.47.55,2.51.85,3.75.63,2.3,1,3.43.77,2.26,1.17,3.39.74,2.14,1.15,3.2c.24.62.48,1.23.73,1.84s.58,1.32.88,2c.58,1.23,1.25,2.43,1.93,3.61a.91.91,0,0,0,.25.3,1.72,1.72,0,0,0,.25.37,7.6,7.6,0,0,0,.68.71l0,0a2.85,2.85,0,0,0-.19.92,4.76,4.76,0,0,0,.11,1.19.51.51,0,0,0,.62.36.52.52,0,0,0,.35-.63l0-.19a5.1,5.1,0,0,1,0-.87,3,3,0,0,1,.12-.43c.05-.09.1-.18.16-.27a4.7,4.7,0,0,1,.71-.7,5.17,5.17,0,0,1,1-.6,7.5,7.5,0,0,1,1.6-.46,6,6,0,0,1,1.34,0,6.67,6.67,0,0,1,1.39.39,5.73,5.73,0,0,1,1.07.62,8.94,8.94,0,0,1,1.36,1.39,12.62,12.62,0,0,1,1.48,2.57,13.85,13.85,0,0,1,.66,2l.18.74c.07.33.13.67.18,1a11.49,11.49,0,0,1,0,2.81q-.09.6-.24,1.2a9.27,9.27,0,0,1-.41,1.26l-.36.87-.47,1a13.22,13.22,0,0,1-1.24,2l-.54.67A8.61,8.61,0,0,1,167,81.25a13.38,13.38,0,0,1-1.63,1.06c-.26.14-.52.28-.79.41s-.46.22-.69.31a20.41,20.41,0,0,1-2.41.76l-.66.14a6.74,6.74,0,0,0-1,.24,6,6,0,0,0-1,.43,4.78,4.78,0,0,0-.75.52,8.67,8.67,0,0,0-.71.65,8.35,8.35,0,0,0-1.07,1.5,1,1,0,0,0,.34,1.3,1,1,0,0,0,.74.09.93.93,0,0,0,.56-.43c.12-.18.23-.35.35-.51a8.24,8.24,0,0,1,1.1-1.11,5.86,5.86,0,0,1,.94-.54c.6-.23,1.23-.35,1.84-.54.37-.11.74-.25,1.11-.39a16.52,16.52,0,0,0,2.33-1.1c.36-.2.7-.44,1-.67a13.92,13.92,0,0,0,1.3-1,11.08,11.08,0,0,0,1.73-1.95c.13-.16.25-.33.38-.5a13.35,13.35,0,0,0,.94-1.53,24,24,0,0,0,1.19-2.7,9.38,9.38,0,0,0,.37-1.28,11.31,11.31,0,0,0,.27-1.73,9.86,9.86,0,0,0,0-1.63,1.35,1.35,0,0,0,1.54-.58l0-.07c.24-.27.5-.52.74-.77a11.56,11.56,0,0,0,.91-1.08,11.76,11.76,0,0,0,1-1.83c.62-1.3,1.23-2.61,1.84-3.91a19.38,19.38,0,0,0,1.4-4.33c.18-.86.29-1.74.41-2.61.09-.69.16-1.39.18-2.07s.05-1.55.07-2.33S181,50,181,49.2Z"/><path class="cls-2" d="M57.47,185.88a1.18,1.18,0,0,0-.71.54,1.25,1.25,0,0,0-.12.91c.32,1.67.61,3.35.91,5,.1.89.21,1.79.31,2.69,0,.27,0,.54,0,.81,0,.63,0,1.26.07,1.89,0,.85,0,1.71,0,2.56s0,1.57,0,2.35c0,1.74-.11,3.48-.13,5.21,0,1.9,0,3.79,0,5.68,0,3.63,0,7.26,0,10.89,0,1.74,0,3.48,0,5.21a46.08,46.08,0,0,0,.41,5.12c.08.69.18,1.38.28,2.07s.19,1.63.26,2.45.13,1.81.18,2.71c.1,1.76.1,3.53.12,5.29,0,.77,0,1.55.07,2.32,0,.46.07.93.11,1.4,0,.62.17,1.25.26,1.88.11.79.3,1.58.48,2.37s.4,1.63.59,2.45.33,1.59.47,2.4.19,1.63.24,2.45.13,1.91.14,2.87a51.56,51.56,0,0,1-.2,6.58,15.26,15.26,0,0,1-.82,3.12l-.6,1.54c-.3.75-.6,1.5-.87,2.25s-.6,1.73-.88,2.6c-.15.45-.26.92-.38,1.37s-.2.77-.3,1.16c-.84,3.41-1.52,6.87-2.51,10.25-.49,1.67-1,3.36-1.51,5s-1.12,3.34-1.69,5-1.19,3.54-1.72,5.34-.94,3.41-1.39,5.12c-.87,3.33-1.82,6.63-2.7,10-.48,1.81-.93,3.62-1.37,5.43-.41,1.64-.85,3.27-1.36,4.89-.71,2.21-1.41,4.43-2.06,6.66-.35,1.23-.71,2.46-1.08,3.68-.15.51-.31,1-.46,1.53-.09.32-.18.64-.28,1a8.52,8.52,0,0,0-.2.84c0,.22-.06.45-.09.67a1.93,1.93,0,0,0,.16.92,1.46,1.46,0,0,0,.36.61,1.35,1.35,0,0,0,1.92,0,1.31,1.31,0,0,0,.4-1,1,1,0,0,1,0-.24c.17-.64.38-1.27.58-1.91l.39-1.33c.22-.73.43-1.47.64-2.21.48-1.67.94-3.36,1.47-5s1.15-3.43,1.66-5.17.9-3.34,1.34-5q1.42-5.29,3-10.55c.48-1.65.94-3.31,1.4-5s.89-3.18,1.42-4.74c.59-1.75,1.22-3.49,1.85-5.23s1.22-3.46,1.8-5.2,1.06-3.38,1.56-5.08.89-3.33,1.31-5,.88-3.43,1.39-5.13,1.17-3.41,1.83-5.09c.42-1,.84-2.08,1.16-3.16a12.62,12.62,0,0,0,.35-1.73c.1-.7.17-1.4.22-2.11,0-.52,0-1,.07-1.56,0-.78,0-1.56,0-2.34,0-1,0-1.91-.09-2.87s-.1-2.13-.23-3.19a34.71,34.71,0,0,0-.59-3.79c-.29-1.19-.59-2.38-.89-3.57-.24-1-.4-2-.56-2.95-.06-.63-.12-1.25-.15-1.88,0-.81-.06-1.61-.09-2.41,0-1.48-.11-3-.19-4.44s-.23-3-.45-4.47-.46-2.86-.69-4.28c-.1-.77-.19-1.54-.25-2.31-.08-.94-.13-1.87-.17-2.81-.09-1.76-.11-3.51-.14-5.27-.06-3.43-.15-6.86-.23-10.3,0-1.76-.09-3.53-.08-5.3,0-1.94,0-3.89.06-5.84,0-.91,0-1.81,0-2.72s0-1.65-.08-2.47c0-.39,0-.78-.05-1.17s-.11-.9-.16-1.34c-.11-.87-.2-1.75-.36-2.61-.26-1.5-.53-3-.82-4.49a1.15,1.15,0,0,0-1.16-.86.92.92,0,0,0-.29,0ZM41.73,349.39l0,.26a1.15,1.15,0,0,1,0-.26Z"/><path class="cls-2" d="M144.7,125.61a.93.93,0,0,0-.25.59c-.1,1.08-.25,2.16-.4,3.24s-.31,1.95-.52,2.91c-.11.5-.24,1-.37,1.48s-.26,1-.43,1.46l-.78,2.32c-.2.56-.37,1.13-.58,1.68-.33.86-.65,1.71-1,2.56-1.05,2.78-2.15,5.54-3.23,8.31q-1.32,3.38-2.66,6.74-1.5,3.72-3,7.43c-.53,1.22-1,2.47-1.59,3.68l-1.1,2.4c-.08.18-.18.35-.27.52l-.73,1.45c-1.39,2.71-2.9,5.35-4.39,8-.72,1.29-1.44,2.57-2.15,3.86s-1.38,2.56-2.07,3.84c-.25.48-.49,1-.73,1.47l-1.13,2.28c-.31.62-.58,1.26-.87,1.89s-.53,1.15-.78,1.73c-1.19,2.77-2.39,5.54-3.49,8.35s-2.19,5.7-3.22,8.56c-1,2.67-1.9,5.34-2.89,8-.48,1.27-1,2.55-1.4,3.83-.49,1.46-1,2.92-1.43,4.38-.41,1.3-.8,2.6-1.14,3.91-.4,1.46-.75,2.94-1.09,4.42-.3,1.32-.59,2.65-.91,4-.26,1-.51,2.06-.77,3.09a3.48,3.48,0,0,1,1.06,2.27c.1.87.15,1.74.2,2.62q.66-2.85,1.37-5.67c.36-1.41.7-2.81,1-4.22s.63-2.7,1-4c.73-2.87,1.62-5.69,2.55-8.5.86-2.6,1.87-5.15,2.81-7.72,1-2.83,2-5.67,3.09-8.5,1.31-3.58,2.71-7.12,4.16-10.64.49-1.17,1-2.34,1.5-3.5.62-1.37,1.23-2.75,1.89-4.11l1.15-2.37c.28-.58.6-1.15.9-1.72q1-2,2.14-4c1.43-2.63,2.88-5.25,4.3-7.9.26-.48.52-1,.77-1.46.43-.86.85-1.73,1.28-2.6.28-.56.52-1.14.77-1.71s.55-1.25.81-1.89c1.12-2.72,2.24-5.44,3.29-8.18s2.13-5.55,3.17-8.33,2.11-5.54,3.13-8.32l1-2.69c.18-.48.36-1,.52-1.44l.93-2.82c.4-1.22.74-2.45,1-3.7a38.4,38.4,0,0,0,.63-3.84c.12-.92.24-1.84.34-2.76a.83.83,0,0,0-.83-.83.83.83,0,0,0-.58.24Z"/><path class="cls-2" d="M146.31,119.2a1.22,1.22,0,0,0-.44,1.66c.38.63.74,1.26,1.09,1.9.16.3.3.62.45.92s.28.61.41.91q.8,1.75,1.62,3.48c.6,1.24,1.22,2.48,1.85,3.71.27.54.55,1.07.82,1.6s.56,1.08.8,1.63l.63,1.44c.23.6.46,1.2.68,1.79.11.28.19.57.28.86s.26.77.38,1.16c.22.67.4,1.36.59,2s.34,1.26.51,1.89c.67,2.51,1.25,5,1.94,7.54.48,1.75,1,3.48,1.6,5.2.28.86.56,1.71.83,2.57.12.39.23.79.34,1.18s.19.62.26.94a4.11,4.11,0,0,1-.51.27c-1.15.43-2.32.79-3.46,1.25l-3.68,1.49c-1.25.51-2.52,1-3.78,1.48-.75.29-1.51.6-2.23,1a1.85,1.85,0,0,0-.79.8,2.14,2.14,0,0,0-.22,1.17,4.29,4.29,0,0,0,.31,1.22,9.36,9.36,0,0,0,.72,1.41c.4.65.85,1.28,1.28,1.9a16.89,16.89,0,0,1,1.2,1.94c0,.12.07.24.1.37a5.23,5.23,0,0,1,0,.56,7.8,7.8,0,0,1-.43,1.4c-.5,1.14-1.08,2.23-1.68,3.32s-1.12,1.93-1.72,2.87c-1.19,1.83-2.52,3.59-3.85,5.32-1.56,2-3.19,3.93-4.84,5.86-.9,1.06-1.74,2.18-2.57,3.3-.4.54-.76,1.11-1.13,1.67s-.73,1.15-1.09,1.72c-.71,1.12-1.38,2.27-2.06,3.41s-1.37,2.24-2.06,3.36-1.35,2.15-2,3.23-1.43,2.18-2.21,3.22l-.48.65c-1.34,1.73-2.71,3.44-4,5.17l.16-.21c-.82,1.06-1.65,2.1-2.5,3.13s-1.61,2-2.41,2.94-1.67,1.93-2.53,2.88-1.7,1.83-2.56,2.74a19.38,19.38,0,0,0-2.51,3.26c-.38.65-.76,1.28-1.12,1.93-.73,1.35-1.45,2.69-2.11,4.07a.79.79,0,0,0,.28,1.06.78.78,0,0,0,1.06-.27c.57-1.09,1.18-2.15,1.79-3.2a40,40,0,0,1,2.66-4.15,46.07,46.07,0,0,1,3.18-3.38c.89-.91,1.77-1.83,2.6-2.79s1.66-2,2.5-3,1.69-2,2.52-3,1.57-2,2.36-2.93,1.68-2,2.48-3c.47-.6.94-1.2,1.38-1.82s.84-1.18,1.24-1.79c.74-1.11,1.46-2.24,2.19-3.36,1.23-1.92,2.42-3.88,3.62-5.83.28-.46.56-.92.85-1.38s.65-1.05,1-1.55l1.08-1.58c.3-.45.64-.88,1-1.31,1.56-1.94,3.22-3.8,4.76-5.75q2.56-3.24,4.89-6.66a41.19,41.19,0,0,0,3.31-5.86,11.8,11.8,0,0,0,1.19-3.39,4.83,4.83,0,0,0,0-1.14,3.77,3.77,0,0,0-.43-1.26,11.8,11.8,0,0,0-.74-1.15c-.31-.46-.64-.91-1-1.36a15.17,15.17,0,0,1-1.44-2.29,4.11,4.11,0,0,1-.21-.68v-.13a12,12,0,0,1,1.15-.53c1.18-.48,2.37-.93,3.56-1.38s2.32-.92,3.49-1.38,2.46-.94,3.72-1.34a9.36,9.36,0,0,0,2.12-.87,2.38,2.38,0,0,0,.72-.76,2.59,2.59,0,0,0,.29-1.12,5.29,5.29,0,0,0-.05-.8c0-.37-.1-.74-.17-1.1s-.15-.66-.24-1c-.16-.62-.34-1.22-.53-1.83-.36-1.21-.76-2.4-1.12-3.61-.75-2.55-1.39-5.12-2-7.69-.32-1.24-.64-2.49-1-3.72-.2-.69-.39-1.4-.62-2.08l-.68-2c-.08-.26-.2-.52-.3-.78s-.29-.74-.43-1.1c-.27-.7-.61-1.37-.92-2.05-.12-.26-.26-.52-.39-.78s-.27-.54-.42-.8l-.9-1.7q-1.41-2.65-2.74-5.36c-.41-.84-.79-1.68-1.2-2.51-.22-.45-.45-.9-.69-1.34s-.57-1-.86-1.48a1.24,1.24,0,0,0-1.06-.6,1.19,1.19,0,0,0-.6.17ZM161,161.49v0Zm-.05,0v0Zm0,.14,0,.06,0-.06Zm-12.66,7,0,0,0,0Zm.05,0-.09.07h0l.09-.07Zm-.13.12-.09.11a1,1,0,0,1,.08-.11Zm0,0,0,.13a.59.59,0,0,1,0-.13Z"/><path class="cls-2" d="M105.32,126.48l-1.74,1.78c-.24.25-.47.52-.7.77l-.52.59c-.9,1.09-1.78,2.19-2.58,3.36s-1.53,2.27-2.31,3.4c-.41.59-.82,1.18-1.22,1.78s-.85,1.15-1.27,1.73l0,.07q-1.14,1.47-2.31,2.91c-.86,1-1.76,2.07-2.65,3.1s-1.76,2.11-2.59,3.2a9.52,9.52,0,0,0-1,1.53,11.79,11.79,0,0,0-.53,1.14,4,4,0,0,0-.18.56,4.1,4.1,0,0,0-.1.69,2.1,2.1,0,0,0,0,.56,5.32,5.32,0,0,0,.2,1,7.09,7.09,0,0,0,1.42,2.25c.32.39.68.76,1,1.14s.83.91,1.25,1.36c.84.9,1.66,1.82,2.44,2.78a5.91,5.91,0,0,1,.61,1,4.47,4.47,0,0,1,.16.63,6.26,6.26,0,0,1,0,1.06,12.12,12.12,0,0,1-.63,2.13,41.19,41.19,0,0,1-3,5.29c-.78,1.21-1.55,2.42-2.34,3.63-.33.51-.67,1-1,1.54s-.72,1.05-1,1.6a6.48,6.48,0,0,0-.76,1.62,4.31,4.31,0,0,0-.12.79,5.61,5.61,0,0,0,0,.58A9.9,9.9,0,0,0,84,183.6a18.23,18.23,0,0,0,1.35,3.63c.51,1.13,1.07,2.24,1.61,3.36s1,2.12,1.47,3.19.89,2.13,1.3,3.21c.5,1.31,1,2.62,1.4,3.95.8,2.49,1.49,5,2.22,7.54s1.49,5.05,2.2,7.58c.36,1.31.76,2.6,1.17,3.89l.6,1.75c.21.64.4,1.27.59,1.91s.37,1.24.54,1.86.33,1.33.49,2c.27,1.16.49,2.34.69,3.51q.7,4.05,1.39,8.1c0,.17.07.35.09.53a.8.8,0,0,0,1.35.36.78.78,0,0,0,.24-.57c-.35-2.85-.74-5.69-1.15-8.53-.08-.56-.17-1.12-.26-1.67s-.2-1.27-.33-1.9-.26-1.33-.42-2-.34-1.43-.52-2.14c-.31-1.24-.64-2.48-1-3.72s-.64-2.59-1-3.89-.6-2.57-.92-3.85-.67-2.56-1-3.84-.67-2.49-1-3.73-.65-2.41-1-3.6-.85-2.64-1.34-3.94-1-2.57-1.54-3.84-1.17-2.68-1.81-4c-.35-.74-.71-1.48-1.06-2.21-.27-.57-.52-1.14-.77-1.72a12.7,12.7,0,0,1-.73-2.49,4.17,4.17,0,0,1,0-.79,2.68,2.68,0,0,1,.07-.27,17.25,17.25,0,0,1,1.16-1.76l1.12-1.64c.71-1,1.4-2.11,2.08-3.17,1-1.5,1.92-3,2.76-4.54a20.8,20.8,0,0,0,1.2-2.63,10.5,10.5,0,0,0,.63-2.94,5.8,5.8,0,0,0-.1-1.5,5.28,5.28,0,0,0-.45-1.41,9,9,0,0,0-1.26-1.8c-.76-.89-1.57-1.73-2.39-2.58s-2-2-2.83-3a2,2,0,0,1-.48-1,1.77,1.77,0,0,1,0-.23,5.07,5.07,0,0,1,.25-.78,11,11,0,0,1,1-1.77c.42-.58.85-1.15,1.28-1.71,1.65-2.07,3.37-4.08,5-6.19.82-1.08,1.64-2.16,2.39-3.28s1.57-2.34,2.35-3.52c.39-.6.79-1.18,1.19-1.78s.76-1.06,1.15-1.58l.87-1.08c.26-.31.53-.61.8-.9.74-.82,1.51-1.6,2.28-2.38a1.14,1.14,0,0,0,0-1.6,1.13,1.13,0,0,0-1.6,0Z"/><path class="cls-2" d="M111.25,124.58c-.28.62-.56,1.23-.82,1.86s-.53,1.36-.76,2.06-.36,1.18-.53,1.78c-.26.94-.53,1.88-.76,2.83s-.5,1.95-.71,2.93-.46,2-.65,3l-.36,1.91c-.07.37-.15.74-.2,1.11-.1.61-.19,1.22-.28,1.83-.07.46-.15.91-.21,1.37-.12,1-.25,2-.36,3l-.33,3c-.43,4-.89,8-1.16,12.08-.07,1.08-.14,2.15-.19,3.22s-.07,2-.1,2.94,0,1.84,0,2.77c0,1.13,0,2.25.07,3.38.06,2,.2,4,.3,5.94s.18,4,.25,5.94.17,3.82.36,5.72c.21,2.09.42,4.18.73,6.25s.74,3.88,1.18,5.81c.23,1,.43,2.06.64,3.09s.34,1.79.56,2.67c.11.47.21.94.34,1.41s.27.94.4,1.42c.28,1,.59,2,.93,3a.94.94,0,0,0,.41.53l.06,0c0-.18,0-.36.07-.54a1.28,1.28,0,0,1,.52-.77l.06-.24c0-.13.08-.27.13-.4a2.68,2.68,0,0,1,.07-.27.14.14,0,0,1,0-.06c-.18-.6-.35-1.2-.51-1.81s-.27-1-.38-1.44-.26-1.1-.38-1.65-.22-1.07-.33-1.6l-.27-1.37c-.19-.92-.38-1.84-.59-2.76-.24-1.07-.47-2.14-.68-3.22s-.32-1.89-.45-2.84c-.21-2-.39-4-.52-6s-.19-3.93-.25-5.89-.15-4.06-.26-6.08-.24-4-.31-6-.1-3.87-.07-5.8c0-1.1,0-2.19.08-3.29s.09-2,.14-3,.11-1.81.18-2.71.13-1.86.21-2.79q.26-3,.52-6c.14-1.57.28-3.13.44-4.7.13-1.31.31-2.61.49-3.92.17-1,.35-2,.52-3.08.08-.42.17-.84.26-1.26.12-.61.25-1.23.38-1.85.06-.33.15-.67.23-1,.15-.67.31-1.35.47-2,.22-1,.51-1.93.77-2.89a28,28,0,0,1,1.11-3.35c.24-.55.49-1.1.74-1.65a.72.72,0,0,0,.07-.52.7.7,0,0,0-.32-.41.68.68,0,0,0-.35-.09.64.64,0,0,0-.59.33Z"/><path class="cls-2" d="M103.56,290.5c.41,1.72.82,3.44,1.28,5.15.67,2.46,1.34,4.92,2,7.37,1.24,4.35,2.44,8.7,3.64,13.07.64,2.32,1.27,4.64,1.94,7l.69,2.38c.09.31.18.62.28.93l1.32,4.06c.32,1,.69,1.94,1.05,2.91s.71,1.93,1.1,2.88c.49,1.17,1,2.36,1.46,3.52l1.65,3.75c.93,2.12,1.9,4.22,2.85,6.33l2.9,6.45c.43,1,.86,1.92,1.31,2.87.25.54.5,1.08.76,1.61.15.31.3.62.46.93s.34.66.53,1a6.83,6.83,0,0,0,.86,1.07,1.32,1.32,0,0,0,1.85,0,1.29,1.29,0,0,0,.39-.92,1.35,1.35,0,0,0-.39-.93l-.23-.25a23.67,23.67,0,0,1-1.28-2.38l-.77-1.56c-.47-.95-.92-1.92-1.37-2.88q-1.5-3.21-3-6.41c-1-2.07-1.94-4.12-2.88-6.2l-1.68-3.67c-.17-.39-.33-.78-.49-1.16-.32-.76-.65-1.51-1-2.26-.05-.14-.11-.27-.17-.41L117.29,331c-.37-.95-.68-1.92-1-2.89s-.66-1.89-1-2.86c-.43-1.44-.87-2.88-1.31-4.32-.59-1.93-1.12-3.89-1.68-5.83-.68-2.35-1.35-4.69-2-7s-1.45-4.91-2.18-7.37c-.64-2.16-1.24-4.33-1.86-6.5-.09-.34-.17-.68-.25-1-.21-.81-.42-1.61-.62-2.41s-.38-1.48-.56-2.22l-1.26,1.94Z"/><path class="cls-2" d="M106,125a.5.5,0,1,0,.5-.5.51.51,0,0,0-.5.5Z"/><path class="cls-2" d="M104.53,127.94a.5.5,0,1,0,.5-.5.51.51,0,0,0-.5.5Z"/><path class="cls-2" d="M100.2,132.05a7.37,7.37,0,0,0-1.38.29,19.54,19.54,0,0,0-2.29.92c-.7.31-1.39.62-2.07.94L90.56,136c-2.44,1.17-4.85,2.41-7.32,3.52-.62.26-1.24.52-1.87.75-.81.31-1.63.6-2.45.89s-1.52.5-2.28.74l-.87.25c-.37.1-.73.22-1.1.31-.83.19-1.65.38-2.48.53s-1.59.28-2.39.4c-1.56.24-3.11.44-4.66.7-.69.11-1.38.23-2.07.38-.46.1-.91.21-1.36.35a8.11,8.11,0,0,0-.91.4,5.83,5.83,0,0,0-1.31,1.13c-.28.32-.53.68-.78,1a25.77,25.77,0,0,0-2.11,3.77c-.36.72-.7,1.43-1.05,2.15q-1,2.12-2,4.25a26.47,26.47,0,0,0-1.28,3.3,19.22,19.22,0,0,0-.53,2.72c0,.16-.05.31-.07.46a1.78,1.78,0,0,0,.24.87,1.71,1.71,0,0,0,1,.79,1.74,1.74,0,0,0,1.32-.17,1.71,1.71,0,0,0,.8-1,18.44,18.44,0,0,1,.85-3c.42-.94.89-1.86,1.34-2.8l1.23-2.54c.41-.85.81-1.69,1.23-2.52a30.54,30.54,0,0,1,2.4-4.25,6.76,6.76,0,0,1,.63-.68l.08,0a21.55,21.55,0,0,1,2.22-.63c.76-.18,1.53-.35,2.29-.51,1.6-.34,3.2-.65,4.8-1a51.16,51.16,0,0,0,8.94-3,43.69,43.69,0,0,0,4.47-2.15c1.35-.73,2.63-1.57,4-2.34s2.62-1.47,4-2.15c1.63-.84,3.26-1.7,4.94-2.43a9.5,9.5,0,0,1,1.86-.57c.34,0,.68,0,1,0a1,1,0,0,0,1-1,1,1,0,0,0-1-1h-.51q-.3,0-.6,0Zm-1.57,2.4-.09,0,.09,0Z"/><path class="cls-2" d="M185.16,221c-.17.95-.26,1.93-.39,2.9-.2,1.56-.33,3.13-.44,4.7-.26,3.59-.49,7.18-.66,10.78-.11,2.39-.22,4.78-.37,7.16-.07,1.19-.17,2.37-.27,3.55-.08,1-.2,2-.31,3-.1.66-.2,1.32-.29,2s-.26,1.36-.39,2c-.26,1.35-.61,2.68-.95,4s-.68,2.5-1,3.76a10,10,0,0,0,.26,5.72c.28.79.63,1.56,1,2.33a22.91,22.91,0,0,1,1.34,4.08,10,10,0,0,1,0,2.05,40.76,40.76,0,0,1-1.49,5.72,23.84,23.84,0,0,0-.87,5.31c-.07,1-.11,1.92-.15,2.88,0,.34,0,.68,0,1s0,.89,0,1.33c.1,1,.18,2,.33,3.06s.25,1.81.41,2.71c.31,1.81.65,3.62,1,5.43s.56,3.43.8,5.15.45,3.37.68,5.05c.08.58.18,1.16.28,1.73a10.79,10.79,0,0,1,1.53-1.95,9.32,9.32,0,0,1,1.74-2.86c-.29-2.41-.59-4.83-1-7.22-.27-1.57-.56-3.14-.82-4.71-.14-.83-.28-1.65-.41-2.47s-.22-1.58-.32-2.37c0,.18,0,.36.07.54l-.09-1.07c0-.37-.09-.74-.09-1.1,0-.75-.07-1.52,0-2.27s.06-1.53.12-2.3.13-1.39.21-2.09c.07-.48.15-1,.25-1.43.13-.62.3-1.22.47-1.83.32-1.14.62-2.28.87-3.44a18,18,0,0,0,.51-4.06,12,12,0,0,0-1-4.37c-.29-.7-.56-1.41-.87-2.1s-.57-1.25-.85-1.88a9.18,9.18,0,0,1-.46-1.63,10,10,0,0,1,0-2c.28-1.76.71-3.51,1.09-5.25.16-.76.32-1.53.45-2.3.15-.94.32-1.88.43-2.83.19-1.74.38-3.48.48-5.23s.18-3.59.22-5.38c.08-3.52.14-7,.3-10.56.16-3.34.3-6.69.68-10a11.22,11.22,0,0,1-.63-2.72,10.57,10.57,0,0,1-1-1.45,2,2,0,0,0-.11-.2c-.07.37-.13.74-.19,1.12Z"/><path class="cls-2" d="M58.38,176.28a2.87,2.87,0,0,0-.41-1,2.94,2.94,0,0,0-1.31-1.05,4.81,4.81,0,0,0-.88-.3,6.14,6.14,0,0,0-.86-.12,7,7,0,0,0-1,0l-2,.14c-.7,0-1.41.08-2.12.09a10.73,10.73,0,0,1-1.7-.14l-1.13-.18c-.36-.06-.7-.15-1-.22-.79-.17-1.56-.39-2.34-.6-.28-.07-.55-.18-.83-.27l-1.27-.43c-.32-.11-.62-.25-.92-.38l-1-.39c-1.64-.73-3.29-1.46-5-2.08L32,168.42c-1.29-.46-2.59-.92-3.86-1.44a28.21,28.21,0,0,1-5.85-3.45l-.77-.62a1,1,0,0,1-.42,0,3.43,3.43,0,0,1-.64-.11,1.77,1.77,0,0,1-.71-.47c-.23-.29-.46-.6-.67-.91s-.41-.64-.62-1l-.21-.33-.09-.06a.36.36,0,0,1,0,.09l-.19.39c.06.15.13.29.2.43a6.52,6.52,0,0,0,.54.92,13.17,13.17,0,0,0,1.56,1.78c.51.51,1.07,1,1.63,1.45s1.29,1,2,1.49A27.36,27.36,0,0,0,28,169.05c1.21.56,2.45,1.06,3.69,1.58.93.4,1.88.78,2.8,1.22l1.75.84c.55.26,1.08.54,1.62.82l1.3.62c.55.26,1.09.53,1.66.75l1.81.71.6.19,1.09.34c.36.12.74.2,1.1.3s.74.18,1.12.26.83.18,1.25.25.62.11.94.14l.81.07a9.71,9.71,0,0,0,1.08,0l1.35-.06,1.22-.1a12.6,12.6,0,0,1,1.84-.09,3,3,0,0,1,.43.12l.2.11.17.17,0,0a1.44,1.44,0,0,0,.49.49,1.36,1.36,0,0,0,2-1.54Z"/><path class="cls-2" d="M57.13,177a1,1,0,0,0-.5.64c-.13.91-.27,1.83-.38,2.75s-.19,1.7-.27,2.55c-.15,1.58-.24,3.16-.35,4.74-.21,3-.42,6-.67,8.94-.13,1.54-.27,3.09-.45,4.64l-.63,5c-.39,3.13-.73,6.28-1,9.42-.07.75-.12,1.5-.17,2.25s-.11,1.39-.11,2.09,0,1.58,0,2.37.07,1.66.1,2.49c.07,1.46.13,2.93.13,4.4,0,.86,0,1.7-.08,2.55,0,.67-.12,1.33-.19,2-.13.85-.26,1.7-.44,2.54-.11.51-.19,1-.33,1.53s-.31,1.15-.47,1.73c-.25,1-.57,1.89-.86,2.84-.14.45-.32.89-.48,1.33s-.32.86-.49,1.28v2c0,.47,0,.93,0,1.39-.06,1-.11,2-.17,2.93,0,.43-.06.86-.1,1.29v.07c0,.12,0,.25,0,.37.48-.73,1-1.47,1.43-2.21s.81-1.43,1.18-2.16c.25-.49.47-1,.69-1.51s.43-1,.62-1.5l.45-1.26c.12-.35.26-.69.37-1,.24-.77.48-1.54.71-2.31s.41-1.54.61-2.31c.1-.36.16-.74.24-1.11s.17-.74.23-1.11.12-.84.19-1.26.15-.91.19-1.37c.07-.78.17-1.57.19-2.36,0-.45,0-.91,0-1.36s0-.83,0-1.24c0-1.46-.1-2.93-.2-4.39-.06-.88-.12-1.75-.16-2.63,0-.68-.07-1.36,0-2,0-3.14.25-6.28.5-9.41.12-1.52.24-3,.38-4.56s.3-3.2.42-4.8.23-3.34.31-5c.08-1.51.14-3,.21-4.53.09-2,.2-4.07.31-6.1,0-.86.08-1.73.15-2.59q.12-1.53.3-3.06l.24-1.67a1.14,1.14,0,0,0-.11-.83,1.05,1.05,0,0,0-.64-.49.9.9,0,0,0-.28,0,1,1,0,0,0-.54.15Z"/><path class="cls-2" d="M18.11,160.78c-.3,1.1-.61,2.21-.92,3.31-.18.66-.36,1.31-.52,2s-.4,1.56-.55,2.34-.35,1.8-.53,2.7-.25,1.58-.38,2.36-.21,1.45-.31,2.18c-.2,1.47-.36,3-.5,4.44-.2,2.15-.39,4.3-.64,6.45s-.53,4.24-.81,6.36c0-.1,0-.21,0-.31-.21,1.5-.4,3-.66,4.51s-.59,3.28-.9,4.91c-.58,3-1.34,6-2.13,8.95a135.68,135.68,0,0,1-6.14,17.37c-.3.73-.6,1.46-.88,2.2s-.55,1.49-.8,2.24A26.53,26.53,0,0,0,0,240.33a16.61,16.61,0,0,0,.3,3.3,20,20,0,0,0,.61,2.65c.23.71.42,1.45.69,2.15s.53,1.42.82,2.13S3,252,3.3,252.72c.58,1.45,1.16,2.91,1.67,4.39s1,3.08,1.56,4.62.91,3,1.36,4.45.9,2.9,1.38,4.33c.18.53.38,1.05.58,1.58.09.24.19.48.29.72s.3.74.48,1.1a15.46,15.46,0,0,0,1,1.73,7.73,7.73,0,0,0,1.6,1.82,8,8,0,0,0,1.08.75,11.06,11.06,0,0,0,1.27.55,1.55,1.55,0,0,0,.8,0,1.51,1.51,0,0,0,.9-.69,1.56,1.56,0,0,0,.15-1.16,1.59,1.59,0,0,0-.69-.9l-.18-.12a7.56,7.56,0,0,1-.89-.9,20.11,20.11,0,0,1-1.75-3.14c-.25-.59-.49-1.19-.72-1.79s-.51-1.42-.76-2.13-.48-1.48-.72-2.22-.49-1.52-.73-2.28q-1.35-4.29-3-8.49c-.75-1.91-1.55-3.79-2.36-5.67-.32-.77-.65-1.53-.91-2.32-.18-.54-.37-1.07-.55-1.61s-.29-1-.42-1.56-.26-1.23-.35-1.86a15.63,15.63,0,0,1,.06-3.68,17.65,17.65,0,0,1,.39-2.05c.13-.51.27-1,.4-1.53.2-.75.47-1.48.71-2.22s.54-1.45.81-2.17.57-1.41.85-2.11c1.13-2.78,2.19-5.6,3.14-8.45.51-1.53,1-3.07,1.45-4.61.25-.8.44-1.63.66-2.44s.37-1.49.55-2.24c.73-2.95,1.28-5.93,1.78-8.93s.87-6.15,1.2-9.24.6-6.22.83-9.34c.1-1.48.21-2.95.34-4.42.06-.63.1-1.26.18-1.89l.27-2.3c.14-.9.25-1.8.41-2.7s.34-2,.57-3,.44-2,.71-3c.31-1.15.63-2.3.94-3.45-.19-.24-.36-.5-.54-.75s-.41-.64-.62-1l-.09-.14a1,1,0,0,0-.25.41Z"/><path class="cls-2" d="M24.08,277.45l.15.06a.54.54,0,0,1-.05-.11l-.1.05Z"/><path class="cls-2" d="M194,357.77c-.32.19-.63.38-.94.59-.71.46-1.37,1-2,1.54-1.22.94-2.47,1.86-3.77,2.69-1.51,1-3.1,1.81-4.69,2.64s-3,1.39-4.5,2.06-3.19,1.49-4.81,2.2c-2,.86-4,1.7-6,2.54-2.44,1-4.9,2-7.42,2.89-1.3.44-2.62.81-3.94,1.17-.53.14-1.06.27-1.6.39-1,.23-2.07.46-3.12.62s-1.87.15-2.81.19c-.67,0-1.33,0-2,0s-1.15,0-1.72-.06c-1.13-.05-2.26-.11-3.39-.24a12.64,12.64,0,0,1-2.72-.63,4.66,4.66,0,0,1-.53-.32,1.54,1.54,0,0,1-.19-.17c0-.1,0-.19-.07-.28,0-.28,0-.56,0-.84a1.26,1.26,0,0,0-1.25-1.24,1.25,1.25,0,0,0-1.25,1.24,12.68,12.68,0,0,0,.17,1.63,3,3,0,0,0,.85,1.42,4.45,4.45,0,0,0,1.36.87,10.8,10.8,0,0,0,1.85.6,33.84,33.84,0,0,0,5.22.64,51.27,51.27,0,0,0,5.4.17,31.63,31.63,0,0,0,4.95-.64c.79-.15,1.58-.32,2.36-.5,1.7-.39,3.37-.87,5-1.42s3.22-1.19,4.81-1.82l5.05-2c1.52-.58,3-1.2,4.51-1.83,1.69-.71,3.4-1.36,5.09-2.06a52.45,52.45,0,0,0,5-2.42c.84-.46,1.65-1,2.45-1.49s1.81-1.29,2.69-2L192,364l.17-.14c1.24-.95,2.37-2,3.6-3a7,7,0,0,1,1.15-.77,1.53,1.53,0,0,0,1.09-1.45,1.53,1.53,0,0,0-1.51-1.51h-.11a4.65,4.65,0,0,0-2.35.63Zm1.57,3.22h0Zm-57.8,14.67.05.11h0a1.17,1.17,0,0,1-.05-.11Zm.11.23.16.2a1.56,1.56,0,0,1-.16-.2Zm.25.21.13.11-.13-.11Zm3.28.91.18,0-.18,0Zm50.23-12.75.1-.07-.1.07Zm.1-.07h0A1.84,1.84,0,0,1,192,364a1.84,1.84,0,0,0-.22.17Z"/><path class="cls-2" d="M196.09,346.24c.19.55.42,1.1.58,1.67s.39,1.34.58,2,.31,1.15.46,1.72.29,1.1.44,1.65c.29,1.06.64,2.11,1,3.14.08.22.16.44.25.66a1.34,1.34,0,0,0,.57.75,1.29,1.29,0,0,0,1,.12,1.2,1.2,0,0,0,.75-.57,1.22,1.22,0,0,0,.13-1c-.84-2.29-1.52-4.64-2.26-7-.34-1-.73-2.09-1.14-3.11l0-.06c-.39-.3-.77-.61-1.13-.94l-.17-.14-1.05-.67-.83-.59c.31.76.61,1.51.88,2.29Z"/><path class="cls-2" d="M40.37,352.36a4.24,4.24,0,0,0-.49,1.37,4.34,4.34,0,0,0,.17,1.52,7,7,0,0,0,.67,1.44,17,17,0,0,0,1.11,1.56,21.08,21.08,0,0,0,2.41,2.5,36.44,36.44,0,0,0,2.91,2.35c1.12.84,2.3,1.57,3.5,2.3.65.39,1.3.81,2,1.16l2.84,1.5c.72.38,1.46.72,2.18,1.08,1.46.71,2.91,1.43,4.38,2.09l2.73,1.22c.9.4,1.82.74,2.72,1.11,1.6.64,3.24,1.17,4.87,1.7.83.26,1.66.48,2.5.7s1.53.37,2.31.52a27.73,27.73,0,0,0,4.06.46c1.29.05,2.58,0,3.86-.09l2.46-.15c1.79-.12,3.58-.21,5.37-.29l2.5-.1,1.17-.06a15.65,15.65,0,0,0,2-.29,2,2,0,0,0,.87-3.31l-.4-.31a2,2,0,0,0-1-.27,8.24,8.24,0,0,0-1.22-.07l-1.07.07-2,.15c-1.38.11-2.76.2-4.14.33l-4.37.41-2.33.18a25.93,25.93,0,0,1-5.06-.15A56,56,0,0,1,69.72,371c-1.21-.37-2.4-.8-3.59-1.22-.45-.15-.88-.34-1.32-.51s-1.16-.44-1.74-.68l.07,0c-1-.44-2.1-.88-3.15-1.34s-2.38-1-3.55-1.6-2.41-1.13-3.56-1.78l-2.27-1.26A31.38,31.38,0,0,1,47,360.23a23.06,23.06,0,0,1-3.79-3.6,9.85,9.85,0,0,1-1.1-1.77,5.54,5.54,0,0,1-.17-.58c0-.13,0-.25,0-.38v0c.07-.15.15-.3.21-.45a1.09,1.09,0,0,0,.11-.79,1.06,1.06,0,0,0-.48-.62,1,1,0,0,0-.52-.13,1,1,0,0,0-.89.5Z"/><path class="cls-2" d="M109.75,311.46c-.11,1-.21,2.09-.3,3.13-.06.62-.09,1.23-.12,1.85s-.08,1.48-.09,2.22l0,2.61c0,3,0,5.92.07,8.89.08,5.91,0,11.82,0,17.73,0,2.86.09,5.71.13,8.56,0,1.49.05,3,0,4.45,0,.74,0,1.47-.08,2.21s-.12,1.53-.2,2.3l-.09.77c0,.34-.09.69-.16,1-.1.57-.22,1.12-.36,1.67s-.24.95-.37,1.42-.18.76-.29,1.13h-.07a20.75,20.75,0,0,1-3.25-.06c-.92-.06-1.83-.13-2.74-.24a1.86,1.86,0,0,0-1.6,2.8,1.79,1.79,0,0,0,1.11.85c.83.17,1.66.31,2.49.43a24.23,24.23,0,0,0,3.3.29,10.77,10.77,0,0,0,1.7-.18,3.16,3.16,0,0,0,.68-.21,3.19,3.19,0,0,0,1.08-.63,5.05,5.05,0,0,0,.59-.71,2.81,2.81,0,0,0,.31-.84,8.49,8.49,0,0,0,.17-1.33c.06-.72.11-1.45.17-2.17.12-1.42.13-2.86.17-4.29,0-.75,0-1.51,0-2.27s0-1.47,0-2.21c-.05-1.48-.15-3-.24-4.45s-.17-2.84-.24-4.26c-.16-2.93-.25-5.87-.34-8.8s-.17-6-.24-9.05c-.07-2.81-.19-5.62-.25-8.42,0-1.11-.06-2.21-.06-3.31s0-2.49,0-3.74c0-.47,0-.94,0-1.42,0-.64,0-1.28.08-1.91s.09-1,.13-1.49c.07-.79.15-1.57.23-2.36a.69.69,0,0,0-.69-.7.72.72,0,0,0-.7.7Zm-1.38,59.78-.14.11h0l.14-.11Z"/><path class="cls-2" d="M43.88,359.54a1.21,1.21,0,0,0-.35.84c-.1,1.51-.2,3-.22,4.51s0,2.73,0,4.1c.1,2.88.25,5.76.38,8.64.08,2,.16,3.95.18,5.93,0,.77,0,1.54,0,2.31a18.38,18.38,0,0,0,.22,2.21,11.33,11.33,0,0,0,.58,2.2,21.63,21.63,0,0,0,1.06,2.42,10.92,10.92,0,0,0,.88,1.52,1.41,1.41,0,0,0,.78.6,1.37,1.37,0,0,0,1-.13A1.32,1.32,0,0,0,49,392.9a17.5,17.5,0,0,1-1.15-2.29c-.23-.57-.44-1.13-.62-1.72a11.89,11.89,0,0,1-.39-1.77c-.22-1.84-.21-3.71-.31-5.56-.07-1.43-.16-2.86-.25-4.3-.17-2.84-.35-5.67-.47-8.51-.06-1.33-.07-2.65-.06-4s.11-2.93.21-4.39a1.19,1.19,0,0,0-2-.84Z"/><path class="cls-2" d="M149.31,121.21a1.06,1.06,0,0,0,.67,1.27c-.19-.51-.35-1-.5-1.55v-.05a.84.84,0,0,0-.16.33Z"/><path class="cls-2" d="M109.8,121a2.8,2.8,0,0,0-.86.48c-.32.25-.64.51-1,.79a11,11,0,0,0-1.29,1.35,8,8,0,0,0-1.2,1.79,12.19,12.19,0,0,0-.42,1.15c-.1.37-.18.76-.26,1.14a1.08,1.08,0,1,0,2.08.57,15.59,15.59,0,0,1,.44-1.66,6.68,6.68,0,0,1,.55-.93c.34-.4.69-.78,1.06-1.14a11.5,11.5,0,0,1,1-.86,3.86,3.86,0,0,1,.51-.31,4.1,4.1,0,0,1,.87-.21,1.12,1.12,0,0,0,.51-.3,1.15,1.15,0,0,0,.34-.82A1.17,1.17,0,0,0,111,120.9h-.22a3.29,3.29,0,0,0-1,.13Z"/><path class="cls-2" d="M142.4,115.14a1.36,1.36,0,0,0-.82.63,1.45,1.45,0,0,0-.14,1.06,1.37,1.37,0,0,0,.63.82c.4.18.79.36,1.17.55a7.71,7.71,0,0,1,1.27.75,26.17,26.17,0,0,1,2,1.85c.43.42.85.86,1.28,1.29.86.88,1.72,1.75,2.58,2.64a1.32,1.32,0,0,0,.81.37,2.3,2.3,0,0,1-.15-.32,23,23,0,0,1-1.5-3.85l-.21-.78c0-.16-.08-.32-.11-.48l-.43-.46A24.14,24.14,0,0,0,146.5,117a8.59,8.59,0,0,0-1.27-.9l-.57-.29c-.39-.2-.8-.38-1.2-.56a1.72,1.72,0,0,0-.72-.19,1.4,1.4,0,0,0-.34,0Z"/><path class="cls-2" d="M163,195.28c-.52,0-1,.05-1.55.11s-1.2.15-1.8.25c-.91.15-1.81.37-2.7.6s-1.89.52-2.85.72-1.89.4-2.84.55-1.92.29-2.87.48-2,.47-3.06.71a.86.86,0,0,0,.46,1.66c1.09-.26,2.18-.54,3.28-.76s1.92-.3,2.88-.44,1.9-.3,2.84-.5,2-.47,3.05-.72,2-.42,3-.58c.43,0,.86-.1,1.29-.12s1.09-.05,1.65-.06a28.65,28.65,0,0,1,2.92.13c1.93.14,3.85.34,5.78.48l1.64.13.28.05a.9.9,0,0,0,.66-.09.84.84,0,0,0,.39-.51.86.86,0,0,0-.6-1.05c-1.05-.2-2.12-.29-3.18-.39l-3.07-.32c-.9-.1-1.81-.19-2.71-.26-.69,0-1.39-.1-2.09-.1q-.41,0-.81,0Z"/><path class="cls-2" d="M145.65,197.56l-.79.13a1.8,1.8,0,0,0-.8.32,2.15,2.15,0,0,0-.62.75,8.15,8.15,0,0,0-.6,2.73,30,30,0,0,0-.2,3,1,1,0,0,0,1,.95,1,1,0,0,0,1-.95c.07-1.31.15-2.62.31-3.91a5.36,5.36,0,0,1,.22-1l.06-.11c.15,0,.31-.06.48-.09l.51-.08a.91.91,0,0,0,.54-.42.86.86,0,0,0,.09-.7.89.89,0,0,0-.42-.55.79.79,0,0,0-.44-.12l-.26,0Zm-.58,2-.09.07.09-.07Z"/><path class="cls-2" d="M175.49,196.22a.86.86,0,0,0,0,1.21l.17.14a.86.86,0,0,0,.44.12l2.13.27,1,.09.93,0a2.17,2.17,0,0,1,.07.35,22.94,22.94,0,0,1,0,2.75c0,.73,0,1.45,0,2.18a.84.84,0,0,0,1.43.59.93.93,0,0,0,.25-.59c.1-.82.19-1.62.24-2.44,0-.41,0-.81,0-1.21a9.72,9.72,0,0,0-.09-1.43,2.49,2.49,0,0,0-.55-1.4,1,1,0,0,0-.28-.23.63.63,0,0,0-.31-.17,2.1,2.1,0,0,0-.7-.12c-.2,0-.4,0-.6,0s-.69,0-1-.08c-.82-.09-1.64-.2-2.45-.3H176a.86.86,0,0,0-.55.26Zm4.54,1.72.06.05-.06-.05Zm.16.16,0,0,0,0Zm0,0,0,.07,0-.07Z"/><path class="cls-2" d="M154.23,203.69a1.23,1.23,0,0,0-.83.35,1.17,1.17,0,0,0,.83,2,27.85,27.85,0,0,1,3,0c.92,0,1.83.12,2.74.17s1.87.07,2.81.06,1.86,0,2.79-.08c1.87-.1,3.73-.29,5.6-.36,1,0,2-.06,2.92,0s1.93.06,2.9.11l1.25.07a.6.6,0,0,0,0-1.19c-2-.11-4-.2-6.06-.25-.91,0-1.82,0-2.72,0s-2,.06-3,.07-2.19,0-3.28-.1-2.12-.14-3.17-.27l-2.76-.39-1.35-.15-.81,0-.86,0Z"/><path class="cls-2" d="M199.58,155.22a.94.94,0,0,0-.39.51c-.3.82-.61,1.64-.88,2.47l-.54,1.65c-.4,1.23-.8,2.46-1.21,3.69-.05.17-.09.34-.14.51-.15.55-.3,1.1-.44,1.65l-1.11,4.16c-.52,1.94-1,3.9-1.43,5.86s-.9,3.78-1.33,5.67c-1,4.15-1.9,8.3-2.86,12.45-.59,2.52-1.23,5-1.71,7.56a1.12,1.12,0,0,0,.11.8,1,1,0,0,0,.61.47,1.06,1.06,0,0,0,.8-.1,1,1,0,0,0,.47-.62c.37-2.07.84-4.12,1.28-6.17l1.2-5.59q.63-3,1.29-6c.45-2,.88-4.07,1.37-6.1l1.65-7c.19-.83.43-1.66.65-2.48.35-1.34.71-2.67,1.06-4,.28-1,.65-2.07,1-3.1l.84-2.55c.3-.94.65-1.87,1-2.81a.84.84,0,0,0-.59-1,.91.91,0,0,0-.23,0,.81.81,0,0,0-.43.11Z"/><path class="cls-2" d="M151.22,123.28a1.16,1.16,0,0,0,.12.89,1,1,0,0,0,.4.4c-.07-.53-.13-1.06-.15-1.59v-.28a1.12,1.12,0,0,0-.37.58Z"/><path class="cls-2" d="M151.8,123.31a1,1,0,0,0-.58.44,1,1,0,0,0-.09.74,1,1,0,0,0,.44.58c1,.79,2.06,1.58,3.16,2.27a25.62,25.62,0,0,0,3.41,1.77c1.23.53,2.5,1,3.78,1.37.56.19,1.12.37,1.67.57s1.09.41,1.63.63c1.27.57,2.53,1.18,3.79,1.77s2.78,1.22,4.19,1.79a77.21,77.21,0,0,0,8.28,2.48c2,.55,4,1.11,6,1.82l2.9,1.07c1,.38,2.07.74,3.08,1.17l-.25-.1.44.18-.07,0c1.87.87,3.68,1.86,5.51,2.81.94.5,1.9,1,2.86,1.43l1.44.67.66.31a7.94,7.94,0,0,1,.88.43c.28.16.55.34.81.52a11.34,11.34,0,0,1,1.51,1.51,14.44,14.44,0,0,1,1.42,2.59c.44,1,.86,2.09,1.24,3.17a1.75,1.75,0,0,0,.77,1,1.66,1.66,0,0,0,1.29.17,1.69,1.69,0,0,0,1.17-2.06c-.25-.78-.53-1.55-.82-2.31a23.78,23.78,0,0,0-1.45-3.26,11.48,11.48,0,0,0-4.47-4.3c-.42-.23-.89-.4-1.32-.6l-1-.45c-1.28-.59-2.55-1.2-3.8-1.85s-2.49-1.31-3.76-1.91c-.76-.36-1.54-.7-2.33-1s-1.33-.49-2-.72c-1.34-.47-2.68-.94-4-1.39-2.7-.91-5.49-1.58-8.26-2.27-1.77-.44-3.53-.92-5.26-1.51s-3.52-1.31-5.26-2c-.85-.36-1.7-.73-2.56-1.06-.49-.2-1-.38-1.48-.56s-1-.34-1.58-.5c-.85-.26-1.72-.47-2.58-.72l-1.53-.47c-.46-.15-.9-.33-1.35-.5s-.84-.37-1.25-.58l-.84-.44c-.28-.14-.54-.32-.81-.48a31.76,31.76,0,0,1-2.87-2,.75.75,0,0,0-.47-.14.8.8,0,0,0-.27,0Zm17.6,7.46.26.11-.26-.11Z"/><path class="cls-2" d="M190.83,213.74a1.38,1.38,0,0,0,.95,1.68c1.5.48,3,1,4.49,1.49l4.12,1.47,3.8,1.32c1.28.45,2.57.89,3.83,1.4l1.3.53c1.1.49,2.2,1,3.25,1.56,1.23.67,2.45,1.36,3.67,2.05,1,.59,2.12,1.15,3.18,1.73.61.34,1.22.67,1.82,1s1.06.69,1.58,1.05l.86.69c.33.26.64.55.95.83.62.55,1.22,1.11,1.82,1.68s1.2,1.11,1.81,1.65,1.38,1.15,2.06,1.74a1.22,1.22,0,0,0,.83.34,1.17,1.17,0,0,0,.83-.34,1.2,1.2,0,0,0,0-1.67c-.95-1.06-2-2-3.07-3s-2.12-2.05-3.2-3.05c-.23-.21-.47-.39-.71-.59s-.59-.5-.91-.72-.67-.49-1-.73-.65-.4-1-.6c-1.16-.72-2.39-1.36-3.59-2s-2.3-1.34-3.47-2c-.64-.34-1.27-.69-1.92-1s-1.37-.66-2.08-1c-2.6-1.15-5.3-2-8-2.94l-5.15-1.79c-1.79-.64-3.6-1.23-5.41-1.81a1.24,1.24,0,0,0-.37-.06,1.41,1.41,0,0,0-1.31,1Z"/><path class="cls-2" d="M280.68,222.41c-2.32,1.15-4.64,2.32-7,3.41s-4.78,2.2-7.17,3.32c-2.22,1-4.44,2.08-6.63,3.17a29.69,29.69,0,0,0-4.66,2.72,15.14,15.14,0,0,0-1.8,1.6,12.43,12.43,0,0,0-1.54,2.08c-.3.5-.61,1-.91,1.51-.4.66-.79,1.32-1.2,2s-.68,1-1.05,1.52a13.35,13.35,0,0,1-1.58,1.61l-.71.63-1.36,1.21c-.94.85-1.83,1.75-2.73,2.66s-1.65,1.72-2.48,2.58l-2.73,2.83c-1.73,1.78-3.49,3.52-5.23,5.29s-3.4,3.54-5.11,5.31-3.39,3.48-5.21,5.09c-.48.43-1,.87-1.44,1.28l-1.67,1.4c-.95.79-1.92,1.55-2.88,2.34-1.84,1.52-3.57,3.17-5.28,4.84a29.07,29.07,0,0,0-2.94,3.14,3.15,3.15,0,0,0-.51,1.08,2.11,2.11,0,0,0,.19,1.42,4.86,4.86,0,0,0,2,1.87c.52.32,1.07.59,1.62.88.2.1.41.18.62.27s.48.22.72.31c.44.18.88.36,1.32.52l2.79,1.05c1.6.6,3.19,1.22,4.77,1.88l1.56.76c.23.12.45.27.68.4l.85.5c.23.14.45.3.68.45l.76.5,1.4,1,2.88,1.89c1.2.79,2.4,1.57,3.54,2.44a17.82,17.82,0,0,1,2.78,2.71,19.09,19.09,0,0,1,2,3.36c0-.05-.05-.11-.07-.17.23.55.48,1.1.69,1.66q.4,1.13.78,2.25c.21.63.4,1.26.59,1.89a20.2,20.2,0,0,1,.58,2.29,7,7,0,0,1,0,1.37,1.26,1.26,0,0,0,.18.66,1.27,1.27,0,0,0,.78.6,1.32,1.32,0,0,0,1.61-.91,9,9,0,0,0,.22-1.36,4.92,4.92,0,0,0-.11-1.21,9,9,0,0,0-.3-1.13q-.25-.86-.54-1.71c-.41-1.2-.85-2.38-1.3-3.56-.26-.67-.57-1.31-.86-2a15.86,15.86,0,0,0-1.2-2.22,16.06,16.06,0,0,0-1.66-2.2,15.89,15.89,0,0,0-1.78-1.7c-.6-.5-1.23-1-1.87-1.42s-1-.71-1.54-1l-3.16-2c-1.07-.7-2.13-1.41-3.2-2.1-.53-.35-1.07-.67-1.62-1-.19-.1-.37-.22-.56-.31l-1.1-.53c-1.19-.57-2.44-1-3.67-1.5-2-.78-4.07-1.51-6.09-2.3-.42-.19-.84-.37-1.25-.59a16.13,16.13,0,0,1-1.69-1l-.37-.34c.42-.51.91-1,1.37-1.43l1.39-1.39c.79-.81,1.59-1.62,2.41-2.42s1.78-1.72,2.71-2.54l2.84-2.45,1.64-1.43c.47-.4.92-.84,1.37-1.26s.74-.69,1.1-1,.93-.88,1.37-1.34c.89-.92,1.78-1.84,2.66-2.77l2.7-2.88c1.72-1.85,3.5-3.66,5.29-5.45l5.11-5.08c.83-.82,1.67-1.63,2.51-2.44s1.45-1.3,2.2-1.92,1.59-1.13,2.35-1.74a14.7,14.7,0,0,0,1.66-1.49,8.33,8.33,0,0,0,1-1.35c.14-.21.28-.42.41-.64.48-.86.94-1.72,1.4-2.59l.67-1.28a19.5,19.5,0,0,1,1.34-2.24,12.79,12.79,0,0,1,2-2,33.11,33.11,0,0,1,4.23-2.57c1.07-.57,2.15-1.13,3.24-1.67,2.25-1.13,4.51-2.25,6.79-3.33,1.6-.77,3.21-1.52,4.81-2.3l5.49-2.74a.83.83,0,0,0,.3-1.12.79.79,0,0,0-.7-.4,1,1,0,0,0-.43.1Zm-71.36,62.9v.09s0-.06,0-.09Zm.09.32h0Z"/><path class="cls-2" d="M217.91,157.21c-.74.06-1.47.18-2.2.28l-.9.12a.81.81,0,0,0-.51.4.86.86,0,0,0-.08.65.81.81,0,0,0,.39.51,1,1,0,0,0,.66.09l2.09-.29c.54-.06,1.08-.1,1.62-.11a13.55,13.55,0,0,1,1.43.09c.43.07.86.15,1.27.26s.91.26,1.36.4c.81.26,1.6.6,2.39.93a11.17,11.17,0,0,1,2,1,4.72,4.72,0,0,1,.5.5,6.29,6.29,0,0,1,.52.91c.18.44.34.89.51,1.33a7.7,7.7,0,0,0,.43.92,5.45,5.45,0,0,0,.62.89,11.72,11.72,0,0,0,1.55,1.52,29,29,0,0,0,3.72,2.38l2.5,1.54c.84.51,1.68,1,2.53,1.5l2.7,1.59,2.82,1.64c.45.25.91.48,1.36.72l1.35.75c.44.24.85.51,1.27.77s.78.5,1.17.76c1.73,1.18,3.4,2.44,5.07,3.71s3.27,2.46,4.91,3.7l0,0c1.55,1.21,3.09,2.45,4.64,3.67l1.14.91c.4.32.81.64,1.2,1,.83.72,1.65,1.44,2.47,2.18.32.29.65.57.95.88l1.32,1.39c.72.75,1.4,1.54,2.1,2.31l2,2.24c.61.67,1.21,1.35,1.83,2l1.08,1.12c.21.23.44.43.67.64l1,.94a3.76,3.76,0,0,0,.31.25l.69.56q.9.72,1.86,1.38c.76.52,1.52,1,2.33,1.47a.8.8,0,0,0,1.08-.28.79.79,0,0,0-.29-1.08,38.53,38.53,0,0,1-3.47-2.36l-1.24-1c-.37-.3-.71-.65-1.06-1s-.62-.59-.91-.9-.77-.79-1.14-1.2l-4-4.47c-.73-.82-1.46-1.63-2.2-2.43-.34-.36-.67-.73-1-1.07l-1.13-1.08c-.73-.67-1.45-1.35-2.21-2l-2.58-2.13c-1.21-1-2.41-2-3.62-3s-2.58-2-3.87-3l.2.16-2.42-1.88c-.82-.64-1.64-1.28-2.48-1.89l-1.43-1c-.42-.31-.86-.59-1.28-.89-.79-.54-1.61-1-2.44-1.49s-1.73-1-2.59-1.43-1.73-1-2.58-1.51c-1.85-1.1-3.72-2.15-5.55-3.26L236.15,168c-1-.62-2.11-1.19-3.09-1.91a10.87,10.87,0,0,1-1.62-1.56,6.31,6.31,0,0,1-.64-1.13c-.2-.49-.41-1-.64-1.47a5.26,5.26,0,0,0-1.19-1.58,6.45,6.45,0,0,0-1.86-1.09c-1-.4-1.91-.78-2.87-1.14a17.08,17.08,0,0,0-2.8-.77c-.43-.08-.86-.14-1.29-.19s-.69,0-1,0-.8,0-1.2.06Z"/><path class="cls-2" d="M230.2,188.83c-.44,0-.89.07-1.33.11s-1,.13-1.53.19-1.12.18-1.67.27-.82.16-1.23.25-.85.17-1.27.27l-3,.7-1.28.31-1.7.47c-.16,0-.31.11-.46.16l-.81.28c-.26.1-.52.23-.77.34l-.57.26c-.21.1-.43.2-.63.31l-.78.44c-.38.21-.75.44-1.13.67-.87.51-1.69,1.09-2.52,1.66s-1.42,1-2.11,1.52-1.58,1.2-2.35,1.83q-2.22,1.81-4.37,3.69c-.59.51-1.16,1-1.76,1.53s-1.28,1.1-1.95,1.62a15.08,15.08,0,0,1-1.3.91c-.27.16-.56.31-.85.47s-.82.44-1.25.65c-.83.42-1.67.81-2.51,1.22a.8.8,0,0,0-.29,1.1.79.79,0,0,0,.48.38.92.92,0,0,0,.63-.08c.94-.46,1.88-.9,2.81-1.37l1.25-.65a14.93,14.93,0,0,0,2.48-1.7c.77-.63,1.54-1.27,2.3-1.92l2.42-2.06c1.36-1.15,2.75-2.25,4.15-3.34.73-.54,1.47-1.07,2.21-1.59.33-.24.67-.48,1-.7s.8-.56,1.22-.82c.77-.48,1.54-1,2.33-1.4.43-.24.86-.47,1.3-.68l1.07-.49.63-.22c.2-.07.39-.15.6-.21l1.67-.46c.81-.23,1.63-.42,2.45-.62,1-.24,2-.49,3-.72.42-.09.83-.19,1.25-.27s1-.2,1.49-.28l1.36-.19c.42,0,.83-.1,1.25-.13a13.49,13.49,0,0,1,2.11-.06l.37.09a.94.94,0,0,1,0,.16v.05a2.42,2.42,0,0,1-.1.36,6.64,6.64,0,0,1-.63,1.05,18.92,18.92,0,0,1-1.3,1.39c-.58.57-1.14,1.16-1.74,1.72l-2.06,1.92c-.8.74-1.62,1.45-2.46,2.15l-.86.62c-.45.29-.9.58-1.36.86a.94.94,0,0,0,.95,1.62,21.16,21.16,0,0,0,2.69-1.82c.72-.61,1.43-1.24,2.11-1.9l1.18-1.12c.48-.47,1-.93,1.45-1.41s1-1,1.46-1.49a16.36,16.36,0,0,0,1.18-1.32,8.43,8.43,0,0,0,.55-.78,6.79,6.79,0,0,0,.47-1,2.2,2.2,0,0,0-.07-1.81,1.73,1.73,0,0,0-.25-.39,1.34,1.34,0,0,0-.34-.29,3.44,3.44,0,0,0-.94-.3,7,7,0,0,0-1.12-.08c-.44,0-.87,0-1.31.05Zm2.36,1.64.08.05h0l-.08-.05Zm.13.11h0l0,0,0,0Zm-.62,1.48,0,.06,0-.06Z"/><path class="cls-2" d="M287,209.68a1.12,1.12,0,0,0,.39,1.51q1.77,1.23,3.5,2.5c.45.37.92.73,1.35,1.12.59.52,1.17,1,1.74,1.59s1.08,1.09,1.61,1.66.78.93,1.16,1.4a28.81,28.81,0,0,1,1.7,2.54c.62,1.12,1.23,2.23,1.75,3.4A14.24,14.24,0,0,1,301,228a8,8,0,0,1,0,1.47,10.77,10.77,0,0,1-.61,2.1c-.6,1.38-1.32,2.69-2,4l-1.29,2.36q-1.27,2.33-2.53,4.65c-1.72,3.12-3.66,6.12-5.58,9.12s-3.78,5.9-5.75,8.81-4.09,5.74-6.19,8.57-4,5.42-6,8.09-4.26,5.59-6.37,8.41c-.81,1-1.62,2.08-2.5,3.06s-2,2.24-3,3.37S257,294.4,256,295.69l-2.67,3.53c-.27.34-.55.68-.82,1s-.62.7-.93,1.05c-.58.65-1.22,1.26-1.83,1.88s-1.28,1.26-1.93,1.87c-1,.93-2,1.9-3,2.77a6.1,6.1,0,0,1-1.08.63l-.1,0a1.1,1.1,0,0,0-.61.47,1,1,0,0,0,1.16,1.51,8.31,8.31,0,0,0,1.38-.56,7.87,7.87,0,0,0,1.34-1c.51-.43,1-.9,1.49-1.35l2-1.82c1.3-1.22,2.56-2.45,3.8-3.73s2.11-2.46,3.15-3.69,2.33-2.69,3.59-4,2.55-2.46,3.82-3.7S267,288.25,268,287c2.23-2.67,4.43-5.35,6.64-8,2.34-2.84,4.59-5.77,6.82-8.7,1-1.36,2.07-2.71,3.06-4.1l1.75-2.48c.47-.65.91-1.33,1.36-2,1.94-2.92,3.75-5.92,5.57-8.92,1-1.6,1.91-3.21,2.85-4.83.42-.71.79-1.45,1.18-2.18s.76-1.48,1.13-2.23c.78-1.6,1.54-3.21,2.31-4.82l1.17-2.47a21.66,21.66,0,0,0,2-5.59,8.39,8.39,0,0,0,.12-1.8,8.81,8.81,0,0,0-.27-1.77,15.53,15.53,0,0,0-1.38-3.41c-.44-.84-.93-1.66-1.42-2.46a22.58,22.58,0,0,0-1.31-1.93l-.84-1.1c-.35-.45-.73-.87-1.11-1.3a22.34,22.34,0,0,0-1.74-1.77c-.72-.67-1.46-1.31-2.21-2s-1.58-1.26-2.39-1.86-1.87-1.33-2.82-2a.89.89,0,0,0-.52-.16,1.16,1.16,0,0,0-1,.55Z"/><path class="cls-2" d="M257.89,207.49c-.65.75-1.21,1.57-1.8,2.37-.37.51-.69,1-1,1.58l-2.52,4c-.38.61-.77,1.21-1.16,1.81s-.76,1.24-1.13,1.86a25.77,25.77,0,0,0-2.62,6.19c-.18.64-.34,1.27-.5,1.91a19.65,19.65,0,0,0-.36,2.28c-.16,1.26-.23,2.53-.29,3.79-.06,1.41-.11,2.82-.17,4.22-.06,1.2-.19,2.4-.35,3.59-.1.71-.22,1.42-.3,2.13s-.16,1.5-.23,2.25a1.49,1.49,0,0,0,.21.77,1.56,1.56,0,0,0,.91.7,1.54,1.54,0,0,0,1.17-.15,1.48,1.48,0,0,0,.7-.91c.25-1.51.47-3,.57-4.54.08-1.36.16-2.72.16-4.09s0-2.78,0-4.17c0-.7,0-1.39.06-2.08s.1-1.4.16-2.1c.15-.91.31-1.82.55-2.71.13-.5.25-1,.41-1.48.24-.76.49-1.51.79-2.25a33.15,33.15,0,0,1,2.2-4.06l2-3.29L257.3,212c.22-.36.44-.71.7-1.06l1.14-1.57.3-.35a1.14,1.14,0,0,0,.32-.78,1.1,1.1,0,0,0-.32-.78,1.13,1.13,0,0,0-.81-.32,1,1,0,0,0-.74.32Z"/><path class="cls-2" d="M230,234.18a1.27,1.27,0,0,0,0,1.77c.58.6,1.15,1.21,1.74,1.8s1.16,1.11,1.69,1.71a5.85,5.85,0,0,1,.51.92,10.4,10.4,0,0,1,.35,1.12,7.55,7.55,0,0,0,.56,1.57,4.22,4.22,0,0,0,.48.71,7.7,7.7,0,0,0,.75.86,12.47,12.47,0,0,0,1.82,1.51,14.26,14.26,0,0,0,3.21,1.57,1.2,1.2,0,0,0,1-.13,1.24,1.24,0,0,0,.58-.76,1.25,1.25,0,0,0-.12-1,1.43,1.43,0,0,0-.76-.58l-.34-.13c-.42-.18-.82-.37-1.22-.58a14.92,14.92,0,0,1-1.6-1,9.6,9.6,0,0,1-1.26-1.21,4.17,4.17,0,0,1-.38-.61c-.13-.37-.23-.74-.33-1.12a9.06,9.06,0,0,0-.62-1.67,7.53,7.53,0,0,0-1.73-2.16c-.87-.85-1.71-1.71-2.54-2.59a1.2,1.2,0,0,0-.87-.36,1.27,1.27,0,0,0-.9.36Z"/><path class="cls-2" d="M196.75,359.13a1.8,1.8,0,0,0-1.06.81,1.73,1.73,0,0,0-.18,1.37c1,2.51,1.9,5.05,2.82,7.58.21.58.45,1.16.63,1.76.32,1.05.64,2.1,1,3.15s.59,1.93.88,2.9c.21.69.37,1.4.55,2.09.46,1.79.94,3.57,1.37,5.37.55,2.32,1.1,4.65,1.63,7l.42,1.8c1.2,0,2.4.07,3.6.13-.47-2.37-1-4.74-1.56-7.09-.43-1.78-.84-3.56-1.3-5.34l-1-3.77c-.14-.52-.27-1-.43-1.54-.43-1.39-.86-2.78-1.28-4.17-.22-.72-.43-1.43-.69-2.13-1-2.89-2.11-5.78-3.21-8.65a1.87,1.87,0,0,0-.81-1.06,1.78,1.78,0,0,0-.9-.24,1.82,1.82,0,0,0-.46.06Z"/><path class="cls-2" d="M109.16,335.17a.9.9,0,0,0-.1.7,1,1,0,0,0,.42.54c.63.43,1.26.86,1.92,1.24a8.1,8.1,0,0,0,.94.45,5.41,5.41,0,0,0,1.48.35,7.9,7.9,0,0,0,2.17-.13.82.82,0,0,0,.36-.21.83.83,0,0,0,.25-.58.84.84,0,0,0-.83-.83,12.15,12.15,0,0,1-1.81,0,5.35,5.35,0,0,1-1-.29,17.23,17.23,0,0,1-2.52-1.55.75.75,0,0,0-.43-.13.94.94,0,0,0-.81.46Z"/><path class="cls-2" d="M109.64,324.11a.9.9,0,0,0-.53.41.92.92,0,0,0-.09.69.87.87,0,0,0,.41.53,27,27,0,0,0,3.58,1.43.86.86,0,0,0,1-.6.85.85,0,0,0-.09-.66.87.87,0,0,0-.51-.39l-.82-.32c-.77-.32-1.54-.66-2.3-1a1,1,0,0,0-.48-.12.58.58,0,0,0-.22,0Zm3,1.11.11,0-.11,0Z"/><path class="cls-2" d="M113.51,342.82c0,1.24,0,2.48,0,3.73,0,.37,0,.74,0,1.12l0,1.74c0,1,.08,2,.11,3l.12,2.56c.18,3.79.37,7.57.53,11.36.09,1.89.1,3.77.12,5.66,0,.49,0,1,0,1.47s0,.77,0,1.15c0,.54-.07,1.07-.11,1.61s-.09,1-.14,1.46h0c-.13.89-.26,1.77-.41,2.65a9.91,9.91,0,0,0-.15,1.53,12.11,12.11,0,0,0,.24,2.16c.12.68.28,1.34.44,2,.19.83.39,1.65.6,2.47s.46,1.9.76,2.83c.14.45.28.88.44,1.31s.43,1.08.66,1.6a1.06,1.06,0,0,0,.42.42,1.16,1.16,0,0,0,1.6-.42,1.14,1.14,0,0,0,.12-.9c-.07-.14-.13-.29-.19-.43a.87.87,0,0,1,.07.17c-.66-1.59-1.16-3.24-1.68-4.88-.23-.74-.46-1.48-.68-2.22-.14-.45-.27-.9-.4-1.36a16.45,16.45,0,0,1-.5-2.21,8.15,8.15,0,0,1,0-1.71l.09-.83c.05-.39.09-.79.12-1.18.09-.91.17-1.83.2-2.75l.06-1.61c0-.51,0-1,0-1.55,0-1,0-1.95-.07-2.94-.12-3.64-.42-7.28-.65-10.92q-.18-3-.35-5.91c-.11-2-.17-3.93-.22-5.9,0-1.42,0-2.84,0-4.25a.55.55,0,1,0-1.09,0Zm.6,34.61,0,.17,0-.17Z"/><path class="cls-2" d="M185.69,386.08c-.15,0-.29,0-.44,0a3.71,3.71,0,0,1-.47,0c-.44,0-.88.07-1.31.1l-1.92.14c-2.14.16-4.28.28-6.42.49-1.12.12-2.25.22-3.37.36-1.33.17-2.66.32-4,.5l-6.87.94c-1.09.15-2.19.29-3.28.46l-4.31.68-.92.15-1.83.38-2.36.49c-.29.06-.59.11-.88.19l-2.68.69c-.55.14-1.09.27-1.63.42l-6,1.7a1.1,1.1,0,0,0-.76,1.34.08.08,0,0,0,0,.05l1.67-.14c1.35-.11,2.7-.25,4-.4l.6-.16c1-.29,2-.55,3-.8s2-.55,3-.75l4.27-.88c.27-.06.55-.1.83-.14l2.37-.37c.94-.15,1.88-.3,2.83-.43l7.62-1.05,1.62-.22,3.78-.48c1.14-.14,2.28-.25,3.42-.37,2.12-.22,4.24-.36,6.37-.55l1.61-.15,1-.11c.29,0,.57,0,.85-.07l.25,0c-.07.11-.13.22-.21.33a16,16,0,0,1-1.16,1.17c-.51.48-1,.95-1.58,1.38a53.73,53.73,0,0,1-4.75,3.17c1.15-.11,2.31-.21,3.46-.29l.9-.07c.63-.45,1.26-.91,1.87-1.39s1.19-1,1.77-1.59a9.23,9.23,0,0,0,1.35-1.51,2.87,2.87,0,0,0,.36-.89,2.17,2.17,0,0,0-.12-1.21,1.71,1.71,0,0,0-.69-.91,2.06,2.06,0,0,0-1-.25Zm-.3,1.71.05.06-.05-.06Z"/><path class="cls-2" d="M73.17,383.24a.86.86,0,0,0,.3,1.17c4,2.16,8,4.33,12,6.46l4.84,2.56h.36c1.12,0,2.23,0,3.35,0q-4.5-2.34-9-4.74l-10.7-5.76a.87.87,0,0,0-.44-.11.84.84,0,0,0-.73.41Z"/><path class="cls-2" d="M23.18,152.53l.05.05.27.25c.24.22.46.46.68.7a.84.84,0,0,0-.36-.9.83.83,0,0,0-.43-.13.76.76,0,0,0-.21,0Z"/><path class="cls-2" d="M22.89,150.8a1,1,0,0,0-.33.72,1.08,1.08,0,0,0,.25.71l0,0a3.9,3.9,0,0,1,.38.33l.27.25c.25.23.48.48.71.73s.63.71.94,1.08.56.71.85,1.06l.37.45a5.22,5.22,0,0,1,.54.7l.16.16c.35.33.74.63,1.11,1s.89.69,1.34,1c.78.58,1.61,1.08,2.44,1.59l.48.26c.22.12.44.26.66.36.51.24,1,.5,1.54.71s1,.39,1.53.56l1.23.41,2.93,1c.43.14.86.26,1.29.37s.93.25,1.4.34c2,.39,4,.7,6,1,.92.14,1.84.25,2.77.36s1.9.24,2.85.33a7.82,7.82,0,0,0,1.18,0,6.48,6.48,0,0,0,.77-.07c0,.23-.09.46-.13.69s-.09.53-.13.8c-.38,2.07-.77,4.15-1.33,6.19a1,1,0,0,0,.62,1.2,1,1,0,0,0,1.1-.39,1,1,0,0,0,.15-.48c.15-1.06.22-2.12.31-3.18s.18-2,.28-3c.05-.47.09-.94.13-1.41,0-.21,0-.41,0-.61a1.62,1.62,0,0,0-.09-.82,1,1,0,0,0-.29-.3,3.18,3.18,0,0,0-.37-.27,8,8,0,0,0-2.7-1c-1.85-.33-3.71-.54-5.56-.82-1.66-.25-3.31-.5-5-.78-.85-.17-1.68-.37-2.52-.6s-1.48-.46-2.21-.7L36.43,160l-1.26-.44c-.32-.12-.64-.27-1-.41s-.88-.44-1.31-.68l-.83-.48c-.29-.16-.55-.35-.83-.52-.51-.33-1-.69-1.5-1-.18-.13-.36-.28-.53-.43l-.56-.45-1.09-1c-.17-.15-.31-.33-.47-.49s-.41-.43-.62-.65-.66-.76-1-1.13c-.17-.19-.31-.4-.47-.59l-.66-.84a1,1,0,0,0-.72-.34h0a1.06,1.06,0,0,0-.71.28Zm20.53,11.28.13,0-.13,0Z"/><path class="cls-2" d="M208.31,287c-.39.56-.76,1.13-1.16,1.69-.18.25-.37.5-.55.76a5.32,5.32,0,0,1-.37.46c-.27.3-.54.6-.82.88a5.81,5.81,0,0,0-1,1.19,1.28,1.28,0,0,0-.19.6,1.25,1.25,0,0,0,.32.87,1.22,1.22,0,0,0,1.46.25,7.82,7.82,0,0,0,.88-.63,6.39,6.39,0,0,0,.5-.54c.37-.42.72-.84,1.07-1.27.72-.92,1.36-1.89,2-2.86a1.3,1.3,0,0,0-.4-1.79,1.23,1.23,0,0,0-.68-.21,1.36,1.36,0,0,0-1.11.6Z"/><path class="cls-2" d="M204.64,292a.73.73,0,0,0,.23,1c.5.28,1,.56,1.52.82l1.54.76.81.42c.24.12.47.28.7.42l.7.41c.26.16.51.35.77.52,1,.65,1.87,1.36,2.8,2.06s1.77,1.28,2.66,1.91l1.69,1.21c.55.41,1.1.84,1.64,1.27s.84.71,1.25,1.09,1.05,1,1.56,1.49.79.81,1.15,1.24c.23.27.48.53.69.81l.69.9-.18-.25c.44.61.86,1.23,1.29,1.85s.94,1.36,1.45,2,1,1.23,1.5,1.84.88,1.1,1.29,1.67c.28.41.56.83.81,1.27s.64,1.12,1,1.65a1.15,1.15,0,0,0,.43.47,1.24,1.24,0,0,0,1.73-.38,1.2,1.2,0,0,0,.16-1,8.43,8.43,0,0,0-.45-1.14c-.14-.27-.29-.54-.44-.81-.33-.57-.71-1.1-1.09-1.63-.62-.86-1.33-1.67-2-2.47-.37-.42-.75-.84-1.1-1.28s-.75-1-1.12-1.45-.57-.79-.87-1.18-.76-1-1.17-1.47a22.89,22.89,0,0,0-2.21-2.3c-.45-.41-.9-.82-1.37-1.21s-1-.83-1.53-1.23c-1.7-1.33-3.57-2.41-5.36-3.61-.78-.51-1.55-1-2.32-1.57-.39-.27-.78-.56-1.19-.82l-.76-.48c-.18-.11-.36-.24-.54-.34l-1.38-.76c-.44-.25-.9-.45-1.35-.67s-.75-.34-1.11-.52-1-.51-1.49-.78a.86.86,0,0,0-.4-.11.72.72,0,0,0-.61.33Z"/><path class="cls-2" d="M240.47,311.44c-.33.34-.67.67-1,1s-.82.81-1.27,1.18-.76.47-1.13.71l-1.36.82c-.76.46-1.47,1-2.2,1.49l-.26.19a1.21,1.21,0,0,0-.35.54,1.26,1.26,0,0,0,.09,1,1.23,1.23,0,0,0,.72.6,1.17,1.17,0,0,0,1-.08c.55-.39,1.1-.78,1.67-1.14s1.15-.7,1.72-1.06l.87-.56c.25-.16.5-.33.73-.51a7,7,0,0,0,.81-.73c.54-.56,1.08-1.11,1.59-1.69a1.17,1.17,0,0,0,.07-1.66,1.23,1.23,0,0,0-.89-.38,1.06,1.06,0,0,0-.77.31Z"/><path class="cls-2" d="M23.64,164.17c-.38-.42-.77-.82-1.18-1.2-.19-.18-.39-.35-.59-.52s-.51-.42-.77-.63-.76-.58-1.15-.85l-.65-.45-.42-.28a4.14,4.14,0,0,0-.5-.3l-.12-.05a3.13,3.13,0,0,1-.15.32l-.21.44,0,.07c.73.75,1.51,1.45,2.25,2.19s1.55,1.57,2.33,2.34a.82.82,0,0,0,.56.26.83.83,0,0,0,.58-.21A.81.81,0,0,0,23.64,164.17Z"/><path class="cls-2" d="M21.23,151c-.32,1.13-.62,2.26-.93,3.38-.21.79-.37,1.6-.55,2.39a12.23,12.23,0,0,0-.21,1.21c-.06.41-.13.82-.17,1.23-.1.91-.19,1.81-.24,2.72a1.37,1.37,0,0,0,2.3,1.07,1.46,1.46,0,0,0,.44-1c.22-1.41.44-2.82.68-4.22.18-.79.35-1.58.55-2.36.32-1.19.64-2.37,1-3.55a1.52,1.52,0,0,0-1-1.88,1.61,1.61,0,0,0-.44-.06,1.47,1.47,0,0,0-1.43,1Z"/><path class="cls-2" d="M60.34,244.94l-.31.24a1.51,1.51,0,0,0-.4.69c-1.16,2.78-2.27,5.57-3.27,8.41-.91,2.58-1.75,5.2-2.73,7.76a13.33,13.33,0,0,1-1.4,2.43,12.41,12.41,0,0,1-1.58,1.66l-.95.8c-.69.53-1.39,1.05-2.12,1.52-.91.59-1.81,1.18-2.75,1.72s-1.87,1.08-2.78,1.66-1.66,1.18-2.48,1.79a1.77,1.77,0,0,0-.73.95,1.59,1.59,0,0,0,2.34,1.79c1.59-.86,3.21-1.65,4.8-2.52a24.19,24.19,0,0,0,2.3-1.47c.77-.53,1.52-1.1,2.26-1.67s1.54-1.23,2.27-1.9a14.86,14.86,0,0,0,1.76-1.87,17.24,17.24,0,0,0,1-1.49,14.35,14.35,0,0,0,.92-1.89c.4-1,.72-1.95,1-2.94s.56-1.72.85-2.58c.59-1.79,1.22-3.56,1.85-5.34.72-2,1.55-4,2.37-6a1.49,1.49,0,0,0-.16-1.2,1.56,1.56,0,0,0-.93-.72,1.44,1.44,0,0,0-.41-.05,1.59,1.59,0,0,0-.8.21Z"/><path class="cls-2" d="M39.72,274.23c-.49.33-1,.63-1.52.94-.17.1-.35.18-.53.27l-.65.33.2-.08-1.07.45-.06,0c-.14.06-.29.1-.43.15l-.76.26c-.41.14-.82.25-1.23.37-.72.22-1.44.4-2.17.58l-2.39.59q-1.32.34-2.64.72a1,1,0,0,0-.71,1.24,1,1,0,0,0,1.25.71c2-.48,3.94-1.08,5.88-1.71.87-.28,1.75-.55,2.6-.88.53-.2,1.07-.4,1.58-.63l.78-.36c.22-.1.44-.23.65-.35a23.38,23.38,0,0,0,2-1.22.81.81,0,0,0,.29-1.11.85.85,0,0,0-.71-.4.71.71,0,0,0-.4.11Zm-3.58,1.91,0,0h0l0,0Zm-.08,0h0Zm-.07,0-.07,0,.07,0Z"/><path class="cls-2" d="M51.57,241.8l-.51.9a17.1,17.1,0,0,0-.71,1.57c-.15.36-.27.73-.4,1.09-.26.7-.46,1.43-.68,2.14s-.4,1.28-.62,1.91-.48,1.27-.74,1.9l-.45,1a12.51,12.51,0,0,1-1.23,2A31.05,31.05,0,0,1,41.09,259c-1.47,1.06-2.94,2.12-4.38,3.21l-.31.23a1.47,1.47,0,0,0-.39.67,1.51,1.51,0,0,0,2.22,1.7c.72-.4,1.44-.81,2.13-1.27s1.48-1,2.21-1.55,1.47-1.17,2.19-1.77,1.21-1.07,1.79-1.63A19.88,19.88,0,0,0,49,255.78a12.31,12.31,0,0,0,1.23-2.36c.16-.38.33-.75.47-1.14.31-.83.6-1.67.88-2.52s.43-1.53.64-2.29.46-1.56.73-2.32l.11-.27a18.39,18.39,0,0,1,.88-1.71,1.36,1.36,0,0,0-.48-1.85,1.27,1.27,0,0,0-.68-.19,1.35,1.35,0,0,0-1.17.67Z"/><path class="cls-2" d="M52.43,244.58a1,1,0,0,0-.32.79c.33,2.91.64,5.81,1.09,8.71a1.08,1.08,0,0,0,.27.46,1.06,1.06,0,0,0,.75.31,1,1,0,0,0,.74-.31,1,1,0,0,0,.31-.75c-.33-2.8-.61-5.61-.94-8.42a1.21,1.21,0,0,0-.32-.79,1.14,1.14,0,0,0-1.58,0Z"/><path class="cls-2" d="M95.41,355.85c.11-.35.21-.69.3-1l-.3,1Z"/><path class="cls-2" d="M42.91,271.35c-.47.45-.95.9-1.45,1.32a9,9,0,0,1-1.24.79l-1,.5a32.56,32.56,0,0,1-3.46,1.14l-1.82.5c-.64.16-1.28.31-1.92.51s-1.14.37-1.72.54-1.28.32-1.92.45-1.15.19-1.72.31-1.07.23-1.61.32a18.66,18.66,0,0,0-2.78.52A1.85,1.85,0,0,0,20.9,280a1.83,1.83,0,0,0,1.82,1.81,16.6,16.6,0,0,0,2.54-.18c.81-.09,1.61-.24,2.42-.37s1.37-.13,2.05-.26a16.5,16.5,0,0,0,2.09-.56c.69-.23,1.36-.51,2-.74l1-.3c.46-.16.91-.35,1.36-.55.67-.3,1.32-.65,2-1s1.3-.62,1.95-.95,1.26-.67,1.87-1.05a16.1,16.1,0,0,0,1.9-1.41c.39-.33.75-.69,1.12-1a1.49,1.49,0,0,0,0-2.1,1.45,1.45,0,0,0-1-.43,1.57,1.57,0,0,0-1.07.43Z"/><path class="cls-2" d="M101.17,235.83a1,1,0,0,0-.66.32,1,1,0,0,0-.24.7c0,1-.07,1.91-.13,2.86s-.18,1.8-.27,2.71-.2,2.11-.33,3.16c-.26,2.09-.49,4.17-.73,6.26s-.51,4.15-.74,6.22l-.18,1.6c0,.46-.07.92-.11,1.38-.09,1.12-.18,2.23-.25,3.35-.13,2.15-.26,4.31-.33,6.46a.87.87,0,0,0,.31.63.91.91,0,0,0,.65.23,1,1,0,0,0,.63-.31,1.06,1.06,0,0,0,.23-.66c.08-1.6.2-3.21.31-4.81l.21-2.91a2.46,2.46,0,0,1,0,.26l.3-3.2c.05-.44.11-.89.16-1.33.09-.69.17-1.38.25-2.07.23-2,.48-4,.72-5.93.13-1.08.25-2.16.37-3.24s.22-2,.32-2.94.17-1.95.26-2.92c.11-1.12.19-2.23.24-3.35,0-.52,0-1,.06-1.57a1,1,0,0,0-.33-.66.93.93,0,0,0-.64-.24ZM99.32,266a.49.49,0,0,1,0,.12V266Z"/><path class="cls-2" d="M108,274.83a.88.88,0,0,0-.56,1.07,11.47,11.47,0,0,0-.38,1.64,4.89,4.89,0,0,0,0,1.79,2,2,0,0,0,.27.61,1,1,0,0,0,.28.29l.18.12a1.86,1.86,0,0,0,.31.1,1.35,1.35,0,0,0,.49,0,1.29,1.29,0,0,0,.46-.14,1.59,1.59,0,0,0,.41-.26l.37-.34a4.44,4.44,0,0,0,.42-.55,3.64,3.64,0,0,0,.47-.81,3.06,3.06,0,0,0,.15-.49,4.55,4.55,0,0,0,0-.52,3.42,3.42,0,0,0-.12-.9,3.09,3.09,0,0,0-.29-.73,2.8,2.8,0,0,0-.59-.69,1.59,1.59,0,0,0-1-.38h-.08a2.61,2.61,0,0,0-.87.19Zm1,1.76.08.13a2.3,2.3,0,0,1,.14.42c0,.12,0,.24,0,.36l-.06.29c-.08.15-.16.29-.25.43s-.17.22-.26.32a3.57,3.57,0,0,1,0-.46,8.37,8.37,0,0,1,.3-1.49Zm-.11,1.71,0,.05,0-.05Zm-.61.51h0Z"/><path class="cls-2" d="M111.34,124.27a1.05,1.05,0,0,0-.38.79c0,.61.09,1.23.19,1.84a11,11,0,0,0,.53,1.86,16.08,16.08,0,0,0,1.13,2.37c.46.81,1,1.59,1.51,2.36a14.94,14.94,0,0,0,4.39,4.86,1.28,1.28,0,0,0,1.52-.11,1.26,1.26,0,0,0,.09-1.76c-.42-.42-.84-.83-1.28-1.23s-.93-.89-1.36-1.37a28.56,28.56,0,0,1-2.06-2.72c-.23-.34-.46-.67-.67-1l-.44-.74a9.08,9.08,0,0,1-1.25-3.9l0-.33a1.25,1.25,0,0,0-.29-.82,1.15,1.15,0,0,0-.78-.37h-.06a1.11,1.11,0,0,0-.76.29Z"/><path class="cls-2" d="M141.88,123.45c-.65.58-1.26,1.19-1.89,1.78s-1.24,1.17-1.88,1.74c-1.17,1.06-2.28,2.19-3.53,3.16l-.36.26c-.66.44-1.34.86-2,1.26s-1.42.76-2.15,1.12l-1,.46-1.07.5c-.74.34-1.47.71-2.21,1l-1.23.54-1.12.43-2.7.94a.77.77,0,0,0-.42.29.7.7,0,0,0-.09.51.64.64,0,0,0,.29.41.66.66,0,0,0,.51.1l2.76-1c.82-.29,1.62-.62,2.42-1s1.42-.65,2.13-1,1.53-.69,2.3-1,1.4-.66,2.08-1,1.43-.79,2.12-1.23c.38-.25.76-.51,1.13-.79s.59-.49.88-.73c.58-.51,1.14-1.05,1.71-1.57l2.13-1.92c.78-.71,1.55-1.43,2.34-2.13a.83.83,0,0,0-.56-1.44.81.81,0,0,0-.55.21Z"/><path class="cls-2" d="M127.89,151.42v0a.36.36,0,0,0,0,.09Z"/><polygon class="cls-2" points="127.9 151.39 127.9 151.4 127.9 151.4 127.9 151.39"/><path class="cls-2" d="M132.82,155.57c-.13-.15-.26-.31-.38-.47-.31-.47-.56-1-.84-1.48s-.45-.78-.69-1.17c-.47-.77-1-1.52-1.49-2.27-1-1.43-1.91-2.88-2.9-4.3l.09.12c-.33-.48-.66-1-1-1.46s-.57-.93-.86-1.4-.64-1-1-1.52c-.16-.24-.33-.48-.51-.7a5.86,5.86,0,0,0-.42-.44l-.46-.46a4.92,4.92,0,0,0-.88-.7,2.09,2.09,0,0,0-.58-.24.61.61,0,0,0,0-.82.59.59,0,0,0-.44-.19.65.65,0,0,0-.41.15c-1.29,1.07-2.51,2.23-3.71,3.4l-1,1c-.34.32-.65.67-1,1-.58.6-1.12,1.23-1.66,1.87-1,1.13-1.84,2.32-2.71,3.51-.41.56-.81,1.11-1.24,1.65s-.93,1.13-1.4,1.69a1.9,1.9,0,0,0-.26.37.74.74,0,0,0-.12.29,1.19,1.19,0,0,0,0,.32,1.07,1.07,0,0,0,.26.73,1.25,1.25,0,0,0,.81.35.92.92,0,0,0,.95-1.13l.26-.37.33-.48c.26-.36.51-.72.76-1.09l.72-1.08-.15,1.78a14.27,14.27,0,0,0,0,1.73,8.36,8.36,0,0,0,.12,1,6.37,6.37,0,0,0,.29.94,7.92,7.92,0,0,0,.58,1.12c.26.46.53.91.79,1.36s.5.9.75,1.34.52.93.81,1.37L114,161c-.22.15-.43.32-.63.48-.48.4-.94.8-1.38,1.23-.78.78-1.53,1.6-2.26,2.43a9.69,9.69,0,0,0-1.11,1.44c-.27.46-.53.93-.77,1.41s-.46.91-.69,1.37-.6,1-.83,1.55a11.83,11.83,0,0,0-.56,1.84l-.54,2.2a24.67,24.67,0,0,0-.52,4.54,1.12,1.12,0,0,0,0,.32,22.5,22.5,0,0,0-.3,8.2,3.45,3.45,0,0,0,2,2.49,4.22,4.22,0,0,0,0,2.06,4.29,4.29,0,0,0,.19.54,5,5,0,0,0-.3,3.7,5.25,5.25,0,0,0,1,1.61,7.48,7.48,0,0,0-.68,5.21,3.71,3.71,0,0,0,1.83,2.51,1,1,0,0,0,0,.25,12.72,12.72,0,0,0,.63,3.46,1.25,1.25,0,0,0,2.44-.33c0-1,.09-2.09.13-3.13a4.06,4.06,0,0,0,3.06-4.54l.08-.17c.18-.3.34-.6.51-.91a19.06,19.06,0,0,0,.91-2.19,13,13,0,0,1,1.27-3.22,3.87,3.87,0,0,0,.28-3.52l.55-.52a3.84,3.84,0,0,0,1.08-3.22,23.15,23.15,0,0,0,5.17-5.73,10.61,10.61,0,0,0,1.81-5l0,0a1,1,0,0,0,.79.15,1.05,1.05,0,0,0,.78-1.23c-.23-1.2-.43-2.4-.76-3.57s-.54-2.19-.81-3.28-.62-2.26-1-3.38-.71-2.32-1.11-3.48c-.13-.41-.28-.81-.44-1.22-.08-.23-.18-.46-.28-.68a4.47,4.47,0,0,0-.55-.88,10.43,10.43,0,0,0,1-1.4c.27-.47.55-.94.84-1.4.54-.9,1.12-1.77,1.6-2.7s1-2,1.49-3v0l.37.61a19.65,19.65,0,0,1,1,1.92l.51,1.1c.12.26.24.51.37.76a5.21,5.21,0,0,0,1,1.29,1.14,1.14,0,0,0,.76.36,1.12,1.12,0,0,0,.8-.28A1.11,1.11,0,0,0,132.82,155.57Z"/></g></g></svg>