<svg xmlns="http://www.w3.org/2000/svg" viewBox="0 0 175.1 31.07"><defs><style>.cls-1{fill:#006795;}</style></defs><g id="Layer_2" data-name="Layer 2"><g id="レイヤー_1" data-name="レイヤー 1"><path class="cls-1" d="M79,30.94a.6.6,0,0,1-.84-.1L69.79,20a7.54,7.54,0,0,1,.1-9.35L78.2.22A.6.6,0,0,1,79,.13l2.18,1.73a.6.6,0,0,1,.1.84L73,13.14a3.59,3.59,0,0,0,0,4.44L81.35,28.4a.6.6,0,0,1-.11.84Z"/><rect class="cls-1" x="61.38" y="2.2" width="3.98" height="26.66" rx="0.6"/><path class="cls-1" d="M101.26,28.86H100A8.92,8.92,0,0,1,91,19.94V2.79a.58.58,0,0,1,.59-.59h2.79a.58.58,0,0,1,.59.59V19.94A5,5,0,0,0,100,24.88h1.3a4.94,4.94,0,0,0,4.94-4.94V2.79a.59.59,0,0,1,.6-.59h2.78a.59.59,0,0,1,.6.59V19.94A8.92,8.92,0,0,1,101.26,28.86Z"/><path class="cls-1" d="M137.79,28.86h-8.61a9.51,9.51,0,0,1-9.51-9.51V11.71a9.51,9.51,0,0,1,9.51-9.51h8.61a.58.58,0,0,1,.59.59V5.58a.58.58,0,0,1-.59.59h-8.61a5.54,5.54,0,0,0-5.53,5.54v7.64a5.54,5.54,0,0,0,5.53,5.53h8.61a.59.59,0,0,1,.59.6v2.78A.59.59,0,0,1,137.79,28.86Z"/><rect class="cls-1" x="126.78" y="13.54" width="10.2" height="3.98" rx="0.6"/><path class="cls-1" d="M47,22.11H38.45a.6.6,0,0,1-.57-.78l.9-2.79a.6.6,0,0,1,.57-.41H47Z"/><path class="cls-1" d="M11.17,17.68h-2a.79.79,0,0,0-.69,1.18l5.46,9.69a.59.59,0,0,0,.52.31h3.19a.59.59,0,0,0,.52-.89L14.22,21A7.81,7.81,0,0,0,19,13.85V10.31a8,8,0,0,0-7.95-8H2a2,2,0,0,0-2,2V28.26a.6.6,0,0,0,.6.6H3.38a.6.6,0,0,0,.6-.6V7.12a.79.79,0,0,1,.79-.79H11a4,4,0,0,1,4,4v3.54A3.82,3.82,0,0,1,11.17,17.68Z"/><path class="cls-1" d="M51,28.86a.6.6,0,0,0,.57-.78l-7-22.36a5,5,0,0,0-9.51,0l-7.22,22.4a.59.59,0,0,0,.56.78h2.93a.6.6,0,0,0,.57-.41l7-21.55a1,1,0,0,1,1-.7,1,1,0,0,1,1,.71l6.74,21.53a.6.6,0,0,0,.57.42Z"/><path class="cls-1" d="M141.43,27.31A1.55,1.55,0,1,1,143,28.86,1.52,1.52,0,0,1,141.43,27.31Zm2.85,0a1.3,1.3,0,1,0-1.3,1.32A1.28,1.28,0,0,0,144.28,27.31Zm-1.81.86a.06.06,0,0,1-.07-.07V26.51c0-.05,0-.08.07-.08h.63a.49.49,0,0,1,.55.51.45.45,0,0,1-.34.47l.34.68c0,.05,0,.08-.05.08h-.14s-.06,0-.08-.06l-.33-.66h-.36s0,0,0,0v.64a.07.07,0,0,1-.07.07Zm.93-1.23c0-.17-.09-.27-.3-.27h-.44v.51h.44C143.31,27.2,143.4,27.11,143.4,26.94Z"/><rect class="cls-1" x="152.48" y="12.53" width="22.62" height="6" rx="0.6"/><rect class="cls-1" x="160.79" y="4.22" width="6" height="22.62" rx="0.6"/></g></g></svg>