<svg xmlns="http://www.w3.org/2000/svg" viewBox="0 0 174.35 174.34"><defs><style>.cls-1{fill:#fafa00;}.cls-2{fill:none;stroke:#006795;stroke-width:2px;}.cls-3{fill:#006795;}</style></defs><g id="Layer_2" data-name="Layer 2"><g id="レイヤー_1" data-name="レイヤー 1"><path class="cls-1" d="M154.87,140.47a86.3,86.3,0,1,0-14.39,14.38l19.73,8.55a2.43,2.43,0,0,0,3.4-2.23,2.51,2.51,0,0,0-.2-1Z"/><path class="cls-2" d="M154.87,140.47a86.3,86.3,0,1,0-14.39,14.38l19.73,8.55a2.43,2.43,0,0,0,3.4-2.23,2.51,2.51,0,0,0-.2-1Z"/><path class="cls-3" d="M62.47,110.29a1.51,1.51,0,0,1,3,0,44.94,44.94,0,0,0,.6,7.62,34.55,34.55,0,0,1,5.12-2,1.55,1.55,0,0,1,.47-.08A1.42,1.42,0,0,1,73,117.26a1.29,1.29,0,0,1-1,1.27,30.22,30.22,0,0,0-6.84,3c-2.24,1.45-3,2.88-3,4.21,0,1.61,1.07,2.44,5.2,2.44a28.15,28.15,0,0,0,5.38-.47,2.12,2.12,0,0,1,.34,0,1.37,1.37,0,0,1,1.41,1.43,1.43,1.43,0,0,1-1.17,1.45,29.61,29.61,0,0,1-6,.5c-5.46,0-8.19-1.67-8.19-5.18,0-2.13,1-4.23,4.23-6.44A41.58,41.58,0,0,1,62.47,110.29Z"/><path class="cls-3" d="M82.26,109.66a1.38,1.38,0,0,1,1.51,1.28,1,1,0,0,1,0,.28A49.82,49.82,0,0,0,82.36,122a68.76,68.76,0,0,0,.57,7.72c0,.08,0,.16,0,.24a1.43,1.43,0,0,1-1.51,1.3A1.38,1.38,0,0,1,80,130.05a49.84,49.84,0,0,1-.6-8.11,50.94,50.94,0,0,1,1.43-11.26A1.36,1.36,0,0,1,82.26,109.66Zm12.84,4.79c1-.11,2-.26,2.86-.42a2.12,2.12,0,0,1,.34,0,1.17,1.17,0,0,1,1.22,1.24,1.37,1.37,0,0,1-1.14,1.38c-1,.21-2.13.37-3.25.5,0,2.23.08,4.47.31,6.68a17.84,17.84,0,0,1,4.34,2.42,1.56,1.56,0,0,1,.71,1.27,1.41,1.41,0,0,1-1.38,1.4,1.67,1.67,0,0,1-1-.39,21.2,21.2,0,0,0-2.57-1.71c-.29,2.16-1.77,3.72-5,3.72-2.91,0-4.73-1.46-4.73-3.8,0-2.16,1.74-3.77,5.12-3.77a13.06,13.06,0,0,1,1.72.13c-.16-1.9-.21-3.8-.23-5.69-1.12.07-2.22.1-3.23.1a12.92,12.92,0,0,1-1.43,0,1.31,1.31,0,0,1-1.19-1.38,1.22,1.22,0,0,1,1.24-1.3c.47,0,.91,0,1.38,0,1,0,2.08,0,3.2-.1v-3.88a1.36,1.36,0,0,1,2.7,0Zm-2.31,11.23a7.41,7.41,0,0,0-1.85-.29c-1.82,0-2.39.58-2.39,1.33s.7,1.22,2,1.22A2,2,0,0,0,92.79,125.68Z"/><path class="cls-3" d="M109.64,123.76a1.15,1.15,0,0,1-1.28,1.22,1.17,1.17,0,0,1-1.27-1.22v-.58c0-2.05.49-3.27,2.6-4.88,1.66-1.28,2.08-2.11,2.08-3.46,0-1.74-1.2-2.68-3-2.68a4.54,4.54,0,0,0-4,2.29,1.21,1.21,0,0,1-1,.52,1.46,1.46,0,0,1-1.53-1.3,1.66,1.66,0,0,1,.36-1,7.46,7.46,0,0,1,6.16-3c3.62,0,6.11,2,6.11,5.15,0,2.24-.75,3.56-2.91,5.1-1.9,1.32-2.31,2.13-2.31,3.35Zm.75,4.86a2,2,0,0,1-4,0,2,2,0,0,1,4,0Z"/><path class="cls-3" d="M62,53.88a16.82,16.82,0,0,0-1.69.06c-.11,0-.15,0-.18-.16a6.17,6.17,0,0,1-.08-.75c.61.06,1.23.08,2,.08h4.29a1.36,1.36,0,0,0,.59-.08c.14-.07.2-.08.32,0a2.64,2.64,0,0,1,.45.43c.12.16.11.23,0,.33a.85.85,0,0,0-.27.4,10.43,10.43,0,0,1-5.06,5.41c-.15.08-.23.08-.33,0a2,2,0,0,0-.67-.37,9.87,9.87,0,0,0,5.22-5.34Zm1-2.49c-.63,0-1.17,0-1.7,0-.11,0-.13,0-.14-.16a5.37,5.37,0,0,1-.06-.72,17,17,0,0,0,2,.08h1.86c.76,0,1.28,0,1.86-.06.11,0,.13,0,.13.14a4.86,4.86,0,0,1,0,.54c0,.14,0,.17-.15.16l-1.79,0Z"/><path class="cls-3" d="M86.06,51.79c.36,0,.47,0,.6-.13s.18,0,.31.05a3.39,3.39,0,0,1,.48.4c.14.14.12.26,0,.36a1.12,1.12,0,0,0-.31.42,16.54,16.54,0,0,1-2.31,3.74,15.11,15.11,0,0,1-3.74,3.1.21.21,0,0,1-.27,0,1.58,1.58,0,0,0-.67-.35,13.66,13.66,0,0,0,6.22-6.85l-3.45.1a17.7,17.7,0,0,1-2.37,2.56.27.27,0,0,1-.38,0,1.44,1.44,0,0,0-.61-.25,12.93,12.93,0,0,0,3.13-3.49,3.51,3.51,0,0,0,.6-1.5,2.7,2.7,0,0,1,.9.42.17.17,0,0,1,0,.31,1.33,1.33,0,0,0-.36.41c-.18.28-.31.51-.48.75Z"/><path class="cls-3" d="M104.77,57.12h2.08c.77,0,1.43,0,2.21,0,.12,0,.17,0,.17.14v.56c0,.12,0,.15-.17.15-.67,0-1.45,0-2.19,0h-5.08c-.59,0-1.41,0-1.94.06-.13,0-.17,0-.19-.18a4.71,4.71,0,0,1-.06-.71c.78.06,1.45.06,2.19.06h2.1V52.61h-1.17c-.72,0-1.26,0-1.83.06-.11,0-.12,0-.14-.18a4.83,4.83,0,0,1,0-.71c.65,0,1.18.06,2,.06h3.11c.74,0,1.35,0,2.1,0,.1,0,.12,0,.12.12v.57c0,.12,0,.16-.14.16-.76,0-1.36,0-2.07,0h-1Z"/><path class="cls-3" d="M93.34,98.66a.54.54,0,0,1-.76-.09l-7.65-9.85a6.87,6.87,0,0,1,.08-8.5l7.57-9.49a.54.54,0,0,1,.76-.08l2,1.57a.54.54,0,0,1,.09.76l-7.57,9.5a3.26,3.26,0,0,0,0,4l7.65,9.83a.54.54,0,0,1-.1.76Z"/><rect class="cls-3" x="77.28" y="72.53" width="3.62" height="24.24" rx="0.54"/><path class="cls-3" d="M113.54,96.77h-1.18a8.11,8.11,0,0,1-8.11-8.11V73.07a.54.54,0,0,1,.54-.54h2.53a.54.54,0,0,1,.54.54V88.66a4.5,4.5,0,0,0,4.5,4.49h1.18a4.5,4.5,0,0,0,4.5-4.49V73.07a.54.54,0,0,1,.54-.54h2.53a.54.54,0,0,1,.54.54V88.66A8.11,8.11,0,0,1,113.54,96.77Z"/><path class="cls-3" d="M146.76,96.77h-7.83a8.65,8.65,0,0,1-8.65-8.65v-7a8.65,8.65,0,0,1,8.65-8.64h7.83a.54.54,0,0,1,.54.54V75.6a.54.54,0,0,1-.54.54h-7.83a5,5,0,0,0-5,5v7a5,5,0,0,0,5,5h7.83a.55.55,0,0,1,.54.55v2.53A.54.54,0,0,1,146.76,96.77Z"/><rect class="cls-3" x="136.74" y="82.84" width="9.28" height="3.62" rx="0.54"/><path class="cls-3" d="M64.19,90.63H56.43a.54.54,0,0,1-.51-.71l.81-2.53a.53.53,0,0,1,.51-.38h6.95Z"/><path class="cls-3" d="M31.63,86.6H29.77a.73.73,0,0,0-.63,1.08l5,8.81a.56.56,0,0,0,.48.28h2.9A.54.54,0,0,0,38,96L34.4,89.65a7.09,7.09,0,0,0,4.32-6.52V79.9a7.23,7.23,0,0,0-7.23-7.23H23.28a1.81,1.81,0,0,0-1.81,1.81V96.23a.54.54,0,0,0,.54.54h2.53a.55.55,0,0,0,.55-.54V77a.73.73,0,0,1,.72-.73h5.68A3.62,3.62,0,0,1,35.1,79.9v3.23A3.47,3.47,0,0,1,31.63,86.6Z"/><path class="cls-3" d="M67.86,96.77a.55.55,0,0,0,.52-.71L62,75.73a4.52,4.52,0,0,0-8.64,0L46.79,96.06a.55.55,0,0,0,.52.71H50a.53.53,0,0,0,.51-.38L56.8,76.81a.91.91,0,0,1,1.75,0l6.14,19.57a.54.54,0,0,0,.52.38Z"/><path class="cls-3" d="M150.07,95.36a1.41,1.41,0,1,1,1.41,1.41A1.38,1.38,0,0,1,150.07,95.36Zm2.59,0a1.19,1.19,0,1,0-1.18,1.2A1.16,1.16,0,0,0,152.66,95.36Zm-1.64.78c-.05,0-.07,0-.07-.06V94.63a.06.06,0,0,1,.07-.07h.57a.45.45,0,0,1,.5.46.43.43,0,0,1-.31.44l.31.61c0,.05,0,.07-.05.07h-.12a.08.08,0,0,1-.07,0l-.31-.61h-.33a0,0,0,0,0,0,0v.58s0,.06-.07.06Zm.84-1.12c0-.15-.08-.24-.28-.24h-.37s0,0,0,0v.46s0,0,0,0h.37C151.78,95.27,151.86,95.18,151.86,95Z"/></g></g></svg>