<svg xmlns="http://www.w3.org/2000/svg" viewBox="0 0 174.35 195.26"><defs><style>.cls-1{fill:#fafa00;}.cls-2{fill:none;stroke:#006795;stroke-width:2px;}.cls-3{fill:#006795;}</style></defs><g id="Layer_2" data-name="Layer 2"><g id="レイヤー_1" data-name="レイヤー 1"><path class="cls-1" d="M148.11,26.24A86.18,86.18,0,1,0,77,172.72l7.92,20a2.42,2.42,0,0,0,4,.82,2.54,2.54,0,0,0,.54-.82l7.91-20A86.14,86.14,0,0,0,148.11,26.24Z"/><path class="cls-2" d="M148.11,26.24A86.18,86.18,0,1,0,77,172.72l7.92,20a2.42,2.42,0,0,0,4,.82,2.54,2.54,0,0,0,.54-.82l7.91-20A86.14,86.14,0,0,0,148.11,26.24Z"/><path class="cls-3" d="M62.47,110.29a1.51,1.51,0,0,1,3,0,46.1,46.1,0,0,0,.59,7.62,36.27,36.27,0,0,1,5.13-2,1.48,1.48,0,0,1,.46-.08A1.42,1.42,0,0,1,73,117.26a1.28,1.28,0,0,1-1,1.27,30.79,30.79,0,0,0-6.83,3c-2.24,1.46-3,2.89-3,4.21,0,1.61,1.07,2.45,5.2,2.45a29,29,0,0,0,5.38-.47,1.42,1.42,0,0,1,.34,0,1.37,1.37,0,0,1,1.4,1.43,1.43,1.43,0,0,1-1.17,1.46,30.33,30.33,0,0,1-6,.49c-5.46,0-8.19-1.66-8.19-5.17,0-2.13,1-4.24,4.24-6.45A41.58,41.58,0,0,1,62.47,110.29Z"/><path class="cls-3" d="M82.26,109.67a1.36,1.36,0,0,1,1.5,1.27,1.57,1.57,0,0,1,0,.29A49.74,49.74,0,0,0,82.36,122a69,69,0,0,0,.57,7.72c0,.08,0,.15,0,.23a1.42,1.42,0,0,1-1.51,1.3A1.38,1.38,0,0,1,80,130.05a49.05,49.05,0,0,1,.84-19.37A1.35,1.35,0,0,1,82.26,109.67Zm12.84,4.78c1-.1,2-.26,2.86-.42a2.06,2.06,0,0,1,.34,0,1.18,1.18,0,0,1,1.22,1.25,1.38,1.38,0,0,1-1.14,1.38c-1,.2-2.14.36-3.25.49,0,2.24.07,4.47.31,6.68a18.18,18.18,0,0,1,4.34,2.42,1.58,1.58,0,0,1,.7,1.27,1.42,1.42,0,0,1-1.38,1.41,1.64,1.64,0,0,1-1-.39,19.6,19.6,0,0,0-2.58-1.72c-.28,2.16-1.77,3.72-5,3.72-2.91,0-4.73-1.46-4.73-3.8,0-2.15,1.74-3.77,5.12-3.77a15,15,0,0,1,1.72.13c-.16-1.89-.21-3.79-.24-5.69-1.12.08-2.21.1-3.22.1a12.92,12.92,0,0,1-1.43,0,1.31,1.31,0,0,1-1.2-1.38,1.23,1.23,0,0,1,1.25-1.3c.47,0,.91,0,1.38,0,1,0,2.08,0,3.2-.1v-3.87a1.36,1.36,0,0,1,2.7,0Zm-2.31,11.23a7.36,7.36,0,0,0-1.85-.28c-1.82,0-2.39.57-2.39,1.32s.7,1.23,2,1.23A2,2,0,0,0,92.79,125.68Z"/><path class="cls-3" d="M109.63,123.76a1.14,1.14,0,0,1-1.27,1.22,1.17,1.17,0,0,1-1.27-1.22v-.57c0-2.06.49-3.28,2.6-4.89,1.66-1.28,2.08-2.11,2.08-3.46,0-1.74-1.2-2.68-3-2.68a4.57,4.57,0,0,0-4,2.29,1.19,1.19,0,0,1-1,.52,1.48,1.48,0,0,1-1.54-1.3,1.61,1.61,0,0,1,.37-1,7.45,7.45,0,0,1,6.16-3c3.62,0,6.11,2,6.11,5.14,0,2.24-.75,3.57-2.91,5.1-1.9,1.33-2.32,2.13-2.32,3.36Zm.76,4.86a2,2,0,1,1-2-2A1.92,1.92,0,0,1,110.39,128.62Z"/><path class="cls-3" d="M62,53.88c-.67,0-1.2,0-1.69.06-.11,0-.16,0-.18-.15a4.79,4.79,0,0,1-.08-.76,19.78,19.78,0,0,0,2,.09h4.29a1.33,1.33,0,0,0,.59-.09c.14-.07.2-.08.32,0a2,2,0,0,1,.44.44c.12.15.11.22,0,.32a.83.83,0,0,0-.27.41,10.53,10.53,0,0,1-5.07,5.41c-.14.07-.22.07-.32,0a2.41,2.41,0,0,0-.67-.37,9.87,9.87,0,0,0,5.22-5.34Zm1-2.49c-.63,0-1.17,0-1.7,0-.11,0-.13,0-.15-.17s-.06-.5-.06-.72a17.32,17.32,0,0,0,2,.08h1.86c.75,0,1.28,0,1.86-.06.11,0,.13,0,.13.15a4.86,4.86,0,0,1,0,.54c0,.13,0,.17-.16.15l-1.78,0Z"/><path class="cls-3" d="M86.06,51.8a1,1,0,0,0,.6-.13c.08-.06.18,0,.31,0a5.35,5.35,0,0,1,.48.4c.14.14.12.26,0,.36a1.21,1.21,0,0,0-.31.42,15.77,15.77,0,0,1-2.32,3.74,14.59,14.59,0,0,1-3.74,3.11.2.2,0,0,1-.26,0,1.93,1.93,0,0,0-.67-.35,13.66,13.66,0,0,0,6.22-6.85l-3.45.1a17.84,17.84,0,0,1-2.38,2.57.25.25,0,0,1-.37,0,1.75,1.75,0,0,0-.61-.25,12.78,12.78,0,0,0,3.13-3.49,3.65,3.65,0,0,0,.6-1.5,3.16,3.16,0,0,1,.9.42.18.18,0,0,1,0,.31,1.45,1.45,0,0,0-.36.41c-.18.29-.31.52-.48.76Z"/><path class="cls-3" d="M104.76,57.12h2.09c.77,0,1.43,0,2.21,0,.12,0,.17,0,.17.15v.55c0,.12,0,.16-.17.16-.67,0-1.45,0-2.2,0h-5.07c-.59,0-1.42,0-1.94.06-.14,0-.17,0-.2-.18a6.76,6.76,0,0,1-.05-.71c.77.06,1.45.06,2.19.06h2.1V52.61h-1.18c-.72,0-1.26,0-1.82.06-.11,0-.12,0-.14-.18a4.68,4.68,0,0,1,0-.7c.65,0,1.17.06,2,.06h3.1c.75,0,1.36,0,2.1,0,.11,0,.12,0,.12.12v.57c0,.12,0,.16-.13.16-.77,0-1.37,0-2.07,0h-1Z"/><path class="cls-3" d="M93.34,98.67a.55.55,0,0,1-.77-.1l-7.65-9.84a6.87,6.87,0,0,1,.09-8.5l7.56-9.49a.54.54,0,0,1,.77-.09l2,1.57a.56.56,0,0,1,.09.77l-7.57,9.49a3.26,3.26,0,0,0,0,4l7.64,9.84a.53.53,0,0,1-.09.76Z"/><rect class="cls-3" x="77.28" y="72.53" width="3.62" height="24.24" rx="0.54"/><path class="cls-3" d="M113.54,96.77h-1.18a8.12,8.12,0,0,1-8.12-8.11V73.07a.55.55,0,0,1,.55-.54h2.53a.54.54,0,0,1,.54.54V88.66a4.5,4.5,0,0,0,4.5,4.5h1.18a4.5,4.5,0,0,0,4.49-4.5V73.07a.55.55,0,0,1,.55-.54h2.53a.54.54,0,0,1,.54.54V88.66A8.11,8.11,0,0,1,113.54,96.77Z"/><path class="cls-3" d="M146.75,96.77h-7.82a8.64,8.64,0,0,1-8.65-8.64V81.18a8.65,8.65,0,0,1,8.65-8.65h7.82a.55.55,0,0,1,.55.54V75.6a.55.55,0,0,1-.55.55h-7.82a5,5,0,0,0-5,5v6.95a5,5,0,0,0,5,5h7.82a.55.55,0,0,1,.55.54v2.53A.55.55,0,0,1,146.75,96.77Z"/><rect class="cls-3" x="136.74" y="82.84" width="9.28" height="3.62" rx="0.54"/><path class="cls-3" d="M64.19,90.63H56.43a.55.55,0,0,1-.52-.71l.82-2.53a.54.54,0,0,1,.51-.37h6.95Z"/><path class="cls-3" d="M31.62,86.61H29.77a.72.72,0,0,0-.63,1.08l5,8.81a.55.55,0,0,0,.47.27h2.91A.54.54,0,0,0,38,96l-3.55-6.3a7.1,7.1,0,0,0,4.32-6.53V79.9a7.24,7.24,0,0,0-7.24-7.23H23.27a1.81,1.81,0,0,0-1.8,1.81V96.23a.54.54,0,0,0,.54.54h2.53a.54.54,0,0,0,.54-.54V77a.73.73,0,0,1,.73-.72h5.67A3.62,3.62,0,0,1,35.1,79.9v3.23A3.48,3.48,0,0,1,31.62,86.61Z"/><path class="cls-3" d="M67.86,96.77a.54.54,0,0,0,.52-.7L62,75.73a4.52,4.52,0,0,0-8.64,0L46.79,96.06a.54.54,0,0,0,.51.71H50a.54.54,0,0,0,.51-.37L56.8,76.81a.92.92,0,0,1,1.75,0l6.14,19.57a.53.53,0,0,0,.51.38Z"/><path class="cls-3" d="M150.07,95.36a1.41,1.41,0,1,1,1.41,1.41A1.38,1.38,0,0,1,150.07,95.36Zm2.59,0a1.19,1.19,0,1,0-1.18,1.2A1.16,1.16,0,0,0,152.66,95.36Zm-1.65.79s-.06,0-.06-.07V94.63a.05.05,0,0,1,.06-.06h.58a.44.44,0,0,1,.49.46.41.41,0,0,1-.3.43l.3.61c0,.05,0,.08,0,.08h-.12s-.06,0-.08-.06l-.3-.6h-.33s0,0,0,0v.58a.07.07,0,0,1-.07.07Zm.85-1.12c0-.16-.08-.25-.28-.25h-.37s0,0,0,0v.46s0,0,0,0h.37C151.78,95.27,151.86,95.18,151.86,95Z"/></g></g></svg>