<svg xmlns="http://www.w3.org/2000/svg" viewBox="0 0 246.56 43.75"><defs><style>.cls-1{fill:#006795;}</style></defs><g id="Layer_2" data-name="Layer 2"><g id="レイヤー_1" data-name="レイヤー 1"><path class="cls-1" d="M111.3,43.57a.84.84,0,0,1-1.18-.15L98.27,28.18A10.65,10.65,0,0,1,98.41,15L110.12.32A.83.83,0,0,1,111.3.18l3.07,2.44a.84.84,0,0,1,.13,1.18L102.79,18.51a5,5,0,0,0-.08,6.25L114.55,40a.84.84,0,0,1-.15,1.18Z"/><rect class="cls-1" x="86.44" y="3.09" width="5.6" height="37.55" rx="0.84"/><path class="cls-1" d="M142.59,40.64h-1.84a12.57,12.57,0,0,1-12.56-12.57V3.93a.85.85,0,0,1,.84-.84H133a.84.84,0,0,1,.84.84V28.08a7,7,0,0,0,7,7h1.83a7,7,0,0,0,7-7V3.93a.84.84,0,0,1,.84-.84h3.92a.85.85,0,0,1,.84.84V28.08A12.57,12.57,0,0,1,142.59,40.64Z"/><path class="cls-1" d="M194,40.64H181.91a13.4,13.4,0,0,1-13.4-13.4V16.48A13.4,13.4,0,0,1,181.9,3.09H194a.84.84,0,0,1,.84.84V7.85a.83.83,0,0,1-.84.84H181.91a7.8,7.8,0,0,0-7.8,7.79V27.25a7.8,7.8,0,0,0,7.8,7.79H194a.83.83,0,0,1,.84.84V39.8A.84.84,0,0,1,194,40.64Z"/><rect class="cls-1" x="178.52" y="19.06" width="14.37" height="5.6" rx="0.84"/><path class="cls-1" d="M66.16,31.13h-12a.84.84,0,0,1-.8-1.1l1.25-3.92a.85.85,0,0,1,.8-.58H66.16Z"/><path class="cls-1" d="M15.73,24.89H12.86a1.12,1.12,0,0,0-1,1.67l7.69,13.65a.85.85,0,0,0,.73.43h4.5a.84.84,0,0,0,.73-1.26L20,29.62a11,11,0,0,0,6.69-10.11v-5A11.21,11.21,0,0,0,15.51,3.31H2.8A2.8,2.8,0,0,0,0,6.11V39.8a.85.85,0,0,0,.84.84H4.76a.84.84,0,0,0,.84-.84V10A1.12,1.12,0,0,1,6.72,8.91h8.79a5.6,5.6,0,0,1,5.6,5.6v5A5.38,5.38,0,0,1,15.73,24.89Z"/><path class="cls-1" d="M71.84,40.64a.84.84,0,0,0,.81-1.09L62.77,8.05A7,7,0,0,0,49.39,8L39.21,39.54a.84.84,0,0,0,.8,1.1h4.12a.84.84,0,0,0,.8-.59L54.72,9.72a1.42,1.42,0,0,1,2.71,0l9.5,30.31a.85.85,0,0,0,.8.59Z"/><path class="cls-1" d="M199.16,38.45a2.18,2.18,0,1,1,2.18,2.19A2.13,2.13,0,0,1,199.16,38.45Zm4,0a1.84,1.84,0,1,0-1.83,1.86A1.8,1.8,0,0,0,203.17,38.45Zm-2.55,1.21c-.07,0-.1,0-.1-.1V37.32a.09.09,0,0,1,.1-.1h.89a.68.68,0,0,1,.76.71.63.63,0,0,1-.47.67l.47.95c0,.08,0,.11-.06.11H202a.16.16,0,0,1-.12-.07l-.47-.94h-.51s0,0,0,0v.89a.09.09,0,0,1-.1.1Zm1.31-1.73c0-.23-.13-.38-.43-.38h-.58s0,0,0,0v.72s0,0,0,0h.58C201.8,38.31,201.93,38.17,201.93,37.93Z"/><rect class="cls-1" x="214.71" y="17.64" width="31.85" height="8.45" rx="0.84"/><rect class="cls-1" x="226.41" y="5.94" width="8.45" height="31.85" rx="0.84"/></g></g></svg>