<svg xmlns="http://www.w3.org/2000/svg" viewBox="0 0 296.84 52.67"><defs><style>.cls-1{fill:#006795}</style></defs><g id="Layer_2" data-name="Layer 2"><g id="レイヤー_1" data-name="レイヤー 1"><path class="cls-1" d="M134 52.46a1 1 0 01-1.42-.18l-14.27-18.36a12.81 12.81 0 01.17-15.85L132.58.38A1 1 0 01134 .22l3.69 2.93a1 1 0 01.17 1.43l-14.11 17.7a6.08 6.08 0 00-.1 7.53l14.26 18.34a1 1 0 01-.18 1.42z"/><rect class="cls-1" x="104.06" y="3.72" width="6.74" height="45.2" rx="1.01"/><path class="cls-1" d="M171.67 48.92h-2.21a15.13 15.13 0 01-15.13-15.12V4.73a1 1 0 011-1h4.72a1 1 0 011 1V33.8a8.38 8.38 0 008.38 8.38h2.2A8.38 8.38 0 00180 33.8V4.73a1 1 0 011-1h4.72a1 1 0 011 1V33.8a15.12 15.12 0 01-15.05 15.12zm61.92 0H219a16.12 16.12 0 01-16.12-16.12v-13A16.12 16.12 0 01219 3.72h14.59a1 1 0 011 1v4.73a1 1 0 01-1 1H219a9.37 9.37 0 00-9.38 9.37v13a9.38 9.38 0 009.38 9.36h14.59a1 1 0 011 1v4.72a1 1 0 01-1 1.02z"/><rect class="cls-1" x="214.93" y="22.95" width="17.3" height="6.74" rx="1.01"/><path class="cls-1" d="M79.65 37.48H65.19a1 1 0 01-1-1.32l1.51-4.72a1 1 0 011-.71h13zM18.94 30h-3.46a1.35 1.35 0 00-1.18 2l9.26 16.43a1 1 0 00.88.51h5.42a1 1 0 00.88-1.5l-6.63-11.78a13.25 13.25 0 008-12.17v-6A13.47 13.47 0 0018.68 4H3.37A3.37 3.37 0 000 7.36v40.55a1 1 0 001 1h4.73a1 1 0 001-1V12.08a1.35 1.35 0 011.35-1.35h10.6a6.74 6.74 0 016.74 6.74v6A6.48 6.48 0 0118.94 30z"/><path class="cls-1" d="M86.5 48.92a1 1 0 001-1.31L75.58 9.69a8.44 8.44 0 00-16.12-.06l-12.25 38a1 1 0 001 1.32h5a1 1 0 001-.7L65.88 11.7a1.71 1.71 0 013.26 0l11.44 36.5a1 1 0 001 .7zm153.28-2.62a2.62 2.62 0 112.62 2.62 2.58 2.58 0 01-2.62-2.62zm4.83 0a2.22 2.22 0 10-2.21 2.23 2.17 2.17 0 002.21-2.23zm-3.08 1.45a.11.11 0 01-.12-.12v-2.69c0-.09 0-.13.12-.13h1.07a.83.83 0 01.93.86.76.76 0 01-.57.8l.57 1.15c.05.09 0 .13-.08.13h-.23a.18.18 0 01-.14-.09l-.57-1.13h-.61v1.07a.12.12 0 01-.13.12zm1.58-2.08c0-.28-.15-.46-.52-.46h-.69v.85h.69c.41.06.52-.06.52-.39z"/><rect class="cls-1" x="258.5" y="21.24" width="38.34" height="10.17" rx="1.01"/><rect class="cls-1" x="272.58" y="7.15" width="10.17" height="38.34" rx="1.01"/></g></g></svg>