<svg xmlns="http://www.w3.org/2000/svg" viewBox="0 0 214.58 46.77"><g id="Layer_2" data-name="Layer 2"><path d="M3 2.23A1.11 1.11 0 014.17 3.3a.93.93 0 010 .23 43.8 43.8 0 00-1 9.31 43.35 43.35 0 00.38 4.94v.17a1.14 1.14 0 01-1.22 1.11 1.15 1.15 0 01-1.22-1 45.3 45.3 0 01-.36-5.19 47.27 47.27 0 011-9.73A1.12 1.12 0 013 2.23zm9.5 12.94a17.34 17.34 0 003.18-.31.69.69 0 01.25 0A1.12 1.12 0 0117 16a1.09 1.09 0 01-.92 1.12 18.62 18.62 0 01-3.64.36c-3.9 0-5.52-1.18-5.75-3.73v-.1A1.17 1.17 0 018 12.48a1 1 0 011.08.9c.14 1.31.79 1.79 3.42 1.79zm2.19-11.09a1.09 1.09 0 011.13 1.12 1.14 1.14 0 01-1.07 1.15 51.05 51.05 0 01-5.93.47A1.11 1.11 0 017.6 5.68a1.11 1.11 0 011.13-1.14 51.23 51.23 0 005.79-.46zM33 4.57c3.77 0 6.31 2 6.31 5.24 0 4-3 6.83-8.77 7.65a.74.74 0 01-.25 0 1.15 1.15 0 01-1.16-1.2 1.18 1.18 0 011-1.16c4.92-.84 6.65-2.55 6.65-5.32 0-1.62-1.22-3-3.83-3a25.34 25.34 0 00-9.74 2.5 1.76 1.76 0 01-.61.13 1.16 1.16 0 01-1.18-1.16 1.28 1.28 0 01.86-1.16A28.35 28.35 0 0133 4.57zm13.77-1.46A1.14 1.14 0 0148 4.23c0 .29-.08 1.32-.08 2 0 7.36 1.49 9.3 2.37 9.3.51 0 1-.34 1.37-1.92a1.09 1.09 0 011.08-.9 1.15 1.15 0 011.19 1.13 1.08 1.08 0 010 .36c-.81 2.8-2.15 3.8-3.56 3.8-3 0-4.91-3.76-4.91-11.76 0-1 0-1.6.09-2.15a1.15 1.15 0 011.22-.98zM62.63 12a1.08 1.08 0 01.09.44 1.13 1.13 0 01-1.18 1.11 1.15 1.15 0 01-1.11-.8 18.82 18.82 0 00-3.64-5.72 1.08 1.08 0 01-.36-.78 1.16 1.16 0 011.2-1.07 1.35 1.35 0 01.92.4A16.49 16.49 0 0162.63 12zm15-6.42c-2.52.33-5.87.84-8.9 1.28a.78.78 0 01-.21 0 1.17 1.17 0 01-1.18-1.2 1.15 1.15 0 011.1-1.16c4.38-.5 9.8-1.13 14.18-1.5h.13a1.08 1.08 0 011.13 1.11 1.13 1.13 0 01-1 1.14 7.1 7.1 0 00-2.32.84c-3.28 1.87-4 4.06-4 6.06 0 2.34 1.62 3.77 4.57 4.12a1.24 1.24 0 011.14 1.25 1.22 1.22 0 01-1.25 1.24 11.67 11.67 0 01-1.55-.21c-3.12-.78-5.35-3.1-5.35-6.34a8.49 8.49 0 013.45-6.56zm11.53 8.56a6.1 6.1 0 01.23-1.58 1.17 1.17 0 011.18-.84 1.06 1.06 0 011.16 1 1.67 1.67 0 010 .29 4.25 4.25 0 00-.13 1c0 1.33.72 2 4.65 2a29.47 29.47 0 005.75-.61 1.39 1.39 0 01.33-.05 1.12 1.12 0 011.12 1.16 1.23 1.23 0 01-1 1.2 27.89 27.89 0 01-6.17.65c-5.14.07-7.12-1.36-7.12-4.22zm6.76-10.48c1.32 0 2.73-.13 3.76-.23h.19A1.13 1.13 0 01101 4.59a1.1 1.1 0 01-1 1.13 26.11 26.11 0 01-4.06.28 22 22 0 01-4.38-.36 1.14 1.14 0 01-.92-1.16 1.13 1.13 0 011.11-1.2 1.23 1.23 0 01.27 0 20.39 20.39 0 003.9.38zm5.13-1.45a.86.86 0 01.88-.78.82.82 0 01.64.3 11.35 11.35 0 011.47 2 1 1 0 01.15.51.86.86 0 01-.87.84.84.84 0 01-.71-.46 13.43 13.43 0 00-1.39-1.92.68.68 0 01-.17-.49zm2.23-1.47a.82.82 0 01.86-.74 1 1 0 01.7.29 10.8 10.8 0 011.45 1.88 1.1 1.1 0 01.19.57.83.83 0 01-.84.82.94.94 0 01-.78-.47c-.42-.65-1-1.34-1.39-1.89a.73.73 0 01-.19-.46zm8.23 1.43a1 1 0 011-.89 1.24 1.24 0 01.71.21 23.46 23.46 0 003.6-.94 1.12 1.12 0 01.4-.07 1 1 0 011 1 .89.89 0 01-.74.84 26.66 26.66 0 01-3.93.93v.71h4.75a.76.76 0 01.7.85.75.75 0 01-.7.84h-1.19V7.2c0 .52-.51.8-1 .8s-1-.28-1-.8V5.62h-1.68A8.25 8.25 0 01111.9 9a1.25 1.25 0 01-1 .54 1 1 0 01-.8-1.66 6.65 6.65 0 001.41-4.29zm10.75 14.73a1.07 1.07 0 01.27.08 29.88 29.88 0 004.8 1.22 1 1 0 01.86 1 1 1 0 01-1 1 1.1 1.1 0 01-.25 0 25.86 25.86 0 01-5.3-1.5.94.94 0 01-.65-.86.88.88 0 01.75-.86h-4.94a1 1 0 01.8.9.94.94 0 01-.65.86 24.77 24.77 0 01-5.35 1.5 1 1 0 01-.23 0 .95.95 0 01-.08-1.89 26.89 26.89 0 004.78-1.35 1.89 1.89 0 01.36-.1h-1c-1.83 0-2.46-.61-2.46-1.92v-4.75c0-1.31.63-1.92 2.46-1.92h3.87a.94.94 0 01-.53-.82 1.07 1.07 0 01.28-.67 5.09 5.09 0 001.13-3.52V2.17a1 1 0 011-.89 1.1 1.1 0 01.79.3 29.3 29.3 0 004-1 1.16 1.16 0 01.4-.07 1 1 0 011 1 .89.89 0 01-.73.84 27.18 27.18 0 01-4.46 1v.63h6.31a.76.76 0 01.69.85.75.75 0 01-.69.84h-2.44v1.7c0 .53-.51.8-1 .8s-1-.27-1-.8V5.62H122a6.07 6.07 0 01-1.13 2.29 1.38 1.38 0 01-.49.4h3.1c1.83 0 2.48.61 2.48 1.92V15c0 1.62-1 1.92-2.48 1.92zm1.51-6.61c0-.38-.08-.46-.73-.46h-7.2c-.65 0-.76.08-.76.46v.44h8.69zM115.08 13h8.69v-.9h-8.69zm8 2.34c.65 0 .73-.08.73-.46v-.49h-8.69v.49c0 .44.25.46.59.46zm12.98-6.63v10.4c0 .59-.57.88-1.16.88s-1.16-.29-1.16-.88V3.58c0-1.54.57-2.34 2.8-2.34h2.19c2.25 0 2.8.72 2.8 2.25v3a2 2 0 01-.68 1.77 3.69 3.69 0 01-2.12.44zm3.22-5.15c0-.42-.15-.53-.7-.53h-1.85c-.53 0-.67.11-.67.53v.61h3.22zm-.7 3.4c.55 0 .7-.1.7-.5v-.63h-3.22V7zm2.23 9.83c-1.7 0-2.44-.67-2.44-2.1v-2.07c0-1.43.74-2.1 2.44-2.1h3.39c1.7 0 2.44.67 2.44 2.1v2.07c0 1.64-.95 2.1-2.44 2.1zm3-1.85c.49 0 .61-.15.61-.53V12.9c0-.38-.12-.53-.61-.53h-2.67c-.48 0-.61.15-.61.53v1.51c0 .42.21.53.61.53zm2.36-6.23c-2.25 0-2.8-.65-2.8-2.21v-3c0-1.53.55-2.25 2.8-2.25h2.38c2.23 0 2.8.8 2.8 2.34V17c0 2-.89 2.76-2.68 2.76a9.47 9.47 0 01-1.55-.1 1.16 1.16 0 01.12-2.3.71.71 0 01.21 0 7 7 0 00.91.09c.48 0 .67-.17.67-.68V8.71zm2.86-5.15c0-.42-.15-.53-.67-.53h-2c-.55 0-.7.11-.7.53v.61h3.41zm0 2.27h-3.41v.63c0 .4.15.5.7.5h2.71zm12.23-4.15a1.1 1.1 0 011.14-.9 1 1 0 011.13 1 1.23 1.23 0 010 .27c-.16.8-.38 1.64-.61 2.49l1.85-.32a1.06 1.06 0 01.24 0 1.1 1.1 0 01.14 2.19c-.9.19-1.93.36-3 .5a39 39 0 01-3.22 7.09 1.39 1.39 0 01-1.18.76 1.15 1.15 0 01-1.18-1.11 1.28 1.28 0 01.23-.74 32.44 32.44 0 002.84-5.72c-.78.08-1.53.12-2.19.14a1.07 1.07 0 01-1.09-1.15 1 1 0 011-1.1c.95 0 2-.1 3.07-.21.33-1.06.62-2.13.83-3.19zM165 19.32c-2.51 0-4-1.1-4-3.05 0-1.69 1.43-3.08 4.12-3.08a8 8 0 011.06.07A15 15 0 01166 11a12.13 12.13 0 01.14-2 1 1 0 011.1-.84 1.06 1.06 0 011.18 1v.17a12.85 12.85 0 00-.14 1.72 16.09 16.09 0 00.29 2.74 14.64 14.64 0 014 1.83 1.18 1.18 0 01.57 1 1.17 1.17 0 01-1.12 1.16 1.38 1.38 0 01-.72-.26 12.68 12.68 0 00-2.39-1.34c-.14 2.29-1.86 3.14-3.91 3.14zm1.49-3.43a4.52 4.52 0 000-.53 7.76 7.76 0 00-1.32-.13c-1.48 0-1.94.47-1.94 1s.42 1 1.79 1c.98 0 1.5-.42 1.5-1.34zM173 6.06a1.3 1.3 0 01.7 1.09 1.17 1.17 0 01-1.12 1.16 1.18 1.18 0 01-.63-.19 20.55 20.55 0 00-3-1.45 1 1 0 01-.75-1 1.18 1.18 0 011.19-1.15 1.44 1.44 0 01.4.06A13 13 0 01173 6.06zm8.84-3.77a1.22 1.22 0 012.44 0 37.45 37.45 0 00.48 6.17 29.13 29.13 0 014.15-1.64 1.22 1.22 0 01.38-.07 1.14 1.14 0 011.09 1.18 1 1 0 01-.78 1 25.35 25.35 0 00-5.53 2.44c-1.81 1.18-2.44 2.34-2.44 3.41 0 1.31.86 2 4.21 2a23.21 23.21 0 004.35-.38 1.42 1.42 0 01.28 0 1.11 1.11 0 011.13 1.16 1.16 1.16 0 01-.95 1.18 24.67 24.67 0 01-4.84.4c-4.41 0-6.62-1.35-6.62-4.19 0-1.73.8-3.43 3.43-5.22a33.07 33.07 0 01-.78-7.44zm6.21.32a.86.86 0 01.88-.78.82.82 0 01.63.3 10.86 10.86 0 011.47 2 .91.91 0 01.15.51.86.86 0 01-.86.84.84.84 0 01-.72-.48 12.7 12.7 0 00-1.39-1.92.72.72 0 01-.16-.47zm2.23-1.47a.82.82 0 01.86-.74 1 1 0 01.69.29 9.91 9.91 0 011.45 1.88 1.1 1.1 0 01.19.57.83.83 0 01-.84.82 1 1 0 01-.78-.47c-.42-.65-.94-1.34-1.38-1.89a.73.73 0 01-.19-.46zm6.58 14.01a1.11 1.11 0 011.14-1.09 1.45 1.45 0 01.74.23 16.69 16.69 0 013.77 3.32 1.58 1.58 0 01.38 1 1.2 1.2 0 01-1.22 1.18 1.3 1.3 0 01-1-.53 20.23 20.23 0 00-3.33-3.26 1 1 0 01-.48-.85zM6.84 36.69a13.88 13.88 0 013.6-.42c3.36 0 5.49 1.55 5.49 4.18S14.1 44.89 11 45.34a1 1 0 01-.24 0 1.1 1.1 0 01-1.11-1.14 1.08 1.08 0 011-1.09c2.06-.36 2.88-1.29 2.88-2.66 0-1.15-1.07-2.14-3.07-2.14a12.26 12.26 0 00-3.62.55v3.74c0 2.19-1 3-2.91 3S0 44.16 0 42.33c0-1.54.88-3.22 4.57-4.93v-3.53c-1.06.1-2.07.17-2.91.19a1.09 1.09 0 010-2.17c.84 0 1.85-.08 2.91-.21v-3.2a1 1 0 011.13-1 1 1 0 011.14 1v2.88c.71-.12 1.41-.25 2-.4a1.2 1.2 0 01.38 0A1.07 1.07 0 0110.33 32a1.06 1.06 0 01-.88 1c-.78.19-1.66.37-2.61.52zm-2.27 3.05c-1.83 1-2.21 1.72-2.21 2.54s.75 1.12 1.53 1.1c.61 0 .68-.4.68-.93zm12.2-7.24a1.29 1.29 0 01.48 1A1.23 1.23 0 0116 34.69a1.29 1.29 0 01-.86-.36 15.91 15.91 0 00-2.55-1.83 1 1 0 01-.58-.95 1.26 1.26 0 011.2-1.24 1.1 1.1 0 01.56.15 15.36 15.36 0 013 2.04zm7.76 2.99v10.39c0 .59-.57.89-1.16.89s-1.15-.3-1.15-.89V30.35c0-1.53.56-2.33 2.8-2.33h2.18c2.26 0 2.8.71 2.8 2.25v3a2 2 0 01-.67 1.77 3.72 3.72 0 01-2.13.44zm3.22-5.16c0-.42-.15-.52-.69-.52H25.2c-.52 0-.67.1-.67.52v.61h3.22zm-.69 3.41c.54 0 .69-.1.69-.5v-.64h-3.22v1.14zm2.23 9.83c-1.71 0-2.44-.68-2.44-2.11V39.4c0-1.43.73-2.1 2.44-2.1h3.38c1.71 0 2.45.67 2.45 2.1v2.06c0 1.64-.95 2.11-2.45 2.11zm3-1.85c.48 0 .61-.15.61-.53v-1.51c0-.38-.13-.53-.61-.53h-2.65c-.48 0-.61.15-.61.53v1.51c0 .42.21.53.61.53zm2.35-6.23c-2.25 0-2.79-.65-2.79-2.21v-3c0-1.54.54-2.25 2.79-2.25h2.38c2.23 0 2.8.8 2.8 2.33v13.46c0 2-.88 2.76-2.67 2.76a8.49 8.49 0 01-1.56-.11 1.16 1.16 0 01.13-2.29.78.78 0 01.21 0 6.69 6.69 0 00.9.08c.49 0 .68-.17.68-.67v-8.1zm2.87-5.16c0-.42-.15-.52-.68-.52h-2c-.55 0-.69.1-.69.52v.61h3.41zm0 2.27h-3.38v.64c0 .4.14.5.69.5h2.72zm9.7-2.71A1.14 1.14 0 0148.45 31c0 .29-.08 1.32-.08 2 0 7.37 1.49 9.3 2.38 9.3.5 0 1-.33 1.36-1.91a1.1 1.1 0 011.08-.91 1.16 1.16 0 011.2 1.14.9.9 0 010 .36c-.77 2.82-2.12 3.85-3.53 3.85-3.05 0-4.9-3.77-4.9-11.76 0-1 0-1.6.08-2.15a1.15 1.15 0 011.17-1.03zm15.87 8.92a1.33 1.33 0 01.08.44A1.14 1.14 0 0162 40.37a1.15 1.15 0 01-1.11-.8 18.58 18.58 0 00-3.64-5.72 1.09 1.09 0 01-.36-.78A1.17 1.17 0 0158.07 32a1.39 1.39 0 01.92.4 16.78 16.78 0 014.09 6.41zm23.18-4.27a1.28 1.28 0 01.74 1.14 1.14 1.14 0 01-1.14 1.15 1.59 1.59 0 01-.76-.21 29.34 29.34 0 01-8.1-6.54A31.23 31.23 0 0168.82 37a1.12 1.12 0 01-1.71-1 1.19 1.19 0 01.66-1A27.12 27.12 0 0076 27.55a1.3 1.3 0 011.09-.55 1.09 1.09 0 011.18 1 .83.83 0 01-.09.36 26 26 0 008.08 6.18zM73.4 46.3c-2 0-2.82-.73-2.82-2.25V41c0-1.51.78-2.25 2.82-2.25h7.41c2 0 2.84.74 2.84 2.25v3c0 1.85-1.2 2.25-2.84 2.25zm.17-9.72a1 1 0 010-2h6.93a1 1 0 010 2zm6.8 7.85c.76 0 .93-.19.93-.74v-2.33c0-.55-.17-.72-.93-.72h-6.52c-.76 0-.91.17-.91.72v2.33c0 .66.32.74.91.74zM97 35.11a9.83 9.83 0 016.06-2.51 5 5 0 015.28 5.08c0 3.59-2.27 6-5.93 7a2.33 2.33 0 01-.34 0 1.16 1.16 0 01-1.18-1.16 1.2 1.2 0 011-1.16c2.72-.78 4-2.19 4-4.71a2.7 2.7 0 00-2.82-2.93c-1.87 0-4 1-6.1 3L97 45a1 1 0 01-1.14 1 1 1 0 01-1.11-1l.06-4.8-1.83 2.28a1.07 1.07 0 01-.84.44A1.16 1.16 0 0191 41.86a1.05 1.05 0 01.25-.67 51.23 51.23 0 003.6-5.09v-1.45l-2.37.44a.9.9 0 01-.22 0 1 1 0 01-1-1.12 1 1 0 01.82-1l2.8-.46V29a1 1 0 011.13-1 1 1 0 011.12 1l-.06 3.26a.67.67 0 01.69.67c0 .38-.19.72-.76 1.41zm31.11-2.38l3.62-.19h.08a1.11 1.11 0 011.19 1.14 1.1 1.1 0 01-1.08 1.11c-1.26.07-2.52.15-3.79.21a17.13 17.13 0 01-.23 2.89c-.35 2-1.2 2.65-2.94 2.65a7.61 7.61 0 01-1.45-.15 1.12 1.12 0 01-.89-1.11 1.06 1.06 0 011.05-1.14.71.71 0 01.21 0 4 4 0 001 .11c.49 0 .7-.19.8-.74a13.85 13.85 0 00.19-2.38c-1.87.13-3.75.25-5.62.4v.34c0 2.06 0 3.49.13 5S121.2 43 123 43a26.43 26.43 0 005.41-.5 1.19 1.19 0 01.32-.05 1.12 1.12 0 011.13 1.16 1.21 1.21 0 01-1.07 1.18 27.57 27.57 0 01-5.81.5c-3.07 0-4.92-1-5.09-4.16-.08-1.5-.12-3-.12-5.2v-.21c-1.14.08-2.28.19-3.41.29h-.15a1 1 0 01-.93-.56 1.3 1.3 0 01-.12-.55 1.15 1.15 0 011.07-1.2c1.18-.11 2.36-.19 3.54-.29v-3.33a1.19 1.19 0 012.35 0v3.18c1.87-.15 3.77-.26 5.64-.38v-3.62a1.17 1.17 0 012.32 0zm12.66-4.38a1.11 1.11 0 011.22 1 1 1 0 010 .23 40.3 40.3 0 00-1.12 8.69 54.88 54.88 0 00.47 6.25v.19a1.15 1.15 0 01-1.22 1 1.12 1.12 0 01-1.18-.95 40.35 40.35 0 01-.48-6.56 41.85 41.85 0 011.15-9.11 1.1 1.1 0 011.16-.74zm10.39 3.88c.83-.09 1.6-.21 2.32-.34a1.32 1.32 0 01.27 0 1 1 0 011 1 1.1 1.1 0 01-.92 1.11c-.82.17-1.73.3-2.63.4 0 1.81.06 3.62.25 5.41a14.74 14.74 0 013.51 2 1.27 1.27 0 01.57 1 1.14 1.14 0 01-1.12 1.14 1.32 1.32 0 01-.79-.32 16.1 16.1 0 00-2.09-1.39c-.23 1.75-1.43 3-4 3-2.35 0-3.83-1.18-3.83-3.07s1.41-3 4.15-3a11.51 11.51 0 011.39.1c-.13-1.53-.17-3.07-.19-4.61-.91.07-1.79.09-2.61.09a10.67 10.67 0 01-1.16 0 1.07 1.07 0 01-1-1.12 1 1 0 011-1.05h1.12c.82 0 1.68 0 2.59-.08v-3.2a1.1 1.1 0 012.18 0zm-1.87 9.09a5.81 5.81 0 00-1.49-.24c-1.48 0-1.94.47-1.94 1.08s.57 1 1.62 1a1.63 1.63 0 001.81-1.84zm11.19-.61a6 6 0 01.23-1.58 1.17 1.17 0 011.18-.84 1.05 1.05 0 011.16 1 1.77 1.77 0 010 .3 4.19 4.19 0 00-.13 1.05c0 1.33.72 2 4.65 2a28.72 28.72 0 005.75-.61 2.11 2.11 0 01.33 0 1.12 1.12 0 011.12 1.16 1.24 1.24 0 01-1 1.2 27.82 27.82 0 01-6.17.65c-5.14-.04-7.12-1.47-7.12-4.33zm7.18-10.46a36.15 36.15 0 004-.28h.19a1.13 1.13 0 011.15 1.16 1.1 1.1 0 01-1 1.14 27 27 0 01-4.33.29 22 22 0 01-4.59-.4 1.19 1.19 0 01.19-2.35 1.18 1.18 0 01.27 0 20.73 20.73 0 004.12.44zm17 7.57a11.13 11.13 0 015.34-1.51c3.22 0 4.82 1.62 4.82 3.93 0 3.37-3.16 5.16-7 5.52a5 5 0 01-.69 0 1.07 1.07 0 01-1.11-1.1 1 1 0 011-1.07c3.95-.27 5.36-1.64 5.36-3.34 0-1.1-.67-1.92-2.4-1.92a8.74 8.74 0 00-6.29 2.71 1.29 1.29 0 01-.9.38 1.14 1.14 0 01-1.18-1.13 1.59 1.59 0 01.08-.51 40.65 40.65 0 001.58-5.93c-1 .08-2 .12-2.88.12a1.08 1.08 0 010-2.16c1 0 2.08-.07 3.28-.17.15-1.05.27-2.11.38-3.18a1.09 1.09 0 011.16-1 1 1 0 011.09 1v.15c-.11 1-.21 1.89-.34 2.76 1.64-.21 3.29-.49 4.7-.8a1.67 1.67 0 01.31-.05 1.07 1.07 0 011.05 1.1 1.1 1.1 0 01-1 1.07c-1.69.36-3.6.7-5.48.91a31.86 31.86 0 01-1 4.14zm18.47.18a9.86 9.86 0 016.1-2.25c3.3 0 5.35 1.81 5.35 4.19 0 3.24-2.68 5.55-7.75 6.14h-.19a1.15 1.15 0 01-.08-2.29c4.12-.49 5.55-2 5.55-3.85 0-1.1-.86-2.11-2.88-2.11a8.93 8.93 0 00-6.52 3.2 1.39 1.39 0 01-1.08.51 1.22 1.22 0 01-1.24-1.22 1.14 1.14 0 010-.26c.21-1.55.72-4.31 1.33-7.19a1.13 1.13 0 011.18-.87 1.09 1.09 0 011.2 1 .71.71 0 010 .21c-.4 2-.76 3.56-1 4.78zm6.44-8.61a1.28 1.28 0 01.73 1.16 1.13 1.13 0 01-1.11 1.16 1.44 1.44 0 01-.63-.15 30.77 30.77 0 00-3.43-1.3 1 1 0 01-.8-1 1.23 1.23 0 011.24-1.26 2.63 2.63 0 01.36 0 17.72 17.72 0 013.64 1.36z" fill="#006795" id="レイヤー_1" data-name="レイヤー 1"/></g></svg>