<svg xmlns="http://www.w3.org/2000/svg" viewBox="0 0 146.58 146.57"><g id="Layer_2" data-name="Layer 2"><g id="レイヤー_1" data-name="レイヤー 1"><path d="M130.07 118A72.34 72.34 0 10118 130.06l16.56 7.17a2 2 0 002.68-2.68z" fill="#fafa00"/><path d="M130.07 118A72.34 72.34 0 10118 130.06l16.56 7.17a2 2 0 002.68-2.68z" fill="none" stroke="#006795" stroke-width="2"/><path d="M40.83 39.59A1.07 1.07 0 0142 40.65a.9.9 0 010 .22 41.78 41.78 0 00-1 8.66 30.28 30.28 0 00.46 5.06.9.9 0 010 .22 1.13 1.13 0 01-1.18 1.12 1.09 1.09 0 01-1.12-1 36.14 36.14 0 01-.46-5.38 43.65 43.65 0 011-9.12 1.12 1.12 0 011.13-.84zm10 3.38v2c.8-.1 1.56-.2 2.22-.34a.82.82 0 01.22 0 1 1 0 011 1 1 1 0 01-.86 1c-.76.16-1.62.3-2.48.4 0 1.12.12 2.24.22 3.34a13.18 13.18 0 013.34 1.76 1.19 1.19 0 01.56 1A1.08 1.08 0 0154 54.17a1.25 1.25 0 01-.78-.28 14.53 14.53 0 00-1.94-1.22c-.22 1.66-1.32 2.86-3.8 2.86-2.24 0-3.62-1.06-3.62-2.86s1.32-2.84 3.92-2.84a9.65 9.65 0 011.3.08c-.06-.9-.12-1.8-.16-2.72-.84.06-1.64.08-2.34.08H45a.93.93 0 01-.86-1 .94.94 0 011-1h1.4c.6 0 1.5 0 2.32-.08v-2.32c-.76 0-1.52.06-2.22.06h-1.26a1 1 0 01-.88-1 .91.91 0 01.92-1h1.22a31.09 31.09 0 005.84-.48.75.75 0 01.2 0 1 1 0 011 1.06 1 1 0 01-.8 1c-.58.12-1.26.22-2 .3zm-1.64 8.9a5.5 5.5 0 00-1.42-.2c-1.42 0-1.86.42-1.86 1s.54.92 1.56.92a1.57 1.57 0 001.68-1.72zm13.3-4.62a3.36 3.36 0 011.82-.52c1.84 0 2.84 1.1 3 4.22.1 2.18.58 2.48 1.34 2.48s1.66-.78 2.36-2.6a1.13 1.13 0 011.08-.76 1.15 1.15 0 011.2 1.08 1.58 1.58 0 01-.1.48c-1 2.76-2.54 4.06-4.7 4.06s-3.36-1.12-3.5-4.54c-.08-2-.38-2.4-1.2-2.4-1.06 0-2.14 1-3.12 3-.44.92-1 2.14-1.46 3.1a1.16 1.16 0 01-1.06.68 1.14 1.14 0 01-1.2-1.06 1.26 1.26 0 01.1-.44c1.76-4.24 4.3-9.66 6.6-13.92a1.11 1.11 0 011-.6 1.18 1.18 0 011.26 1 1.07 1.07 0 01-.12.48l-3.34 6.18zm16.34-7.32a1.16 1.16 0 012.32 0 35 35 0 00.46 5.86 27.38 27.38 0 013.94-1.56 1.13 1.13 0 01.36-.06 1.09 1.09 0 011 1.12 1 1 0 01-.74 1 23.58 23.58 0 00-5.17 2.3c-1.72 1.12-2.32 2.22-2.32 3.24 0 1.24.82 1.88 4 1.88a22 22 0 004.14-.36 1.23 1.23 0 01.26 0 1.05 1.05 0 011.08 1.1 1.1 1.1 0 01-.9 1.12 23.13 23.13 0 01-4.6.38c-4.2 0-6.3-1.28-6.3-4 0-1.64.76-3.26 3.26-5a31.86 31.86 0 01-.79-7.02zm15.06.14a1.06 1.06 0 011.16 1 .9.9 0 010 .22 41.78 41.78 0 00-.92 8.84 41.82 41.82 0 00.36 4.7v.16a1.09 1.09 0 01-1.16 1.06 1.11 1.11 0 01-1.16-1 43.57 43.57 0 01-.34-4.94 45.09 45.09 0 01.94-9.24 1.07 1.07 0 011.12-.8zm9.11 12.3a16.42 16.42 0 003-.3 1 1 0 01.24 0 1.07 1.07 0 011.06 1.12 1 1 0 01-.88 1.06 17.47 17.47 0 01-3.46.34c-3.7 0-5.24-1.12-5.46-3.54v-.1a1.11 1.11 0 011.16-1.12 1 1 0 011 .86c.19 1.22.81 1.68 3.34 1.68zm2.08-10.54a1 1 0 011.08 1.06 1.1 1.1 0 01-1 1.1 50.76 50.76 0 01-5.64.44 1.08 1.08 0 11-.08-2.16 48.6 48.6 0 005.5-.44zm-78.43 32a1.13 1.13 0 01-1.1-1.12 1.09 1.09 0 01.74-1 15.74 15.74 0 015.76-1.32c3.14 0 4.62 1.42 4.62 4.1a10.2 10.2 0 01-4.42 8.4 1.34 1.34 0 01-.76.26 1.13 1.13 0 01-1.14-1.1 1.22 1.22 0 01.58-1 7.68 7.68 0 003.42-6.54c0-1.3-.54-2-2.26-2a13.59 13.59 0 00-4.92 1.18 1.3 1.3 0 01-.52.14zM35 66.89a1.09 1.09 0 01.72 1 1.13 1.13 0 01-1 1.18 1.57 1.57 0 01-.4-.08 35 35 0 00-4.36-1.2 1 1 0 01-.84-1 1.14 1.14 0 011.1-1.2h.2a21.32 21.32 0 014.58 1.3zm13.57 1.32h4.56a1 1 0 011 1.08 1 1 0 01-1 1h-4.54q0 1 .06 2.1c1.32-.08 2.6-.18 3.76-.32h.16a1 1 0 011.06 1 1.06 1.06 0 01-1 1.06c-1.22.16-2.54.26-3.88.34 0 .88.12 1.76.2 2.64a18.4 18.4 0 015 2.18 1.28 1.28 0 01.68 1.08 1.18 1.18 0 01-1.86 1 18.67 18.67 0 00-3.7-1.92v.14c0 2.16-1.88 3.2-4.2 3.2-2.54 0-4.1-1.22-4.1-3.08s1.44-3.08 4.3-3.08a15 15 0 011.62.1c-.06-.72-.14-1.44-.16-2.14h-1.08c-1.2 0-2.42 0-3.12-.12a1 1 0 01-1-1.06 1 1 0 011-1.06h.14a27.62 27.62 0 002.88.14h1.08c0-.72-.06-1.42-.08-2.14-1.7 0-3.36.1-4.76.16a1.06 1.06 0 010-2.12c1.4-.06 3.06-.14 4.76-.16v-2c0-.6.56-.9 1.12-.9a1 1 0 011.1.9zm-1.64 11.08v-.44a9.31 9.31 0 00-1.8-.18c-1.56 0-2 .48-2 1.08s.52 1 1.82 1 1.98-.62 1.98-1.46zm17.62-13.6a1.17 1.17 0 011.2 1.12 1.4 1.4 0 01-.24.72A51.9 51.9 0 0161 73.17a1.17 1.17 0 00-.42.88A1.38 1.38 0 0061 75a60.45 60.45 0 015.08 6.22 1.53 1.53 0 01.3.82 1.22 1.22 0 01-1.26 1.16 1.31 1.31 0 01-1.12-.67 52.32 52.32 0 00-4.74-6.24 3.39 3.39 0 01-1.06-2.22 2.87 2.87 0 01.97-2.07 38.63 38.63 0 004.44-5.76 1.1 1.1 0 01.94-.55zm7.08 2a1.08 1.08 0 011.18 1.06c0 .28-.08 1.26-.08 1.88 0 7 1.42 8.84 2.26 8.84.48 0 .92-.32 1.3-1.82a1 1 0 011-.86 1.1 1.1 0 011.14 1.08 1 1 0 010 .34c-.74 2.68-2 3.66-3.36 3.66-2.9 0-4.66-3.58-4.66-11.18 0-.92 0-1.52.08-2a1.1 1.1 0 011.14-1zm15.08 8.48a1.18 1.18 0 01.08.42 1.08 1.08 0 01-1.12 1.06 1.1 1.1 0 01-1.06-.76 17.68 17.68 0 00-3.46-5.44 1 1 0 01-.34-.74 1.11 1.11 0 011.14-1 1.32 1.32 0 01.88.38 15.79 15.79 0 013.88 6.08zm10-10.48a1.17 1.17 0 011.2 1.12 1.4 1.4 0 01-.24.72 51.9 51.9 0 01-4.54 5.64 1.17 1.17 0 00-.42.88 1.38 1.38 0 00.48.94 60.45 60.45 0 015.08 6.22 1.53 1.53 0 01.3.82 1.22 1.22 0 01-1.26 1.16 1.31 1.31 0 01-1.12-.66 52.32 52.32 0 00-4.74-6.24 3.39 3.39 0 01-1.06-2.22 2.87 2.87 0 01.94-2.07 38.63 38.63 0 004.44-5.76 1.1 1.1 0 01.94-.55zm5.2 10.24c0-4.56 3.78-8.3 9.28-8.3 4.88 0 7.7 3.06 7.7 7a7.49 7.49 0 01-5.58 7.38 1.31 1.31 0 01-.46.08 1.12 1.12 0 01-1.12-1.09 1.15 1.15 0 01.84-1.1c2.84-1 4-2.74 4-5.22a4.89 4.89 0 00-4.82-5 20 20 0 01-2.26 8.5c-1.1 1.94-2.28 2.52-3.82 2.52-2.06-.01-3.76-1.65-3.76-4.77zm2.3 0c0 1.84.72 2.52 1.44 2.52s1.16-.32 1.74-1.34a18.09 18.09 0 002-7.3 6.34 6.34 0 00-5.18 6.12zm-59.74 32.28a1.21 1.21 0 01-1.08.64 1 1 0 01-1.1-1 1.35 1.35 0 01.18-.62 33.72 33.72 0 003.06-7.82c-.82.09-1.62.24-2.38.39a.77.77 0 01-.26 0 1 1 0 01-1-1 1 1 0 01.9-1c1-.2 2.12-.34 3.18-.46.24-1.22.44-2.46.58-3.68a1.12 1.12 0 012.22.06v.14c-.12 1.08-.3 2.2-.52 3.3h1.08c2.56 0 3.5 1.16 3.5 4.31a18.63 18.63 0 01-.54 4.78c-.64 2.3-1.54 3.12-3.56 3.12a9.22 9.22 0 01-1.36-.1 1.07 1.07 0 01-1-1.08 1 1 0 011-1.1h.16a9.48 9.48 0 001.1.08c.7 0 1.06-.22 1.4-1.4a16 16 0 00.52-4.34c0-1.81-.34-2.28-1.3-2.28-.44 0-.94 0-1.48.06a36.17 36.17 0 01-3.3 9zm14.72-8.09a1.59 1.59 0 01.16.69 1.15 1.15 0 01-1.16 1.19 1.25 1.25 0 01-1.1-.76 18.69 18.69 0 00-2.84-4.13 1.1 1.1 0 01-.32-.72 1.11 1.11 0 011.16-1 1.34 1.34 0 01.92.38 18 18 0 013.18 4.35zm4.5-6.28a1.07 1.07 0 011.16-1 1 1 0 011.16 1c0 .22 0 .74-.06 1-.2 3-.36 6-.36 9 0 2.68.82 3.4 2.24 3.4 1.86 0 3.6-.76 5.44-3a1.21 1.21 0 011-.5 1.15 1.15 0 011.18 1.1 1.19 1.19 0 01-.28.74c-2.28 2.84-4.7 3.92-7.3 3.92-3 0-4.56-1.48-4.56-5.64-.04-3.27.16-7.07.38-10.02zm16.98 8.31a9.38 9.38 0 015.8-2.14c3.14 0 5.08 1.72 5.08 4 0 3.08-2.54 5.28-7.36 5.84h-.18a1.09 1.09 0 01-.08-2.18c3.92-.46 5.28-1.94 5.28-3.66 0-1-.82-2-2.74-2a8.48 8.48 0 00-6.2 3 1.3 1.3 0 01-1 .48 1.15 1.15 0 01-1.18-1.16 1 1 0 010-.24c.2-1.48.68-4.1 1.26-6.84a1.07 1.07 0 011.1-.85 1 1 0 011.14.94.65.65 0 010 .2c-.38 1.87-.72 3.39-.94 4.55zM86.79 94a1.21 1.21 0 01.7 1.1 1.07 1.07 0 01-1.06 1.1 1.44 1.44 0 01-.6-.14 29 29 0 00-3.26-1.24 1 1 0 01-.76-1A1.18 1.18 0 0183 92.66a2.23 2.23 0 01.34 0A16.38 16.38 0 0186.79 94zm12.32 9.85a.88.88 0 01-1 .94.9.9 0 01-1-.94v-.44a4.08 4.08 0 012-3.76c1.28-1 1.6-1.62 1.6-2.67 0-1.34-.92-2.06-2.34-2.06a3.5 3.5 0 00-3 1.76.92.92 0 01-.78.4 1.13 1.13 0 01-1.18-1 1.27 1.27 0 01.28-.74A5.75 5.75 0 0198.43 93c2.78 0 4.7 1.5 4.7 4 0 1.73-.58 2.75-2.24 3.93-1.46 1-1.78 1.64-1.78 2.58zm.58 3.74a1.52 1.52 0 01-3 0 1.52 1.52 0 013 0z" fill="#006795"/></g></g></svg>