<svg xmlns="http://www.w3.org/2000/svg" viewBox="0 0 356.76 113.17"><defs><style>.cls-1{fill:#fafa00}</style></defs><g id="Layer_2" data-name="Layer 2"><g id="レイヤー_1" data-name="レイヤー 1"><path class="cls-1" d="M337.77 37.44c1.59-.21 2.77-.42 3.86-.67 5.34-1.26 9.45-5.08 9.45-11.13 0-5.76-3.1-10-8.69-11a90.16 90.16 0 01-2.48 11.3c-2.48 8.4-6.09 13.53-10.63 13.53s-8.48-5.09-8.48-12.1c0-9.58 8.36-17.81 19.15-17.81 10.29 0 16.81 7.18 16.81 16.25 0 8.74-5.38 15-15.88 16.56zm-3.24-12.6a66 66 0 002.23-10.08c-6.89 1.42-10.54 7.47-10.54 12 0 4.2 1.68 6.26 3.23 6.26 1.72.05 3.4-2.55 5.08-8.18zM23.65 102.83a30.52 30.52 0 01-8.49 5.09 18 18 0 003.45.42A206 206 0 0040 108a20.61 20.61 0 00-1.47 4.66c-5.34.3-14.62.38-19.87.13-5-.21-8.49-1.43-11-4.71a86.432 86.432 0 01-5.25 5.13L0 108.42a62.9 62.9 0 005-3.91v-9.28H.63v-4.58h9v13.44a8 8 0 005.37 3.78 30.4 30.4 0 00-3.53-2.94 25.71 25.71 0 007.43-3.36h-8v-3.69h6.85V95.1h-5.61v-3.65h5.63v-2.23h4.62v2.23h4.87v-2.23H32v2.23h5.75v3.65H32v2.78h7.06v3.69h-8.18a64.29 64.29 0 018.1 4.54L33.9 108a42 42 0 00-7.31-4.58l3.19-1.81H20zM5.92 85a29.42 29.42 0 00-5.58-7.16l3.94-2.52c2.19 2 4.84 4.83 5.89 6.93zm13.49-6.26h-7.94v-3.13h12.14v8.11h-7.44v.88c0 .89.17 1.05 1.26 1.05h3.24c.84 0 1-.25 1.17-1.64a9.76 9.76 0 003.45 1.26c-.42 2.86-1.56 3.66-4.08 3.66H16.8c-3.69 0-4.74-1-4.74-4.33v-4.07h7.35zm3 19.12h4.87V95.1h-4.89zm10.8-19.12H25v-3.13h12.43v8.11h-7.52v.84c0 .93.21 1.09 1.26 1.09h3.4c.84 0 1-.25 1.18-1.68a10.55 10.55 0 003.48 1.26c-.42 2.9-1.51 3.7-4.15 3.7h-4.5c-3.78 0-4.75-1-4.75-4.33v-4.07h7.36zM46.2 94.81c1.89-2 5.13-6.26 7.69-9.28 2.9-3.28 5.63-3.57 8.65-.63 2.82 2.77 6.18 7 8.61 9.74 2.69 2.9 6.22 6.64 10.17 10.17L77 109.72a120.77 120.77 0 01-9.11-10.08c-2.57-3-5.67-7-7.65-9.16-1.47-1.59-2.27-1.42-3.49.13-1.63 2.1-4.66 6.17-6.42 8.53-1 1.34-1.89 3-2.65 4.11l-5-5.21a27.23 27.23 0 003.52-3.23zm28.8-7.1l-3.78 1.64a42.39 42.39 0 00-3.87-6.85L71 81c1.2 1.75 3.05 4.78 4 6.71zm5.75-2.48L77.12 87A46.8 46.8 0 0073 80.36l3.62-1.68a57.93 57.93 0 014.15 6.55zm32.82-4.11c-1 .63-2 1.26-2.89 1.89-2.23 1.55-6.6 5.25-9.2 7.35a13.86 13.86 0 013.9-.46c7.06 0 12.44 4.41 12.44 10.46 0 6.55-5 11.76-15 11.76-5.8 0-10.17-2.65-10.17-6.81 0-3.36 3.07-6.47 7.48-6.47 5.12 0 8.23 3.15 8.86 7.1a6.07 6.07 0 003.41-5.67c0-3.74-3.78-6.26-8.62-6.26-6.38 0-10.54 3.4-15 8.45L85 98.55c2.94-2.4 7.94-6.64 10.41-8.65s6.64-5.42 8.7-7.23c-2.14 0-7.86.29-10 .46a26.6 26.6 0 00-3.4.34l-.17-5.42a36.83 36.83 0 003.78.21c2.18 0 11.09-.21 13.44-.42a20.18 20.18 0 003.2-.42zm-9.41 26.17c-.25-2.69-1.8-4.46-4.07-4.46-1.55 0-2.56.93-2.56 2 0 1.55 1.76 2.6 4.2 2.6a22.84 22.84 0 002.43-.14zm17.98-1.1l2.9-3.9a9.87 9.87 0 006.93 3.19c3.15 0 5.29-1.55 5.29-4.33 0-3.06-1.81-5-8.57-5v-4.41c5.71 0 7.56-2 7.56-4.74 0-2.44-1.51-3.87-4.16-3.91-2.22 0-4 1.09-5.88 2.77l-3.15-3.78a13.8 13.8 0 019.33-3.82c6 0 10.08 2.94 10.08 8.27 0 3.37-1.89 5.8-5.21 7.1v.21c3.53 1 6.22 3.57 6.22 7.65 0 5.71-5 9-10.93 9-4.91.03-8.23-1.82-10.41-4.3zm30.53-20.54c3.24-1 11.68-4 17.77-4 7.52 0 13.44 4.33 13.44 12 0 9.41-9 15.46-23.65 16.21l-2.39-5.54c11.26-.25 20.08-3.53 20.08-10.76 0-3.9-2.69-6.89-7.69-6.89-6.13 0-16 4.12-20.29 6.05l-2.35-5.88a42.8 42.8 0 005.08-1.19zm52.59 21.09c1.59-.21 2.77-.42 3.86-.67 5.34-1.26 9.45-5.08 9.45-11.13 0-5.76-3.1-10-8.69-11a90.16 90.16 0 01-2.48 11.3c-2.48 8.4-6.09 13.53-10.63 13.53s-8.48-5.09-8.48-12.1c0-9.58 8.36-17.81 19.15-17.81 10.29 0 16.81 7.18 16.81 16.25 0 8.74-5.38 15-15.88 16.56zM202 94.14a66 66 0 002.23-10.08c-6.89 1.43-10.54 7.47-10.54 12 0 4.2 1.68 6.26 3.23 6.26 1.74.05 3.42-2.55 5.08-8.18zm52.53-14.03a17.94 17.94 0 002.39-.17 4.81 4.81 0 01-.08-.8 5 5 0 115 5 2.55 2.55 0 01-.55 0l-.29 1.22c-1 4.12-2.78 10.63-6.31 15.29a33.19 33.19 0 01-16.88 11.59l-4.58-5c8.36-2 13.06-5.58 16.47-9.87a27 27 0 005-11.84h-19.62c-1.94 0-3.91.08-5 .17v-5.93a46.23 46.23 0 005 .34zm9.74-1a2.42 2.42 0 10-2.39 2.4 2.42 2.42 0 002.39-2.37zm36.96 10.79a16.34 16.34 0 00-.8 1.76 30.25 30.25 0 01-6.21 11.64 31.5 31.5 0 01-15 9.07l-4.2-4.75c6.34-1.3 11.38-4.07 14.58-7.35a18.18 18.18 0 004.32-7.27h-20.29c-1 0-3.11 0-4.87.21v-5.46c1.76.17 3.57.26 4.87.26h20.8a8.89 8.89 0 003.06-.42zm-28.61-12.19a35.07 35.07 0 004.37.21h16.18a39 39 0 004.53-.21v5.42c-1.13-.08-3.11-.12-4.62-.12H277c-1.34 0-3.15 0-4.37.12zm50.57 22.77a39.81 39.81 0 0015.3-16.34l3.27 5.92a44.73 44.73 0 01-15.54 15.55 45.53 45.53 0 01-15.59 5.92l-3.52-5.53a43.1 43.1 0 0016.08-5.52zm0-13.61l-4.28 4.41a87.47 87.47 0 00-10.5-9.07l3.95-4.2a87.32 87.32 0 0110.83 8.86zM157.56 47.9a.93.93 0 01-1.3-.16L143.24 31a11.7 11.7 0 01.15-14.48L156.26.35a.92.92 0 011.3-.15l3.38 2.68a.92.92 0 01.14 1.3L148.2 20.34a5.54 5.54 0 00-.08 6.88l13 16.74a.92.92 0 01-.16 1.3z"/><rect class="cls-1" x="130.23" y="3.4" width="6.16" height="41.28" rx=".92"/><path class="cls-1" d="M192 44.67h-2a13.81 13.81 0 01-13.81-13.81V4.32a.92.92 0 01.92-.92h4.32a.92.92 0 01.92.92v26.54a7.66 7.66 0 007.65 7.66h2a7.66 7.66 0 007.65-7.66V4.32a.92.92 0 01.92-.92h4.31a.93.93 0 01.93.92v26.54A13.81 13.81 0 01192 44.67zm56.5 0h-13.32A14.72 14.72 0 01220.46 30V18.12A14.72 14.72 0 01235.18 3.4h13.32a.93.93 0 01.93.92v4.31a.93.93 0 01-.93.93h-13.32a8.56 8.56 0 00-8.56 8.56V30a8.57 8.57 0 008.56 8.57h13.32a.93.93 0 01.93.92v4.31a.93.93 0 01-.93.87z"/><rect class="cls-1" x="231.46" y="20.96" width="15.79" height="6.16" rx=".92"/><path class="cls-1" d="M107.93 34.22h-13.2a.92.92 0 01-.88-1.22l1.38-4.31a.92.92 0 01.88-.64h11.82zM52.5 27.37h-3.17a1.23 1.23 0 00-1.07 1.83l8.45 15a.91.91 0 00.81.47h4.95a.92.92 0 00.8-1.37l-6.05-10.74a12.09 12.09 0 007.35-11.11V16A12.31 12.31 0 0052.26 3.64h-14a3.08 3.08 0 00-3.06 3.08v37a.93.93 0 00.93.93h4.31a.93.93 0 00.92-.93V11a1.23 1.23 0 011.23-1.2h9.67a6.15 6.15 0 016.15 6.2v5.5a5.92 5.92 0 01-5.91 5.87z"/><path class="cls-1" d="M114.18 44.67a.93.93 0 00.89-1.2L104.21 8.85a7.71 7.71 0 00-14.72-.06L78.31 43.47a.92.92 0 00.88 1.2h4.53a.91.91 0 00.88-.67l10.76-33.31a1.55 1.55 0 011.49-1.1 1.57 1.57 0 011.49 1.11L108.78 44a.93.93 0 00.89.64zm139.97-2.39a2.39 2.39 0 112.4 2.39 2.35 2.35 0 01-2.4-2.39zm4.41 0a2 2 0 10-2 2 2 2 0 002-2zm-2.81 1.33c-.07 0-.11 0-.11-.12V41a.1.1 0 01.11-.11h1a.76.76 0 01.85.78.72.72 0 01-.52.74l.52 1c.05.09 0 .13-.08.13h-.21a.14.14 0 01-.12-.09l-.52-1h-.56v1a.11.11 0 01-.11.12zm1.44-1.91c0-.26-.13-.42-.47-.42h-.63v.78h.63c.34.05.47-.06.47-.36z"/><rect class="cls-1" x="271.25" y="19.39" width="35.01" height="9.29" rx=".92"/><rect class="cls-1" x="284.11" y="6.53" width="9.29" height="35.01" rx=".92"/></g></g></svg>