<svg xmlns="http://www.w3.org/2000/svg" viewBox="0 0 357.35 67.6"><defs><style>.cls-1{fill:#fff}</style></defs><g id="Layer_2" data-name="Layer 2"><g id="レイヤー_1" data-name="レイヤー 1"><path class="cls-1" d="M49.65 19.44a.37.37 0 01-.52-.07l-5.29-6.8a4.75 4.75 0 01.06-5.87L49.13.14a.38.38 0 01.53-.06L51 1.17a.38.38 0 01.07.53l-5.21 6.56a2.25 2.25 0 000 2.79l5.28 6.79a.38.38 0 01-.06.53z"/><rect class="cls-1" x="38.56" y="1.38" width="2.5" height="16.75" rx=".37"/><path class="cls-1" d="M63.61 18.13h-.81a5.61 5.61 0 01-5.61-5.6V1.75a.38.38 0 01.38-.37h1.75a.38.38 0 01.37.37v10.78a3.1 3.1 0 003.11 3.1h.81a3.1 3.1 0 003.11-3.1V1.75a.38.38 0 01.37-.37h1.75a.38.38 0 01.38.37v10.78a5.61 5.61 0 01-5.61 5.6zm22.95 0h-5.4a6 6 0 01-6-6V7.35a6 6 0 016-6h5.4a.38.38 0 01.38.37V3.5a.38.38 0 01-.38.38h-5.4a3.47 3.47 0 00-3.48 3.47v4.81a3.47 3.47 0 003.48 3.47h5.4a.38.38 0 01.38.38v1.75a.38.38 0 01-.38.37z"/><rect class="cls-1" x="79.64" y="8.51" width="6.41" height="2.5" rx=".37"/><path class="cls-1" d="M29.52 13.89h-5.36a.37.37 0 01-.36-.49l.56-1.75a.38.38 0 01.36-.26h4.8zM7 11.11H5.74a.5.5 0 00-.44.74l3.43 6.09a.37.37 0 00.33.19h2a.38.38 0 00.33-.56l-2.45-4.36a4.89 4.89 0 003-4.51V6.48a5 5 0 00-5-5H1.25A1.25 1.25 0 000 2.73v15a.38.38 0 00.37.37h1.75a.38.38 0 00.38-.37V4.48A.5.5 0 013 4h3.92a2.49 2.49 0 012.5 2.49V8.7A2.41 2.41 0 017 11.11z"/><path class="cls-1" d="M32.05 18.13a.37.37 0 00.36-.49L28 3.59a3.13 3.13 0 00-6 0l-4.51 14.05a.38.38 0 00.36.49h1.84a.39.39 0 00.36-.26l4.36-13.53a.64.64 0 01.59-.45.63.63 0 01.6.45l4.24 13.53a.38.38 0 00.36.26zm56.8-.97a1 1 0 011-1 1 1 0 11-1 1zm1.79 0a.82.82 0 10-.81.82.79.79 0 00.81-.82zm-1.14.54v-1.05h.4a.3.3 0 01.34.31.28.28 0 01-.21.3l.21.43v.05h-.08l-.21-.42h-.25v.45zm.59-.78c0-.1-.06-.17-.19-.17h-.28v.32h.26c.12.02.21-.07.21-.15z"/><rect class="cls-1" x="95.79" y="7.87" width="14.21" height="3.77" rx=".37"/><rect class="cls-1" x="101.01" y="2.65" width="3.77" height="14.21" rx=".37"/><path class="cls-1" d="M51.5 37.51c3-.08 4.48 1.21 4.48 3.26a6.29 6.29 0 01-.42 2.06 35.18 35.18 0 01-5.2 9.08 56.71 56.71 0 0110.18 9 2.69 2.69 0 01.72 1.71 2.42 2.42 0 01-2.43 2.28A2.37 2.37 0 0157 64a58.52 58.52 0 00-9.35-8.93 43.82 43.82 0 01-12.39 9.42 2.47 2.47 0 01-1.1.27A2.23 2.23 0 0132 62.54a2.1 2.1 0 011.29-1.93c7.9-4 14.55-10.45 17.55-17.82a1.38 1.38 0 00.16-.61c0-.34-.31-.49-.95-.49L36.41 42a1.91 1.91 0 01-1.9-2.05 2 2 0 011.87-2.13zm35.6 1.82c3.16 0 4.75 1.22 4.75 3.5a6.72 6.72 0 01-.34 2c-2.66 8.81-10.26 17.48-18.69 22a2.84 2.84 0 01-1.26.34 2.11 2.11 0 01-2.08-2.13A2.29 2.29 0 0170.84 63a37.2 37.2 0 009.81-7.94 36.13 36.13 0 00-4.41-3.54 2 2 0 01-.95-1.67 2.09 2.09 0 012.09-2 2.33 2.33 0 011.33.42 35.59 35.59 0 014.56 3.49 30.37 30.37 0 003.83-7.52 1.43 1.43 0 00.12-.53c0-.42-.31-.61-1-.61l-9.27.08a41.62 41.62 0 01-6.38 7.52 2.46 2.46 0 01-1.67.68 2.08 2.08 0 01-2.13-2 2.44 2.44 0 01.91-1.79 39.7 39.7 0 009.12-12.84 2.22 2.22 0 012.13-1.44 2 2 0 012.16 1.93 2.1 2.1 0 01-.19.92 35.57 35.57 0 01-1.59 3.23zm20.9 3.31a2.24 2.24 0 01.68 1.63 2.57 2.57 0 01-2.43 2.51 2.41 2.41 0 01-1.71-.76 55.58 55.58 0 00-5.17-4.6 2.09 2.09 0 01-.91-1.71 2.45 2.45 0 012.43-2.32 2.72 2.72 0 011.52.5 33.83 33.83 0 015.59 4.75zm16.71-1.11a2.21 2.21 0 012.29 2.09 2.25 2.25 0 01-.38 1.22 45.59 45.59 0 01-23.48 20 2.54 2.54 0 01-1 .19 2.32 2.32 0 01-2.28-2.31 2.06 2.06 0 011.49-2c8.62-3.26 16.87-9.84 21.43-18a2.16 2.16 0 011.94-1.19zm27.53-1.82c3.15 0 4.75 1.22 4.75 3.5a6.75 6.75 0 01-.35 2C154 54 146.39 62.7 138 67.26a2.8 2.8 0 01-1.25.34 2.12 2.12 0 01-2.09-2.13 2.29 2.29 0 011.37-2 37 37 0 009.8-7.94 35.38 35.38 0 00-4.41-3.54 2 2 0 01-1-1.67 2.09 2.09 0 012.09-2 2.33 2.33 0 011.33.42 35.59 35.59 0 014.56 3.49 30.76 30.76 0 003.84-7.52 1.62 1.62 0 00.11-.53c0-.42-.3-.61-1-.61l-9.28.08a40.83 40.83 0 01-6.38 7.52 2.46 2.46 0 01-1.67.68 2.08 2.08 0 01-2.13-2 2.44 2.44 0 01.91-1.79 39.4 39.4 0 009.12-12.84 2.22 2.22 0 012.08-1.51 2.05 2.05 0 012.17 1.93 2.26 2.26 0 01-.19.92c-.46 1.06-1 2.12-1.6 3.23zm2.28-4.33a1.55 1.55 0 011.59-1.38 1.52 1.52 0 011.14.53 20.15 20.15 0 012.66 3.58 1.66 1.66 0 01.27.91 1.56 1.56 0 01-1.56 1.52 1.46 1.46 0 01-1.29-.84 27.26 27.26 0 00-2.51-3.46 1.24 1.24 0 01-.3-.86zm4-2.66a1.48 1.48 0 011.56-1.33 1.77 1.77 0 011.26.53A19.42 19.42 0 01164 35.3a2 2 0 01.34 1 1.49 1.49 0 01-1.52 1.48 1.74 1.74 0 01-1.41-.84c-.76-1.17-1.71-2.43-2.5-3.42a1.31 1.31 0 01-.37-.8zm36.88 15.46a2.17 2.17 0 010 4.33h-27.73a2.17 2.17 0 010-4.33zm15.28-1.44a2.17 2.17 0 011.86-1.18 2.35 2.35 0 011 .23 44.51 44.51 0 018.06 4.86 2.44 2.44 0 011.06 2 2.21 2.21 0 01-2.17 2.24 2.55 2.55 0 01-1.59-.57 65.94 65.94 0 00-7.11-4.56 2.75 2.75 0 01-1.1-1.06v16.35a2 2 0 01-2.24 2 2.05 2.05 0 01-2.24-2v-29a2.07 2.07 0 012.24-2 2.05 2.05 0 012.24 2zm6.23-8.09a1.59 1.59 0 012.66-1 18.82 18.82 0 013 3.31 1.6 1.6 0 01.34 1 1.55 1.55 0 01-1.52 1.52 1.52 1.52 0 01-1.25-.72 27.84 27.84 0 00-2.82-3.23 1.38 1.38 0 01-.41-.88zm3.76-3a1.54 1.54 0 011.6-1.41 1.8 1.8 0 011.14.46 18.87 18.87 0 012.93 3.11 1.78 1.78 0 01.41 1.14 1.49 1.49 0 01-1.52 1.45 1.65 1.65 0 01-1.33-.69c-.87-1.1-1.93-2.24-2.81-3.15a1.29 1.29 0 01-.42-.95zm30.6 3c4 0 5.54 1.4 5.54 4a9.24 9.24 0 01-.26 2.16c-2.09 9-8.7 16.76-17.67 21.13a2.71 2.71 0 01-1.25.3 2.21 2.21 0 01-2.21-2.24 2.26 2.26 0 011.33-2c8.4-4.37 13.15-10.45 15.12-17.25a3 3 0 00.12-.76c0-.72-.5-1-1.6-1l-18.31.23a2.14 2.14 0 01-2.21-2.24 2 2 0 012-2.09zm11.62-3.2a4.09 4.09 0 11-4.06-4.06 4 4 0 014.06 4.06zm-6.27 0a2.21 2.21 0 002.21 2.21 2.17 2.17 0 002.17-2.21 2.14 2.14 0 00-2.16-2.16 2.17 2.17 0 00-2.22 2.16zm31.7 9.01c3.49 0 5.13 1.44 5.13 3.76a7 7 0 01-.38 2.17c-2.36 7-8.55 12.65-16 15.57a2.86 2.86 0 01-.95.19 2.17 2.17 0 01-.65-4.25c6.65-2.66 11.25-6.95 13.15-12a2.53 2.53 0 00.19-.76c0-.46-.38-.65-1.22-.65l-19.22.23a2.06 2.06 0 01-.08-4.1zm.3-8.28a2.06 2.06 0 010 4.1h-16.57a2.06 2.06 0 010-4.1zm20.48 6.46a2.21 2.21 0 01.69 1.63 2.57 2.57 0 01-2.43 2.51 2.41 2.41 0 01-1.71-.76 55.58 55.58 0 00-5.17-4.6 2.09 2.09 0 01-.91-1.71 2.45 2.45 0 012.43-2.32 2.72 2.72 0 011.52.5 33.38 33.38 0 015.58 4.75zm16.72-1.11a2.21 2.21 0 012.32 2.09 2.25 2.25 0 01-.38 1.22 45.63 45.63 0 01-23.48 20 2.54 2.54 0 01-1 .19A2.32 2.32 0 01301 62.7a2.06 2.06 0 011.49-2c8.62-3.26 16.86-9.84 21.42-18a2.19 2.19 0 011.91-1.17zM246.68 5.8a4.47 4.47 0 014.7-4.22c2.74 0 4.56 1.48 4.56 4.12 0 1.7-.74 3-3.08 5.16a14.92 14.92 0 00-3.72 4.24H256v2h-9.46v-1.78a19.31 19.31 0 014.36-5.66c2-1.92 2.44-2.72 2.44-4a1.9 1.9 0 00-2-2.12c-1.26 0-2 .94-2.16 2.76zm20.94 3.62c0 5.66-1.72 8-4.84 8S258 15.12 258 9.46s1.74-7.88 4.82-7.88 4.8 2.2 4.8 7.84zm-7 0c0 4.5.62 6 2.2 6s2.26-1.48 2.26-6-.62-5.88-2.22-5.88-2.28 1.38-2.28 5.9zm18.46 0c0 5.66-1.72 8-4.84 8s-4.78-2.26-4.78-7.92 1.74-7.88 4.82-7.88 4.8 2.16 4.8 7.8zm-7 0c0 4.5.62 6 2.2 6s2.26-1.48 2.26-6-.62-5.88-2.22-5.88S272 4.92 272 9.44zm11.14-3.09h-2c-.08 0-.19 0-.19-.18V4.88c0-.16 0-.18.19-.18h13.63c.06 0 .16 0 .16.18v1.31c0 .16 0 .18-.16.18h-7.55c0 1-.07 1.8-.15 2.58h6.09c.1 0 .17 0 .17.18v1.56a28.29 28.29 0 01-.54 5.13 2.39 2.39 0 01-2.72 2.18 13.45 13.45 0 01-1.51-.07c-.49-.05-.49-.06-.6-.59a5 5 0 00-.42-1.27 13.06 13.06 0 002.32.21c.59 0 1-.22 1.2-1.07a24.79 24.79 0 00.46-4.66h-4.67a13.68 13.68 0 01-.78 2.72 10.14 10.14 0 01-3.72 4.65c-.17.12-.27.19-.35.19s-.18-.11-.35-.34a3.82 3.82 0 00-1-.85 8.53 8.53 0 003.82-4.33 17.09 17.09 0 001-6.22zm27.19 7.16v2.77a1.54 1.54 0 01-.51 1.33c-.39.3-.92.41-2.61.41-.52 0-.53 0-.63-.51a4.67 4.67 0 00-.41-1.23c.67.06 1.42.08 1.81.08s.62-.15.62-.55v-4h-9.35v6.15c0 .1 0 .18-.19.18h-1.39c-.16 0-.18 0-.18-.18V4.85c0-.09 0-.19.18-.19h12.45c.09 0 .18 0 .18.19v3.22zm-7.29-3.25v-4h-3.76v4zm1.67-4v4h3.92v-4zm14.62-2.59a8.84 8.84 0 00-3.6 7.33 8.87 8.87 0 003.6 7.33l-.41.49c-3.08-2.24-4.34-4.67-4.34-7.82s1.26-5.59 4.34-7.83zm2.77 2.81c-.5.1-.5.1-.71-.38a2.94 2.94 0 00-.53-.87 15.39 15.39 0 003.83-1 3.24 3.24 0 00.67-.36 10.86 10.86 0 011 1 .35.35 0 01.13.27c0 .13-.11.21-.27.21a1.72 1.72 0 00-.53.16c-.32.12-.66.24-1 .35v2.24h1.54c.1 0 .17 0 .17.17v1.08c0 .17 0 .19-.17.19h-1.3a8 8 0 001.78 2.5 5 5 0 00-.56 1.16c-.05.18-.11.26-.18.26s-.14-.1-.25-.26a8.87 8.87 0 01-1.08-2c0 4 .1 6.74.1 7s0 .16-.18.16h-1.26c-.18 0-.19 0-.19-.16s.09-2.9.13-6.34a12.66 12.66 0 01-1.64 3.2c-.11.16-.19.24-.27.24s-.13-.08-.19-.26a4.55 4.55 0 00-.64-1.13 11.74 11.74 0 002.42-4.4h-2.03c-.11 0-.16 0-.16-.19V8.22c0-.16 0-.17.16-.17h2.21V6.22zm8.91.31a20.1 20.1 0 00.82-2.1 7.18 7.18 0 00.18-1 10.63 10.63 0 011.58.4c.13 0 .21.13.21.22a.34.34 0 01-.15.27 1.31 1.31 0 00-.28.5c-.23.46-.45 1-.8 1.7h1.68c.1 0 .17 0 .17.2v4.7c0 .09 0 .18-.17.18h-1.85V16c0 .29 0 .43.17.53a1 1 0 00.54.11c.38 0 .54-.06.66-.19s.17-.55.19-1.83a3.33 3.33 0 001 .47c.42.13.42.13.39.54-.07 1.33-.29 1.89-.61 2.15a3.21 3.21 0 01-1.78.38 3.26 3.26 0 01-1.6-.25c-.29-.21-.46-.52-.46-1.28v-4.85h-1c-.08 3.49-1 5.22-3 6.38a1 1 0 01-.4.18c-.09 0-.16-.1-.33-.34a4.47 4.47 0 00-.85-.84c2.11-.92 3-2.31 3.09-5.38h-1.32c-.07 0-.19 0-.19-.18V6.93c0-.09 0-.2.19-.2h2zm-2.54-3c.21-.1.22-.1.32 0A10.35 10.35 0 01330 5.93c.05.17 0 .2-.17.29l-1 .45c-.19.1-.22.1-.29-.08a9.23 9.23 0 00-1.05-2.11c-.08-.15-.07-.18.14-.27zm4.37 4.4h-4.39v2.11h4.39zm9.77 3.06h1.23c.09 0 .21 0 .21.19 0 .56-.05 1-.05 1.43a19.7 19.7 0 01-.3 3.65 1.86 1.86 0 01-2 1.58 7.22 7.22 0 01-.79 0c-.43-.05-.46 0-.54-.51a3 3 0 00-.45-1.19c.64.08 1.22.15 1.54.15.48 0 .65-.21.76-1a18.31 18.31 0 00.2-2.84h-2.1a9.41 9.41 0 01-2.37 5c-.14.16-.22.24-.3.24s-.15-.1-.28-.3a4 4 0 00-.86-1c1.82-1.68 2.4-3.46 2.5-7.06h-1.59c-.17 0-.19 0-.19-.17V4.57c0-.11 0-.17.19-.17h6.38c.12 0 .17 0 .17.17S344 5 344 6v3.43c0 .1 0 .17-.17.17h-3.22c0 .58-.05 1.12-.1 1.63zm-3.78-3h3.51V5.81h-3.51zm6.73-.82a16.28 16.28 0 00-.12-2.37c.56 0 1.09 0 1.64.12.16 0 .24.08.24.17a1.21 1.21 0 01-.12.35 13.3 13.3 0 000 1.72v6.53c0 .12 0 .17-.19.17h-1.3c-.16 0-.18 0-.18-.17v-2.12zm5 5.48c0 1.12.05 2.38.05 3.18s-.13 1.25-.58 1.57-.93.39-2.48.4c-.5 0-.5 0-.61-.51a3.48 3.48 0 00-.51-1.2 14 14 0 001.78.08c.51 0 .7-.11.7-.63V6.17a14.83 14.83 0 00-.13-2.28 16.39 16.39 0 011.73.11c.16 0 .26.09.26.17a.85.85 0 01-.11.34 5.61 5.61 0 00-.1 1.63zM353 3.15c3.07 2.24 4.34 4.67 4.34 7.83s-1.27 5.58-4.34 7.82l-.42-.49a8.84 8.84 0 003.6-7.33 8.82 8.82 0 00-3.6-7.33z"/></g></g></svg>