<svg xmlns="http://www.w3.org/2000/svg" viewBox="0 0 60 60"><defs><style>.cls-1{fill:#006795;}.cls-2{fill:#fff;}</style></defs><g id="Layer_2" data-name="Layer 2"><g id="レイヤー_1" data-name="レイヤー 1"><circle class="cls-1" cx="30" cy="30" r="30"/><path class="cls-2" d="M27.59,15.22A1.19,1.19,0,0,0,27,16.4v5.74a.41.41,0,0,1-.41.41H18a1.78,1.78,0,0,0-1.77,1.78V35.81A1.78,1.78,0,0,0,18,37.59h8.55A.42.42,0,0,1,27,38v5.6a1.13,1.13,0,0,0,2,.91L44.73,31.3a1.65,1.65,0,0,0,.59-1.23h0a1.63,1.63,0,0,0-.59-1.23L28.91,15.49A1.19,1.19,0,0,0,27.59,15.22Z"/></g></g></svg>