<svg xmlns="http://www.w3.org/2000/svg" viewBox="0 0 296.84 52.67"><defs><style>.cls-1{fill:#006795;}</style></defs><g id="Layer_2" data-name="Layer 2"><g id="レイヤー_1" data-name="レイヤー 1"><path class="cls-1" d="M134,52.46a1,1,0,0,1-1.42-.18L118.31,33.92a12.81,12.81,0,0,1,.17-15.85L132.58.38A1,1,0,0,1,134,.22l3.69,2.93a1,1,0,0,1,.17,1.43l-14.11,17.7a6.08,6.08,0,0,0-.1,7.53l14.26,18.34a1,1,0,0,1-.18,1.42Z"/><rect class="cls-1" x="104.06" y="3.72" width="6.74" height="45.2" rx="1.01"/><path class="cls-1" d="M171.67,48.92h-2.21A15.13,15.13,0,0,1,154.33,33.8V4.73a1,1,0,0,1,1-1h4.72a1,1,0,0,1,1,1V33.8a8.38,8.38,0,0,0,8.38,8.38h2.2A8.38,8.38,0,0,0,180,33.8V4.73a1,1,0,0,1,1-1h4.72a1,1,0,0,1,1,1V33.8A15.12,15.12,0,0,1,171.67,48.92Z"/><path class="cls-1" d="M233.59,48.92H219A16.12,16.12,0,0,1,202.88,32.8v-13A16.12,16.12,0,0,1,219,3.72h14.59a1,1,0,0,1,1,1V9.45a1,1,0,0,1-1,1H219a9.37,9.37,0,0,0-9.38,9.37v13A9.38,9.38,0,0,0,219,42.18h14.59a1,1,0,0,1,1,1v4.72A1,1,0,0,1,233.59,48.92Z"/><rect class="cls-1" x="214.93" y="22.95" width="17.3" height="6.74" rx="1.01"/><path class="cls-1" d="M79.65,37.48H65.19a1,1,0,0,1-1-1.32l1.51-4.72a1,1,0,0,1,1-.71h13Z"/><path class="cls-1" d="M18.94,30H15.48a1.35,1.35,0,0,0-1.18,2l9.26,16.43a1,1,0,0,0,.88.51h5.42a1,1,0,0,0,.88-1.5L24.11,35.66a13.25,13.25,0,0,0,8-12.17v-6A13.47,13.47,0,0,0,18.68,4H3.37A3.37,3.37,0,0,0,0,7.36V47.91a1,1,0,0,0,1,1H5.73a1,1,0,0,0,1-1V12.08a1.35,1.35,0,0,1,1.35-1.35H18.68a6.74,6.74,0,0,1,6.74,6.74v6A6.48,6.48,0,0,1,18.94,30Z"/><path class="cls-1" d="M86.5,48.92a1,1,0,0,0,1-1.31L75.58,9.69a8.44,8.44,0,0,0-16.12-.06l-12.25,38a1,1,0,0,0,1,1.32h5a1,1,0,0,0,1-.7L65.88,11.7a1.71,1.71,0,0,1,3.26,0l11.44,36.5a1,1,0,0,0,1,.7Z"/><path class="cls-1" d="M239.78,46.3a2.62,2.62,0,1,1,2.62,2.62A2.58,2.58,0,0,1,239.78,46.3Zm4.83,0a2.22,2.22,0,1,0-2.21,2.23A2.17,2.17,0,0,0,244.61,46.3Zm-3.08,1.45a.11.11,0,0,1-.12-.12V44.94c0-.09,0-.13.12-.13h1.07a.83.83,0,0,1,.93.86.76.76,0,0,1-.57.8l.57,1.15c.05.09,0,.13-.08.13h-.23a.18.18,0,0,1-.14-.09l-.57-1.13h-.61s0,0,0,0v1.07a.12.12,0,0,1-.13.12Zm1.58-2.08c0-.28-.15-.46-.52-.46h-.69s0,0,0,0v.85s0,0,0,0h.69C243,46.12,243.11,46,243.11,45.67Z"/><rect class="cls-1" x="258.5" y="21.24" width="38.34" height="10.17" rx="1.01"/><rect class="cls-1" x="272.58" y="7.15" width="10.17" height="38.34" rx="1.01"/></g></g></svg>