<svg xmlns="http://www.w3.org/2000/svg" viewBox="0 0 178.47 38.36"><defs><style>.cls-1{fill:#fafa00}</style></defs><g id="Layer_2" data-name="Layer 2"><g id="レイヤー_1" data-name="レイヤー 1"><path class="cls-1" d="M97.6 38.21a.73.73 0 01-1-.13L86.18 24.71a9.33 9.33 0 01.12-11.55L96.57.28a.73.73 0 011-.12l2.7 2.14a.73.73 0 01.11 1L90.14 16.23a4.42 4.42 0 00-.07 5.48l10.38 13.36a.73.73 0 01-.13 1z"/><rect class="cls-1" x="75.8" y="2.71" width="4.91" height="32.93" rx=".74"/><path class="cls-1" d="M125 35.64h-1.61a11 11 0 01-11-11V3.45a.74.74 0 01.73-.74h3.44a.74.74 0 01.74.74v21.17a6.1 6.1 0 006.1 6.1h1.6a6.1 6.1 0 006.1-6.1V3.45a.74.74 0 01.74-.74h3.44a.74.74 0 01.74.74v21.17A11 11 0 01125 35.64zm45.15 0h-10.63a11.75 11.75 0 01-11.74-11.75v-9.44a11.74 11.74 0 0111.74-11.74h10.63a.74.74 0 01.73.74v3.44a.73.73 0 01-.73.73h-10.63a6.83 6.83 0 00-6.83 6.83v9.44a6.83 6.83 0 006.83 6.83h10.63a.74.74 0 01.73.74v3.44a.74.74 0 01-.73.74z"/><rect class="cls-1" x="156.55" y="16.72" width="12.6" height="4.91" rx=".74"/><path class="cls-1" d="M58 27.3H47.48a.74.74 0 01-.7-1l1.1-3.44a.74.74 0 01.71-.51H58zm-44.21-5.47h-2.52a1 1 0 00-.85 1.46l6.74 12a.75.75 0 00.64.38h3.95a.74.74 0 00.64-1.1L17.56 26a9.64 9.64 0 005.87-8.86v-4.41A9.83 9.83 0 0013.6 2.9H2.46A2.46 2.46 0 000 5.36V34.9a.74.74 0 00.74.74h3.44a.74.74 0 00.73-.74V8.8a1 1 0 011-1h7.7a4.91 4.91 0 014.92 4.91v4.38a4.72 4.72 0 01-4.74 4.74z"/><path class="cls-1" d="M63 35.64a.74.74 0 00.71-1L55.05 7.06A6.15 6.15 0 0043.31 7l-8.92 27.67a.74.74 0 00.7 1h3.61a.75.75 0 00.71-.51L48 8.53a1.24 1.24 0 012.38 0l8.32 26.59a.73.73 0 00.7.52zm111.65-1.92a1.91 1.91 0 111.91 1.92 1.88 1.88 0 01-1.91-1.92zm3.52 0a1.61 1.61 0 10-1.61 1.63 1.58 1.58 0 001.61-1.63zm-2.24 1.06a.08.08 0 01-.09-.09v-2a.08.08 0 01.09-.09h.78a.61.61 0 01.68.63.56.56 0 01-.42.58l.42.83c0 .07 0 .1-.06.1h-.17a.13.13 0 01-.1-.07l-.42-.82h-.44v.78a.08.08 0 01-.09.09zm1.15-1.51c0-.21-.11-.34-.38-.34h-.5v.62h.5c.3.04.38-.07.38-.28z"/></g></g></svg>