<svg xmlns="http://www.w3.org/2000/svg" viewBox="0 0 146.58 146.57"><defs><style>.cls-1{fill:#fafa00;}.cls-2{fill:none;stroke:#006795;stroke-width:2px;}.cls-3{fill:#006795;}</style></defs><g id="Layer_2" data-name="Layer 2"><g id="レイヤー_1" data-name="レイヤー 1"><path class="cls-1" d="M130.07,118A72.34,72.34,0,1,0,118,130.06l16.56,7.17a2,2,0,0,0,2.68-2.68Z"/><path class="cls-2" d="M130.07,118A72.34,72.34,0,1,0,118,130.06l16.56,7.17a2,2,0,0,0,2.68-2.68Z"/><path class="cls-3" d="M40.83,39.59A1.07,1.07,0,0,1,42,40.65a.9.9,0,0,1,0,.22A41.78,41.78,0,0,0,41,49.53a30.28,30.28,0,0,0,.46,5.06.9.9,0,0,1,0,.22,1.13,1.13,0,0,1-1.18,1.12,1.09,1.09,0,0,1-1.12-1,36.14,36.14,0,0,1-.46-5.38,43.65,43.65,0,0,1,1-9.12A1.12,1.12,0,0,1,40.83,39.59Zm10,3.38c0,.68,0,1.36,0,2,.8-.1,1.56-.2,2.22-.34a.82.82,0,0,1,.22,0,1,1,0,0,1,1,1,1,1,0,0,1-.86,1c-.76.16-1.62.3-2.48.4,0,1.12.12,2.24.22,3.34a13.18,13.18,0,0,1,3.34,1.76,1.19,1.19,0,0,1,.56,1A1.08,1.08,0,0,1,54,54.17a1.25,1.25,0,0,1-.78-.28,14.53,14.53,0,0,0-1.94-1.22c-.22,1.66-1.32,2.86-3.8,2.86-2.24,0-3.62-1.06-3.62-2.86s1.32-2.84,3.92-2.84a9.65,9.65,0,0,1,1.3.08c-.06-.9-.12-1.8-.16-2.72-.84.06-1.64.08-2.34.08s-1.08,0-1.58,0a.93.93,0,0,1-.86-1,.94.94,0,0,1,1-1c.44,0,.8,0,1.4,0s1.5,0,2.32-.08c0-.72,0-1.46,0-2.2v-.12c-.76,0-1.52.06-2.22.06-.42,0-.72,0-1.26,0a1,1,0,0,1-.88-1,.91.91,0,0,1,.92-1c.4,0,.82,0,1.22,0a31.09,31.09,0,0,0,5.84-.48.75.75,0,0,1,.2,0,1,1,0,0,1,1,1.06,1,1,0,0,1-.8,1c-.58.12-1.26.22-2,.3Zm-1.64,8.9a5.5,5.5,0,0,0-1.42-.2c-1.42,0-1.86.42-1.86,1s.54.92,1.56.92A1.57,1.57,0,0,0,49.15,51.87Z"/><path class="cls-3" d="M62.49,47.25a3.36,3.36,0,0,1,1.82-.52c1.84,0,2.84,1.1,3,4.22.1,2.18.58,2.48,1.34,2.48s1.66-.78,2.36-2.6a1.13,1.13,0,0,1,1.08-.76,1.15,1.15,0,0,1,1.2,1.08,1.58,1.58,0,0,1-.1.48c-1,2.76-2.54,4.06-4.7,4.06s-3.36-1.12-3.5-4.54c-.08-2-.38-2.4-1.2-2.4-1.06,0-2.14,1-3.12,3-.44.92-1,2.14-1.46,3.1a1.16,1.16,0,0,1-1.06.68,1.14,1.14,0,0,1-1.2-1.06,1.26,1.26,0,0,1,.1-.44c1.76-4.24,4.3-9.66,6.6-13.92a1.11,1.11,0,0,1,1-.6,1.18,1.18,0,0,1,1.26,1,1.07,1.07,0,0,1-.12.48l-3.34,6.18Z"/><path class="cls-3" d="M78.83,39.93a1.16,1.16,0,0,1,2.32,0,35,35,0,0,0,.46,5.86,27.38,27.38,0,0,1,3.94-1.56,1.13,1.13,0,0,1,.36-.06,1.09,1.09,0,0,1,1,1.12,1,1,0,0,1-.74,1A23.58,23.58,0,0,0,81,48.59c-1.72,1.12-2.32,2.22-2.32,3.24,0,1.24.82,1.88,4,1.88a22,22,0,0,0,4.14-.36,1.23,1.23,0,0,1,.26,0,1.05,1.05,0,0,1,1.08,1.1,1.1,1.1,0,0,1-.9,1.12,23.13,23.13,0,0,1-4.6.38c-4.2,0-6.3-1.28-6.3-4,0-1.64.76-3.26,3.26-5A31.86,31.86,0,0,1,78.83,39.93Z"/><path class="cls-3" d="M93.89,40.07a1.06,1.06,0,0,1,1.16,1,.9.9,0,0,1,0,.22,41.78,41.78,0,0,0-.92,8.84,41.82,41.82,0,0,0,.36,4.7c0,.06,0,.12,0,.16a1.09,1.09,0,0,1-1.16,1.06,1.11,1.11,0,0,1-1.16-1,43.57,43.57,0,0,1-.34-4.94,45.09,45.09,0,0,1,.94-9.24A1.07,1.07,0,0,1,93.89,40.07ZM103,52.37a16.42,16.42,0,0,0,3-.3,1,1,0,0,1,.24,0,1.07,1.07,0,0,1,1.06,1.12,1,1,0,0,1-.88,1.06,17.47,17.47,0,0,1-3.46.34c-3.7,0-5.24-1.12-5.46-3.54v-.1a1.11,1.11,0,0,1,1.16-1.12,1,1,0,0,1,1,.86C99.85,51.91,100.47,52.37,103,52.37Zm2.08-10.54a1,1,0,0,1,1.08,1.06,1.1,1.1,0,0,1-1,1.1,50.76,50.76,0,0,1-5.64.44,1.08,1.08,0,1,1-.08-2.16,48.6,48.6,0,0,0,5.5-.44Z"/><path class="cls-3" d="M26.65,73.83a1.13,1.13,0,0,1-1.1-1.12,1.09,1.09,0,0,1,.74-1,15.74,15.74,0,0,1,5.76-1.32c3.14,0,4.62,1.42,4.62,4.1a10.2,10.2,0,0,1-4.42,8.4,1.34,1.34,0,0,1-.76.26,1.13,1.13,0,0,1-1.14-1.1,1.22,1.22,0,0,1,.58-1,7.68,7.68,0,0,0,3.42-6.54c0-1.3-.54-2-2.26-2a13.59,13.59,0,0,0-4.92,1.18A1.3,1.3,0,0,1,26.65,73.83ZM35,66.89a1.09,1.09,0,0,1,.72,1,1.13,1.13,0,0,1-1,1.18,1.57,1.57,0,0,1-.4-.08,35,35,0,0,0-4.36-1.2,1,1,0,0,1-.84-1,1.14,1.14,0,0,1,1.1-1.2l.2,0A21.32,21.32,0,0,1,35,66.89Z"/><path class="cls-3" d="M48.57,68.21h1.28c1.16,0,2.26,0,3.28,0a1,1,0,0,1,1,1.08,1,1,0,0,1-1,1c-.78,0-1.64,0-2.54,0l-2,0q0,1,.06,2.1c1.32-.08,2.6-.18,3.76-.32h.16a1,1,0,0,1,1.06,1,1.06,1.06,0,0,1-1,1.06c-1.22.16-2.54.26-3.88.34,0,.88.12,1.76.2,2.64a18.4,18.4,0,0,1,5,2.18,1.28,1.28,0,0,1,.68,1.08,1.18,1.18,0,0,1-1.86,1,18.67,18.67,0,0,0-3.7-1.92v.14c0,2.16-1.88,3.2-4.2,3.2-2.54,0-4.1-1.22-4.1-3.08s1.44-3.08,4.3-3.08a15,15,0,0,1,1.62.1c-.06-.72-.14-1.44-.16-2.14H45.45c-1.2,0-2.42,0-3.12-.12a1,1,0,0,1-1-1.06,1,1,0,0,1,1-1.06h.14a27.62,27.62,0,0,0,2.88.14h1.08c0-.72-.06-1.42-.08-2.14-1.7,0-3.36.1-4.76.16a1.06,1.06,0,0,1,0-2.12c1.4-.06,3.06-.14,4.76-.16v-2c0-.6.56-.9,1.12-.9a1,1,0,0,1,1.1.9ZM46.93,79.29v-.44a9.31,9.31,0,0,0-1.8-.18c-1.56,0-2,.48-2,1.08s.52,1,1.82,1S46.93,80.13,46.93,79.29Z"/><path class="cls-3" d="M64.55,65.69a1.17,1.17,0,0,1,1.2,1.12,1.4,1.4,0,0,1-.24.72A51.9,51.9,0,0,1,61,73.17a1.17,1.17,0,0,0-.42.88A1.38,1.38,0,0,0,61,75a60.45,60.45,0,0,1,5.08,6.22,1.53,1.53,0,0,1,.3.82,1.22,1.22,0,0,1-1.26,1.16A1.31,1.31,0,0,1,64,82.53a52.32,52.32,0,0,0-4.74-6.24,3.39,3.39,0,0,1-1.06-2.22A2.87,2.87,0,0,1,59.17,72a38.63,38.63,0,0,0,4.44-5.76A1.1,1.1,0,0,1,64.55,65.69Z"/><path class="cls-3" d="M71.63,67.69a1.08,1.08,0,0,1,1.18,1.06c0,.28-.08,1.26-.08,1.88,0,7,1.42,8.84,2.26,8.84.48,0,.92-.32,1.3-1.82a1,1,0,0,1,1-.86,1.1,1.1,0,0,1,1.14,1.08,1,1,0,0,1,0,.34c-.74,2.68-2,3.66-3.36,3.66-2.9,0-4.66-3.58-4.66-11.18,0-.92,0-1.52.08-2A1.1,1.1,0,0,1,71.63,67.69Zm15.08,8.48a1.18,1.18,0,0,1,.08.42,1.08,1.08,0,0,1-1.12,1.06,1.1,1.1,0,0,1-1.06-.76,17.68,17.68,0,0,0-3.46-5.44,1,1,0,0,1-.34-.74,1.11,1.11,0,0,1,1.14-1,1.32,1.32,0,0,1,.88.38A15.79,15.79,0,0,1,86.71,76.17Z"/><path class="cls-3" d="M96.71,65.69a1.17,1.17,0,0,1,1.2,1.12,1.4,1.4,0,0,1-.24.72,51.9,51.9,0,0,1-4.54,5.64,1.17,1.17,0,0,0-.42.88,1.38,1.38,0,0,0,.48.94,60.45,60.45,0,0,1,5.08,6.22,1.53,1.53,0,0,1,.3.82,1.22,1.22,0,0,1-1.26,1.16,1.31,1.31,0,0,1-1.12-.66,52.32,52.32,0,0,0-4.74-6.24,3.39,3.39,0,0,1-1.06-2.22A2.87,2.87,0,0,1,91.33,72a38.63,38.63,0,0,0,4.44-5.76A1.1,1.1,0,0,1,96.71,65.69Z"/><path class="cls-3" d="M101.91,75.93c0-4.56,3.78-8.3,9.28-8.3,4.88,0,7.7,3.06,7.7,7a7.49,7.49,0,0,1-5.58,7.38,1.31,1.31,0,0,1-.46.08A1.12,1.12,0,0,1,111.73,81a1.15,1.15,0,0,1,.84-1.1c2.84-1,4-2.74,4-5.22a4.89,4.89,0,0,0-4.82-5,20,20,0,0,1-2.26,8.5c-1.1,1.94-2.28,2.52-3.82,2.52C103.61,80.69,101.91,79.05,101.91,75.93Zm2.3,0c0,1.84.72,2.52,1.44,2.52s1.16-.32,1.74-1.34a18.09,18.09,0,0,0,2-7.3A6.34,6.34,0,0,0,104.21,75.93Z"/><path class="cls-3" d="M44.47,108.21a1.21,1.21,0,0,1-1.08.64,1,1,0,0,1-1.1-1,1.35,1.35,0,0,1,.18-.62,33.72,33.72,0,0,0,3.06-7.82c-.82.09-1.62.24-2.38.39a.77.77,0,0,1-.26,0,1,1,0,0,1-1-1,1,1,0,0,1,.9-1c1-.2,2.12-.34,3.18-.46.24-1.22.44-2.46.58-3.68a1.12,1.12,0,0,1,2.22.06v.14c-.12,1.08-.3,2.2-.52,3.3.4,0,.76,0,1.08,0,2.56,0,3.5,1.16,3.5,4.31a18.63,18.63,0,0,1-.54,4.78c-.64,2.3-1.54,3.12-3.56,3.12a9.22,9.22,0,0,1-1.36-.1,1.07,1.07,0,0,1-1-1.08,1,1,0,0,1,1-1.1l.16,0a9.48,9.48,0,0,0,1.1.08c.7,0,1.06-.22,1.4-1.4a16,16,0,0,0,.52-4.34c0-1.81-.34-2.28-1.3-2.28-.44,0-.94,0-1.48.06A36.17,36.17,0,0,1,44.47,108.21Zm14.72-8.09a1.59,1.59,0,0,1,.16.69A1.15,1.15,0,0,1,58.19,102a1.25,1.25,0,0,1-1.1-.76,18.69,18.69,0,0,0-2.84-4.13,1.1,1.1,0,0,1-.32-.72,1.11,1.11,0,0,1,1.16-1,1.34,1.34,0,0,1,.92.38A18,18,0,0,1,59.19,100.12Z"/><path class="cls-3" d="M63.69,93.84a1.07,1.07,0,0,1,1.16-1,1,1,0,0,1,1.16,1c0,.22,0,.74-.06,1-.2,3-.36,6-.36,9,0,2.68.82,3.4,2.24,3.4,1.86,0,3.6-.76,5.44-3a1.21,1.21,0,0,1,1-.5,1.15,1.15,0,0,1,1.18,1.1,1.19,1.19,0,0,1-.28.74c-2.28,2.84-4.7,3.92-7.3,3.92-3,0-4.56-1.48-4.56-5.64C63.27,100.59,63.47,96.79,63.69,93.84Z"/><path class="cls-3" d="M80.67,102.15a9.38,9.38,0,0,1,5.8-2.14c3.14,0,5.08,1.72,5.08,4,0,3.08-2.54,5.28-7.36,5.84l-.18,0a1.09,1.09,0,0,1-.08-2.18c3.92-.46,5.28-1.94,5.28-3.66,0-1-.82-2-2.74-2a8.48,8.48,0,0,0-6.2,3,1.3,1.3,0,0,1-1,.48,1.15,1.15,0,0,1-1.18-1.16,1,1,0,0,1,0-.24c.2-1.48.68-4.1,1.26-6.84a1.07,1.07,0,0,1,1.1-.85,1,1,0,0,1,1.14.94.65.65,0,0,1,0,.2c-.38,1.87-.72,3.39-.94,4.55ZM86.79,94a1.21,1.21,0,0,1,.7,1.1,1.07,1.07,0,0,1-1.06,1.1,1.44,1.44,0,0,1-.6-.14,29,29,0,0,0-3.26-1.24,1,1,0,0,1-.76-1A1.18,1.18,0,0,1,83,92.66a2.23,2.23,0,0,1,.34,0A16.38,16.38,0,0,1,86.79,94Z"/><path class="cls-3" d="M99.11,103.85a.88.88,0,0,1-1,.94.9.9,0,0,1-1-.94v-.44a4.08,4.08,0,0,1,2-3.76c1.28-1,1.6-1.62,1.6-2.67,0-1.34-.92-2.06-2.34-2.06a3.5,3.5,0,0,0-3,1.76.92.92,0,0,1-.78.4,1.13,1.13,0,0,1-1.18-1,1.27,1.27,0,0,1,.28-.74A5.75,5.75,0,0,1,98.43,93c2.78,0,4.7,1.5,4.7,4,0,1.73-.58,2.75-2.24,3.93-1.46,1-1.78,1.64-1.78,2.58Zm.58,3.74a1.52,1.52,0,0,1-3,0,1.52,1.52,0,0,1,3,0Z"/></g></g></svg>