<svg xmlns="http://www.w3.org/2000/svg" viewBox="0 0 210 100"><defs><clipPath id="clip-path"><path class="cls-1" d="M138.07 10.25h43.86v26.71h-43.86z"/></clipPath><clipPath id="clip-path-2"><path class="cls-1" d="M28.07 10.25h43.86v26.71H28.07z"/></clipPath><style>.cls-1{fill:none}.cls-2{fill:#006795}.cls-3{fill:#fafa00}.cls-5{fill:#fff}</style></defs><g id="Layer_2" data-name="Layer 2"><g id="レイヤー_1" data-name="レイヤー 1"><circle class="cls-2" cx="160" cy="50" r="50"/><path class="cls-3" d="M147.72 54c.56 0 1.1.3 1.1.88v.16c-.46 3.4-2.84 5.78-6.22 6.88a1.49 1.49 0 01-.4.06 1 1 0 01-.28-2c2.94-1 4.34-2.68 4.7-5.14a1 1 0 011.1-.84zm8.28-2.72c2 0 2.66.6 2.66 2.14v1.3a1 1 0 01-1.1.92 1 1 0 01-1.1-.92v-1c0-.48-.12-.66-.74-.66h-11.38c-.62 0-.76.18-.76.66v1.08a1 1 0 01-1.1.92 1 1 0 01-1.1-.92v-1.36c0-1.54.7-2.16 2.66-2.16zm-7.08-4.06h-6.72a.84.84 0 01-.8-.9.83.83 0 01.8-.9h6.68v-1c0-.58.56-.86 1.1-.86s1.1.28 1.1.86v1H158a.83.83 0 01.82.9.84.84 0 01-.82.9h-6.88v1.16h4.8a.83.83 0 01.82.9.84.84 0 01-.82.9H144.4a.84.84 0 01-.8-.9.83.83 0 01.8-.9h4.48zm2.08 7.66a1.09 1.09 0 012.14 0v4.42c0 .46.2.6 1.58.6 1.58 0 2-.18 2.1-1.34a1 1 0 011-.84 1 1 0 011.06.94v.12c-.24 2.28-1.24 2.92-4.26 2.92s-3.62-.54-3.62-2.06zm25.42-4.18a1.05 1.05 0 010 2.08h-5.58V59h7.22a1.05 1.05 0 010 2.08H161.9a1.05 1.05 0 010-2.08h6.66V45c0-.58.58-.88 1.14-.88s1.14.3 1.14.88v5.7zm-28.87 17.08c1.76 0 2.62.76 2.62 1.82a2.94 2.94 0 01-.52 1.52 14.9 14.9 0 01-3.18 3.48 1.39 1.39 0 01-.84.32 1.09 1.09 0 01-1.08-1.1 1.31 1.31 0 01.56-1 10.38 10.38 0 002.1-2.22.63.63 0 00.14-.36c0-.16-.14-.24-.46-.24l-11.36.08a1 1 0 01-1.06-1.1 1 1 0 011.06-1.1zm-6.64 4.68a1.17 1.17 0 012.32 0v.94a10.47 10.47 0 01-5.23 9.48 1.47 1.47 0 01-.76.24A1.14 1.14 0 01136 82a1.33 1.33 0 01.74-1.1 8.05 8.05 0 004.14-7.5zm15.66 2.1a1.13 1.13 0 01.06.36 1.09 1.09 0 01-1.14 1 1 1 0 01-.92-.62 19.37 19.37 0 00-1.28-2.58.88.88 0 01-.14-.48 1 1 0 011.1-.92 1.07 1.07 0 01.92.52 15.37 15.37 0 011.4 2.72zm8.1-3.58a1.08 1.08 0 011.16 1 1.38 1.38 0 010 .26 18 18 0 01-8.28 11 1.26 1.26 0 01-.56.16 1.06 1.06 0 01-1-1.06 1.08 1.08 0 01.62-1 15.15 15.15 0 007.14-9.66.94.94 0 01.92-.68zm-4.26 2.62a1.11 1.11 0 01.06.34 1 1 0 01-1.1 1 .94.94 0 01-.92-.66 17.53 17.53 0 00-1.2-2.54.87.87 0 01-.14-.46 1 1 0 011.08-.88 1 1 0 01.94.52 14 14 0 011.28 2.68zm19.72-4.9c2.1 0 2.92.74 2.92 2.08a4.91 4.91 0 01-.14 1.14 16.94 16.94 0 01-9.3 11.08 1.45 1.45 0 01-.66.16 1.16 1.16 0 01-1.16-1.16 1.19 1.19 0 01.7-1.06c4.42-2.3 6.92-5.5 8-9.08a1.62 1.62 0 00.06-.4c0-.38-.26-.52-.84-.52l-9.64.12a1.14 1.14 0 01-1.16-1.18 1 1 0 011.06-1.1zm6.12-1.7a2.15 2.15 0 11-2.14-2.14 2.12 2.12 0 012.14 2.14zM183 67a1.16 1.16 0 001.16 1.16 1.14 1.14 0 001.09-1.16 1.13 1.13 0 00-1.14-1.14A1.14 1.14 0 00183 67z"/><g clip-path="url(#clip-path)"><path class="cls-5" d="M151.35 16.55a1.15 1.15 0 00.36 1.23l3.87 3.87a.39.39 0 010 .55l-29.94 29.94a1.7 1.7 0 000 2.4l7.74 7.73a1.68 1.68 0 002.39 0l29.94-29.94a.4.4 0 01.56 0L170 36.1a1.08 1.08 0 001.94-.7l1.75-19.57a1.51 1.51 0 00-.43-1.22 1.51 1.51 0 00-1.22-.43l-19.66 1.66a1.15 1.15 0 00-1.03.71z"/></g><circle class="cls-2" cx="50" cy="50" r="50"/><path class="cls-3" d="M24.84 54.36A18 18 0 0122.7 58a1.17 1.17 0 01-.92.5.93.93 0 01-.94-.92 1 1 0 01.24-.64 22.94 22.94 0 003.34-6.24h-2.54a.86.86 0 01-.8-1c0-.48.26-1 .78-1h2.9v-1.82a20.77 20.77 0 01-2.12.3h-.1a1 1 0 01-.1-2A24.62 24.62 0 0028 43.89a1.21 1.21 0 01.44-.08 1 1 0 011 1.08 1 1 0 01-.64.91c-.6.22-1.26.42-1.94.6v2.36h2.28a1 1 0 010 1.92h-2.26v1.46A13.18 13.18 0 0129.52 54a1.12 1.12 0 01.36.78 1 1 0 01-.94 1 1 1 0 01-.74-.36 15.18 15.18 0 00-1.32-1.16V61c0 .56-.52.84-1.06.84s-1.06-.28-1.06-.84v-2.12zm6.66-8.54a1 1 0 011.1-.91 1 1 0 011.1.91v10.44c0 .6-.54.9-1.1.9a1 1 0 01-1.1-.9zM37.94 59c0 1.66-.68 2.36-2.52 2.36a9.18 9.18 0 01-1.52-.12 1 1 0 01-.86-1 1 1 0 011-1.06h.2a8.29 8.29 0 001 .08c.26 0 .5-.08.5-.62v-14c0-.62.56-.92 1.12-.92s1.12.3 1.12.92zM58 47a.88.88 0 01.88.94.89.89 0 01-.88.94h-3.78a16.85 16.85 0 004.6 4.1 1.1 1.1 0 01.6 1 1 1 0 01-1 1 1.25 1.25 0 01-.7-.22A18.91 18.91 0 0152 48.92h-4.08a20.29 20.29 0 01-5.64 6.18 1.13 1.13 0 01-.68.24 1 1 0 01-1-1 1 1 0 01.46-.82 18.28 18.28 0 004.58-4.62h-3.6a.88.88 0 01-.86-.94.87.87 0 01.86-.94H51a17.88 17.88 0 001.6-3.13 1.11 1.11 0 012.12.28 1.11 1.11 0 01-.08.42 16.83 16.83 0 01-1.3 2.41zm.06 12.38a.89.89 0 010 1.76H41.92a.89.89 0 010-1.76h1.84V56c0-1.46.64-2.14 2.34-2.14h8c1.56 0 2.2.68 2.2 2.14v3.38zm-10-14.35a1.31 1.31 0 01.18.61 1.07 1.07 0 01-1.12 1 1.16 1.16 0 01-1-.6 12.85 12.85 0 00-.74-1.19 1 1 0 01-.2-.58 1.08 1.08 0 011.12-1 1.15 1.15 0 01.92.48 14.15 14.15 0 01.9 1.32zm-.84 14.35v-3.74h-.82c-.5 0-.6.14-.6.58v3.2zm3.48 0v-3.74h-1.6v3.78zm3.52-3.2c0-.44-.14-.58-.62-.58h-1v3.78h1.64zm16.22-9.44a.68.68 0 01.22.5.83.83 0 01-.12.4 11.76 11.76 0 01-1.34 1.84c.26.24.52.5.76.74a19.77 19.77 0 001.18-1.66 1 1 0 011.8.38.9.9 0 01-.18.5A30.49 30.49 0 0169.82 53c.68-.06 1.36-.1 2-.18-.08-.14-.18-.28-.28-.42a.74.74 0 01-.16-.42.79.79 0 01.82-.72 1 1 0 01.84.46 21.77 21.77 0 011.38 2.06 1.11 1.11 0 01.16.52.9.9 0 01-1.72.3c0-.1-.1-.18-.14-.28-.58.08-1.16.16-1.74.22v1.5h7.36a.82.82 0 01.82.9.83.83 0 01-.82.9H71v3.3c0 .58-.54.86-1.08.86s-1.1-.28-1.1-.86v-3.3H61.6a.82.82 0 01-.8-.9.81.81 0 01.8-.9h7.24v-1.3q-1.2.09-2.28.12a.87.87 0 01-1-.88.81.81 0 01.86-.84h.94c.5-.5 1-1 1.42-1.52a17 17 0 00-2-1.78.94.94 0 01-.42-.76.89.89 0 01.9-.86 1 1 0 01.6.18 11.2 11.2 0 001-1.48.72.72 0 01.14-.2h-7a.8.8 0 01-.78-.88A.81.81 0 0162 45h6.82v-1.17c0-.56.54-.84 1.08-.84s1.08.28 1.08.84V45h7a.81.81 0 01.78.89.8.8 0 01-.78.88zM62 55a.93.93 0 01-.92-.94.91.91 0 01.6-.84A20.4 20.4 0 0065 51.38a1 1 0 01.56-.18 1 1 0 01.94.9.86.86 0 01-.38.68 19.67 19.67 0 01-3.68 2.1A1.26 1.26 0 0162 55zm.2-6.76a1 1 0 011-.9 1.08 1.08 0 01.64.22 13.77 13.77 0 011.44 1.32 1 1 0 01.32.7 1 1 0 01-1 1 1 1 0 01-.78-.4c-.32-.34-.94-.94-1.34-1.3a.83.83 0 01-.24-.66zm12.38 2.64a1 1 0 01-.94-.92.87.87 0 01.4-.72 15.07 15.07 0 002-1.72.91.91 0 01.7-.34 1 1 0 011 .9.85.85 0 01-.24.58 13.94 13.94 0 01-2.28 2 .93.93 0 01-.6.2zm-.2 1.36a1 1 0 011-.94 1 1 0 01.56.16 18.67 18.67 0 012.38 1.76 1 1 0 01.4.78 1 1 0 01-1 .94 1.07 1.07 0 01-.74-.3c-.54-.48-1.46-1.2-2.22-1.74a.8.8 0 01-.34-.68zM37.55 67.33c1.76 0 2.62.76 2.62 1.82a2.94 2.94 0 01-.52 1.52 14.9 14.9 0 01-3.18 3.48 1.39 1.39 0 01-.84.32 1.09 1.09 0 01-1.08-1.1 1.31 1.31 0 01.56-1 10.38 10.38 0 002.1-2.22.63.63 0 00.14-.36c0-.16-.14-.24-.46-.24l-11.36.08a1 1 0 01-1.06-1.1 1 1 0 011.06-1.1zM30.91 72a1.17 1.17 0 012.32 0v1A10.47 10.47 0 0128 82.44a1.47 1.47 0 01-.76.24A1.14 1.14 0 0126 81.56a1.33 1.33 0 01.74-1.1A8.06 8.06 0 0030.91 73zm15.66 2.11a1.13 1.13 0 01.06.36 1.09 1.09 0 01-1.14 1 1 1 0 01-.92-.62 19.37 19.37 0 00-1.28-2.58.88.88 0 01-.14-.48 1 1 0 011.1-.92 1.07 1.07 0 01.92.52 15.37 15.37 0 011.4 2.72zm8.1-3.58a1.08 1.08 0 011.16 1 1.38 1.38 0 010 .26 18 18 0 01-8.28 11 1.26 1.26 0 01-.56.16 1.06 1.06 0 01-1-1.06 1.08 1.08 0 01.62-1 15.17 15.17 0 007.14-9.67.94.94 0 01.92-.69zm-4.26 2.62a1.11 1.11 0 01.06.34 1 1 0 01-1.1 1 .94.94 0 01-.92-.66 17.53 17.53 0 00-1.2-2.54.87.87 0 01-.14-.46 1 1 0 011.08-.88 1 1 0 01.94.52 14 14 0 011.28 2.68zm19.72-4.9c2.1 0 2.92.74 2.92 2.08a4.91 4.91 0 01-.14 1.14 16.93 16.93 0 01-9.3 11.13 1.45 1.45 0 01-.66.16 1.16 1.16 0 01-1.16-1.18 1.19 1.19 0 01.7-1.06c4.42-2.3 6.92-5.51 8-9.09a1.62 1.62 0 00.06-.4c0-.38-.26-.52-.84-.52l-9.71.12a1.14 1.14 0 01-1.16-1.18 1 1 0 011.06-1.1zm6.12-1.68a2.15 2.15 0 11-2.14-2.14 2.12 2.12 0 012.14 2.14zm-3.3 0a1.16 1.16 0 001.16 1.16 1.14 1.14 0 001.14-1.16 1.13 1.13 0 00-1.14-1.14A1.14 1.14 0 0073 66.57z"/><g clip-path="url(#clip-path-2)"><path class="cls-5" d="M41.35 16.55a1.15 1.15 0 00.36 1.23l3.87 3.87a.39.39 0 010 .55L15.64 52.14a1.7 1.7 0 000 2.4l7.74 7.73a1.68 1.68 0 002.39 0l29.94-29.94a.4.4 0 01.56 0L60 36.1a1.08 1.08 0 002-.7l1.75-19.57a1.51 1.51 0 00-.43-1.22 1.51 1.51 0 00-1.22-.43l-19.68 1.66a1.15 1.15 0 00-1.07.71z"/></g></g></g></svg>