<svg xmlns="http://www.w3.org/2000/svg" viewBox="0 0 335.7 404.99"><defs><clipPath id="clip-path"><path class="cls-1" d="M247.78 315.24h43.86v26.71h-43.86z"/></clipPath><clipPath id="clip-path-2"><path class="cls-1" d="M137.78 315.24h43.86v26.71h-43.86z"/></clipPath><style>.cls-1{fill:none}.cls-3{fill:#006795}.cls-4{fill:#fafa00}.cls-7{fill:#fff}</style></defs><g id="Layer_2" data-name="Layer 2"><g id="レイヤー_1" data-name="レイヤー 1"><path d="M236.36 201.49a13 13 0 01-.88-1.26c-1-1.78-2.17-3.5-3.38-5.17a36.56 36.56 0 00-4.18-4.35c-1.28-.9-2.59-1.77-3.84-2.72a37.3 37.3 0 01-8.4-8.33 7 7 0 01-.71-1.17c-.37-.3-.74-.6-1.1-.92a7.88 7.88 0 01-1-1 12.1 12.1 0 01-2.37-1.3h-.08a10.65 10.65 0 01-1.32-1c-1.68-1.29-.9-.6-1.32-1l-.71-.91-.59-.48a1.8 1.8 0 01-.2-.19c-.09-.12-.19-.23-.29-.34a9.55 9.55 0 01-1.47-1.17c-.2-.12-.4-.26-.59-.4a9.35 9.35 0 01-3-2.18l-.11-.11a8.83 8.83 0 01-1.45-1.23l-.13-.1a12 12 0 01-1.88-1.2 12.17 12.17 0 01-1.29-1 9.34 9.34 0 01-2.15-1.45l-.4-.26a12.7 12.7 0 01-1.52-1 12.35 12.35 0 01-4.89-3.46 9.73 9.73 0 01-1-.72 11.67 11.67 0 01-5.93-4.64 31.08 31.08 0 01-3.81-2.66 11.43 11.43 0 01-1.23-1.28 41.22 41.22 0 01-4.93-.61c-3.22-.64-5.86-3.15-7.57-5.82a10.3 10.3 0 01-1.44-3.62 12.31 12.31 0 01-7.67-3.87c-.05-.05-.11-.08-.17-.13a14 14 0 00-1.74-.11c-.45 0-.91 0-1.37.07v-.6l-.63-.12A95.75 95.75 0 01123 124a12.61 12.61 0 01-7.84-6.58c-.76-.2-1.53-.4-2.29-.56h-.55a14.07 14.07 0 01-1.48-.12c.14.8.14 1.68.2 2.53a34.18 34.18 0 001 5.08 2.94 2.94 0 01.43 4.5 24.25 24.25 0 01-3.47 10.51 2.67 2.67 0 01-1.47 3.14c.11 0 .09-.06 0 0s0 .25 0 .38v.4a2.91 2.91 0 01-.81 2 2.33 2.33 0 01-.46.37c0 .13-.08.25-.11.37a2.89 2.89 0 01-1.16 3.38c-.91 2.35-2 4.66-3.07 6.91C99.17 162 96 167.43 93 173a3.52 3.52 0 01-.3.45A14.4 14.4 0 0192 175l-.24.66A42.55 42.55 0 0189.6 182a.44.44 0 01.07.41c-.77 2.53-1 5.77-2.65 7.91-.53.68-1.34 1.05-2 .26s-.47-2.52-.4-3.68v-.05a2.57 2.57 0 01-1.19-2.22v-2.17a2.15 2.15 0 01-.63-1.23 40.25 40.25 0 01-.42-6.28l-.51 1c.19-.71.36-1.42.53-2.13 0-1.67.09-3.35.13-5a3 3 0 01.07-.53 70.94 70.94 0 01-1-9.86 2.49 2.49 0 01.8-1.95l-.27-.53c.2-.38.41-.75.62-1.12a.07.07 0 010-.05c.41-1.94-.07-4.17 0-6.16.1-2.21.41-4.38.66-6.57.5-4.42.76-8.9 2.08-13.17a2.73 2.73 0 01.88-1.35 15.25 15.25 0 00.14-1.53l-.27-.28.28-.22v-.51a2.43 2.43 0 011.1-2.22 3.18 3.18 0 00-1.46-2.63 3 3 0 01-1.42 1.13 2 2 0 01-.3.65 7.83 7.83 0 01-2.44 2.75l-.24.11a3.08 3.08 0 01-.42.6l-.14.14-.3.5c-.18.3-.33.61-.49.92a11 11 0 01-1.56 2.3 2.48 2.48 0 01-2.36.75 6.16 6.16 0 01-1 .87c-2.3 1.67-5.3 2.19-7.94 3.12-5.68 2-11.07 4.59-17.1 5.15-.93.67-1.91 1.22-2.87 1.88a8.88 8.88 0 00-2.16 2.63 41.5 41.5 0 00-2.72 4.58 2.86 2.86 0 01-.3 1.57c-.48 1-1 1.93-1.38 2.92a2.06 2.06 0 01-.83.94 2.7 2.7 0 014.17 2.48c.47 1.6-.28 3.64-1.07 5-2.24 3.86-8.45 1.47-11.18-.63a5.3 5.3 0 01-1.09-.23 12.21 12.21 0 01-2.6-1.25l-.26-.2a5.86 5.86 0 01-1.26-.61q-.51 0-1 .12a14.4 14.4 0 00-4.47-1.18l-.21-.13c-.68-.6-1.32-1.23-1.94-1.89a11 11 0 00-3.28-3.31 12.1 12.1 0 00-1.79-1.34l-.06.11a3.48 3.48 0 01-.42 2.64 19.18 19.18 0 01-.93 3.77 2.87 2.87 0 01.25 1.6c0 .32-.08.63-.12.95-.36 2.51-1 4.95-1.53 7.43a53.19 53.19 0 00-.62 6.66 45.91 45.91 0 01-1 6.38 3.07 3.07 0 010 1.85c-.25.76-.52 1.51-.78 2.27l.64.35a127.37 127.37 0 00-2.8 12.76 14 14 0 00-1.36 5.45c-4.1 5.44-4.17 12.79-2.58 19.3a27.44 27.44 0 001.86 5.22c0 .68.06 1.36.1 2A25.94 25.94 0 016 233.38c.71 2.83 2.69 5.28 4.3 8.13a14.8 14.8 0 009.34 3.35 19.24 19.24 0 003.9-.58h.05a11.61 11.61 0 014.64-1.17 3 3 0 012.08-1.38 3 3 0 01.46-.29h.07l.1-.09c.31-.24.61-.48.93-.71a6 6 0 013.34-1.24 2.25 2.25 0 01.69.07 13.44 13.44 0 003.75-2.47 16.18 16.18 0 003.12-4.48 20.43 20.43 0 001.13-6.77c.08-3.55 5.6-3.55 5.52 0a31.08 31.08 0 01-.43 4.54 2.68 2.68 0 01.66 2.61c-.09.27-.17.55-.25.82.15 2.64.29 5.3.31 8a13.36 13.36 0 00-3.54 1.92 24.92 24.92 0 01-1.76 8 2.57 2.57 0 01-.67 2.61c.33-.34-.05.52-.07.62-.08.4-.13.8-.19 1.2a15.71 15.71 0 01-.62 2.52c-.81 2.5-1.61 5-2.36 7.52s-1.46 6.1-3.19 8.48a28.56 28.56 0 01-2.5 9.82c-.4 2.88-.67 5.78-.82 8.66q-1.37 2.66-2.92 5.21a2.72 2.72 0 01.36 3.06l-.05.14a2.32 2.32 0 011 2.2 2.81 2.81 0 000 .29c2.24.35 2.76 3.11 1.55 4.58a6.8 6.8 0 01.28 1.05c.44 2.75 0 5.5.2 8.26l.35.27c.06.74.12 1.47.19 2.21v1.05c0 .35-.18.86-.28 1.29A15.15 15.15 0 0036 333.51a3.86 3.86 0 011 1h114.28a31.45 31.45 0 013.38-.62c1.35-.18 2.64-.12 4-.2.6 0 .37.12.84-.21-.48.34.65-.41.64-.4a4 4 0 011.93-.58h.08c-.14-.88-.31-1.75-.52-2.61-.89-3.69-2.15-7.55-2-11.38a7.48 7.48 0 00-1-.64v-.06c-.05-.42-.07-.92-.12-1.42q-.7-1-1.47-1.92c-.4-.48-.82-.94-1.25-1.37a9.39 9.39 0 00.28-1 23.45 23.45 0 00.44-2.54l-.14-.19a4.44 4.44 0 01-1.57-3.26 3.18 3.18 0 002.06-3 3.45 3.45 0 00-1.65-2.84 18.15 18.15 0 00-2-3.8c-.49-.7-1-1.33-1.45-1.92a5.93 5.93 0 01-5-3 5.5 5.5 0 00-1.18-1.67c-.56-.5-1.73-1.14-2.55-2-1.85-1.82-2.14-4.31-2.1-6.77.05-2.86.59-5.65 2.67-7.75l.27-.25c-.31-.24-.64-.48-1-.71.44-1.05.88-2.11 1.31-3.17 1.36-3.29.23-8.46-1.49-11.38a9.19 9.19 0 00-.6-.93 77.58 77.58 0 002.5-16.07c.07-1.15.12-2.3.14-3.46-3.86-1.1-3.91-7.12-.16-8.36-.08-1.41-.17-2.83-.27-4.24-.2-2.59-.42-5.18-.64-7.77l1.65-3.19a55 55 0 01-.46-8c.12-2.82.72-5.49.74-8.31 0-3.22 2.89-4.6 5.34-4.14h.24c3.51-.16 6.65 1.73 9.45 3.87a3.21 3.21 0 011.78.18c2.55 1.06 5.23 1.59 7.62 3a35.35 35.35 0 016.34 4.82 39 39 0 014.92 6.16 4.58 4.58 0 012.57 2l.23.36c.3.42.65.81.95 1.24a7.68 7.68 0 01.83 1.58 4 4 0 01.94.5 3.21 3.21 0 01.84-.12 2.56 2.56 0 011.85.71h.21a1.31 1.31 0 01.66 2.42h-.08a2.56 2.56 0 01-2.07 2.3 3.94 3.94 0 01-2.38 2.39 3.83 3.83 0 01-.52 1.36 5.9 5.9 0 01-.84 1.08 4.39 4.39 0 01-.92.7l-.06.06a4.25 4.25 0 01-1.36.92 3.74 3.74 0 01-1.39.93 3.51 3.51 0 01-.56.44 4.1 4.1 0 01-.2.59 4.66 4.66 0 01-.27.74 4.11 4.11 0 01-2.83 3.53c-.14.28-.27.56-.39.85a9.33 9.33 0 00-1.18 0l-.36.61a17.46 17.46 0 01-3.28 4.35 29.78 29.78 0 01-3.82 2.68 15.72 15.72 0 00-2.78 2.66 15.1 15.1 0 01-2 1.86l.84.74c.43.39.84.79 1.25 1.2a3.13 3.13 0 011 .32 3.25 3.25 0 011.13.64 4.06 4.06 0 011.5 1 135.38 135.38 0 001.49 1.06l.3.16.21.16a3.63 3.63 0 01.63.28 12.46 12.46 0 016 2.58c1 .75 2 1.55 3 2.33-.08-.07.49.36.59.43a10.93 10.93 0 001.18.72 4 4 0 012 2.53c.32.35.63.72.93 1.1a34.06 34.06 0 013.48 4.73c.15.28.3.57.44.87a16.36 16.36 0 011.24-1.11 28.93 28.93 0 003.72-3.09c1.39-1.47 2.91-2.75 4.35-4.15a20.62 20.62 0 014.9-4 4.78 4.78 0 01.62-.26c1.41-2 2.83-4 4.34-5.79a3.33 3.33 0 011.53-1c.9-1.84 1.64-3.77 2.39-5.68a40 40 0 013.29-5.67 54.67 54.67 0 017-6.84l.56-.4a12.27 12.27 0 011.13-2.63 13.79 13.79 0 013-3.48c.3-.57.6-1.14.93-1.69.91-1.51 1.8-3 2.58-4.59 1.61-4.26 2.94-8.65 6.45-11.83a11.69 11.69 0 01.09-1.19 13.65 13.65 0 01-.8-4.11z" fill="#e9e9e9"/><path class="cls-3" d="M74.06 54.5c-.35 1.12-.71 2.24-1 3.38s-.54 2.12-.75 3.2-.35 2.2-.48 3.31-.27 2.26-.38 3.4c-.16 1.74-.27 3.49-.34 5.24v2.62c0 .87.11 1.9.16 2.85a1 1 0 00.94.93.93.93 0 00.93-.93c0-1.13.11-2.25.15-3.38s.06-2.23.12-3.35c.11-2.18.3-4.36.54-6.53l.21-1.78c.08-.6.16-1.2.28-1.8s.29-1.42.47-2.12.36-1.4.56-2.09.49-1.58.73-2.36a1.1 1.1 0 00-.76-1.35 1 1 0 00-.29 0 1.13 1.13 0 00-1.06.8zm.06 9v.2-.2zm-2.86 22.05v2c0 .35 0 .7.07 1.05s.09.74.14 1.11v-.21c.15 1.07.33 2.14.51 3.2s.34 2 .59 3c.15.56.3 1.13.46 1.69s.28.91.45 1.35a15.42 15.42 0 00.71 1.61c.24.44.51.87.79 1.28a21.78 21.78 0 001.9 2.38c.31.32.63.63.93 1s.65.69 1 1c.68.74 1.37 1.47 2.09 2.18.39.38.77.75 1.17 1.11s.94.76 1.42 1.12l1.76 1.31c.58.43 1.16.86 1.77 1.25a6.91 6.91 0 002.28.85l1 .19c.37.07.74.16 1.1.25a1.1 1.1 0 10.59-2.12c-.5-.1-1-.16-1.52-.23a6.67 6.67 0 01-1.31-.35 5.54 5.54 0 01-.62-.36c-.22-.14-.42-.3-.62-.45-.46-.36-.92-.7-1.39-1-.8-.59-1.59-1.19-2.38-1.79a55.34 55.34 0 01-4-3.92c-.58-.6-1.19-1.17-1.79-1.76a18.43 18.43 0 01-1.6-1.82 13.12 13.12 0 01-1-1.39c-.27-.48-.5-1-.72-1.47-.28-.75-.53-1.5-.77-2.27s-.38-1.42-.53-2.13c-.31-1.49-.6-3-.82-4.49-.11-1.06-.12-2.12-.15-3.19a.76.76 0 10-1.52 0zM119 96.67c-.4.57-.83 1.12-1.26 1.67s-.84 1.06-1.27 1.57c-.19.24-.4.46-.6.69s-.43.48-.66.7-.45.46-.69.68-.5.48-.77.7l-.81.68c-.25.22-.53.42-.8.63l.14-.11c-.58.42-1.16.85-1.76 1.25s-1.29.85-1.94 1.27-1.33.81-2 1.2-1.25.71-1.89 1-1 .52-1.57.77-.91.4-1.36.6l-5 2a.6.6 0 00-.36.28.61.61 0 00-.06.46.56.56 0 00.27.35.54.54 0 00.46.06l4.5-1.78c.69-.28 1.39-.56 2.07-.88l1.14-.52 1-.5c.69-.34 1.35-.73 2-1.11s1.18-.7 1.76-1.06c1.29-.81 2.55-1.65 3.76-2.57.34-.26.67-.53 1-.8l.85-.76c.56-.51 1.09-1 1.6-1.6s.92-1 1.35-1.56 1-1.25 1.49-1.89c.27-.35.53-.71.79-1.06l-.93-1.16-.52.75zm10.68-20.8l-1.38.68a4.73 4.73 0 00-1.39 1.09 5.3 5.3 0 00-.81 1.24c-.07.13-.12.28-.18.41a4.48 4.48 0 00-.2.62 2.93 2.93 0 00-.1 1 2.57 2.57 0 00.28 1 5.66 5.66 0 00.47.73 5.08 5.08 0 01.42.76 3.26 3.26 0 01.21.6 3.31 3.31 0 010 .63 5.12 5.12 0 01-.31 1.08 12.17 12.17 0 01-.83 1.5.59.59 0 00.21.8.61.61 0 00.46.06.62.62 0 00.35-.27 8.66 8.66 0 00.64-1 8.06 8.06 0 00.42-1 5 5 0 00.31-1.33 4.4 4.4 0 00-.49-2.28c-.14-.29-.3-.57-.44-.86a3.57 3.57 0 01-.1-.35v-.34a5.58 5.58 0 01.31-1 7.14 7.14 0 01.52-.89 4.34 4.34 0 01.52-.53 10.77 10.77 0 011-.6c.3-.16.6-.29.9-.44a.74.74 0 00.36-.47.77.77 0 00-.08-.61.74.74 0 00-.47-.36.69.69 0 00-.2 0 .9.9 0 00-.41.11zm-3.06 9.94z"/><path class="cls-3" d="M68.74 70.53a4.14 4.14 0 00-1 .34 3.36 3.36 0 00-.69.44 6.61 6.61 0 00-1.29 1.5 11.49 11.49 0 00-1.26 2.87 16 16 0 00-.65 5.76c0 .44.09.89.16 1.33a10.62 10.62 0 00.24 1.12 6.68 6.68 0 00.47 1.22 6.54 6.54 0 00.45.71 9 9 0 00.68.82A14.53 14.53 0 0067.42 88c1.36 1.11 2.76 2.16 4.19 3.17a.78.78 0 001.18-.67.73.73 0 00-.23-.56c-.84-.67-1.65-1.36-2.47-2l-1.17-1A17.22 17.22 0 0167 85a6 6 0 01-.57-.94 9.62 9.62 0 01-.43-1.9 19.06 19.06 0 01-.15-2.16 19.55 19.55 0 01.15-2.14 14.72 14.72 0 01.3-1.47c.16-.54.33-1.06.52-1.59a9.38 9.38 0 01.91-1.64 4.94 4.94 0 01.55-.57 3 3 0 01.52-.3 5.25 5.25 0 01.65-.18 3.74 3.74 0 01.58 0l.36.1c.24.11.47.25.7.38a.84.84 0 00.84-1.45 7.58 7.58 0 00-1-.53 3.25 3.25 0 00-1.14-.19 4.86 4.86 0 00-1 .11zM88 112.67a.63.63 0 00-.34.26.61.61 0 000 .44c.11.57.22 1.14.31 1.71 0 .28 0 .55.07.83A10.65 10.65 0 0188 117c0 .35 0 .7-.1 1s-.17 1-.27 1.46c-.06.25-.11.51-.18.76-.14.55-.28 1.1-.45 1.65-.34 1.09-.71 2.18-1.08 3.26a.54.54 0 00.37.65.53.53 0 00.41-.05.54.54 0 00.25-.32c.22-.62.45-1.24.68-1.85s.43-1.12.59-1.69.33-1.18.46-1.78.22-1 .3-1.52.11-.87.15-1.31a12 12 0 000-1.34l-.06-.82c0-.24-.07-.48-.11-.72-.07-.47-.17-.94-.26-1.4a.56.56 0 00-.56-.42H88zm22.82-6.83l-.15.18a.93.93 0 00-.12.46c-.14 1.11-.27 2.21-.36 3.32s-.14 2-.13 3 0 2 .15 3 .25 2.2.39 3.3c.18 1.41.4 2.83.63 4.24s.49 3 .77 4.42a.84.84 0 00.41.53.88.88 0 00.69.09.9.9 0 00.53-.41 1 1 0 00.09-.69c-.37-2.49-.71-5-1-7.48-.13-1-.25-2-.36-3s-.23-2-.29-3a32.61 32.61 0 01.21-6c0-.4.09-.79.14-1.19a.83.83 0 00-.27-.64.89.89 0 00-.64-.27.91.91 0 00-.64.27zm-81.57-2.6c-.31.07-.61.14-.91.23a5.59 5.59 0 00-.72.26c-.55.21-1.09.46-1.62.7l-1.28.61-.73.36a6.66 6.66 0 00-1.73 1.21 13.23 13.23 0 00-1.26 1.54c-.3.4-.58.8-.85 1.22s-.58.92-.87 1.4-.53.86-.82 1.27l-.21.28-.18.24a4.71 4.71 0 01-.73.75 7.77 7.77 0 01-1.13.63 6 6 0 00-1.15.73 4.48 4.48 0 00-.76.81c-.21.28-.42.56-.61.85a7.64 7.64 0 00-.77 1.4 4 4 0 00-.3 1 3.66 3.66 0 000 1 6.18 6.18 0 00.29 1.2 28.22 28.22 0 001.31 3c.42.93.82 1.86 1.25 2.79.73 1.58 1.44 3.17 2.23 4.72s1.59 3.07 2.29 4.66a4.82 4.82 0 01.3 1 2.34 2.34 0 010 .46c0 .24-.08.47-.12.71a.89.89 0 00.09.66.85.85 0 00.51.4.87.87 0 00.67-.09.81.81 0 00.39-.51l.12-.7a5.4 5.4 0 00.08-.69 3 3 0 00-.1-.85 5.53 5.53 0 00-.42-1.18c-.1-.24-.21-.48-.31-.71-.32-.74-.69-1.45-1.06-2.16s-.75-1.46-1.1-2.2-.65-1.43-1-2.16c-.58-1.4-1.17-2.8-1.73-4.22-.28-.72-.57-1.44-.87-2.15a10.52 10.52 0 01-.69-2 1.91 1.91 0 01.15-.93 12.32 12.32 0 011.26-2 2.59 2.59 0 01.37-.37 6.73 6.73 0 011.08-.6 6.2 6.2 0 00.94-.54 5.37 5.37 0 001-1 14.55 14.55 0 001.31-1.83c.36-.58.7-1.17 1.06-1.74s.69-1 1.05-1.51a8.25 8.25 0 011.11-1.18 10.74 10.74 0 011.8-1l1.27-.62c.44-.22.89-.43 1.32-.67s.95-.53 1.43-.77a.9.9 0 00.41-1 .89.89 0 00-.87-.64h-.22z"/><path class="cls-3" d="M29.94 104.3a.78.78 0 00-.21.52.74.74 0 00.21.51.82.82 0 00.52.22h.35l.48.1a3.26 3.26 0 01.4.24 5.9 5.9 0 01.79.79 18.52 18.52 0 011.66 2.86c.37.76.71 1.53 1 2.31.19.47.39 1 .56 1.44a11 11 0 01.51 1.89 4.41 4.41 0 010 .89 18.33 18.33 0 01-.5 1.9c-.12.38-.24.77-.37 1.16l-.34 1.31c-.17.46-.33.91-.51 1.36l-.06.14-.09.19a.8.8 0 00-.12.43.84.84 0 00.25.6.81.81 0 00.38.22.89.89 0 00.66-.08 2.38 2.38 0 001-1.34c.12-.28.22-.57.32-.85.17-.45.3-.9.44-1.35s.28-.93.42-1.4c.08-.26.15-.51.22-.77a6.38 6.38 0 00.29-2.08 10.15 10.15 0 00-1.08-3.37c-.38-.82-.76-1.64-1.17-2.45-.2-.42-.42-.83-.63-1.25-.07-.14-.15-.28-.23-.42a6 6 0 00-.34-.61 15.1 15.1 0 00-1.3-1.86 5 5 0 00-.58-.55 4.39 4.39 0 00-.71-.51 4.18 4.18 0 00-1.67-.4h-.05a.73.73 0 00-.47.21zm-3.24 6.63a.83.83 0 00-.25.59.88.88 0 00.25.59c.49.57 1 1.14 1.44 1.73a27.39 27.39 0 012.72 4.28 14.85 14.85 0 01.83 2.93 4.82 4.82 0 010 .85c0 .23-.08.45-.13.68a6.54 6.54 0 01-.26.86c-.09.29-.19.57-.28.86s-.16.65-.25 1a1 1 0 00.43 1.08 1 1 0 001.3-.34 5.4 5.4 0 00.81-1.65 11.57 11.57 0 00.32-1.74c0-.26 0-.52.05-.78a6.55 6.55 0 00-.23-1.64c-.12-.51-.28-1-.45-1.51-.07-.2-.16-.41-.23-.61a8.08 8.08 0 00-.37-.85c-.26-.48-.53-1-.82-1.41-.53-.86-1.11-1.69-1.72-2.49s-1.3-1.61-2-2.4a.74.74 0 00-.57-.24.84.84 0 00-.61.24zm-3.54 3.4a1.08 1.08 0 00-.63.48 1.12 1.12 0 00-.1.8c.05.28.11.54.18.81a8.49 8.49 0 00.5 1.47 15.8 15.8 0 00.93 1.78c.43.77.87 1.52 1.24 2.31.09.24.18.48.26.72a8.68 8.68 0 01.23 1 11.94 11.94 0 01-.05 2.39c0 .44-.08.88-.14 1.33v.19a.94.94 0 000 .47.89.89 0 00.41.54.93.93 0 00.69.09.89.89 0 00.54-.41 5.84 5.84 0 00.47-1.35 11.48 11.48 0 00.19-1.31v-.62a9.13 9.13 0 00-.12-1.81 8.78 8.78 0 00-.36-1.45 9.07 9.07 0 00-.5-1.21c-.17-.34-.34-.67-.53-1-.5-.89-1-1.77-1.46-2.71a10.06 10.06 0 01-.48-1.79 1 1 0 00-.48-.62 1 1 0 00-.53-.14 1.24 1.24 0 00-.27 0z"/><path class="cls-3" d="M16.42 119.88a.72.72 0 000 1l2 2a20.19 20.19 0 011.85 1.85 4.67 4.67 0 01.42.72 9.65 9.65 0 01.49 2c0 .13 0 .26.05.39s.05.39.08.58a2.54 2.54 0 00.29.84 1.83 1.83 0 00.26.36l.25.26a2.77 2.77 0 00.68.45 2.33 2.33 0 00.94.2 2.26 2.26 0 00.92-.22 5.74 5.74 0 002-1.91 9.43 9.43 0 00.72-1.17.85.85 0 00-.3-1.14.83.83 0 00-1.14.3c-.2.31-.4.6-.62.89a12.21 12.21 0 01-1.15 1.23l-.32.2-.17.05h-.18l-.24-.14-.17-.17-.08-.15a9.3 9.3 0 01-.25-1.19c-.08-.36-.16-.71-.26-1.07s-.2-.62-.32-.92a4.64 4.64 0 00-.71-1.24 10.85 10.85 0 00-.8-.86l-1.54-1.43c-.59-.56-1.16-1.13-1.73-1.71a.68.68 0 00-.5-.2.72.72 0 00-.5.2z"/><path class="cls-3" d="M35.21 121.15c-.29.42-.59.82-.9 1.22-.2.24-.39.48-.59.71a6.87 6.87 0 01-.74.69 5.14 5.14 0 01-.54.37 4.34 4.34 0 01-.53.26 9.43 9.43 0 00-1 .55 14.4 14.4 0 01-1.56.91 3.93 3.93 0 01-.67.19 3.23 3.23 0 01-.44 0l-.52-.11a.92.92 0 00-.72.06 1 1 0 00-.43.55.94.94 0 00.65 1.14 7.1 7.1 0 00.92.17h.38a4.2 4.2 0 00.62-.07 3.67 3.67 0 00.92-.3A4.09 4.09 0 0031 127a4.64 4.64 0 00.68-.72l.39-.53a2.06 2.06 0 01.25-.26l.31-.19.36-.2a3.51 3.51 0 00.4-.27 7.68 7.68 0 00.82-.69 7.35 7.35 0 00.67-.79c.42-.54.82-1.09 1.2-1.66a.51.51 0 00-.19-.69.44.44 0 00-.24-.07.57.57 0 00-.45.25zM21.79 75.36a2.75 2.75 0 00-1.51.55 1.63 1.63 0 00-.48.56 1.73 1.73 0 00-.13.84 5.91 5.91 0 00.13.94c.05.21.09.42.15.63.21.78.48 1.53.75 2.29s.5 1.46.76 2.19.62 1.65 1 2.46.67 1.42 1 2.14.58 1.57.82 2.36.5 1.74.73 2.62.48 1.75.71 2.63.44 1.74.63 2.61c.11.51.19 1 .28 1.54 0 .2.05.41.07.62s0 .49.06.73c0 .56.05 1.13.07 1.7a.94.94 0 101.88 0c0-.51 0-1-.05-1.51s-.08-1-.14-1.47c-.11-.94-.29-1.87-.48-2.8s-.39-1.67-.62-2.5L26.75 92a36.24 36.24 0 00-1.33-4.18c-.16-.41-.34-.81-.52-1.2s-.29-.59-.44-.88c-.32-.64-.63-1.28-.92-1.93-.42-1-.81-2.08-1.26-3.1-.23-.51-.45-1-.71-1.52s-.47-.89-.68-1.35a5 5 0 01-.23-.75v-.15a.43.43 0 010-.07l.09-.09a1.74 1.74 0 01.26-.15 3.45 3.45 0 01.46-.12 4.82 4.82 0 01.93 0 4 4 0 01.89.26 6.07 6.07 0 011.13.66 8.73 8.73 0 011.19 1.24c.26.36.53.71.78 1.08s.62 1 .92 1.44a24.3 24.3 0 011.37 2.57c.14.34.26.68.37 1s.27.89.4 1.34c.24.82.5 1.64.77 2.45.57 1.72 1.12 3.46 1.67 5.19.39 1.24.83 2.46 1.3 3.68.27.69.56 1.39.86 2.07s.48 1.06.71 1.59c.33.82.66 1.64 1 2.43s.83 1.61 1.26 2.4.86 1.51 1.32 2.25a15.7 15.7 0 001.67 2.24c.3.33.61.66.91 1a.59.59 0 00.72.09.6.6 0 00.22-.81c-.2-.37-.38-.75-.58-1.11s-.41-.72-.62-1.07c-.39-.64-.81-1.26-1.18-1.92s-.73-1.39-1.08-2.1-.62-1.32-.91-2c-.14-.35-.28-.69-.41-1.05s-.28-.81-.43-1.21c-.31-.84-.65-1.68-1-2.52-.62-1.67-1.18-3.36-1.74-5s-1.12-3.31-1.73-5c-.31-.83-.61-1.67-.91-2.51-.17-.48-.34-1-.54-1.43-.09-.19-.16-.38-.26-.55s-.25-.46-.38-.68c-.44-.75-.91-1.48-1.41-2.18S27.66 78.78 27 78a8.73 8.73 0 00-2-1.85 6.76 6.76 0 00-1.48-.66 4 4 0 00-1.23-.18 4.19 4.19 0 00-.5 0zm-1 1.39zm-.11.21zm0 .12a.34.34 0 010 .1.34.34 0 000-.1zM41 116.1a8.24 8.24 0 00-.85 1.16c-.21.33-.41.68-.6 1-.39.66-.76 1.33-1.12 2-.19.34-.35.69-.52 1s-.32.77-.46 1.16c-.26.7-.47 1.42-.66 2.14s-.35 1.37-.51 2a.6.6 0 001.16.32 35.44 35.44 0 011.32-4.52c.08-.2.17-.39.26-.58s.26-.5.4-.74c.25-.43.51-.86.79-1.27.61-.88 1.26-1.72 1.9-2.57l.05-.06a1.83 1.83 0 01.13-.16.88.88 0 00.11-.42.82.82 0 00-.24-.57.78.78 0 00-.58-.24.8.8 0 00-.58.24zm9.76-19.85a7.46 7.46 0 00-.95.11 4.72 4.72 0 00-1.71.79 6.23 6.23 0 00-.86.76 8.17 8.17 0 00-1 1.43c-.1.18-.21.38-.3.58a17.71 17.71 0 00-1 2.74c-.12.42-.23.85-.32 1.28l-.27 1.38c-.18.9-.36 1.8-.58 2.69-.34 1.43-.75 2.85-1.16 4.26a.71.71 0 00.49.85.69.69 0 00.84-.48c.53-1.81 1.09-3.61 1.57-5.43.23-.85.42-1.71.64-2.57.11-.41.22-.83.36-1.24.06-.21.12-.42.2-.63s.18-.45.26-.68a12.78 12.78 0 011.28-2.32 7 7 0 01.89-.92 4.84 4.84 0 01.79-.47 3.9 3.9 0 01.67-.18 5.88 5.88 0 011.11 0 3.41 3.41 0 01.53.13c.08 0 .17.09.25.15l.12.11.13.23a2.36 2.36 0 01.1.38 4.69 4.69 0 010 .75 11.11 11.11 0 01-.49 1.68c-.14.41-.29.83-.44 1.24-.31.88-.59 1.76-.83 2.66a26.12 26.12 0 00-.55 2.63c-.14 1-.23 2-.3 3 0 .8-.09 1.6-.08 2.4s0 1.85.09 2.78.09 1.76.12 2.64v1.18c0 .39-.07.8-.11 1.19l-.12.63c0 .23-.11.46-.16.69s-.22.76-.34 1.14c-.3.95-.62 1.89-.95 2.83s-.6 1.61-.9 2.42-.6 1.65-.93 2.46c0 .1-.08.21-.13.31a9.61 9.61 0 01-1 1.95 14.39 14.39 0 01-2 1.87L42 136.9a.9.9 0 00-.23.4.93.93 0 00.09.71.91.91 0 00.55.41.83.83 0 00.7-.09c.82-.58 1.63-1.18 2.39-1.84l.56-.5a8.13 8.13 0 001.29-1.46 8.7 8.7 0 00.78-1.44c.4-.89.74-1.8 1.07-2.71s.63-1.67.93-2.51a48.57 48.57 0 001.69-5.29 12 12 0 00.24-1.46 10.86 10.86 0 00.1-1.27c0-.94 0-1.88-.06-2.82 0-.67-.06-1.33-.06-2v-2.19c0-1.3.16-2.61.3-3.9.07-.42.13-.83.21-1.25s.19-.88.3-1.31c.2-.87.47-1.73.75-2.58.13-.43.29-.85.43-1.28s.29-.87.42-1.31a5.84 5.84 0 00.24-1.71 4.5 4.5 0 00-.15-1 2.64 2.64 0 00-.47-.93 2.94 2.94 0 00-.32-.37 2.54 2.54 0 00-.36-.29 3.38 3.38 0 00-.74-.36 3.83 3.83 0 00-.76-.18 7 7 0 00-1-.08zM46.94 102zm-22.85 39.92a.4.4 0 00.39.39.39.39 0 100-.78.4.4 0 00-.39.39z"/><path class="cls-3" d="M24.57 140.11a1.1 1.1 0 00-.39 1.5 13.9 13.9 0 001.21 1.84 4.27 4.27 0 00.71.63 3.18 3.18 0 00.66.39 4.13 4.13 0 002.13.38 5.59 5.59 0 001.08-.22 6.27 6.27 0 001-.37 5.06 5.06 0 00.91-.51q.75-.5 1.47-1.05a1 1 0 00.41-.53.93.93 0 00-.09-.69.9.9 0 00-1.22-.32c-.36.23-.71.44-1.08.65s-.58.3-.88.43a8.67 8.67 0 01-1.56.45 4.69 4.69 0 01-.53 0 5.62 5.62 0 01-.55-.15 3.43 3.43 0 01-.49-.28 4.16 4.16 0 01-.42-.42c-.31-.43-.57-.9-.84-1.35a1.1 1.1 0 00-1.5-.39zM28 130a.87.87 0 00.3 1.17l.92.57c.2.13.39.28.58.42s.5.4.74.62.54.49.79.75.54.55.81.83.65.63 1 .93a.88.88 0 00.59.25.85.85 0 00.85-.85.88.88 0 00-.25-.59 11.29 11.29 0 00-1.13-1.26c-.4-.38-.81-.75-1.21-1.11a19.45 19.45 0 00-2.82-2A.86.86 0 0028 130zm-7.87 6.53a.9.9 0 00-.27.67 18.29 18.29 0 01.14 3.62c-.07.45-.15.88-.24 1.32s-.28 1-.43 1.47c-.25.83-.53 1.65-.8 2.47a1.56 1.56 0 01.67-.15 1.16 1.16 0 01.94.64 1.64 1.64 0 01.14.39v-.11a28.16 28.16 0 001.6-6.43 11.9 11.9 0 00-.06-1.79c0-.47-.09-.95-.14-1.43a1 1 0 00-.27-.67 1 1 0 00-1.35 0zm22.78.26a.82.82 0 00-.5.39c-.47 1.07-.94 2.14-1.39 3.22s-.75 1.89-1.09 2.85-.69 2-1 2.94-.64 1.87-.92 2.82c-.46 1.55-.81 3.14-1.14 4.73H37a3.32 3.32 0 011.15.38h.26l.47.07c.16-.86.33-1.71.51-2.57.22-1 .47-2 .75-3.07s.58-1.94.88-2.91.63-2 1-2.95.65-1.77 1-2.64c.29-.68.59-1.36.89-2a.92.92 0 00.08-.65.87.87 0 00-.38-.5.82.82 0 00-.43-.12.83.83 0 00-.22 0zm136.21 132.27c-.28.75-.55 1.5-.85 2.24-.21.45-.42.9-.64 1.34s-.48.89-.72 1.33c-.51.94-1.09 1.84-1.67 2.73-1.11 1.7-2.29 3.37-3.54 5l-1 1.19c-.33.39-.69.75-1 1.11a19.49 19.49 0 01-2.16 1.89l-.79.61a.39.39 0 01-.1.08l-.14.11a15.78 15.78 0 00-1.46 1.25c-.42.4-.83.81-1.23 1.22s-.81.84-1.23 1.25-1 .93-1.46 1.38a1.07 1.07 0 000 1.49 1.09 1.09 0 00.74.3 1.12 1.12 0 00.74-.3c.94-.77 1.79-1.65 2.66-2.5.38-.37.76-.75 1.16-1.12s.83-.73 1.27-1.08c.87-.64 1.75-1.27 2.58-2 .36-.3.72-.62 1-1s.73-.73 1.05-1.12a49 49 0 003.78-5.15c.55-.86 1.1-1.72 1.61-2.6s1-1.84 1.48-2.79a24 24 0 001.22-3c.16-.5.31-1 .46-1.5h-.1a1.08 1.08 0 01-1.17-.54c-.1-.15-.19-.31-.28-.46-.08.19-.15.38-.22.57zm-12.39 17.41l.11-.08-.11.08zm-.12.1zm-.13.1l.01-.01-.01.01zm-.01.01l.01-.01-.01.01zm-.01.01zm-.03.01zm0 0z"/><path class="cls-3" d="M166.43 286.71l-.14.11.14-.12zm-1.59 2.85l-.12.15a.87.87 0 00-.1.39v.32c0 .25-.07.5-.1.75s-.1.55-.15.83-.11.53-.17.8a9.66 9.66 0 01-.44 1.48 11.29 11.29 0 01-1 1.67c-.35.47-.68.95-1 1.45a.69.69 0 00.94.94 4.49 4.49 0 001.44-1.53 11.55 11.55 0 001.07-2 10.17 10.17 0 00.46-1.61c.06-.29.12-.58.17-.87.13-.74.23-1.49.33-2.24a.77.77 0 00-.22-.54.79.79 0 00-.54-.22.77.77 0 00-.54.22zm7.39 3.33a.34.34 0 00-.25.32 2.91 2.91 0 01-.26.45 17.11 17.11 0 01-1.24 1.31c-.44.44-.88.89-1.29 1.35-.22.24-.43.47-.63.72s-.49.6-.72.91a12.11 12.11 0 00-1 1.64l-.24.43h-.06l-.15.08-.66.24-.71.3-1.51.64h-.09l-.34.14h-.06l-.8.32a10.18 10.18 0 01-1.41.48 8.34 8.34 0 01.13 1.69h.19a4.86 4.86 0 001.05-.31l1-.39c.29-.11.57-.23.86-.36a.84.84 0 00.14-.06l.88-.41 1.28-.62.57-.3a2.94 2.94 0 00.6-.45 2.18 2.18 0 00.44-.75 12.23 12.23 0 01.82-1.51 12.07 12.07 0 01.88-1.24c.55-.69 1.12-1.37 1.71-2 .28-.32.56-.64.82-1a5.56 5.56 0 00.41-.58 2.21 2.21 0 00.16-.35.81.81 0 000-.68.35.35 0 00-.29-.16zm-8.58 8.4h-.12.12zm-.73.3l-.19.08.19-.08z"/><path class="cls-3" d="M165.27 292.45a.82.82 0 00-.56 1c.15.56.3 1.12.43 1.69s.16.85.22 1.28v.32a.84.84 0 00.22.54.79.79 0 00.54.22.77.77 0 00.76-.76 5.65 5.65 0 00-.07-1.14c0-.28-.09-.56-.14-.84-.11-.58-.28-1.16-.44-1.74a.81.81 0 00-.78-.59h-.21z"/><path class="cls-3" d="M168.6 288.19c-.22.06-.44.15-.65.23a5.37 5.37 0 00-1.55 1 4.85 4.85 0 00-.87 1.1l-.43.71a.9.9 0 101.56.91c.21-.35.41-.7.65-1a3.16 3.16 0 01.4-.42 4.42 4.42 0 01.6-.34 8.55 8.55 0 011.78-.43 7.07 7.07 0 011.38 0 3.07 3.07 0 01.52.14l.15.08.15.15v.06a1.42 1.42 0 010 .22 5.36 5.36 0 010 1c-.15.95-.31 1.89-.51 2.83a1 1 0 00.43 1.09 6.52 6.52 0 011-1.24 7.92 7.92 0 01.69-.61c.1-.49.19-1 .28-1.46a10.9 10.9 0 00.15-1.28 3.05 3.05 0 00-.44-1.72 2.33 2.33 0 00-.5-.58 2.86 2.86 0 00-.79-.46 4.44 4.44 0 00-1.44-.28H171a8.58 8.58 0 00-2.41.41zm-7.75 15.53a.56.56 0 000-.52 4.67 4.67 0 010 .52zm.42-47.8c-.62.47-1.27.89-1.94 1.3s-1.34.82-2 1.27-1.44 1-2.12 1.57-1.32 1.11-2 1.69a79.56 79.56 0 00-7.14 6.84c-.81.93-1.56 1.9-2.39 2.82a17.18 17.18 0 01-1.28 1.28c-.21.2-.45.38-.67.56s-.29.23-.43.35a1.73 1.73 0 00-.39.5 1.17 1.17 0 00-.11.33 1.34 1.34 0 000 .49.85.85 0 00.85.86.87.87 0 00.86-.86c.1-.1.22-.18.33-.27l-.18.14c.36-.27.73-.53 1.06-.82s.6-.55.88-.83c.58-.57 1.11-1.18 1.63-1.8s1.05-1.27 1.61-1.89 1.11-1.2 1.69-1.78 1.19-1.16 1.8-1.72 1.2-1.09 1.8-1.64c1.25-1.14 2.48-2.3 3.8-3.36l.34-.27c.65-.48 1.3-.94 2-1.38s1.36-.86 2-1.32a23.68 23.68 0 002-1.67l1-.86c-.22-.1-.43-.2-.62-.27a2.16 2.16 0 01-.49-.22.87.87 0 01-.35-.36c-.51.45-1 .89-1.54 1.32zm-3.92 4.73z"/><path class="cls-3" d="M141.63 275.36l-.88 1.31a9 9 0 00-.73 1.19c-.09.2-.17.4-.25.6a2.94 2.94 0 00-.16 1 7.07 7.07 0 00.11 1c.07.44.17.87.24 1.31a13.85 13.85 0 01.08 1.93 9.25 9.25 0 00.27 3.1 4.3 4.3 0 001.33 2 8.11 8.11 0 001 .73 9.34 9.34 0 00.89.46c.35.15.71.28 1.07.42l.11.05a.92.92 0 00.63.08.81.81 0 00.19-1.48c-.47-.28-1-.5-1.45-.74a10.17 10.17 0 01-1.19-.72 4.62 4.62 0 01-.64-.61 4.3 4.3 0 01-.34-.59 4.59 4.59 0 01-.24-.9c-.05-.46-.06-.93-.07-1.4s0-1-.05-1.56a11.26 11.26 0 00-.25-1.63c-.1-.42-.21-.83-.29-1.25a3.62 3.62 0 010-.57 3 3 0 01.2-.66 21.11 21.11 0 011.53-2.43.64.64 0 00-.23-.88.61.61 0 00-.31-.09.68.68 0 00-.57.32z"/><path class="cls-3" d="M144.5 290.1a.69.69 0 000 1c1.12.94 2.21 1.92 3.38 2.81a5.85 5.85 0 002 .89c.32.09.65.14 1 .2a8 8 0 011.08.22l.15.09a2.57 2.57 0 01.28.29 17.1 17.1 0 011.44 2.45 6.46 6.46 0 00.69 1.16 6.64 6.64 0 001.27 1.27 9.83 9.83 0 00.83.61 8.79 8.79 0 00.83.51.83.83 0 00.83-1.43c-.37-.22-.72-.47-1.07-.72a11.94 11.94 0 01-1.36-1.3c-.43-.6-.77-1.28-1.15-1.91a13.18 13.18 0 00-1.15-1.62 3.22 3.22 0 00-.7-.63 2.35 2.35 0 00-.85-.31l-.92-.15a8.71 8.71 0 01-1.65-.43 3.65 3.65 0 01-.55-.3l-.53-.38c-.46-.36-.91-.72-1.35-1.1l-1.44-1.21a.78.78 0 00-.5-.21.71.71 0 00-.49.21zm3.65 2.21l.1.08-.1-.08zM91.67 62.89l-.35.06a12.89 12.89 0 00-2.42.78c-.8.35-1.56.78-2.32 1.19a.87.87 0 10.83 1.54c.75-.4 1.49-.81 2.26-1.14.33-.11.66-.23 1-.32l1-.23a9.9 9.9 0 01.27 1.2c.07.4.13.8.19 1.2.11.72.2 1.44.28 2.16.08.88.15 1.76.16 2.65s0 2 0 3v5.77c0 .33-.07.67-.11 1l-.15.9c-.25 1.29-.46 2.58-.76 3.85a.74.74 0 00.47.9.73.73 0 00.89-.47c.34-1 .66-1.9.91-2.88.12-.5.25-1 .36-1.51s.2-1.09.29-1.64.09-.87.12-1.3l.09-1.51c0-.91.08-1.82.1-2.73s0-2 0-3.07-.11-2.09-.22-3.14-.29-1.9-.46-2.84c-.09-.49-.21-1-.33-1.46a5.44 5.44 0 00-.15-.54 2.68 2.68 0 00-.47-.94 1.61 1.61 0 00-.78-.47 1.33 1.33 0 00-.32 0h-.28zm-.18 1.63l.06.06-.06-.06zm.9 17zm-6.7-5.02A1.23 1.23 0 1087 75.31a1.25 1.25 0 00-1.27 1.19zm15.25-.21a1.41 1.41 0 101.46-1.36 1.43 1.43 0 00-1.46 1.36zm-3.39 17.2c-.94 0-1.88.13-2.81.21l-2.95.22c-.59 0-1.16.13-1.75.21l-.71.14-1.09.25a.86.86 0 10.4 1.67l1.24-.27c.4-.08.8-.14 1.2-.19 1.48-.13 3-.17 4.44-.26.79 0 1.59-.09 2.38-.1a13.71 13.71 0 012.13.19c.41.07.81.15 1.21.25a13.9 13.9 0 001.67.29.84.84 0 00.83-.58.82.82 0 000-.44.76.76 0 00-.36-.51c-.29-.13-.57-.26-.86-.37l-.67-.19c-.45-.12-.91-.2-1.37-.29a12.4 12.4 0 00-1.49-.2h-1z"/><path class="cls-3" d="M103.88 95.26a.83.83 0 00-.52.37c-.37.74-.72 1.48-1.07 2.22-.16.34-.34.66-.52 1a8.93 8.93 0 01-.7 1c-.3.34-.6.68-.92 1a11.91 11.91 0 01-1 .85c-.28.19-.56.37-.86.54a7.83 7.83 0 01-.92.45 10.65 10.65 0 01-2.09.44 5.08 5.08 0 01-.78 0 6.15 6.15 0 01-1-.38 11.09 11.09 0 01-1.76-1.11 8.36 8.36 0 01-.76-.81c-.13-.19-.25-.38-.37-.58a8.22 8.22 0 01-.43-.9c-.24-.57-.49-1.13-.72-1.7 0-.11-.08-.23-.13-.34v.09l-.15-.4a1 1 0 00-.89-.73.94.94 0 00-1 .92 4.61 4.61 0 00.11.82 7.08 7.08 0 00.28.77l-.06-.13c.17.41.34.82.5 1.24a13.23 13.23 0 00.58 1.42 8.68 8.68 0 001 1.48 4.18 4.18 0 00.52.51c.27.24.55.47.85.69a7.21 7.21 0 001.22.74 12.35 12.35 0 001.3.55 4.72 4.72 0 002.21.06 9.07 9.07 0 001.46-.33 9.26 9.26 0 001.64-.72 15.38 15.38 0 001.49-1 12.61 12.61 0 002.33-2.56 8.92 8.92 0 00.81-1.4c.26-.55.51-1.1.76-1.65.16-.35.33-.7.5-1a1 1 0 00.11-.65.86.86 0 00-.37-.52.84.84 0 00-.46-.13h-.19zm-14.4 2.51v.08-.08zm11.72 1.9v.06-.06zm-6.11 3.46zM71 43.9a12 12 0 00-1.46 1 6.55 6.55 0 00-1.31 1.52 15.56 15.56 0 00-1 1.69 17.42 17.42 0 00-.73 1.66l-.3.83c-.08.22-.17.43-.23.64-.16.52-.31 1-.47 1.55-.06.2-.09.4-.14.6s-.15.65-.23 1c0 .16 0 .31-.08.47l-.18 1c-.09.54-.15 1.1-.22 1.65s-.09 1-.14 1.49 0 .91 0 1.36v1.39c0 .88 0 1.77.09 2.65s.13 1.87.24 2.79a8.94 8.94 0 001 3.81 1 1 0 101.8-1c0-.1-.11-.19-.15-.29a9.7 9.7 0 01-.42-1.83l-.21-1.35-.15-1.28c0-.43-.07-.87-.11-1.3-.06-.8-.1-1.6-.12-2.39s-.05-1.71 0-2.56c0-.43 0-.86.07-1.28s.09-.92.13-1.37c0-.22.06-.44.1-.66a6.63 6.63 0 01.11-.76c.06-.32.12-.63.19-.95s.08-.49.15-.73.18-.69.28-1c0-.19.09-.39.16-.58.25-.76.5-1.52.8-2.26A12.7 12.7 0 0170 46.66a5.52 5.52 0 01.72-.73 10.85 10.85 0 011.11-.7.78.78 0 00.27-1 .75.75 0 00-.66-.38.78.78 0 00-.39.1z"/><path class="cls-3" d="M141.79 63.51c-.07-1.17-.19-2.33-.32-3.49s-.36-2.47-.59-3.69c-.1-.54-.22-1.09-.34-1.63s-.24-1-.39-1.55-.35-1.19-.56-1.77-.43-1.18-.66-1.77-.5-1.16-.76-1.74c-.06-.13-.12-.27-.19-.4a12.54 12.54 0 00-1.19-2.27c-.36-.67-.73-1.33-1.1-2-.27-.47-.54-.94-.82-1.39-.15-.24-.28-.49-.44-.71l-.57-.82a5.75 5.75 0 00-1.61-1.65 2.4 2.4 0 00-1.11-.31H131a3.08 3.08 0 00-.67.09 4.53 4.53 0 00-1.9-.84 1 1 0 000-.29 1 1 0 00-.28-.67c-.66-.81-1.29-1.63-1.94-2.44a24.91 24.91 0 00-1.88-2.17 21.91 21.91 0 00-2.5-2 26.74 26.74 0 00-2.36-1.56 26.31 26.31 0 00-2.94-1.39 17.47 17.47 0 00-2.75-.84c-1-.23-2-.41-3-.59s-2.06-.35-3.1-.46a25.86 25.86 0 00-2.91-.2q-1.47 0-2.94.09c-1 .06-2 .13-2.93.26-.59.08-1.18.15-1.77.26s-.95.17-1.44.24c-1.85.3-3.69.63-5.51 1.09-.47.12-.93.25-1.38.4s-1.09.41-1.63.63-.87.43-1.31.65-.77.43-1.15.67a88.519 88.519 0 00-5.15 3.43c-.8.56-1.59 1.14-2.38 1.71a19 19 0 00-1.65 1.31 12.84 12.84 0 00-1.28 1.38 13.19 13.19 0 00-1.57 2.28c-.28.55-.54 1.11-.79 1.68a.69.69 0 00.08.81 9.34 9.34 0 00-.86 3c-3.82 2.07-4.81 7.41-5.33 11.42a62 62 0 00-.41 8.51c0 2.11-.52 5.22 1.58 6.54 1.76 1.11 4.5 1 5-1.35.63-2.84.53-5.94.92-8.82.22-1.56.49-3.11.85-4.64a14.85 14.85 0 002.5-.81.83.83 0 00.46.11c.6-.06 1.2-.14 1.79-.25.43-.07.85-.15 1.27-.26l2.43-.68c.86-.23 1.72-.48 2.58-.7s1.8-.45 2.71-.66 1.81-.39 2.71-.6 1.67-.45 2.5-.7l5.54-1.62c1.72-.51 3.44-1 5.16-1.59a51.07 51.07 0 005.18-2l1.08-.48c.28-.12.54-.27.82-.41l2-1q.84-.45 1.68-.87c.37-.18.74-.35 1.12-.51 1-.34 2-.72 3-1.13-.25.48-.49.94-.73 1.38a2.81 2.81 0 00-.2.49.66.66 0 00-.2.34c-.11.63-.22 1.25-.3 1.88a10.32 10.32 0 00-.07 2.15 20.74 20.74 0 00.36 2.61c.16.93.33 1.85.49 2.78s.32 1.82.5 2.73.43 2 .67 2.93.49 1.8.77 2.69.61 1.77.92 2.65.58 1.69.9 2.52c.19.48.37 1 .57 1.43s.45 1 .69 1.55c.46 1 1 1.9 1.51 2.83a.74.74 0 00.2.23 1.45 1.45 0 00.19.29 7.14 7.14 0 00.54.56 2.57 2.57 0 00-.15.72 4.22 4.22 0 00.09.89.39.39 0 00.48.28.41.41 0 00.24-.19.39.39 0 000-.3v-.16a3.1 3.1 0 010-.68c0-.11 0-.22.09-.33a1.48 1.48 0 01.13-.21 4.16 4.16 0 01.56-.55 4.27 4.27 0 01.79-.48 6 6 0 011.25-.35 4.61 4.61 0 011.05 0 5 5 0 011.09.31 3.89 3.89 0 01.84.48 6.83 6.83 0 011.06 1.09 9.81 9.81 0 011.16 2 11.48 11.48 0 01.52 1.6c.05.19.09.39.14.58s.1.53.14.79a9 9 0 010 2.2c-.05.32-.11.63-.19.94a8.17 8.17 0 01-.32 1l-.29.68-.37.76a10 10 0 01-1 1.55l-.42.53a7.76 7.76 0 01-1.11 1.11 10.7 10.7 0 01-1.28.82l-.62.33-.54.24a15.33 15.33 0 01-1.89.59 4.64 4.64 0 01-.51.11 5.88 5.88 0 00-.75.19 4.4 4.4 0 00-.77.34 3.37 3.37 0 00-.58.41 4.45 4.45 0 00-.56.51 6.55 6.55 0 00-.84 1.17.76.76 0 00.27 1 .77.77 0 00.58.07.78.78 0 00.44-.34l.27-.4a5.44 5.44 0 01.87-.86 4.11 4.11 0 01.73-.43c.47-.18 1-.28 1.44-.42.29-.09.58-.2.87-.31a14.43 14.43 0 001.82-.86c.29-.16.56-.35.83-.53a12.39 12.39 0 001-.77A8.56 8.56 0 00133 88l.3-.39a9.93 9.93 0 00.74-1.2 18.78 18.78 0 00.93-2.11 8.94 8.94 0 00.29-1 8.75 8.75 0 00.21-1.36 7.69 7.69 0 000-1.27 1.05 1.05 0 001.2-.45v-.06c.19-.21.39-.4.58-.61s.49-.55.71-.84a8.08 8.08 0 00.81-1.43l1.44-3.07a15.44 15.44 0 001.1-3.39c.13-.68.23-1.36.32-2 .07-.53.12-1.08.14-1.62s0-1.21.05-1.82 0-1.28-.03-1.87zM45 170.58a1 1 0 00-.55.43 1 1 0 00-.09.72c.25 1.31.48 2.62.71 3.93l.24 2.11v.64l.06 1.48v3.84c0 1.36-.09 2.73-.1 4.09s0 3 0 4.45v12.61a38.46 38.46 0 00.32 4c.07.54.15 1.08.23 1.62s.14 1.28.2 1.92.1 1.42.14 2.13c.08 1.38.08 2.76.1 4.14 0 .61 0 1.21.05 1.82 0 .36 0 .73.08 1.09s.14 1 .21 1.47.23 1.25.38 1.86.31 1.28.46 1.92.25 1.25.37 1.88.14 1.28.19 1.92.09 1.5.1 2.25a37 37 0 01-.16 5.16 11.55 11.55 0 01-.64 2.44c-.15.4-.31.81-.47 1.21-.23.59-.46 1.17-.68 1.77s-.47 1.34-.69 2c-.11.35-.2.72-.3 1.08s-.15.6-.23.9c-.66 2.67-1.19 5.38-2 8-.38 1.31-.75 2.63-1.18 3.93s-.88 2.62-1.32 3.92-.94 2.78-1.35 4.18-.73 2.68-1.09 4c-.68 2.6-1.43 5.19-2.12 7.79-.37 1.42-.73 2.84-1.07 4.26s-.66 2.56-1.06 3.82c-.56 1.74-1.11 3.48-1.62 5.23-.27 1-.56 1.92-.84 2.88-.12.4-.25.8-.36 1.2s-.15.5-.22.75-.12.44-.16.66-.05.35-.07.52a1.53 1.53 0 00.13.73 1.06 1.06 0 00.27.47 1.08 1.08 0 00.76.31 1.06 1.06 0 00.75-.31 1 1 0 00.32-.76.58.58 0 010-.19c.13-.5.3-1 .45-1.49.11-.35.21-.69.31-1 .17-.58.34-1.16.5-1.74.38-1.31.74-2.63 1.15-3.92s.9-2.69 1.3-4.05.71-2.62 1.06-3.93c.74-2.76 1.52-5.52 2.31-8.26.38-1.3.74-2.59 1.1-3.89s.69-2.5 1.11-3.72 1-2.73 1.45-4.1 1-2.71 1.41-4.08.83-2.64 1.22-4 .7-2.6 1-3.91.69-2.69 1.09-4 .92-2.67 1.44-4c.32-.81.65-1.63.9-2.47a10.25 10.25 0 00.28-1.36c.08-.55.13-1.1.17-1.65s0-.82 0-1.22v-1.83c0-.75 0-1.5-.07-2.25s-.08-1.68-.18-2.51a26.78 26.78 0 00-.46-3c-.23-.94-.47-1.87-.7-2.8-.18-.76-.31-1.54-.43-2.31-.05-.49-.1-1-.12-1.48s0-1.26-.07-1.88q-.06-1.74-.15-3.48c-.07-1.17-.18-2.35-.35-3.51s-.37-2.23-.55-3.35c-.07-.6-.14-1.2-.2-1.81s-.09-1.46-.13-2.2c-.06-1.37-.08-2.75-.11-4.13-.05-2.69-.12-5.38-.18-8.06 0-1.39-.07-2.77-.06-4.16s0-3.05 0-4.57v-2.14c0-.71 0-1.29-.06-1.93v-.92a9.71 9.71 0 00-.13-1.05c-.08-.68-.15-1.37-.27-2-.21-1.17-.42-2.34-.64-3.51a.92.92 0 00-.91-.68 1 1 0 00-.24 0zM32.7 298.69v.21a.76.76 0 010-.21zm80.66-175.32a.71.71 0 00-.19.46c-.08.85-.2 1.69-.31 2.54s-.24 1.53-.41 2.28c-.09.39-.19.77-.29 1.16s-.2.77-.33 1.14l-.62 1.82c-.15.44-.29.88-.45 1.32-.26.67-.51 1.33-.76 2-.83 2.18-1.68 4.34-2.53 6.51-.69 1.76-1.38 3.53-2.09 5.28-.78 2-1.57 3.88-2.37 5.82-.41 1-.81 1.93-1.24 2.89l-.87 1.88c-.06.14-.14.27-.2.41-.2.37-.39.75-.58 1.13-1.09 2.12-2.27 4.19-3.44 6.27l-1.69 3c-.55 1-1.08 2-1.61 3-.2.38-.39.77-.58 1.15-.29.6-.59 1.19-.88 1.79s-.46 1-.68 1.48-.42.9-.62 1.35c-.93 2.18-1.87 4.35-2.73 6.55s-1.71 4.46-2.52 6.71c-.76 2.08-1.49 4.17-2.27 6.25-.37 1-.76 2-1.1 3s-.75 2.28-1.11 3.43-.63 2-.9 3.06-.58 2.3-.85 3.46-.47 2.08-.72 3.11c-.19.81-.4 1.62-.6 2.43a2.74 2.74 0 01.84 1.77c.07.68.11 1.37.15 2q.51-2.22 1.08-4.44c.27-1.1.54-2.2.8-3.31s.5-2.11.76-3.16c.58-2.25 1.28-4.46 2-6.66.67-2 1.46-4 2.2-6.05.81-2.22 1.6-4.45 2.42-6.67 1-2.8 2.12-5.57 3.26-8.33.38-.91.76-1.83 1.17-2.74.48-1.08 1-2.16 1.48-3.22l.9-1.86c.23-.45.47-.9.71-1.35.55-1.05 1.11-2.09 1.67-3.13 1.13-2.06 2.27-4.12 3.37-6.19.21-.38.42-.75.61-1.14l1-2c.22-.44.41-.89.6-1.34s.44-1 .64-1.48c.87-2.13 1.75-4.26 2.58-6.41s1.66-4.35 2.48-6.52 1.66-4.35 2.46-6.53c.25-.7.51-1.4.77-2.11.14-.37.28-.74.4-1.12.25-.74.49-1.48.74-2.21.31-1 .57-1.92.79-2.9a30.47 30.47 0 00.5-3c.09-.72.19-1.44.26-2.16a.66.66 0 00-.65-.65.68.68 0 00-.46.19z"/><path class="cls-3" d="M114.63 118.34a1 1 0 00-.34 1.3l.85 1.49c.13.24.23.49.35.73l.33.71c.41.91.83 1.82 1.26 2.72s1 1.95 1.45 2.91l.64 1.26c.22.42.44.84.63 1.27s.33.75.5 1.13l.53 1.41c.08.21.15.44.22.66l.3.91c.17.53.31 1.07.46 1.6s.27 1 .4 1.47c.52 2 1 4 1.51 5.91.38 1.37.81 2.73 1.26 4.08.22.67.44 1.34.65 2l.27.93c.07.24.15.48.2.73a3 3 0 01-.4.21c-.9.34-1.82.62-2.71 1s-1.92.79-2.88 1.17-2 .77-3 1.16c-.59.23-1.19.47-1.75.75a1.4 1.4 0 00-.62.63 1.6 1.6 0 00-.17.91 3.15 3.15 0 00.24 1 7.69 7.69 0 00.56 1.11c.32.51.67 1 1 1.49a14.64 14.64 0 01.94 1.51l.08.29a3.23 3.23 0 010 .44 6.05 6.05 0 01-.33 1.1c-.39.89-.85 1.75-1.32 2.6s-.87 1.51-1.35 2.25c-.93 1.44-2 2.81-3 4.17-1.22 1.57-2.5 3.08-3.79 4.59-.71.83-1.37 1.7-2 2.58-.31.42-.59.88-.89 1.31s-.56.9-.85 1.35c-.55.88-1.08 1.78-1.61 2.67s-1.07 1.76-1.61 2.63L99.05 191c-.54.86-1.11 1.7-1.72 2.52L97 194c-1 1.35-2.12 2.69-3.17 4.05l.13-.16c-.64.82-1.29 1.64-2 2.45l-1.89 2.3c-.63.78-1.31 1.51-2 2.26s-1.34 1.43-2 2.14a15.24 15.24 0 00-2 2.56c-.3.5-.6 1-.88 1.51-.57 1-1.14 2.11-1.65 3.19a.62.62 0 00.22.83.61.61 0 00.83-.22c.44-.84.92-1.68 1.4-2.5a30.4 30.4 0 012.08-3.25c.76-.95 1.65-1.78 2.5-2.65.69-.72 1.38-1.43 2-2.19s1.3-1.55 2-2.32 1.32-1.54 2-2.33 1.23-1.53 1.85-2.29 1.32-1.56 2-2.37c.36-.47.73-.94 1.08-1.42s.65-.93 1-1.41c.58-.87 1.14-1.75 1.71-2.64 1-1.5 1.9-3 2.84-4.56.22-.36.44-.72.67-1.08s.51-.82.78-1.22l.84-1.24c.24-.35.51-.68.76-1 1.23-1.52 2.53-3 3.74-4.5q2-2.55 3.83-5.22a33.49 33.49 0 002.59-4.6 9.29 9.29 0 00.93-2.65 3.87 3.87 0 000-.9 2.84 2.84 0 00-.33-1 10.61 10.61 0 00-.58-.9l-.76-1.07a11.48 11.48 0 01-1.13-1.79 2.67 2.67 0 01-.16-.53.41.41 0 010-.11c.29-.15.59-.28.9-.41.92-.38 1.85-.73 2.78-1.08s1.82-.72 2.74-1.08 1.93-.74 2.91-1.06a6.52 6.52 0 001.66-.68 1.69 1.69 0 00.57-.59 2 2 0 00.22-.88 3.37 3.37 0 000-.63c0-.29-.08-.57-.14-.86s-.12-.52-.18-.77q-.19-.72-.42-1.44c-.28-.94-.59-1.88-.87-2.82-.59-2-1.1-4-1.62-6-.25-1-.49-2-.78-2.91-.16-.54-.3-1.1-.48-1.63l-.53-1.59c-.07-.21-.16-.41-.24-.61l-.34-.87c-.21-.54-.47-1.07-.72-1.6-.09-.21-.2-.41-.31-.61s-.21-.42-.32-.63l-.71-1.33a151.2 151.2 0 01-2.15-4.21c-.32-.65-.61-1.31-.93-2-.18-.35-.36-.7-.55-1s-.44-.77-.67-1.16a1 1 0 00-.83-.47 1 1 0 00-.47.13zm11.53 33.14zm0 0zm0 .12zm-9.93 5.45zm0 0l-.07.05a.18.18 0 01.07-.05zm-.11.09l-.07.09.07-.09zm0 0zm-33.6-33.09l-1.37 1.4c-.19.19-.36.4-.55.6s-.27.3-.4.46c-.71.85-1.4 1.71-2 2.63s-1.19 1.78-1.8 2.67l-1 1.39c-.32.46-.67.9-1 1.35v.06c-.59.76-1.19 1.52-1.81 2.28s-1.38 1.62-2.07 2.43-1.38 1.65-2 2.51a7.17 7.17 0 00-.78 1.19c-.15.3-.29.59-.41.9a3.26 3.26 0 00-.15.44 4.68 4.68 0 00-.07.54 1.64 1.64 0 000 .44 3.93 3.93 0 00.15.76 5.47 5.47 0 001.11 1.76c.26.31.54.61.81.9s.66.71 1 1.07c.66.7 1.3 1.42 1.92 2.17a6.32 6.32 0 01.47.75 3.92 3.92 0 01.13.49 4.61 4.61 0 010 .83 8.19 8.19 0 01-.49 1.67 31.34 31.34 0 01-2.36 4.14c-.6 1-1.21 1.9-1.82 2.85-.27.4-.53.8-.79 1.2s-.56.83-.82 1.26a5.43 5.43 0 00-.59 1.27 3.2 3.2 0 00-.09.62 3.38 3.38 0 000 .45 8.83 8.83 0 00.18 1.27 13.92 13.92 0 001.07 2.84c.39.89.83 1.76 1.26 2.64s.77 1.66 1.14 2.5.7 1.67 1 2.52c.39 1 .76 2 1.09 3.09.63 2 1.17 3.93 1.74 5.9s1.17 4 1.72 5.94c.29 1 .6 2 .92 3.05.15.46.31.92.47 1.38s.31 1 .46 1.49.29 1 .43 1.45.26 1.05.38 1.58c.21.9.38 1.82.54 2.74q.56 3.18 1.09 6.34c0 .14 0 .29.07.43a.63.63 0 00.61.46.67.67 0 00.45-.18.59.59 0 00.18-.45q-.41-3.35-.9-6.69c-.06-.43-.13-.87-.2-1.31s-.16-1-.26-1.48-.2-1-.32-1.56-.27-1.11-.41-1.67c-.25-1-.5-1.94-.76-2.92s-.5-2-.74-3-.47-2-.72-3-.52-2-.79-3l-.79-2.92c-.26-.94-.51-1.89-.81-2.82l-1-3.09c-.33-1.02-.79-2-1.21-3s-.91-2.09-1.41-3.12l-.84-1.73c-.21-.45-.4-.9-.6-1.35a10.35 10.35 0 01-.57-1.95 4.28 4.28 0 010-.62l.06-.21a11.75 11.75 0 01.91-1.38c.29-.43.58-.86.88-1.28.55-.82 1.09-1.66 1.63-2.49.74-1.17 1.5-2.34 2.16-3.55a18.13 18.13 0 00.94-2.06 8.36 8.36 0 00.49-2.31 5.2 5.2 0 00-.07-1.18 4.88 4.88 0 00-.36-1.1 6.89 6.89 0 00-1-1.41c-.6-.7-1.23-1.36-1.87-2s-1.53-1.53-2.22-2.36a3.24 3.24 0 01-.28-.47 2.14 2.14 0 01-.09-.34 1.15 1.15 0 010-.19 6.17 6.17 0 01.19-.61 8.62 8.62 0 01.79-1.38c.33-.46.66-.9 1-1.34 1.3-1.62 2.64-3.2 3.89-4.85.64-.85 1.28-1.69 1.87-2.57l1.84-2.76.93-1.39c.29-.42.6-.83.9-1.24l.69-.85c.2-.24.41-.47.62-.71.58-.63 1.19-1.24 1.79-1.86a.89.89 0 00-.63-1.51.87.87 0 00-.62.26z"/><path class="cls-3" d="M87.17 122.56c-.22.48-.45 1-.65 1.45s-.41 1.08-.59 1.62-.29.93-.42 1.39c-.21.74-.42 1.48-.6 2.22s-.39 1.53-.55 2.3-.37 1.57-.51 2.35c-.1.5-.19 1-.28 1.51-.06.28-.12.57-.16.86-.08.48-.15 1-.22 1.44s-.12.71-.16 1.07c-.1.79-.2 1.58-.29 2.38s-.17 1.59-.26 2.38c-.34 3.15-.69 6.31-.91 9.47 0 .84-.1 1.68-.14 2.52s-.06 1.54-.09 2.3 0 1.45 0 2.17v2.65c.05 1.56.15 3.11.24 4.66s.13 3.1.19 4.65.13 3 .28 4.48.33 3.27.57 4.9.58 3 .93 4.55c.18.81.34 1.62.5 2.42s.27 1.4.44 2.09c.09.37.17.74.27 1.11s.2.74.31 1.11c.22.78.46 1.56.73 2.33a.68.68 0 00.32.42l.06-.43a1 1 0 01.41-.61v-.18l.09-.31.06-.22c-.14-.47-.27-.94-.39-1.42s-.21-.75-.3-1.13l-.3-1.29c-.1-.42-.17-.84-.25-1.25s-.15-.72-.22-1.08c-.15-.72-.3-1.44-.46-2.16s-.37-1.68-.53-2.52-.25-1.48-.36-2.23c-.16-1.56-.3-3.12-.41-4.68s-.14-3.07-.19-4.61-.11-3.18-.21-4.77-.18-3.13-.24-4.69-.07-3 0-4.55c0-.86 0-1.72.06-2.57s.08-1.58.11-2.37.09-1.42.14-2.13.11-1.45.17-2.18c.13-1.57.27-3.14.4-4.71.11-1.23.22-2.45.35-3.68.11-1 .25-2.05.38-3.07.14-.81.28-1.61.41-2.41.06-.34.14-.66.2-1l.3-1.45c.05-.27.12-.53.18-.79.12-.53.25-1.06.37-1.59.18-.76.4-1.51.61-2.26a22.49 22.49 0 01.87-2.63c.18-.43.38-.86.57-1.29a.58.58 0 00.06-.41.57.57 0 00-.25-.32.52.52 0 00-.27-.07.49.49 0 00-.46.26zm-6.04 129.99c.33 1.35.65 2.7 1 4q.78 2.9 1.59 5.77 1.45 5.11 2.85 10.24c.5 1.82 1 3.64 1.52 5.45l.54 1.86c.08.24.14.49.22.73.35 1.06.69 2.12 1 3.18.25.77.55 1.52.83 2.28s.56 1.51.86 2.26c.38.92.74 1.85 1.14 2.76l1.32 2.97c.73 1.66 1.5 3.31 2.24 5s1.51 3.36 2.27 5.05c.34.75.67 1.5 1 2.25.19.42.39.84.59 1.26l.36.73c.13.26.27.51.42.76a4.24 4.24 0 00.68.84 1 1 0 001.75-.72 1.07 1.07 0 00-.3-.72l-.19-.21a18.46 18.46 0 01-1-1.86l-.6-1.22c-.37-.75-.73-1.5-1.08-2.26-.78-1.67-1.55-3.35-2.33-5s-1.52-3.23-2.26-4.85c-.44-1-.88-1.92-1.31-2.88-.14-.3-.26-.61-.39-.91-.25-.59-.5-1.18-.76-1.77 0-.11-.09-.21-.13-.32l-1.11-2.87c-.29-.75-.53-1.51-.79-2.27s-.52-1.49-.75-2.24c-.34-1.13-.68-2.26-1-3.39-.46-1.51-.88-3-1.32-4.57-.53-1.83-1-3.67-1.59-5.51l-1.71-5.77c-.5-1.69-1-3.4-1.45-5.1-.08-.26-.14-.53-.21-.79l-.48-1.89c-.15-.58-.3-1.16-.44-1.74l-1 1.52zM83 122.87a.39.39 0 00.39.39.39.39 0 000-.78.39.39 0 00-.39.39zm-1.1 2.32a.39.39 0 10.39-.39.4.4 0 00-.39.39zm-3.4 3.22a5.67 5.67 0 00-1.07.23 16.63 16.63 0 00-1.81.72l-1.62.74c-1 .47-2 1-3 1.44-1.91.91-3.79 1.88-5.73 2.75l-1.47.59-1.92.69c-.59.21-1.19.39-1.78.58l-.69.2c-.28.08-.57.17-.86.24-.65.15-1.29.3-1.94.42s-1.25.21-1.88.31c-1.21.19-2.43.35-3.65.55-.54.09-1.08.18-1.61.3a9.9 9.9 0 00-1.07.28 6.29 6.29 0 00-.71.3 3.37 3.37 0 00-.61.46 2.85 2.85 0 00-.42.43c-.22.25-.41.53-.61.8a20.84 20.84 0 00-1.66 2.95c-.28.56-.55 1.13-.82 1.69-.53 1.1-1.05 2.21-1.54 3.33A21.89 21.89 0 0041 151a15.26 15.26 0 00-.41 2.14c0 .12 0 .24-.05.36a1.36 1.36 0 00.18.68 1.35 1.35 0 001.85.48 1.33 1.33 0 00.62-.81 16.09 16.09 0 01.66-2.35c.34-.74.71-1.46 1.06-2.19l1-2c.32-.66.64-1.32 1-2a24.1 24.1 0 011.77-3.31 5 5 0 01.5-.53h.06a18 18 0 011.74-.49l1.8-.4 3.75-.76a41.13 41.13 0 007-2.32 33 33 0 003.5-1.68c1.06-.57 2.07-1.23 3.11-1.84s2-1.15 3.09-1.68c1.28-.66 2.56-1.33 3.88-1.9a7.47 7.47 0 011.46-.45h.8a.75.75 0 00.75-.75.76.76 0 00-.75-.75h-.84zm-1.22 1.88h-.08.08zm67.78 67.78c-.13.75-.2 1.52-.29 2.27-.16 1.22-.26 2.45-.35 3.68-.21 2.82-.39 5.63-.52 8.45-.09 1.87-.17 3.74-.29 5.61-.06.93-.13 1.86-.21 2.78s-.16 1.55-.25 2.33c-.07.52-.15 1-.22 1.55s-.2 1.06-.31 1.6c-.2 1-.47 2.09-.74 3.13s-.54 2-.78 2.94a7.69 7.69 0 00.2 4.48c.22.62.49 1.23.76 1.83a18.15 18.15 0 011.05 3.2 8.55 8.55 0 010 1.6 32.77 32.77 0 01-1.17 4.48 18.94 18.94 0 00-.69 4.16c0 .75-.08 1.5-.11 2.26v1.8c.07.8.14 1.6.25 2.4s.2 1.41.32 2.12c.25 1.42.51 2.83.76 4.25s.43 2.69.63 4 .35 2.64.53 4c.06.45.14.9.21 1.36a9.08 9.08 0 011.2-1.54 7.56 7.56 0 011.37-2.24c-.23-1.89-.46-3.78-.78-5.65-.21-1.24-.43-2.46-.64-3.7-.11-.64-.22-1.29-.32-1.93s-.17-1.24-.25-1.85c0 .14 0 .28.05.42 0-.28 0-.56-.07-.84s-.06-.58-.07-.86c0-.59-.05-1.19 0-1.78s0-1.2.09-1.8.1-1.09.16-1.64c.06-.37.12-.75.2-1.12s.24-1 .37-1.43c.25-.9.49-1.79.68-2.7a13.65 13.65 0 00.4-3.18 9.48 9.48 0 00-.79-3.43c-.23-.54-.44-1.1-.68-1.64s-.45-1-.66-1.48a6.86 6.86 0 01-.37-1.27 7.2 7.2 0 010-1.54c.21-1.39.55-2.75.85-4.12.12-.59.25-1.2.35-1.8s.25-1.47.33-2.21c.16-1.37.31-2.73.38-4.11s.15-2.8.18-4.21c.06-2.76.11-5.52.23-8.27s.24-5.25.53-7.85a8.92 8.92 0 01-.49-2.13 8.07 8.07 0 01-.8-1.14l-.09-.16c-.05.3-.1.59-.16.88zm-99.32-35.01a2.3 2.3 0 00-.32-.78 2.38 2.38 0 00-1-.83 4 4 0 00-.69-.24 4.91 4.91 0 00-.67-.08 4.29 4.29 0 00-.8 0l-1.6.11c-.55 0-1.1.06-1.66.07a10.23 10.23 0 01-1.34-.11l-.88-.15c-.28 0-.55-.11-.82-.17-.62-.13-1.22-.3-1.83-.46a7.09 7.09 0 01-.65-.22l-1-.34c-.25-.08-.48-.19-.72-.29l-.75-.31c-1.29-.57-2.58-1.14-3.91-1.62-.67-.25-1.33-.5-2-.74-1-.36-2-.72-3-1.13a22 22 0 01-4.59-2.7l-.6-.49a.93.93 0 01-.33 0 2.74 2.74 0 01-.5-.08 1.37 1.37 0 01-.55-.37c-.19-.23-.36-.47-.53-.72l-.49-.74-.16-.26h-.07v.07l-.15.31.15.34a5.27 5.27 0 00.43.72 11.54 11.54 0 001.22 1.4c.41.39.84.76 1.28 1.13s1 .8 1.54 1.17A22.43 22.43 0 0022 157.4c1 .44 1.92.83 2.89 1.24.73.31 1.47.61 2.2 1l1.37.65 1.26.64 1 .49c.43.2.86.42 1.3.59l1.42.55c.15.06.31.1.47.15l.86.27c.28.09.57.16.86.23s.58.15.87.21.65.14 1 .19.49.09.74.11l.63.06a8 8 0 00.85 0l1.05-.05 1-.08a9.92 9.92 0 011.44-.07l.35.09.15.09a.86.86 0 01.13.14 1.06 1.06 0 00.38.38 1.14 1.14 0 00.83.11 1.08 1.08 0 00.74-1.32z"/><path class="cls-3" d="M44.76 163.63a.81.81 0 00-.39.5q-.16 1.08-.3 2.16c-.09.66-.15 1.33-.21 2-.12 1.24-.19 2.48-.28 3.72-.16 2.33-.32 4.67-.52 7-.11 1.21-.21 2.43-.36 3.64l-.48 3.9c-.31 2.46-.57 4.92-.8 7.39-.05.58-.09 1.17-.13 1.76s-.08 1.09-.09 1.64 0 1.23 0 1.85 0 1.3.08 1.95c.06 1.15.1 2.3.1 3.46 0 .66 0 1.33-.06 2s-.09 1-.15 1.56c-.1.67-.2 1.33-.34 2-.09.4-.16.8-.26 1.19s-.25.91-.37 1.36c-.2.75-.44 1.49-.68 2.23-.11.35-.25.69-.37 1l-.38 1v2.65c0 .77-.09 1.53-.13 2.3 0 .33-.05.67-.09 1v.11a2.81 2.81 0 010 .29l1.12-1.73c.34-.54.63-1.12.92-1.69.2-.39.37-.79.54-1.19s.34-.78.49-1.17.23-.66.35-1 .21-.54.29-.82c.19-.6.37-1.2.56-1.81s.32-1.2.48-1.8c.07-.29.12-.58.18-.87s.14-.58.18-.88l.15-1c0-.35.12-.71.15-1.07.06-.62.13-1.23.15-1.85v-2.07c0-1.15-.08-2.29-.15-3.44-.05-.69-.1-1.37-.13-2.06v-1.6c0-2.46.2-4.92.39-7.37.1-1.19.19-2.38.3-3.57s.24-2.51.33-3.77.15-2.53.15-3.89.11-2.36.16-3.55c.08-1.59.16-3.18.25-4.78 0-.67.06-1.35.12-2s.14-1.59.23-2.39c.06-.44.13-.88.19-1.31a.91.91 0 00-.08-.65.87.87 0 00-.51-.39.8.8 0 00-.64.09zm-30.57-12.71l-.72 2.6c-.14.51-.29 1-.41 1.54s-.32 1.22-.43 1.84-.28 1.41-.41 2.11-.2 1.23-.3 1.85-.17 1.13-.24 1.7a82.35 82.35 0 00-.4 3.48c-.15 1.69-.31 3.37-.5 5.05s-.41 3.33-.63 5v-.24c-.17 1.17-.32 2.36-.52 3.53s-.46 2.57-.71 3.85c-.45 2.36-1 4.69-1.66 7a107.79 107.79 0 01-4.81 13.61c-.24.57-.47 1.14-.7 1.72s-.43 1.17-.62 1.76A21.07 21.07 0 000 213.25a13.11 13.11 0 00.24 2.58 16.49 16.49 0 00.48 2.08c.18.56.33 1.13.54 1.68s.42 1.12.64 1.67.47 1.13.69 1.69c.45 1.14.9 2.29 1.31 3.45s.82 2.4 1.22 3.61.71 2.33 1.06 3.49.71 2.27 1.09 3.4c.13.41.29.82.45 1.23.07.19.15.37.23.56s.23.58.37.86a12 12 0 00.75 1.36 6.1 6.1 0 001.25 1.43 6.72 6.72 0 00.85.58 7.4 7.4 0 001 .44 1.3 1.3 0 00.62 0 1.18 1.18 0 00.83-1.45 1.3 1.3 0 00-.55-.71l-.14-.09a6.6 6.6 0 01-.69-.71 16.48 16.48 0 01-1.38-2.46 58.176 58.176 0 01-1.15-3.07c-.19-.56-.38-1.16-.57-1.74l-.57-1.79Q7.51 228 6.23 224.7c-.59-1.5-1.22-3-1.85-4.45-.25-.6-.51-1.2-.72-1.82l-.42-1.26c-.13-.4-.23-.81-.33-1.22s-.21-1-.28-1.45a12.14 12.14 0 01.05-2.89A14.71 14.71 0 013 210l.32-1.19c.15-.59.36-1.17.55-1.75s.42-1.13.64-1.7.44-1.1.67-1.65c.88-2.18 1.71-4.38 2.45-6.62.4-1.2.77-2.4 1.14-3.61.19-.63.35-1.27.52-1.91s.29-1.17.43-1.75c.57-2.32 1-4.65 1.4-7s.68-4.82.93-7.24.48-4.88.65-7.32c.09-1.16.17-2.31.27-3.46.05-.49.08-1 .14-1.48s.14-1.2.22-1.8.19-1.42.32-2.12.26-1.57.44-2.34.34-1.55.55-2.32l.75-2.7c-.15-.19-.29-.39-.43-.59l-.49-.74-.06-.11a.83.83 0 00-.2.32zm4.68 91.41h.11v-.09h-.07zM152 305.26l-.73.46c-.56.37-1.08.8-1.6 1.21-1 .73-1.94 1.45-3 2.11-1.18.76-2.43 1.41-3.67 2.07s-2.34 1.08-3.53 1.61-2.5 1.17-3.77 1.72c-1.54.68-3.1 1.33-4.66 2-1.91.81-3.84 1.6-5.81 2.27-1 .34-2 .63-3.09.91-.42.11-.83.22-1.25.31-.81.18-1.62.36-2.44.48s-1.47.12-2.21.16h-2.9c-.89 0-1.78-.09-2.66-.19a9.57 9.57 0 01-2.13-.5 2.86 2.86 0 01-.42-.24l-.15-.14a1.74 1.74 0 010-.22v-.66a1 1 0 00-1-1 1 1 0 00-1 1 9.11 9.11 0 00.14 1.28 2.22 2.22 0 00.66 1.11 3.57 3.57 0 001.07.69 8 8 0 001.44.46 25.66 25.66 0 004.1.5 39.77 39.77 0 004.23.14 25.43 25.43 0 003.88-.5c.61-.12 1.23-.25 1.84-.39 1.33-.31 2.64-.68 3.93-1.12s2.53-.93 3.77-1.42l4-1.55c1.19-.46 2.36-.95 3.53-1.44 1.33-.55 2.66-1.06 4-1.61a40.61 40.61 0 003.93-1.9c.66-.36 1.29-.75 1.92-1.16s1.41-1 2.1-1.55h-.06l.13-.1c1-.75 1.86-1.6 2.82-2.36a5.87 5.87 0 01.9-.6 1.19 1.19 0 00.51-.3 1.21 1.21 0 00.35-.84 1.19 1.19 0 00-1.19-1.18h-.08a3.62 3.62 0 00-1.84.49zm1.23 2.52zM108 319.28v.08-.08zm.08.17l.13.16a1 1 0 01-.13-.16zm.19.17l.11.08-.11-.08zm2.58.71h.14-.14zm39.35-10h.08-.08zm.08 0l.17-.14-.17.14zm3.35-14.11c.15.44.33.87.46 1.31l.45 1.58c.13.45.24.9.36 1.35s.23.86.35 1.29c.22.83.49 1.65.79 2.46l.19.51a1.06 1.06 0 00.45.59A1 1 0 00158 305a1 1 0 00.1-.76c-.66-1.79-1.19-3.63-1.77-5.46-.27-.82-.57-1.63-.89-2.43v-.05c-.31-.23-.61-.47-.9-.73l-.12-.11-.82-.53a7.75 7.75 0 01-.66-.46c.24.59.48 1.19.69 1.79zm-122 4.78a3.21 3.21 0 00-.39 1.07 3.41 3.41 0 00.14 1.19 4.67 4.67 0 00.53 1.13 11.63 11.63 0 00.86 1.22 15.24 15.24 0 001.89 2c.72.66 1.5 1.26 2.28 1.85s1.8 1.23 2.74 1.79c.52.31 1 .64 1.55.92l2.22 1.17c.57.3 1.14.56 1.71.84 1.14.56 2.28 1.13 3.43 1.65l2.14.95c.7.31 1.42.58 2.13.87 1.25.5 2.54.92 3.82 1.33.64.21 1.3.37 2 .55s1.2.29 1.8.41a22.73 22.73 0 003.19.36c1 0 2 0 3-.07l1.93-.12c1.4-.09 2.8-.17 4.2-.23l2-.08h.92a11.94 11.94 0 001.59-.23 1.55 1.55 0 001.14-1.5 1.52 1.52 0 00-.45-1.09l-.31-.25a1.58 1.58 0 00-.79-.21 6 6 0 00-1 0h-.84l-1.58.12c-1.08.08-2.16.16-3.24.26l-3.42.32c-.61.06-1.22.09-1.83.14a19.54 19.54 0 01-4-.12 43.56 43.56 0 01-6.38-1.53c-1-.29-1.88-.62-2.82-.95-.35-.12-.69-.26-1-.4s-.92-.34-1.37-.53h.06c-.82-.35-1.65-.69-2.47-1.05s-1.87-.81-2.78-1.25-1.89-.89-2.79-1.39l-1.78-1a24.19 24.19 0 01-2.83-1.91 18.48 18.48 0 01-3-2.83A7.79 7.79 0 0133 303c-.05-.15-.09-.3-.13-.45s0-.2 0-.3l.17-.35a.92.92 0 00.08-.63.84.84 0 00-.37-.48.83.83 0 00-.41-.1.75.75 0 00-.7.39z"/><path class="cls-3" d="M86 269c-.09.81-.16 1.63-.24 2.45 0 .48-.07 1-.09 1.44s-.07 1.17-.08 1.75 0 1.36 0 2c0 2.32 0 4.64.05 7 .06 4.63 0 9.26 0 13.89 0 2.24.07 4.47.1 6.71v3.48c0 .58 0 1.16-.07 1.73s-.09 1.2-.16 1.8l-.06.6c0 .28-.08.55-.13.82-.08.44-.17.87-.28 1.3s-.19.75-.29 1.12-.14.59-.23.88h-.06a18 18 0 01-2.54 0c-.72-.05-1.43-.11-2.14-.2a1.57 1.57 0 00-.74.2 1.46 1.46 0 00-.52 2 1.47 1.47 0 00.87.67q1 .19 2 .33a18.73 18.73 0 002.58.23 8.58 8.58 0 001.34-.14 3.27 3.27 0 00.53-.17 2.3 2.3 0 00.84-.49 3.17 3.17 0 00.47-.56 2.26 2.26 0 00.25-.66 7 7 0 00.13-1c0-.57.08-1.13.13-1.7.09-1.11.1-2.24.13-3.36v-3.51c0-1.16-.11-2.32-.18-3.48s-.13-2.23-.19-3.34c-.12-2.3-.2-4.6-.27-6.9s-.13-4.72-.19-7.09c0-2.2-.15-4.4-.19-6.6v-6.63l.06-1.5c0-.39.07-.78.11-1.17 0-.61.11-1.23.18-1.84A.55.55 0 1086 269zm-1.08 46.83l-.11.09.11-.09zm-50.54-9.18a.89.89 0 00-.27.65c-.08 1.18-.16 2.36-.18 3.54s0 2.14 0 3.21c.08 2.26.2 4.51.3 6.77.07 1.55.12 3.1.14 4.64v1.82a16.42 16.42 0 00.17 1.72 8.48 8.48 0 00.46 1.73 19.79 19.79 0 00.82 1.9 8.73 8.73 0 00.7 1.18 1 1 0 00.61.47 1 1 0 00.79-.1 1 1 0 00.36-1.4 15 15 0 01-.9-1.79c-.18-.45-.34-.89-.49-1.35a9.44 9.44 0 01-.3-1.38c-.17-1.45-.16-2.91-.24-4.36-.06-1.12-.13-2.25-.2-3.37-.14-2.22-.28-4.45-.37-6.67-.05-1-.05-2.08-.05-3.12s.09-2.29.17-3.44a.94.94 0 00-.93-.93.91.91 0 00-.66.28zM117 119.92a.81.81 0 00.53 1c-.15-.39-.28-.79-.4-1.21a.77.77 0 00-.12.26zm-31-.15a2.18 2.18 0 00-.66.38c-.26.19-.51.4-.75.61a9.18 9.18 0 00-1 1.06 5.78 5.78 0 00-.94 1.41 7.48 7.48 0 00-.33.9c-.08.29-.14.59-.21.89a.86.86 0 00.59 1 .85.85 0 001-.59 12.05 12.05 0 01.35-1.31 4.42 4.42 0 01.43-.72c.26-.31.54-.61.83-.9a8.34 8.34 0 01.78-.67l.4-.25a5 5 0 01.67-.16.93.93 0 00.41-.23.91.91 0 00.26-.65.93.93 0 00-.91-.91h-.12a2.61 2.61 0 00-.78.1z"/><path class="cls-3" d="M111.57 115.16a1.11 1.11 0 00-.64.5 1.05 1.05 0 00-.11.83 1 1 0 00.49.64l.92.43a6.16 6.16 0 011 .59c.54.45 1 .95 1.53 1.45l1 1c.67.69 1.35 1.37 2 2.07a1 1 0 00.63.28 2.56 2.56 0 01-.11-.24 17.8 17.8 0 01-1.18-3c0-.2-.11-.4-.16-.61l-.09-.38-.33-.36a23.54 23.54 0 00-1.75-1.71 6.9 6.9 0 00-1-.7l-.44-.23-.94-.44a1.45 1.45 0 00-.57-.14h-.26zM127.68 178c-.4 0-.81 0-1.21.09s-.94.12-1.41.19c-.72.12-1.42.3-2.12.48s-1.48.4-2.23.56-1.48.31-2.23.43-1.5.22-2.24.37-1.6.37-2.4.56a.67.67 0 00.36 1.3c.85-.2 1.71-.42 2.57-.59s1.51-.24 2.26-.35 1.49-.23 2.22-.39 1.6-.37 2.39-.56 1.57-.33 2.36-.46c.34 0 .67-.07 1-.09s.86-.05 1.29-.05c.76 0 1.52 0 2.29.1 1.51.12 3 .27 4.53.38l1.29.1h.21a.72.72 0 00.52-.07.64.64 0 00.3-.4.67.67 0 00-.46-.82c-.83-.16-1.67-.23-2.5-.31l-2.4-.25c-.71-.08-1.42-.15-2.13-.2-.54 0-1.09-.08-1.63-.08h-.64z"/><path class="cls-3" d="M114.11 179.74l-.61.1a1.48 1.48 0 00-.64.25 1.58 1.58 0 00-.47.59 6.23 6.23 0 00-.48 2.14c-.1.77-.13 1.56-.16 2.34a.77.77 0 00.75.76.78.78 0 00.76-.76c0-1 .11-2 .24-3.06a3.83 3.83 0 01.18-.76.36.36 0 010-.09l.37-.07.4-.06a.69.69 0 00.43-.33.72.72 0 00-.26-1 .6.6 0 00-.34-.09h-.21zm-.45 1.54l-.07.05.07-.05zm23.83-2.59a.67.67 0 00-.2.47.72.72 0 00.2.48l.14.1a.59.59 0 00.34.1c.55.07 1.11.15 1.67.21l.78.07h.73a2.8 2.8 0 01.06.28 17.15 17.15 0 010 2.15v1.71a.66.66 0 001.12.46.71.71 0 00.19-.46c.09-.64.15-1.27.2-1.91v-.95a8.32 8.32 0 00-.07-1.12 1.94 1.94 0 00-.43-1.09 1 1 0 00-.22-.19.55.55 0 00-.25-.13 1.65 1.65 0 00-.54-.09h-.47q-.4 0-.81-.06l-1.92-.24h-.05a.64.64 0 00-.43.2zm3.56 1.35zm.13.12zm0 0zm-20.35 4.38a1 1 0 00-.65.27 1 1 0 00-.27.65.92.92 0 00.92.92 23.62 23.62 0 012.38 0c.72 0 1.43.1 2.15.14s1.46 0 2.19 0 1.46 0 2.19-.06c1.46-.08 2.93-.23 4.39-.29h2.29c.76 0 1.51 0 2.27.08h1a.46.46 0 00.46-.46.48.48 0 00-.46-.47c-1.59-.08-3.17-.16-4.75-.19h-4.5c-.86 0-1.72 0-2.57-.07s-1.66-.11-2.49-.22l-2.16-.3c-.35 0-.71-.08-1.06-.12s-.42 0-.63 0h-.68zm35.54-37.97a.69.69 0 00-.31.4c-.23.64-.47 1.28-.69 1.93l-.42 1.3c-.32 1-.63 1.92-.95 2.88 0 .13-.07.27-.11.4-.12.43-.23.87-.35 1.3l-.86 3.26c-.41 1.52-.76 3.06-1.13 4.59s-.7 3-1 4.44c-.75 3.25-1.49 6.51-2.24 9.76-.46 2-1 3.93-1.33 5.92a.79.79 0 00.08.62.78.78 0 00.48.37.79.79 0 00.62-.08.74.74 0 00.37-.48c.29-1.62.66-3.23 1-4.84l.93-4.38c.34-1.56.67-3.13 1-4.7s.69-3.19 1.07-4.78l1.29-5.45c.15-.65.34-1.3.51-1.94.28-1.05.55-2.1.83-3.14.22-.82.51-1.63.77-2.43s.44-1.33.65-2 .51-1.47.78-2.2a.67.67 0 00-.47-.82.55.55 0 00-.18 0 .63.63 0 00-.33.09zm-37.89-25.03a.9.9 0 00.09.7.79.79 0 00.32.31 10.4 10.4 0 01-.12-1.24v-.22a.86.86 0 00-.29.45z"/><path class="cls-3" d="M118.93 121.56a.75.75 0 00-.45.35.79.79 0 00-.08.58.83.83 0 00.35.45c.81.63 1.61 1.24 2.48 1.79a20.42 20.42 0 002.67 1.38c1 .42 2 .75 3 1.08l1.31.44c.43.15.85.32 1.27.49 1 .45 2 .93 3 1.39s2.17 1 3.28 1.4a58.38 58.38 0 006.49 2c1.58.42 3.15.86 4.69 1.42.76.28 1.52.55 2.27.84s1.62.58 2.41.92l-.19-.09.34.15h-.06c1.47.67 2.89 1.45 4.32 2.2.74.39 1.49.76 2.24 1.12l1.13.53.52.23c.23.11.47.21.69.34a5.23 5.23 0 01.63.41 8.85 8.85 0 011.19 1.18 11.73 11.73 0 011.11 2c.34.82.68 1.64 1 2.48a1.4 1.4 0 00.6.79 1.33 1.33 0 001 .13 1.31 1.31 0 00.92-1.61c-.2-.61-.41-1.21-.64-1.81a17.69 17.69 0 00-1.14-2.55 9 9 0 00-3.5-3.38c-.33-.18-.69-.31-1-.47l-.76-.35c-1-.46-2-.94-3-1.45s-1.95-1-2.94-1.49c-.6-.28-1.21-.55-1.83-.8s-1-.38-1.57-.56l-3.25-1.09c-2.12-.71-4.3-1.24-6.47-1.78-1.39-.34-2.77-.72-4.13-1.18s-2.76-1-4.12-1.59c-.66-.29-1.33-.58-2-.84l-1.16-.44c-.41-.14-.82-.27-1.24-.39-.67-.2-1.35-.36-2-.56l-1.2-.37c-.36-.12-.71-.26-1.06-.39s-.66-.29-1-.46l-.67-.34c-.21-.11-.42-.25-.63-.38a23.52 23.52 0 01-2.25-1.6.61.61 0 00-.36-.1h-.22zm13.79 5.85l.2.09-.2-.09zm16.79 65.01a1.08 1.08 0 00.74 1.31c1.18.38 2.36.76 3.53 1.17l3.22 1.15 3 1c1 .34 2 .7 3 1.09l1 .42c.86.38 1.72.77 2.54 1.22 1 .52 1.92 1.07 2.88 1.61s1.66.9 2.49 1.35c.48.26 1 .53 1.42.81s.83.54 1.24.82l.68.54c.26.21.5.43.75.65.48.43.95.87 1.42 1.31s.94.88 1.42 1.3 1.08.9 1.61 1.36a.92.92 0 101.3-1.3c-.75-.83-1.6-1.56-2.4-2.33s-1.66-1.61-2.51-2.39c-.18-.16-.37-.31-.56-.46s-.46-.39-.71-.57l-.79-.57c-.24-.17-.51-.31-.76-.47-.92-.57-1.88-1.06-2.81-1.59s-1.81-1-2.72-1.54c-.5-.27-1-.55-1.51-.8s-1.07-.52-1.63-.76c-2-.89-4.15-1.57-6.25-2.3l-4-1.4c-1.41-.5-2.83-1-4.25-1.42a.9.9 0 00-.28 0 1.08 1.08 0 00-1 .79zm70.4 6.79c-1.83.9-3.64 1.81-5.49 2.67s-3.75 1.72-5.62 2.6-3.47 1.63-5.19 2.48a24.16 24.16 0 00-3.65 2.13 11.23 11.23 0 00-1.41 1.26 9.7 9.7 0 00-1.21 1.63l-.71 1.18-.94 1.55c-.26.41-.54.8-.82 1.19a13.4 13.4 0 01-1.24 1.26l-.56.49c-.36.31-.71.63-1.06.95-.74.67-1.44 1.37-2.14 2.08s-1.3 1.35-1.94 2l-2.15 2.22c-1.35 1.4-2.73 2.76-4.09 4.14s-2.67 2.78-4 4.17-2.66 2.72-4.09 4c-.37.34-.74.69-1.13 1l-1.31 1.09c-.74.62-1.5 1.22-2.25 1.84-1.44 1.19-2.8 2.48-4.14 3.79a21.4 21.4 0 00-2.3 2.46 2.38 2.38 0 00-.4.85 1.65 1.65 0 00.15 1.11 3.84 3.84 0 001.58 1.46c.41.25.84.47 1.27.69l.49.22c.18.08.37.17.56.24.34.13.69.28 1 .4l2.19.82c1.26.48 2.5 1 3.74 1.48l1.22.6a5.64 5.64 0 01.53.31l.67.39.53.35.6.4c.37.24.73.5 1.09.74l2.26 1.48c.94.62 1.88 1.24 2.78 1.92a14.5 14.5 0 012.17 2.12 14.76 14.76 0 011.53 2.64l-.06-.14c.19.43.38.86.54 1.3.21.59.42 1.17.62 1.77s.31 1 .46 1.48a16.16 16.16 0 01.45 1.79 5.57 5.57 0 010 1.08 1 1 0 002 .27 6.44 6.44 0 00.17-1.07 3.82 3.82 0 00-.08-1c-.05-.29-.15-.59-.23-.88-.14-.45-.28-.9-.43-1.34-.32-.94-.67-1.87-1-2.79-.2-.52-.45-1-.67-1.54a13.3 13.3 0 00-.94-1.74 12.82 12.82 0 00-1.3-1.73 14.56 14.56 0 00-1.39-1.33 17.84 17.84 0 00-1.48-1.11c-.4-.28-.79-.55-1.2-.82-.83-.53-1.65-1.05-2.47-1.59l-2.51-1.64c-.42-.28-.84-.53-1.27-.78-.15-.08-.29-.17-.44-.24l-.86-.42c-.93-.45-1.91-.8-2.87-1.17-1.59-.61-3.19-1.18-4.78-1.8-.33-.15-.66-.3-1-.47a12.59 12.59 0 01-1.33-.79l-.29-.27a14.28 14.28 0 011.08-1.12l1.08-1.09q.93-1 1.89-1.89c.7-.68 1.4-1.35 2.13-2s1.48-1.28 2.22-1.92l1.28-1.12c.37-.32.72-.66 1.08-1s.58-.54.86-.82.73-.69 1.07-1c.7-.72 1.4-1.44 2.09-2.17l2.11-2.26c1.35-1.45 2.74-2.86 4.15-4.26s2.66-2.66 4-4l2-1.92c.56-.53 1.14-1 1.73-1.5s1.25-.89 1.84-1.37a11 11 0 001.3-1.16 6.79 6.79 0 00.79-1.06c.11-.16.22-.33.32-.5.38-.67.74-1.35 1.1-2l.53-1a14.66 14.66 0 011-1.75 10.39 10.39 0 011.56-1.55 24.44 24.44 0 013.32-2c.84-.45 1.68-.89 2.54-1.32 1.76-.88 3.53-1.76 5.31-2.6 1.26-.6 2.52-1.19 3.77-1.81l4.31-2.14a.65.65 0 00.23-.88.62.62 0 00-.55-.31.8.8 0 00-.33.08zM164 248.49v.07a.17.17 0 010-.07zm.07.25zm6.66-100.62c-.58 0-1.16.14-1.73.22l-.7.1a.65.65 0 00-.4.31.7.7 0 00-.07.51.66.66 0 00.31.4.72.72 0 00.52.07l1.64-.23c.42 0 .84-.08 1.27-.08a10.52 10.52 0 011.12.07 8.26 8.26 0 011 .2c.36.1.71.2 1.06.32.64.2 1.26.46 1.88.72a8.77 8.77 0 011.53.77 4.89 4.89 0 01.4.39 4.52 4.52 0 01.41.71l.39 1a5.93 5.93 0 00.34.72 4.82 4.82 0 00.48.7 9.8 9.8 0 001.22 1.19 25.27 25.27 0 002.91 1.87c.66.39 1.31.8 2 1.2l2 1.18 2.11 1.24c.73.44 1.47.86 2.21 1.28.35.2.71.38 1.07.57l1.06.59c.33.18.66.4 1 .6s.61.39.91.6c1.36.93 2.67 1.91 4 2.9l3.84 2.9 3.64 2.88.89.71c.32.26.64.5.94.77.66.56 1.3 1.12 1.94 1.7.25.23.51.45.74.7l1 1.08c.56.59 1.1 1.21 1.64 1.81l1.58 1.75c.47.53.94 1.07 1.44 1.58l.83.88c.17.18.35.34.53.5l.8.74.25.2.54.43c.47.37.95.74 1.45 1.08s1.19.8 1.82 1.16a.63.63 0 00.85-.23.62.62 0 00-.22-.84 29.57 29.57 0 01-2.72-1.85l-1-.79c-.29-.24-.56-.51-.83-.77s-.49-.45-.72-.7-.6-.62-.89-.94l-3.12-3.5c-.57-.64-1.14-1.28-1.72-1.9-.27-.28-.53-.57-.81-.84l-.89-.85c-.56-.53-1.13-1.06-1.73-1.55s-1.34-1.12-2-1.67c-.95-.78-1.88-1.57-2.83-2.34s-2-1.59-3-2.37l.16.13-1.9-1.48c-.64-.49-1.28-1-1.94-1.48l-1.12-.82-1-.7c-.62-.42-1.26-.8-1.91-1.17s-1.36-.73-2-1.12-1.35-.78-2-1.18c-1.45-.85-2.91-1.68-4.35-2.55-.58-.35-1.15-.71-1.73-1a27.15 27.15 0 01-2.42-1.5 8.15 8.15 0 01-1.27-1.22 4.53 4.53 0 01-.5-.88c-.16-.39-.32-.78-.5-1.15a4.11 4.11 0 00-.94-1.24 4.89 4.89 0 00-1.46-.86c-.74-.31-1.49-.61-2.25-.89a13.66 13.66 0 00-2.19-.61c-.34-.06-.67-.11-1-.14a7.32 7.32 0 00-.81 0h-.94zm9.63 24.78l-1.05.08-1.2.15c-.44.06-.87.14-1.31.22s-.64.12-1 .19-.66.13-1 .21l-2.35.55-1 .25-1.33.36-.36.13-.63.22a6.57 6.57 0 00-.61.26c-.15.07-.3.13-.44.21s-.34.15-.5.24l-.61.34-.89.53c-.67.4-1.32.85-2 1.3s-1.11.78-1.65 1.19-1.24.94-1.85 1.43c-1.15 1-2.29 1.91-3.42 2.9l-1.37 1.19c-.51.43-1 .86-1.53 1.27a9.82 9.82 0 01-1 .71c-.22.14-.44.25-.66.37s-.65.35-1 .51l-2 1a.63.63 0 00-.23.87.66.66 0 00.38.29.7.7 0 00.49-.07c.73-.35 1.47-.7 2.2-1.07.33-.16.65-.33 1-.51a11.12 11.12 0 001.94-1.33c.6-.49 1.21-1 1.8-1.5l1.9-1.62c1.06-.9 2.15-1.76 3.25-2.61l1.73-1.25.79-.55c.32-.21.63-.44 1-.64.6-.37 1.21-.75 1.83-1.09.34-.19.67-.37 1-.54s.55-.26.83-.38l.5-.17.46-.17 1.32-.36c.63-.18 1.27-.33 1.91-.48l2.38-.57 1-.21c.39-.07.78-.16 1.18-.22l1.06-.15c.33 0 .65-.08 1-.1a10.2 10.2 0 011.66-.05l.28.07a.56.56 0 010 .12v.05a2.76 2.76 0 01-.08.27 5.66 5.66 0 01-.49.83 13.27 13.27 0 01-1 1.09c-.45.45-.89.91-1.36 1.35l-1.61 1.5c-.63.58-1.27 1.14-1.93 1.69-.22.16-.45.33-.68.48s-.7.46-1.06.68a.73.73 0 10.74 1.26 15 15 0 002.11-1.42c.57-.48 1.12-1 1.66-1.49l.92-.88 1.14-1.1c.39-.38.76-.78 1.14-1.17s.64-.67.93-1c.15-.2.29-.4.42-.61a6 6 0 00.37-.77 1.76 1.76 0 000-1.42 2 2 0 00-.2-.31.9.9 0 00-.26-.22 2.45 2.45 0 00-.74-.23 5.14 5.14 0 00-.88-.07h-1zm1.85 1.28zm.1.09zm-.49 1.16z"/><path class="cls-3" d="M224.89 189.24a.87.87 0 00.3 1.18c.93.64 1.84 1.29 2.74 2 .36.29.72.57 1.07.87s.91.82 1.35 1.25.85.86 1.27 1.3.61.73.91 1.1a22.23 22.23 0 011.33 2c.49.87 1 1.75 1.37 2.66a10.71 10.71 0 01.6 2 6.42 6.42 0 010 1.16 9.45 9.45 0 01-.48 1.65c-.47 1.07-1 2.1-1.6 3.13-.34.62-.68 1.23-1 1.85-.67 1.21-1.32 2.43-2 3.64-1.34 2.44-2.86 4.79-4.36 7.15s-3 4.62-4.51 6.89-3.21 4.5-4.85 6.72-3.14 4.24-4.74 6.34-3.34 4.38-5 6.59c-.64.81-1.27 1.62-2 2.4s-1.59 1.75-2.38 2.64-1.65 1.9-2.42 2.91l-2.08 2.76-.65.81c-.23.28-.49.55-.73.82-.46.51-1 1-1.43 1.48s-1 1-1.52 1.46c-.77.73-1.53 1.5-2.35 2.17a4.86 4.86 0 01-.85.5h-.08a.88.88 0 00-.48.37.79.79 0 00-.08.62.81.81 0 001 .56 6.86 6.86 0 001.09-.43 6.51 6.51 0 001-.77c.41-.33.79-.7 1.17-1.05l1.55-1.43c1-.95 2-1.92 3-2.93s1.65-1.92 2.47-2.89 1.82-2.1 2.81-3.09 2-1.93 3-2.9 1.78-1.92 2.62-2.92c1.74-2.09 3.46-4.2 5.19-6.29s3.6-4.52 5.35-6.82c.8-1.06 1.62-2.12 2.39-3.21l1.38-1.94c.36-.52.71-1.05 1.06-1.57 1.52-2.29 2.94-4.64 4.37-7 .76-1.25 1.49-2.52 2.23-3.78.33-.56.62-1.14.92-1.71s.6-1.16.89-1.75c.61-1.25 1.21-2.52 1.81-3.78.31-.64.61-1.28.91-1.93a17.18 17.18 0 001.6-4.38 7.43 7.43 0 00.09-1.41 7.18 7.18 0 00-.21-1.39 11.9 11.9 0 00-1.09-2.67c-.33-.66-.72-1.3-1.11-1.93s-.65-1-1-1.51l-.66-.86c-.27-.35-.57-.68-.87-1a14.76 14.76 0 00-1.36-1.38c-.57-.53-1.15-1-1.73-1.54s-1.24-1-1.88-1.45-1.47-1-2.2-1.55a.71.71 0 00-.41-.13.92.92 0 00-.77.44zm-22.84-1.72c-.51.59-1 1.23-1.41 1.85-.29.4-.54.83-.8 1.25-.66 1-1.32 2.1-2 3.15-.3.48-.61.95-.91 1.42s-.6 1-.89 1.45a20.56 20.56 0 00-2 4.86c-.14.49-.27 1-.39 1.49a18 18 0 00-.29 1.79c-.12 1-.18 2-.22 3s-.14 2.22-.14 3.28c0 .94-.15 1.87-.27 2.8-.08.56-.17 1.12-.23 1.68s-.13 1.17-.18 1.76a1.15 1.15 0 00.16.6 1.21 1.21 0 00.71.55 1.23 1.23 0 00.92-.12 1.12 1.12 0 00.55-.71 35.31 35.31 0 00.44-3.56c.07-1.06.13-2.13.13-3.2v-3.27c0-.55 0-1.09.05-1.63s.07-1.1.12-1.64c.12-.72.25-1.43.43-2.13.1-.39.2-.78.32-1.16.19-.59.39-1.18.62-1.76a25.73 25.73 0 011.73-3.18l1.59-2.58 1.51-2.43c.17-.29.35-.56.54-.83L203 189l.24-.27a.93.93 0 00.25-.61.86.86 0 00-.25-.61.93.93 0 00-.64-.25.76.76 0 00-.58.25zm-21.84 20.91a1 1 0 000 1.38c.45.48.9.95 1.36 1.42s.91.86 1.32 1.34a3.81 3.81 0 01.4.71 6.87 6.87 0 01.27.88 6.67 6.67 0 00.44 1.23 3.67 3.67 0 00.38.56c.19.24.38.46.59.68a10.19 10.19 0 001.43 1.18 11 11 0 002.51 1.23 1 1 0 00.77-.1 1 1 0 00.46-.6 1 1 0 00-.1-.76 1.09 1.09 0 00-.6-.46l-.26-.11a10.52 10.52 0 01-1-.45 12.51 12.51 0 01-1.25-.79 8.07 8.07 0 01-1-1 4.8 4.8 0 01-.3-.48c-.1-.29-.18-.59-.25-.88a6.65 6.65 0 00-.49-1.31 6 6 0 00-1.36-1.69c-.68-.66-1.33-1.34-2-2a.93.93 0 00-.68-.28 1 1 0 00-.7.28zm-26.06 97.89a1.41 1.41 0 00-.83.64 1.34 1.34 0 00-.14 1.07c.76 2 1.48 4 2.21 5.94.16.46.35.91.49 1.38.25.82.5 1.64.76 2.46l.69 2.28c.17.54.29 1.09.43 1.64.36 1.4.74 2.8 1.07 4.2q.64 2.73 1.28 5.47l.33 1.41c.94 0 1.88.05 2.82.1q-.56-2.79-1.22-5.55c-.34-1.4-.66-2.8-1-4.19l-.78-2.95c-.11-.41-.21-.81-.33-1.21-.34-1.09-.67-2.18-1-3.27-.17-.56-.34-1.12-.54-1.67-.82-2.26-1.65-4.53-2.51-6.78a1.46 1.46 0 00-.64-.82 1.32 1.32 0 00-.7-.19 1.42 1.42 0 00-.36 0zm-68.63-18.77a.7.7 0 00-.07.55.75.75 0 00.33.43c.49.33 1 .67 1.5 1 .24.13.49.24.74.35a4.56 4.56 0 001.16.27 6.08 6.08 0 001.7-.1.62.62 0 00.28-.17.64.64 0 00.19-.45.65.65 0 00-.64-.65 11.2 11.2 0 01-1.42 0 4.76 4.76 0 01-.82-.23 12.91 12.91 0 01-2-1.22.63.63 0 00-.34-.1.75.75 0 00-.64.36zm.38-8.67a.76.76 0 00-.42.33.7.7 0 00.26 1 21.74 21.74 0 002.8 1.11.67.67 0 00.82-.47.65.65 0 00-.06-.51.74.74 0 00-.41-.31l-.64-.25c-.6-.25-1.2-.52-1.81-.79a1 1 0 00-.36-.09h-.18zm2.39.88h.09-.09zm.64 13.78v5.17c0 .77.06 1.55.09 2.32s.06 1.34.09 2c.14 3 .29 5.94.42 8.91.06 1.47.07 2.95.09 4.43v2.05l-.09 1.26c0 .38-.07.76-.11 1.14-.1.7-.21 1.39-.32 2.09a6.76 6.76 0 00-.12 1.19 9.5 9.5 0 00.18 1.69c.1.53.23 1.06.35 1.58s.31 1.29.47 1.94.36 1.48.6 2.21c.1.35.22.69.34 1s.34.84.52 1.25a.91.91 0 001 .42.89.89 0 00.55-.42.86.86 0 00.09-.7 3.45 3.45 0 00-.14-.34l.06.13c-.52-1.24-.92-2.54-1.32-3.82l-.54-1.74c-.11-.35-.2-.71-.31-1.06a14.6 14.6 0 01-.39-1.74 6.66 6.66 0 010-1.34c0-.21 0-.43.08-.65l.09-.92c.07-.72.13-1.44.15-2.16v-2.47c0-.77 0-1.53-.06-2.3-.09-2.86-.32-5.71-.5-8.57-.1-1.54-.19-3.08-.28-4.62s-.13-3.08-.17-4.63v-3.33a.44.44 0 00-.43-.43.43.43 0 00-.43.43zm.47 27.13zm56.08 6.77h-.34a2.3 2.3 0 01-.37 0c-.34 0-.69.06-1 .08l-1.5.11c-1.67.12-3.35.22-5 .39-.88.09-1.76.17-2.64.28-1 .13-2.09.25-3.13.39l-5.38.74c-.85.12-1.71.22-2.57.36l-3.38.53c-.23 0-.48.07-.71.12l-1.44.29-1.85.39-.68.14-2.11.55c-.43.11-.85.21-1.27.33l-4.67 1.32a.87.87 0 00-.6 1.06l1.31-.11c1.06-.09 2.12-.2 3.17-.31l.47-.13c.78-.23 1.56-.43 2.34-.63s1.58-.43 2.37-.59l3.35-.69.65-.11 1.86-.29c.74-.11 1.47-.23 2.21-.33l6-.82 1.27-.17 3-.38c.89-.11 1.78-.2 2.67-.29 1.66-.18 3.33-.28 5-.44l1.27-.11.82-.09c.22 0 .44 0 .66-.05h.19l-.16.26a11.16 11.16 0 01-.91.91 15.85 15.85 0 01-1.24 1.09 42.18 42.18 0 01-3.72 2.48c.91-.09 1.81-.16 2.71-.23l.71-.05c.49-.35 1-.71 1.46-1.09a18.1 18.1 0 001.39-1.24 7 7 0 001.05-1.19 2 2 0 00.29-.7 1.64 1.64 0 00-.1-1 1.36 1.36 0 00-.54-.71 1.64 1.64 0 00-.78-.19zm-.23 1.34a.1.1 0 010 .05.1.1 0 000-.05zm-87.93-3.56a.67.67 0 00.24.91q4.71 2.55 9.41 5.07l3.79 2h2.87q-3.53-1.84-7-3.72L58.24 325a.72.72 0 00-.34-.09.66.66 0 00-.58.33zM18.16 144.46l.21.19c.19.18.36.36.54.55a.66.66 0 00-.28-.7.64.64 0 00-.35-.1h-.16z"/><path class="cls-3" d="M17.94 143.1a.82.82 0 00-.26.56.86.86 0 00.19.56 2.55 2.55 0 01.3.26l.21.19c.2.19.38.38.56.58s.49.55.73.84.45.56.67.83l.29.36a3.78 3.78 0 01.43.54l.12.12c.27.27.58.5.87.75s.7.54 1.05.8a21.49 21.49 0 001.9 1.26c.12.08.25.14.38.21s.34.2.52.29c.4.18.79.39 1.2.55s.8.3 1.2.44l1 .32 2.3.77c.33.11.67.2 1 .29s.73.19 1.1.26c1.57.31 3.15.55 4.73.8.72.11 1.45.2 2.17.29s1.49.18 2.24.25a7.19 7.19 0 00.92.05 3.79 3.79 0 00.6-.07c0 .19-.06.37-.09.55s-.07.42-.11.62c-.3 1.63-.6 3.26-1 4.85a.76.76 0 00.49.95.74.74 0 00.58-.06.75.75 0 00.28-.25.85.85 0 00.12-.38c.11-.83.17-1.66.24-2.49s.14-1.55.22-2.32c0-.37.07-.74.1-1.11v-.48a1.26 1.26 0 00-.07-.64 1 1 0 00-.23-.23 1.58 1.58 0 00-.29-.22 6.33 6.33 0 00-2.12-.76c-1.44-.25-2.9-.42-4.35-.64-1.3-.2-2.59-.39-3.88-.61-.67-.13-1.33-.29-2-.47s-1.16-.36-1.73-.54l-2-.63c-.33-.1-.66-.23-1-.34s-.51-.22-.75-.33-.69-.34-1-.53l-.66-.38c-.22-.12-.43-.27-.64-.4-.41-.26-.79-.54-1.18-.81l-.42-.34-.44-.35-.85-.81c-.13-.12-.24-.26-.37-.38l-.48-.52c-.27-.28-.52-.59-.78-.88s-.24-.31-.37-.46l-.51-.66a.75.75 0 00-.57-.26.81.81 0 00-.55.21zM34 151.94h.11H34zm129.2 97.84c-.3.44-.59.89-.9 1.32l-.43.6c-.09.12-.2.24-.3.36s-.42.47-.63.69a4 4 0 00-.76.93.82.82 0 00-.15.47 1 1 0 001.39.88 5.49 5.49 0 00.69-.5 3.88 3.88 0 00.39-.42c.29-.32.57-.66.83-1 .57-.72 1.07-1.49 1.59-2.24a1 1 0 00-.31-1.41 1 1 0 00-.54-.16 1.07 1.07 0 00-.87.47z"/><path class="cls-3" d="M160.33 253.72a.58.58 0 00.18.8c.39.21.79.43 1.2.63l1.2.6.63.33c.19.1.37.22.55.33l.55.32c.21.12.4.27.6.41.75.51 1.47 1.06 2.2 1.61s1.38 1 2.08 1.5c.44.31.88.62 1.32.95s.87.65 1.29 1 .66.56 1 .85.82.77 1.22 1.17.62.64.91 1 .36.41.53.63l.54.7-.13-.19 1 1.44c.36.54.74 1.07 1.14 1.57s.78 1 1.18 1.45.68.86 1 1.3.43.66.63 1 .5.87.79 1.3a.9.9 0 00.34.36 1 1 0 00.75.13 1 1 0 00.6-.43.94.94 0 00.13-.75 7.46 7.46 0 00-.35-.89c-.11-.22-.23-.43-.35-.64-.26-.44-.56-.86-.85-1.27-.49-.68-1-1.31-1.59-1.94-.29-.33-.59-.66-.86-1s-.6-.76-.88-1.14-.45-.62-.69-.93-.59-.77-.91-1.14a17.49 17.49 0 00-1.74-1.81c-.35-.32-.7-.64-1.07-.94s-.79-.65-1.19-1c-1.34-1-2.8-1.89-4.21-2.82l-1.82-1.21c-.31-.21-.62-.44-.94-.64l-.59-.37-.42-.27-1.08-.6c-.35-.19-.71-.35-1.06-.52l-.87-.41-1.17-.61a.61.61 0 00-.32-.08.56.56 0 00-.47.25z"/><path class="cls-3" d="M188.4 269l-.79.79c-.32.31-.64.63-1 .92s-.6.37-.89.55l-1.06.65c-.6.36-1.16.77-1.73 1.17l-.21.14a1.17 1.17 0 00-.27.42 1 1 0 00.64 1.24 1 1 0 00.76-.07c.43-.3.86-.61 1.3-.89l1.36-.83.68-.44.57-.39a7 7 0 00.63-.58c.43-.44.85-.87 1.25-1.32a1 1 0 00.3-.64.92.92 0 00-.25-.67.93.93 0 00-.69-.29.85.85 0 00-.61.24zM18.52 153.57c-.3-.32-.61-.63-.92-.93-.15-.15-.31-.27-.47-.41s-.4-.33-.6-.49-.59-.45-.9-.67l-.51-.35-.33-.22a3.68 3.68 0 00-.39-.24h-.1a2.56 2.56 0 01-.11.24c-.06.12-.11.24-.17.35s0 0 0 .05c.57.6 1.19 1.14 1.77 1.72s1.21 1.23 1.82 1.84a.67.67 0 00.44.2.59.59 0 00.45-.17.64.64 0 00.02-.92z"/><path class="cls-3" d="M16.63 143.22c-.25.88-.49 1.77-.73 2.65-.16.62-.29 1.25-.43 1.87-.07.31-.11.63-.16.95s-.1.64-.14 1c-.07.71-.15 1.42-.18 2.14a1.08 1.08 0 001 1.11 1.1 1.1 0 00.77-.28 1.17 1.17 0 00.35-.75c.17-1.1.34-2.21.53-3.31.14-.61.27-1.24.43-1.85.25-.92.5-1.85.76-2.78a1.19 1.19 0 00-.76-1.47 1.33 1.33 0 00-.34-.05 1.16 1.16 0 00-1.13.81zm30.65 73.64l-.25.19a1.13 1.13 0 00-.31.54c-.91 2.17-1.78 4.36-2.56 6.58-.71 2-1.38 4.08-2.15 6.08a10 10 0 01-1.09 1.91 9 9 0 01-1.24 1.3l-.74.63c-.54.41-1.09.82-1.67 1.19s-1.41.93-2.14 1.35-1.47.84-2.19 1.29-1.3.93-1.93 1.41a1.33 1.33 0 00-.58.74 1.29 1.29 0 00.13 1 1.26 1.26 0 001.7.45c1.25-.67 2.52-1.3 3.77-2a20.25 20.25 0 001.8-1.15c.6-.41 1.19-.86 1.77-1.3s1.2-1 1.78-1.49a12.69 12.69 0 001.37-1.47 11.71 11.71 0 00.82-1.17 11.24 11.24 0 00.72-1.48c.31-.75.56-1.53.82-2.3l.66-2c.46-1.41 1-2.8 1.45-4.19.57-1.58 1.21-3.14 1.86-4.69a1.16 1.16 0 00-.13-.94 1.23 1.23 0 00-.73-.57 1.65 1.65 0 00-.32 0 1.23 1.23 0 00-.62.17z"/><path class="cls-3" d="M31.12 239.81c-.39.25-.79.49-1.19.73-.13.08-.28.14-.41.21L29 241l.16-.07-.83.35c-.11.05-.23.08-.34.12l-.6.2c-.31.11-.64.19-1 .29-.56.17-1.13.32-1.7.46l-1.87.46-2.07.56a.79.79 0 00.42 1.53c1.56-.38 3.09-.85 4.61-1.34.68-.22 1.37-.44 2-.69.41-.16.83-.31 1.24-.5l.6-.27a5.21 5.21 0 00.52-.28c.54-.29 1.08-.61 1.59-1a.64.64 0 00-.33-1.19.59.59 0 00-.31.09zm-2.8 1.49zm-.07 0zm-.05 0h-.06.06zm12.2-26.9l-.39.7a12.27 12.27 0 00-.56 1.23c-.12.28-.21.58-.32.86-.2.55-.36 1.12-.53 1.68s-.31 1-.49 1.49-.37 1-.57 1.49l-.36.75a9.38 9.38 0 01-1 1.61 24.77 24.77 0 01-4 3.69c-1.15.83-2.3 1.66-3.43 2.51l-.24.19a1.15 1.15 0 00-.31.52 1.18 1.18 0 001.8 1.33c.57-.31 1.13-.64 1.67-1s1.16-.79 1.73-1.21 1.15-.91 1.72-1.38 1-.84 1.4-1.28a15.48 15.48 0 001.89-2.23 9.2 9.2 0 001-1.84c.13-.3.26-.6.37-.9.25-.65.47-1.31.69-2s.34-1.2.5-1.8.37-1.22.58-1.82a1.8 1.8 0 01.08-.21 14.14 14.14 0 01.69-1.34 1.07 1.07 0 00-.38-1.45 1 1 0 00-.53-.14 1.09 1.09 0 00-.92.52z"/><path class="cls-3" d="M41.08 216.58a.85.85 0 00-.26.62c.27 2.27.51 4.55.86 6.82a.82.82 0 00.8.6.78.78 0 00.58-.24.76.76 0 00.24-.58c-.25-2.2-.48-4.4-.73-6.6a1 1 0 00-.26-.62.86.86 0 00-.61-.25.89.89 0 00-.62.25zm33.67 87.17l.24-.81-.24.81zm-41.13-66.2c-.37.35-.74.71-1.14 1a7.52 7.52 0 01-1 .61l-.81.4a25.83 25.83 0 01-2.7.89l-1.43.39c-.5.13-1 .24-1.5.4s-.9.29-1.36.42-1 .25-1.5.35-.9.15-1.35.25-.83.18-1.26.25a13.51 13.51 0 00-2.18.41 1.43 1.43 0 00.38 2.8 14.69 14.69 0 002-.15c.64-.07 1.27-.18 1.9-.29s1.07-.1 1.61-.2a13.07 13.07 0 001.63-.44c.54-.18 1.07-.4 1.61-.58l.75-.23c.36-.13.71-.27 1.06-.43.53-.24 1-.51 1.55-.76s1-.49 1.53-.75a16 16 0 001.46-.82 11.63 11.63 0 001.5-1.11c.3-.26.58-.53.87-.81a1.16 1.16 0 000-1.64 1.09 1.09 0 00-.81-.33 1.2 1.2 0 00-.83.33zm45.65-27.83a.78.78 0 00-.52.25.76.76 0 00-.19.55c0 .75-.06 1.49-.1 2.24s-.14 1.42-.21 2.12-.16 1.66-.27 2.48c-.2 1.64-.37 3.27-.57 4.9s-.39 3.25-.57 4.88c0 .42-.1.83-.14 1.25s-.06.72-.09 1.08c-.07.88-.14 1.75-.2 2.63-.1 1.68-.2 3.37-.26 5.06a.72.72 0 00.76.67.72.72 0 00.49-.24.8.8 0 00.18-.52c.06-1.25.15-2.51.24-3.77.06-.76.11-1.52.17-2.28v.21l.24-2.51c0-.35.08-.69.12-1 .07-.54.13-1.08.2-1.62.18-1.55.38-3.1.56-4.64.1-.85.2-1.7.29-2.55s.18-1.53.26-2.3.12-1.53.2-2.29.15-1.75.19-2.63v-1.22a.75.75 0 00-.26-.52.74.74 0 00-.5-.19zm-1.45 23.67zm6.75 6.89a.68.68 0 00-.43.83 8.31 8.31 0 00-.3 1.29 4.11 4.11 0 000 1.4 1.59 1.59 0 00.21.48.84.84 0 00.23.23l.13.09a1.21 1.21 0 00.25.08 1 1 0 00.38 0 1.42 1.42 0 00.69-.32 3.45 3.45 0 00.28-.26 2.73 2.73 0 00.33-.43 2.42 2.42 0 00.37-.64 2.78 2.78 0 00.12-.38v-.4a2.39 2.39 0 00-.1-.71 2.18 2.18 0 00-.22-.57 2.25 2.25 0 00-.47-.55 1.2 1.2 0 00-.77-.29h-.06a2.08 2.08 0 00-.69.15zm.77 1.37l.07.11c0 .11.08.22.11.33a2.64 2.64 0 010 .28 1.85 1.85 0 010 .23 3.62 3.62 0 01-.2.33 2.56 2.56 0 01-.2.26v-.37a9.72 9.72 0 01.24-1.17zm-.08 1.35zm-.48.4zm2.45-121.08a.86.86 0 00-.3.61c0 .49.07 1 .15 1.45a8.93 8.93 0 00.42 1.45 11.75 11.75 0 00.89 1.86c.36.63.77 1.24 1.17 1.85a11.68 11.68 0 003.44 3.81 1 1 0 001.26-1.47c-.33-.32-.66-.65-1-1s-.73-.7-1.07-1.07a22.13 22.13 0 01-1.62-2.13c-.18-.27-.36-.53-.52-.81l-.35-.57a8.9 8.9 0 01-.58-1.25 8 8 0 01-.4-1.81v-.25a1 1 0 00-.22-.65.91.91 0 00-.62-.29h-.05a.88.88 0 00-.59.23z"/><path class="cls-3" d="M111.16 121.68c-.51.45-1 .93-1.48 1.39s-1 .91-1.47 1.36c-.92.83-1.79 1.72-2.77 2.48l-.28.2c-.52.35-1 .67-1.59 1s-1.12.6-1.69.88l-.79.36-.84.39c-.57.27-1.15.55-1.73.81l-1 .42c-.29.12-.59.22-.88.33l-2.12.74a.57.57 0 00-.32.23.51.51 0 00-.07.4.49.49 0 00.22.32.53.53 0 00.4.08l2.16-.75c.65-.23 1.27-.49 1.9-.75s1.11-.5 1.67-.76l1.8-.8c.55-.24 1.1-.51 1.63-.8s1.12-.62 1.66-1c.3-.19.6-.4.89-.62s.46-.38.68-.57c.46-.4.9-.82 1.35-1.23l1.67-1.5c.61-.56 1.21-1.12 1.83-1.67a.66.66 0 000-.92.63.63 0 00-.48-.21.59.59 0 00-.43.17zm-10.96 21.91v.07zm.01-.03v.01h-.01l.01-.01z"/><path class="cls-3" d="M104.06 146.84l-.3-.36c-.24-.38-.44-.78-.66-1.16s-.35-.62-.54-.92c-.37-.61-.77-1.2-1.16-1.78-.77-1.12-1.5-2.26-2.27-3.37l.06.1-.76-1.15c-.23-.36-.45-.73-.67-1.1s-.51-.8-.77-1.19c-.13-.19-.26-.37-.41-.55s-.21-.23-.32-.34l-.37-.37a3.94 3.94 0 00-.68-.54 1.54 1.54 0 00-.46-.19.46.46 0 00-.32-.79.52.52 0 00-.32.11c-1 .84-2 1.75-2.91 2.67l-.8.77c-.26.26-.51.53-.76.8-.45.47-.88 1-1.3 1.46-.75.89-1.44 1.82-2.13 2.75-.31.44-.63.87-1 1.29s-.72.89-1.09 1.33a1.19 1.19 0 00-.21.29.46.46 0 00-.09.23.69.69 0 000 .25.85.85 0 00.2.57 1 1 0 00.64.27.72.72 0 00.72-.49.74.74 0 000-.39c.07-.1.14-.19.2-.29l.27-.38.59-.85.57-.85c0 .47-.09.93-.12 1.39a8.85 8.85 0 000 1.36q0 .39.09.78a5.25 5.25 0 00.23.74 6 6 0 00.46.87c.2.36.42.71.62 1.07s.39.7.58 1.05.41.72.64 1.07l-.15.11-.5.38c-.37.31-.73.62-1.07 1-.62.61-1.2 1.25-1.78 1.9a7.9 7.9 0 00-.87 1.13c-.21.36-.41.73-.6 1.1s-.36.72-.54 1.08-.47.79-.65 1.21a9 9 0 00-.43 1.45c-.15.57-.29 1.14-.43 1.72a20.12 20.12 0 00-.41 3.56.93.93 0 000 .24 17.57 17.57 0 00-.23 6.44 2.72 2.72 0 001.53 1.95 3.25 3.25 0 000 1.61 3 3 0 00.15.42 4 4 0 00-.24 2.9 4.4 4.4 0 00.76 1.26 5.88 5.88 0 00-.54 4.08 2.93 2.93 0 001.44 2 .59.59 0 000 .19 9.54 9.54 0 00.49 2.71 1 1 0 001.91-.26c0-.81.07-1.63.1-2.44a3.19 3.19 0 002.4-3.56l.06-.13c.14-.24.27-.48.4-.72a15.17 15.17 0 00.71-1.72A10.35 10.35 0 0192 178a3 3 0 00.21-2.76l.44-.4a3 3 0 00.85-2.52 18.63 18.63 0 004-4.49A8.37 8.37 0 0099 164a.81.81 0 00.62.11.82.82 0 00.62-1c-.19-.94-.34-1.88-.6-2.8s-.42-1.71-.63-2.57-.49-1.77-.76-2.64-.56-1.82-.87-2.73l-.34-1a5 5 0 00-.23-.53 3.74 3.74 0 00-.42-.69 9.86 9.86 0 00.73-1.09l.66-1.1c.43-.71.88-1.39 1.26-2.12s.79-1.54 1.17-2.32c.09.16.19.32.29.48.29.49.56 1 .8 1.5l.4.87.29.6a4 4 0 00.78 1 .86.86 0 001.22.07.88.88 0 00.07-1.2z"/><path class="cls-4" d="M248.54 1a86.15 86.15 0 00-67.69 139.48l-8.55 19.73a2.44 2.44 0 002.24 3.4 2.5 2.5 0 001-.2l19.74-8.54A86.16 86.16 0 10248.54 1z"/><path d="M248.54 1a86.15 86.15 0 00-67.69 139.48l-8.55 19.73a2.44 2.44 0 002.24 3.4 2.5 2.5 0 001-.2l19.74-8.54A86.16 86.16 0 10248.54 1z" stroke="#006795" stroke-width="2" fill="none"/><path class="cls-3" d="M230.74 68a1 1 0 011.08-.86 1 1 0 011.08 1 1.14 1.14 0 010 .26c-.16.76-.36 1.56-.58 2.36l1.76-.3a.9.9 0 01.22 0 1 1 0 01.14 2.08c-.86.18-1.84.34-2.82.48a36.75 36.75 0 01-3.08 6.74 1.32 1.32 0 01-1.12.72 1.09 1.09 0 01-1.12-1.06 1.25 1.25 0 01.22-.7 30.65 30.65 0 002.7-5.44c-.74.08-1.46.12-2.08.14a1 1 0 01-1-1.1 1 1 0 011-1c.9 0 1.9-.1 2.92-.2.2-1.12.48-2.12.68-3.12zm3.58 16.76c-2.38 0-3.82-1-3.82-2.9 0-1.6 1.36-2.92 3.92-2.92a8.91 8.91 0 011 .06 14.55 14.55 0 01-.2-2.12 10.86 10.86 0 01.14-1.94 1 1 0 011-.8 1 1 0 011.12.92v.16a11.63 11.63 0 00-.15 1.64 16.34 16.34 0 00.28 2.6 13.84 13.84 0 013.77 1.74 1.12 1.12 0 01.54.94 1.1 1.1 0 01-1.06 1.1 1.27 1.27 0 01-.68-.24 12.4 12.4 0 00-2.28-1.28c-.01 2.22-1.66 3.02-3.58 3.02zm1.42-3.26a4 4 0 000-.5 7 7 0 00-1.26-.12c-1.4 0-1.84.44-1.84 1s.4.92 1.7.92c.9-.04 1.4-.44 1.4-1.32zm6.17-9.34a1.24 1.24 0 01.66 1 1.1 1.1 0 01-1.06 1.1 1.16 1.16 0 01-.6-.18 19.54 19.54 0 00-2.86-1.38 1 1 0 01-.73-.9 1.13 1.13 0 011.15-1.1 1.24 1.24 0 01.37.06 12.56 12.56 0 013.07 1.38zM248 77a9.38 9.38 0 015.8-2.14c3.15 0 5.09 1.72 5.09 4 0 3.08-2.54 5.28-7.37 5.84h-.18a1.09 1.09 0 01-.08-2.18c3.93-.46 5.29-1.94 5.29-3.66 0-1-.82-2-2.75-2a8.48 8.48 0 00-6.2 3 1.3 1.3 0 01-1 .48 1.15 1.15 0 01-1.18-1.16 1 1 0 010-.24c.2-1.48.68-4.1 1.26-6.84a1.07 1.07 0 011.1-.84 1 1 0 011.14.94.68.68 0 010 .2c-.38 1.86-.72 3.38-.94 4.54zm6.12-8.18a1.21 1.21 0 01.7 1.1 1.07 1.07 0 01-1.06 1.1 1.44 1.44 0 01-.6-.14 29 29 0 00-3.26-1.24 1 1 0 01-.76-1 1.18 1.18 0 011.18-1.16 2.23 2.23 0 01.34 0 16.38 16.38 0 013.48 1.36zm7.1 11.96a1.07 1.07 0 011.08-1 1.43 1.43 0 01.7.22 16 16 0 013.58 3.16 1.46 1.46 0 01.36.92 1.14 1.14 0 01-1.16 1.12 1.22 1.22 0 01-1-.5 19.46 19.46 0 00-3.12-3.06 1 1 0 01-.44-.86zm-60.78 16.31c-2.22.48-3.46.68-4.24.78h-.14a1 1 0 01-1-1.08 1 1 0 01.88-1 50.94 50.94 0 005.86-1 1.57 1.57 0 01.42 0 1.33 1.33 0 011.43 1.21 1.49 1.49 0 01-.36.92 25.16 25.16 0 01-4.91 4.62c2.52-.56 4.89-1 8.21-1.72a1 1 0 01.24 0 1 1 0 01.18 2.08 15.85 15.85 0 00-3.42 1.06c-2.09 1-2.79 2.58-2.79 3.83s.92 2.2 3.63 2.3a1.08 1.08 0 011.1 1.08 1.1 1.1 0 01-1.2 1.12c-3.63-.06-5.77-1.72-5.77-4.32a4.93 4.93 0 011.84-3.89c-1.64.38-3.2.76-5 1.2-.7.18-1.36.36-2 .57a1.33 1.33 0 01-.38 0 1.12 1.12 0 01-.28-2.2 14.61 14.61 0 003.12-1.54 26.94 26.94 0 004.64-4zm10.1 7.26c0-4.56 3.78-8.3 9.28-8.3 4.89 0 7.71 3.06 7.71 7a7.49 7.49 0 01-5.58 7.39 1.39 1.39 0 01-.46.08 1.12 1.12 0 01-1.13-1.14 1.15 1.15 0 01.84-1.1c2.85-1 4-2.75 4-5.23a4.89 4.89 0 00-4.83-5 20 20 0 01-2.26 8.5c-1.1 2-2.28 2.53-3.82 2.53-2.05.04-3.75-1.6-3.75-4.73zm2.3 0c0 1.85.72 2.53 1.44 2.53s1.16-.33 1.74-1.35a18.09 18.09 0 002-7.3 6.34 6.34 0 00-5.18 6.12zm24.16-1.78a13.47 13.47 0 013.42-.4c3.21 0 5.23 1.48 5.23 4s-1.65 4.21-4.65 4.63a.75.75 0 01-.22 0 1.06 1.06 0 01-.14-2.12c2-.34 2.75-1.22 2.75-2.52 0-1.11-1-2-2.93-2a11.81 11.81 0 00-3.44.51v3.57c0 2.08-.9 2.84-2.76 2.84s-3.74-1.38-3.74-3.12c0-1.46.84-3.07 4.34-4.69v-3.38c-1 .1-2 .16-2.76.18a1 1 0 010-2.06c.8 0 1.76-.08 2.76-.2v-3a1.09 1.09 0 012.16 0v2.74c.68-.12 1.34-.24 1.9-.38a1.11 1.11 0 01.36 0 1 1 0 011.06 1 1 1 0 01-.84 1c-.74.18-1.58.36-2.48.5zm-2.16 2.9c-1.74 1-2.1 1.65-2.1 2.43s.72 1.06 1.46 1c.58 0 .64-.38.64-.88zm11.61-6.88a1.24 1.24 0 01.46.94 1.17 1.17 0 01-1.16 1.14 1.22 1.22 0 01-.82-.34 15.39 15.39 0 00-2.42-1.74 1 1 0 01-.56-.9 1.2 1.2 0 011.14-1.18 1.09 1.09 0 01.54.14 15 15 0 012.86 1.94zm3.47-.66a.77.77 0 01.8.76 14.16 14.16 0 01-.54 3 .81.81 0 01-.8.62.74.74 0 01-.78-.72 1.35 1.35 0 010-.28 16.14 16.14 0 00.54-2.7.73.73 0 01.78-.68zm3.18 13.47a1.09 1.09 0 01-2.14 0v-17a1.09 1.09 0 012.14 0zm2.1-11.53v.13a.78.78 0 01-.8.8.7.7 0 01-.7-.64 14.21 14.21 0 00-.38-1.8 1.17 1.17 0 010-.26.69.69 0 01.72-.66.77.77 0 01.74.56 11.46 11.46 0 01.42 1.87zm3.32-1.66a1.58 1.58 0 01.12.58 1.06 1.06 0 01-1.08 1.06 1.22 1.22 0 01-1.1-.82 16.69 16.69 0 00-1.26-2.44 1.07 1.07 0 01-.2-.6 1 1 0 011.08-1 1.15 1.15 0 01.94.52 15.92 15.92 0 011.5 2.7zm-.78 13.25c-1.92 0-2.62-.6-2.62-2.24V103a1.1 1.1 0 012.16 0v5.93c0 .46.24.64.66.64h5.81c.42 0 .66-.18.66-.64v-5.77a1.1 1.1 0 012.16 0v6.09c0 1.64-.7 2.24-2.62 2.24zm5.81-4.72a1.17 1.17 0 01.34.78 1 1 0 01-1 1 1 1 0 01-.78-.38c-.29-.34-.6-.68-.94-1a16.62 16.62 0 01-1.75 1.72 1.17 1.17 0 01-.72.3 1 1 0 01-.94-.94 1 1 0 01.4-.78 13.89 13.89 0 001.6-1.64c-.42-.36-.84-.69-1.22-1a1 1 0 01-.48-.8 1 1 0 011-.94 1 1 0 01.56.18 12.43 12.43 0 011.33 1 17.11 17.11 0 001-1.75 1 1 0 01.94-.62.94.94 0 011 .9 1.05 1.05 0 01-.12.46 17.48 17.48 0 01-1.36 2.32c.4.37.78.77 1.14 1.19zM262 97.57a1.11 1.11 0 01.08.42 1.1 1.1 0 01-1.08 1.08 1 1 0 01-1-.76 19.92 19.92 0 00-1.16-2.7 1.07 1.07 0 01-.14-.52 1 1 0 011-.9 1.13 1.13 0 011 .56 15 15 0 011.3 2.82zm2.24 3a1.12 1.12 0 01-1 .58 1 1 0 01-1.08-1 1.19 1.19 0 01.2-.64 20.16 20.16 0 002.1-4.52 1 1 0 011-.72 1.08 1.08 0 011.12 1 1.21 1.21 0 01-.08.44 24.32 24.32 0 01-2.27 4.9zM276.22 95a3 3 0 01.6 0 1.71 1.71 0 011.94 1.76 2.2 2.2 0 010 .5 39.24 39.24 0 01-1.06 4.34 22.1 22.1 0 013.91 1 20 20 0 00.38-3 1 1 0 011.12-.94 1.08 1.08 0 011.16 1.06 17.56 17.56 0 01-.54 3.8 23.59 23.59 0 012.94 1.62 1.2 1.2 0 01-.56 2.21 1.25 1.25 0 01-.7-.22 22.5 22.5 0 00-2.36-1.38 13.86 13.86 0 01-3.21 5.1 1.37 1.37 0 01-1 .46 1.14 1.14 0 01-1.12-1.12 1.1 1.1 0 01.34-.78 12.36 12.36 0 002.91-4.63 18.73 18.73 0 00-3.95-1.12 28.64 28.64 0 01-1.24 2.87c-1 2-2.06 2.66-3.5 2.66-1.66 0-2.88-1.08-2.88-3.14 0-2.51 2.26-4.57 5.6-4.57h.46a23.28 23.28 0 00.94-3.88v-.16c0-.04-.12-.2-.4-.16l-2.8.46a.9.9 0 01-.22 0 1 1 0 01-1-1.08 1 1 0 01.94-1.06zm-2.5 10.71a22.27 22.27 0 001-2.33c-2.08 0-3.18 1.2-3.18 2.47 0 .71.32 1 .72 1 .6.07.92-.11 1.46-1.11zm22.08-8.04h.14c.78 0 1.45 0 2.07-.1h.1a1 1 0 011 1.06 1 1 0 01-.86 1 21.39 21.39 0 01-2.23.1h-.56c-.12.94-.28 1.86-.42 2.8h.32a19.4 19.4 0 003.15-.26.68.68 0 01.2 0 1 1 0 011 1.06 1 1 0 01-.86 1.06 18.89 18.89 0 01-3.49.33h-.56c-.06.7-.08 1.25-.08 1.74 0 2.16.9 2.9 2.66 2.9 2.21 0 3.39-.78 3.39-2.77a5.51 5.51 0 00-.24-1.48 1.54 1.54 0 010-.3 1.05 1.05 0 011.14-1 1.18 1.18 0 011.18.87 6 6 0 01.3 1.83c0 3.43-2.32 5.09-5.69 5.09-3.12 0-5-1.6-5-5a19.31 19.31 0 01.1-2 16.15 16.15 0 01-2.4-.4 1.09 1.09 0 01-.84-1.08 1 1 0 011-1.1 1.11 1.11 0 01.36 0 16.34 16.34 0 002.12.38c.12-.94.26-1.86.42-2.8a14.56 14.56 0 01-2.1-.32 1 1 0 01-.86-1 1 1 0 011-1.08 1 1 0 01.24 0 18.63 18.63 0 002.06.32l.5-2.88a1.07 1.07 0 011.14-.84 1 1 0 011.12.94.75.75 0 010 .2zm-96.33 25.74h4.57a1 1 0 011 1.08 1 1 0 01-1 1h-4.55q0 1.05.06 2.1c1.32-.08 2.61-.18 3.77-.32h.16a1 1 0 011.06 1 1.06 1.06 0 01-1 1.06c-1.22.16-2.54.26-3.88.34 0 .88.12 1.76.2 2.64a18.45 18.45 0 015 2.18 1.28 1.28 0 01.68 1.08 1.18 1.18 0 01-1.86 1 19 19 0 00-3.71-1.92v.14c0 2.16-1.88 3.2-4.2 3.2-2.54 0-4.1-1.22-4.1-3.08s1.44-3.08 4.3-3.08a15 15 0 011.62.1c-.06-.72-.14-1.44-.16-2.14h-1.14c-1.2 0-2.42 0-3.12-.12a1 1 0 01-1-1.06 1 1 0 011-1.06h.14a27.62 27.62 0 002.88.14h1.08c0-.72-.06-1.42-.08-2.14-1.7 0-3.36.1-4.76.16a1.06 1.06 0 010-2.12c1.4-.06 3.06-.14 4.76-.16v-2c0-.6.56-.9 1.12-.9a1 1 0 011.1.9zm-1.64 11.08v-.44a9.31 9.31 0 00-1.8-.18c-1.56 0-2 .48-2 1.08s.52 1 1.82 1 1.98-.62 1.98-1.46zm16.1-6.12a6.91 6.91 0 012.54-.5c3.13 0 5.17 1.7 5.17 4.48 0 3.5-2.52 5.74-6.43 5.74-2.74 0-4.48-1.4-4.48-3.18a2.49 2.49 0 012.78-2.56c1.92 0 3.26 1.28 3.85 3.28a3.43 3.43 0 001.94-3.26c0-1.42-1.12-2.56-3.05-2.56s-4 .7-6.44 2.6a1.39 1.39 0 01-.84.32 1.13 1.13 0 01-1.12-1.1 1.18 1.18 0 01.5-.94 45 45 0 006.76-6.76c-1 .16-2.28.3-3.28.38-.08 0-.6.06-.86.06a1 1 0 01-1-1.08 1 1 0 011-1c1.62-.08 3.74-.34 5.66-.64a1.37 1.37 0 01.28 0 1.3 1.3 0 011.39 1.26 1.59 1.59 0 01-.36.94 45.31 45.31 0 01-4 4.52zm1.32 7.72c-.34-1.28-.94-2-1.78-2a.73.73 0 00-.72.78c0 .66.76 1.18 2.34 1.18zm22.93-4.5c0 3.12-2.35 5.32-6.83 6a.68.68 0 01-.2 0 1 1 0 01-.1-1.92c3.8-.66 5.11-1.94 5.11-4.06 0-1.28-.93-2.28-2.91-2.28a19.63 19.63 0 00-7.58 2 1 1 0 01-.48.1.94.94 0 01-.94-.94 1 1 0 01.68-.94 21.8 21.8 0 018.32-2c2.93-.06 4.93 1.52 4.93 4.04zm6.39-9.68a1.16 1.16 0 012.32 0 35 35 0 00.46 5.86 27.51 27.51 0 014-1.56 1.13 1.13 0 01.36-.06 1.09 1.09 0 011 1.12 1 1 0 01-.74 1 23.87 23.87 0 00-5.27 2.32c-1.72 1.12-2.32 2.22-2.32 3.24 0 1.24.82 1.88 4 1.88a22 22 0 004.15-.36 1.23 1.23 0 01.26 0 1.05 1.05 0 011.08 1.1 1.1 1.1 0 01-.9 1.12 23.16 23.16 0 01-4.61.38c-4.2 0-6.3-1.28-6.3-4 0-1.64.76-3.26 3.26-5a31.86 31.86 0 01-.75-7.04zm18.18 3.28c1.4 0 2 .52 2 1.86V137c0 1.3-.76 1.84-2 1.84a6.35 6.35 0 01-1.14-.08 1 1 0 010-1.94h.16a4.87 4.87 0 00.76.06c.22 0 .32-.08.32-.34v-3h-3.78a14.9 14.9 0 01-1.06 4.72 1.07 1.07 0 01-1 .68.92.92 0 01-1-.88 1.21 1.21 0 01.12-.48 17.13 17.13 0 001.18-7.1v-3.46a2.2 2.2 0 01.16-.94 1.08 1.08 0 01-.62.2.93.93 0 01-1-.84 1 1 0 01.3-.7 16.17 16.17 0 002.38-3.92.9.9 0 01.86-.56.92.92 0 011 .82 1 1 0 01-.06.34c-.1.28-.24.56-.36.84h1.1c1 0 1.48.56 1.48 1.2a1.34 1.34 0 01-.08.48 8.29 8.29 0 01-.5 1.22zm-2.64 0a5.91 5.91 0 00.48-1 .22.22 0 000-.1q0-.18-.3-.18h-1.06q-.51.81-1.08 1.56a2.81 2.81 0 011.28-.24zm.14 6.7v-1.8h-1v1.8zm-.68-5.08c-.26 0-.32.08-.32.38v1.3h1v-1.68zm3.38.38c0-.3-.06-.38-.32-.38h-.74v1.68H263zm0 2.9h-1.06v1.8H263zm6.77-7.1a7.34 7.34 0 01-3 4.52 1.13 1.13 0 01-.66.22 1 1 0 01-1-.94 1.06 1.06 0 01.52-.88 5.18 5.18 0 002.11-2.92H266a.82.82 0 01-.78-.9.81.81 0 01.78-.9h5.89c1.46 0 2.06.58 2.06 1.56a9.92 9.92 0 01-.42 2.58 2 2 0 01-2.28 1.68 7.68 7.68 0 01-1.1-.08 1 1 0 01-.88-1 .9.9 0 01.92-.92h.18a5.51 5.51 0 00.68.06c.28 0 .42-.08.54-.4a4.75 4.75 0 00.3-1.44c0-.26-.1-.3-.56-.3zm-.58 6.54v-1.36c0-.54.52-.82 1-.82s1 .28 1 .82v1.36h2.26a.9.9 0 010 1.76h-2.26V133h2.88c.48 0 .72.44.72.9s-.24.9-.72.9h-2.88v3.48c0 .54-.52.82-1 .82s-1-.28-1-.82v-3.48h-3.07a.82.82 0 01-.74-.9.81.81 0 01.74-.9h3.07v-1.66h-1.59a8 8 0 01-.37.72 1.08 1.08 0 01-.95.56.86.86 0 01-.92-.82 1.18 1.18 0 01.2-.62 10.38 10.38 0 001.1-2.64.9.9 0 01.9-.66.89.89 0 01.95.82 1 1 0 010 .24l-.18.64zm10.71-2.2a1.19 1.19 0 01.36.82 1.12 1.12 0 01-1.12 1.08 1 1 0 01-.76-.34 19.83 19.83 0 00-1.76-1.58 1 1 0 01-.42-.76 1.1 1.1 0 011.12-1 1.25 1.25 0 01.7.22 11.75 11.75 0 011.88 1.56zm.44 3.9a1.12 1.12 0 011.18 1 1 1 0 01-.06.34 21.79 21.79 0 01-2.44 5.22 1.27 1.27 0 01-1.08.62 1.07 1.07 0 01-1.12-1 1.19 1.19 0 01.22-.68 21.75 21.75 0 002.3-4.84 1 1 0 011-.66zm1-8.68a1.19 1.19 0 01.36.82 1.05 1.05 0 01-1.86.68 21.39 21.39 0 00-1.66-1.52 1 1 0 01-.4-.76 1.06 1.06 0 011.1-1 1.23 1.23 0 01.7.24 12.62 12.62 0 011.72 1.54zm7.73 8.52a11.43 11.43 0 004.8 5.26 1.17 1.17 0 01.66 1 1.18 1.18 0 01-1.14 1.16 1.11 1.11 0 01-.58-.16 13 13 0 01-5.15-5.84 10.78 10.78 0 01-5.36 6.1 1.07 1.07 0 01-.52.14 1 1 0 01-.42-2 8.55 8.55 0 004.48-5.72h-3.44a.86.86 0 01-.8-.94.85.85 0 01.8-.94h3.76a16.41 16.41 0 00.1-2v-1.14h-2.88a1 1 0 010-1.9h2.88v-2.88a1.1 1.1 0 012.17 0v2.88h1.84c1.7 0 2.48.76 2.48 2.2v2.82h1.16a.84.84 0 01.8.94.85.85 0 01-.8.94zm1.56-1.88v-2.52c0-.48-.16-.6-.64-.6h-1.56v1.26c0 .62 0 1.24-.08 1.86zm11.27 6.81a1.52 1.52 0 01-3 0 1.52 1.52 0 013 0zm-2.94-13.08a1.42 1.42 0 012.84 0c0 .54-.12 1.74-.16 2.32-.14 1.94-.28 4.9-.34 7.12a.86.86 0 01-.94.84.83.83 0 01-.9-.84c-.08-2.2-.2-5.16-.34-7.12-.02-.35-.16-1.77-.16-2.31zm-55.53-62.99a.36.36 0 01-.51-.06l-5.1-6.56a4.57 4.57 0 01.06-5.66l5-6.33a.37.37 0 01.51-.06l1.32 1.05a.37.37 0 01.06.51l-5 6.33a2.18 2.18 0 000 2.69l5.1 6.55a.37.37 0 01-.07.51z"/><rect class="cls-3" x="232.68" y="42.52" width="2.41" height="16.16" rx=".36"/><path class="cls-3" d="M256.84 58.67h-.79a5.4 5.4 0 01-5.4-5.4V42.88a.36.36 0 01.36-.36h1.69a.36.36 0 01.36.36v10.39a3 3 0 003 3h.79a3 3 0 003-3V42.88a.36.36 0 01.36-.36h1.68a.37.37 0 01.37.36v10.39a5.41 5.41 0 01-5.42 5.4zm22.16 0h-5.21a5.76 5.76 0 01-5.79-5.76v-4.63a5.76 5.76 0 015.76-5.76H279a.37.37 0 01.37.36v1.68a.38.38 0 01-.37.37h-5.21a3.35 3.35 0 00-3.35 3.35v4.63a3.35 3.35 0 003.35 3.35H279a.37.37 0 01.37.36v1.69a.37.37 0 01-.37.36z"/><rect class="cls-3" x="272.3" y="49.39" width="6.18" height="2.41" rx=".36"/><path class="cls-3" d="M224 54.58h-5.17a.36.36 0 01-.34-.47l.54-1.69a.36.36 0 01.34-.25H224zm-21.75-2.68H201a.48.48 0 00-.42.72l3.3 5.87a.38.38 0 00.32.18h1.94a.36.36 0 00.31-.54l-2.37-4.2a4.74 4.74 0 002.92-4.35v-2.15a4.82 4.82 0 00-4.82-4.82h-5.47a1.21 1.21 0 00-1.21 1.21v14.49a.37.37 0 00.37.36h1.68a.36.36 0 00.36-.36V45.5a.49.49 0 01.49-.48h3.78a2.41 2.41 0 012.41 2.41v2.15a2.32 2.32 0 01-2.34 2.32z"/><path class="cls-3" d="M226.4 58.67a.36.36 0 00.34-.47l-4.24-13.55a3 3 0 00-5.77 0l-4.37 13.55a.36.36 0 00.34.47h1.78a.36.36 0 00.34-.25L219 45.37a.6.6 0 01.58-.43.61.61 0 01.59.43l4.09 13.05a.35.35 0 00.34.25zm54.78-.94a.94.94 0 11.94.94.93.93 0 01-.94-.94zm1.73 0a.79.79 0 10-.79.8.77.77 0 00.79-.8zm-1.1.52v-1h.39a.3.3 0 01.33.31.28.28 0 01-.21.29l.21.4h-.09l-.21-.4H282v.38h-.05zm.57-.74c0-.1-.06-.17-.19-.17h-.26v.31h.25c.14.02.2-.04.2-.14z"/><rect class="cls-3" x="287.88" y="48.78" width="13.7" height="3.64" rx=".36"/><rect class="cls-3" x="292.91" y="43.74" width="3.64" height="13.7" rx=".36"/><circle class="cls-3" cx="269.72" cy="354.99" r="50"/><path class="cls-4" d="M257.44 359c.56 0 1.1.3 1.1.88v.16c-.46 3.4-2.84 5.78-6.22 6.88a1.49 1.49 0 01-.4.06 1 1 0 01-.28-2c2.94-1 4.34-2.68 4.7-5.14a1 1 0 011.1-.84zm8.24-2.74c2 0 2.66.6 2.66 2.14v1.3a1 1 0 01-1.1.92 1 1 0 01-1.1-.92v-1c0-.48-.12-.66-.74-.66h-11.34c-.62 0-.76.18-.76.66v1.08a1 1 0 01-1.1.92 1 1 0 01-1.1-.92v-1.38c0-1.54.7-2.16 2.66-2.16zm-7.08-4.06h-6.68a.84.84 0 01-.8-.9.83.83 0 01.8-.9h6.68v-1c0-.58.56-.86 1.1-.86s1.1.28 1.1.86v1h6.88a.83.83 0 01.82.9.84.84 0 01-.82.9h-6.88v1.16h4.8a.83.83 0 01.82.9.84.84 0 01-.82.9h-11.48a.84.84 0 01-.8-.9.83.83 0 01.8-.9h4.48zm2.14 7.66a1.09 1.09 0 012.14 0v4.42c0 .46.2.6 1.58.6 1.58 0 2-.18 2.1-1.34a1 1 0 011-.84 1 1 0 011.06.94v.12c-.24 2.28-1.24 2.92-4.26 2.92s-3.66-.54-3.66-2.06zm25.4-4.17a1.05 1.05 0 010 2.08h-5.58V364h7.22a1.05 1.05 0 010 2.08h-16.16a1.05 1.05 0 010-2.08h6.66v-14c0-.58.58-.88 1.14-.88s1.14.3 1.14.88v5.74zm-28.87 17.08c1.76 0 2.62.76 2.62 1.82a2.94 2.94 0 01-.52 1.52 14.9 14.9 0 01-3.18 3.48 1.39 1.39 0 01-.84.32 1.09 1.09 0 01-1.08-1.1 1.31 1.31 0 01.56-1 10.38 10.38 0 002.1-2.22.63.63 0 00.14-.36c0-.16-.14-.24-.46-.24l-11.36.08a1 1 0 01-1.06-1.1 1 1 0 011.06-1.1zm-6.64 4.68a1.17 1.17 0 012.32 0v.94a10.47 10.47 0 01-5.28 9.48 1.47 1.47 0 01-.76.24 1.14 1.14 0 01-1.16-1.12 1.33 1.33 0 01.74-1.1 8.05 8.05 0 004.14-7.5zm15.66 2.1a1.13 1.13 0 01.06.36 1.09 1.09 0 01-1.14 1 1 1 0 01-.92-.62 19.37 19.37 0 00-1.28-2.58.88.88 0 01-.14-.48 1 1 0 011.1-.92 1.07 1.07 0 01.92.52 15.37 15.37 0 011.4 2.72zm8.1-3.58a1.08 1.08 0 011.16 1 1.38 1.38 0 010 .26 18 18 0 01-8.28 11 1.26 1.26 0 01-.56.16 1.06 1.06 0 01-1-1.06 1.08 1.08 0 01.62-1 15.15 15.15 0 007.14-9.66.94.94 0 01.92-.67zm-4.26 2.62a1.11 1.11 0 01.06.34 1 1 0 01-1.1 1 .94.94 0 01-.92-.66 17.53 17.53 0 00-1.2-2.54.87.87 0 01-.14-.46 1 1 0 011.08-.88 1 1 0 01.94.52 14 14 0 011.28 2.68zm19.72-4.9c2.1 0 2.92.74 2.92 2.08a4.91 4.91 0 01-.14 1.14 16.94 16.94 0 01-9.3 11.12 1.45 1.45 0 01-.66.16 1.16 1.16 0 01-1.16-1.18 1.19 1.19 0 01.7-1.06c4.42-2.3 6.92-5.5 8-9.08a1.62 1.62 0 00.06-.4c0-.38-.26-.52-.84-.52l-9.64.12a1.14 1.14 0 01-1.16-1.18 1 1 0 011.06-1.1zM296 372a2.15 2.15 0 11-2.14-2.14A2.12 2.12 0 01296 372zm-3.3 0a1.16 1.16 0 001.16 1.16A1.14 1.14 0 00295 372a1.13 1.13 0 00-1.14-1.14 1.14 1.14 0 00-1.19 1.14z"/><g clip-path="url(#clip-path)"><path class="cls-7" d="M261.06 321.54a1.14 1.14 0 00.37 1.23l3.87 3.87a.39.39 0 010 .55l-30 29.94a1.7 1.7 0 000 2.4l7.74 7.74a1.69 1.69 0 002.39 0l30-29.94a.39.39 0 01.55 0l3.78 3.77a1.14 1.14 0 001.23.37 1.13 1.13 0 00.7-1.07l1.75-19.57a1.5 1.5 0 00-.42-1.22 1.55 1.55 0 00-1.22-.43l-19.66 1.66a1.17 1.17 0 00-1.08.7z"/></g><circle class="cls-3" cx="159.72" cy="354.99" r="50"/><path class="cls-4" d="M134.56 359.35a18 18 0 01-2.14 3.62 1.17 1.17 0 01-.92.5.93.93 0 01-.94-.92 1 1 0 01.24-.64 22.94 22.94 0 003.34-6.24h-2.54a.86.86 0 01-.8-1c0-.48.26-1 .78-1h2.9v-1.88a20.77 20.77 0 01-2.12.3h-.1a.92.92 0 01-.92-1 .9.9 0 01.82-1 24.62 24.62 0 005.6-1.34 1.23 1.23 0 01.44-.09 1 1 0 011 1.09.94.94 0 01-.64.9c-.6.22-1.26.42-1.94.6v2.36h2.28a1 1 0 010 1.92h-2.3v1.46a13.18 13.18 0 012.64 1.9 1.12 1.12 0 01.36.78 1 1 0 01-.94 1 1 1 0 01-.74-.36 15.18 15.18 0 00-1.32-1.16V366c0 .56-.52.84-1.06.84s-1.06-.28-1.06-.84v-2.14zm6.66-8.54a1 1 0 011.1-.9c.56 0 1.1.3 1.1.9v10.44c0 .6-.54.9-1.1.9a1 1 0 01-1.1-.9zm6.44 13.2c0 1.66-.68 2.36-2.52 2.36a9.18 9.18 0 01-1.52-.12 1 1 0 01-.86-1 1 1 0 011-1.06h.2a8.29 8.29 0 001 .08c.26 0 .5-.08.5-.62v-14a1.14 1.14 0 012.24 0zm20.1-12.01a.88.88 0 01.88.94.89.89 0 01-.88.94h-3.82a16.85 16.85 0 004.6 4.1 1.1 1.1 0 01.6 1 1 1 0 01-1 1 1.25 1.25 0 01-.7-.22 18.91 18.91 0 01-5.72-5.88h-4.08a20.29 20.29 0 01-5.64 6.18 1.13 1.13 0 01-.68.24 1 1 0 01-1-1 1 1 0 01.46-.82 18.28 18.28 0 004.58-4.62h-3.6a.88.88 0 01-.86-.94.87.87 0 01.86-.94h8.88a17.81 17.81 0 001.6-3.12 1 1 0 011-.69 1 1 0 011.1 1 1.15 1.15 0 01-.08.42 17.24 17.24 0 01-1.26 2.42zm.06 12.38a.89.89 0 010 1.76h-16.18a.89.89 0 010-1.76h1.84V361c0-1.46.64-2.14 2.34-2.14h8c1.56 0 2.2.68 2.2 2.14v3.38zm-10-14.34a1.27 1.27 0 01.18.6 1.07 1.07 0 01-1.12 1 1.16 1.16 0 01-1-.6 12.73 12.73 0 00-.74-1.18 1 1 0 01-.2-.59 1.08 1.08 0 011.12-1 1.18 1.18 0 01.92.48c.36.54.58.86.86 1.32zm-.82 14.37v-3.78h-.88c-.5 0-.6.14-.6.58v3.2zm3.48 0v-3.78h-1.6v3.78zm3.52-3.2c0-.44-.14-.58-.62-.58h-1v3.78H164zm16.16-9.48a.68.68 0 01.22.5.83.83 0 01-.12.4 11.76 11.76 0 01-1.34 1.84c.26.24.52.5.76.74a19.77 19.77 0 001.18-1.66 1 1 0 011.8.38.9.9 0 01-.18.5 30.49 30.49 0 01-2.94 3.6c.68-.06 1.36-.1 2-.18-.08-.14-.18-.28-.28-.42a.74.74 0 01-.16-.42.79.79 0 01.82-.72 1 1 0 01.84.46 21.77 21.77 0 011.38 2.06 1.11 1.11 0 01.16.52.9.9 0 01-1.72.3c0-.1-.1-.18-.14-.28-.58.08-1.16.16-1.74.22v1.5h7.36a.82.82 0 01.82.9.83.83 0 01-.82.9h-7.36v3.3c0 .58-.54.86-1.08.86s-1.1-.28-1.1-.86v-3.3h-7.24a.82.82 0 01-.8-.9.81.81 0 01.8-.9h7.24v-1.3q-1.2.09-2.28.12a.87.87 0 01-1-.88.81.81 0 01.86-.84h.94c.5-.5 1-1 1.42-1.52a17 17 0 00-2-1.78.94.94 0 01-.42-.76.89.89 0 01.9-.86 1 1 0 01.6.18 11.2 11.2 0 001-1.48.72.72 0 01.14-.2h-7a.89.89 0 010-1.76h6.82v-1.14c0-.57.54-.85 1.08-.85s1.08.28 1.08.85V350h7a.89.89 0 010 1.76zm-8.4 8.24a.93.93 0 01-.92-.94.91.91 0 01.6-.84 20.4 20.4 0 003.32-1.82 1 1 0 01.56-.18 1 1 0 01.94.9.86.86 0 01-.38.68 19.67 19.67 0 01-3.68 2.1 1.26 1.26 0 01-.44.13zm.2-6.76a1 1 0 011-.9 1.08 1.08 0 01.64.22 13.77 13.77 0 011.44 1.32 1 1 0 01.32.7 1 1 0 01-1 1 1 1 0 01-.78-.4c-.32-.34-.94-.94-1.34-1.3a.83.83 0 01-.24-.64zm12.38 2.64a1 1 0 01-.94-.92.87.87 0 01.4-.72 15.07 15.07 0 002-1.72.91.91 0 01.7-.34 1 1 0 011 .9.85.85 0 01-.24.58 13.94 13.94 0 01-2.28 2 .93.93 0 01-.64.22zm-.2 1.36a1 1 0 011-.94 1 1 0 01.56.16 18.67 18.67 0 012.38 1.76 1 1 0 01.4.78 1 1 0 01-1 .94 1.07 1.07 0 01-.74-.3c-.54-.48-1.46-1.2-2.22-1.74a.8.8 0 01-.38-.66zm-36.87 15.11c1.76 0 2.62.76 2.62 1.82a2.94 2.94 0 01-.52 1.52 14.9 14.9 0 01-3.18 3.48 1.34 1.34 0 01-.84.33 1.09 1.09 0 01-1.08-1.11 1.31 1.31 0 01.56-1 10.38 10.38 0 002.1-2.22.63.63 0 00.14-.36c0-.16-.14-.24-.46-.24l-11.36.08a1 1 0 01-1.06-1.1 1 1 0 011.06-1.1zm-6.64 4.68a1.17 1.17 0 012.32 0v.94a10.47 10.47 0 01-5.28 9.49 1.47 1.47 0 01-.76.24 1.14 1.14 0 01-1.16-1.12 1.33 1.33 0 01.74-1.1 8.06 8.06 0 004.14-7.51zm15.66 2.1a1.15 1.15 0 01.06.37 1.09 1.09 0 01-1.14 1 1 1 0 01-.92-.62 20.13 20.13 0 00-1.28-2.59.88.88 0 01-.14-.48 1 1 0 011.1-.92 1.07 1.07 0 01.92.52 15.37 15.37 0 011.4 2.72zm8.1-3.58a1.08 1.08 0 011.16 1 1.38 1.38 0 010 .26 18 18 0 01-8.28 11 1.26 1.26 0 01-.56.16 1.06 1.06 0 01-1-1.06 1.08 1.08 0 01.62-1 15.14 15.14 0 007.14-9.67.94.94 0 01.92-.69zm-4.26 2.62a1.16 1.16 0 01.06.34 1.05 1.05 0 01-1.1 1 .94.94 0 01-.92-.67 18 18 0 00-1.2-2.54.87.87 0 01-.14-.46 1 1 0 011.08-.88 1 1 0 01.94.52 14 14 0 011.28 2.69zm19.72-4.9c2.1 0 2.92.74 2.92 2.08a4.91 4.91 0 01-.14 1.14 16.93 16.93 0 01-9.3 11.13 1.45 1.45 0 01-.66.16 1.16 1.16 0 01-1.16-1.18 1.19 1.19 0 01.7-1.06c4.42-2.3 6.92-5.5 8-9.09a1.62 1.62 0 00.06-.4c0-.38-.26-.52-.84-.52l-9.64.12a1.14 1.14 0 01-1.16-1.18 1 1 0 011.06-1.1zm6.12-1.68a2.15 2.15 0 11-2.14-2.14 2.12 2.12 0 012.17 2.14zm-3.3 0a1.16 1.16 0 001.16 1.16 1.14 1.14 0 001.14-1.16 1.13 1.13 0 00-1.14-1.14 1.14 1.14 0 00-1.16 1.14z"/><g clip-path="url(#clip-path-2)"><path class="cls-7" d="M151.06 321.54a1.14 1.14 0 00.37 1.23l3.87 3.87a.39.39 0 010 .55l-30 29.94a1.7 1.7 0 000 2.4l7.74 7.74a1.69 1.69 0 002.39 0l30-29.94a.39.39 0 01.55 0l3.78 3.77a1.14 1.14 0 001.23.37 1.13 1.13 0 00.7-1.07l1.75-19.57a1.5 1.5 0 00-.42-1.22 1.55 1.55 0 00-1.22-.43l-19.66 1.66a1.17 1.17 0 00-1.08.7z"/></g></g></g></svg>