<svg xmlns="http://www.w3.org/2000/svg" viewBox="0 0 174.34 174.35"><defs><style>.cls-3{fill:#006795}</style></defs><g id="Layer_2" data-name="Layer 2"><g id="レイヤー_1" data-name="レイヤー 1"><path d="M87.17 1a86.15 86.15 0 00-67.68 139.48l-8.55 19.73a2.43 2.43 0 002.23 3.4 2.51 2.51 0 001-.2l19.73-8.54A86.17 86.17 0 1087.17 1z" fill="#fafa00"/><path d="M87.17 1a86.15 86.15 0 00-67.68 139.48l-8.55 19.73a2.43 2.43 0 002.23 3.4 2.51 2.51 0 001-.2l19.73-8.54A86.17 86.17 0 1087.17 1z" fill="none" stroke="#006795" stroke-width="2"/><path class="cls-3" d="M69.38 68a1 1 0 011.08-.86 1 1 0 011.08 1 1.14 1.14 0 010 .26c-.16.76-.36 1.56-.58 2.36l1.76-.3a.9.9 0 01.22 0 1 1 0 01.14 2.08c-.86.18-1.84.34-2.82.48a36.75 36.75 0 01-3.08 6.74 1.32 1.32 0 01-1.12.72 1.09 1.09 0 01-1.12-1.06 1.25 1.25 0 01.22-.7 30.65 30.65 0 002.7-5.44c-.74.08-1.46.12-2.08.14a1 1 0 01-1-1.1 1 1 0 011-1c.9 0 1.9-.1 2.92-.2.2-1.12.48-2.12.68-3.12zM73 84.74c-2.38 0-3.82-1-3.82-2.9 0-1.6 1.36-2.92 3.92-2.92a8.91 8.91 0 011 .06 14.55 14.55 0 01-.2-2.12 10.86 10.86 0 01.1-1.94 1 1 0 011-.8 1 1 0 011.12.92v.16a11.59 11.59 0 00-.12 1.64 15.21 15.21 0 00.28 2.6A13.92 13.92 0 0180 81.18a1.12 1.12 0 01.54.94 1.1 1.1 0 01-1.06 1.1 1.27 1.27 0 01-.68-.24 12.4 12.4 0 00-2.28-1.28c0 2.24-1.64 3.04-3.52 3.04zm1.42-3.26a4 4 0 000-.5 7 7 0 00-1.26-.12c-1.4 0-1.84.44-1.84 1s.4.92 1.7.92c.86-.02 1.36-.42 1.36-1.3zm6.16-9.34a1.24 1.24 0 01.66 1 1.1 1.1 0 01-1.06 1.1 1.16 1.16 0 01-.6-.18 19.54 19.54 0 00-2.86-1.38 1 1 0 01-.72-.9 1.13 1.13 0 011.14-1.1 1.36 1.36 0 01.38.06 12.66 12.66 0 013.02 1.4zM86.66 77a9.38 9.38 0 015.8-2.14c3.14 0 5.08 1.72 5.08 4 0 3.08-2.54 5.28-7.36 5.84H90a1.09 1.09 0 01-.08-2.18c3.92-.46 5.28-1.94 5.28-3.66 0-1-.82-2-2.74-2a8.48 8.48 0 00-6.2 3 1.3 1.3 0 01-1 .48 1.15 1.15 0 01-1.18-1.16 1 1 0 010-.24c.2-1.48.68-4.1 1.26-6.84a1.07 1.07 0 011.1-.84 1 1 0 011.14.94.68.68 0 010 .2c-.38 1.86-.72 3.38-.94 4.54zm6.12-8.18a1.21 1.21 0 01.7 1.1A1.07 1.07 0 0192.42 71a1.44 1.44 0 01-.6-.14 29 29 0 00-3.26-1.24 1 1 0 01-.76-1 1.18 1.18 0 011.2-1.08 2.23 2.23 0 01.34 0 16.38 16.38 0 013.44 1.3zm7.08 11.96a1.07 1.07 0 011.08-1 1.43 1.43 0 01.7.22 16 16 0 013.58 3.16 1.46 1.46 0 01.36.92 1.14 1.14 0 01-1.16 1.12 1.22 1.22 0 01-1-.5 19.46 19.46 0 00-3.12-3.06 1 1 0 01-.44-.86zM39.08 97.09c-2.22.48-3.46.68-4.24.78h-.14a1 1 0 01-1-1.08 1 1 0 01.88-1 50.94 50.94 0 005.86-1 1.5 1.5 0 01.42 0A1.33 1.33 0 0142.28 96a1.49 1.49 0 01-.36.92 25.1 25.1 0 01-4.9 4.62c2.52-.56 4.88-1 8.2-1.72a1 1 0 01.24 0 1 1 0 01.18 2.08 15.85 15.85 0 00-3.4 1.1 4.37 4.37 0 00-2.78 3.83c0 1.38.92 2.2 3.62 2.3a1.08 1.08 0 011.1 1.08 1.1 1.1 0 01-1.2 1.12c-3.62-.06-5.76-1.72-5.76-4.32a4.92 4.92 0 011.84-3.89c-1.64.38-3.2.76-5 1.2-.7.18-1.36.36-2 .56a1.36 1.36 0 01-.38.06 1.12 1.12 0 01-.28-2.2 14.61 14.61 0 003.12-1.54 26.94 26.94 0 004.64-4zm10.1 7.26c0-4.56 3.78-8.3 9.28-8.3 4.88 0 7.7 3.06 7.7 7a7.49 7.49 0 01-5.58 7.39 1.31 1.31 0 01-.46.08 1.12 1.12 0 01-1.12-1.1 1.15 1.15 0 01.84-1.1c2.84-1 4-2.75 4-5.23a4.89 4.89 0 00-4.82-5 20.1 20.1 0 01-2.26 8.51c-1.1 1.94-2.28 2.52-3.82 2.52-2.06 0-3.76-1.64-3.76-4.77zm2.3 0c0 1.84.72 2.53 1.44 2.53s1.16-.33 1.74-1.35a18.09 18.09 0 002-7.3 6.34 6.34 0 00-5.18 6.12zm24.2-1.78a13.47 13.47 0 013.42-.4c3.2 0 5.22 1.48 5.22 4s-1.74 4.23-4.66 4.65a.82.82 0 01-.22 0 1.06 1.06 0 01-.14-2.12c2-.34 2.74-1.22 2.74-2.53 0-1.1-1-2-2.92-2a11.81 11.81 0 00-3.44.52v3.57c0 2.08-.9 2.84-2.76 2.84s-3.74-1.38-3.74-3.12c0-1.46.84-3.07 4.34-4.69v-3.4c-1 .1-2 .16-2.76.18a1 1 0 010-2.06c.8 0 1.76-.08 2.76-.2v-3a1.09 1.09 0 012.16 0v2.74c.68-.12 1.34-.24 1.9-.38a1.11 1.11 0 01.36 0 1 1 0 011.06 1 1 1 0 01-.84 1c-.74.18-1.58.36-2.48.5zm-2.16 2.9c-1.74 1-2.1 1.65-2.1 2.43s.72 1.06 1.46 1c.58 0 .64-.38.64-.88zm11.6-6.88a1.24 1.24 0 01.46.94 1.17 1.17 0 01-1.16 1.14 1.22 1.22 0 01-.82-.34 15.39 15.39 0 00-2.42-1.74 1 1 0 01-.56-.9 1.2 1.2 0 011.14-1.18 1.09 1.09 0 01.54.14 15 15 0 012.82 1.94zm3.44-.66a.77.77 0 01.8.76 14.16 14.16 0 01-.54 3 .81.81 0 01-.8.62.74.74 0 01-.78-.72 1.35 1.35 0 010-.28 16.14 16.14 0 00.54-2.7.73.73 0 01.78-.68zm3.18 13.47a1.09 1.09 0 01-2.14 0v-17a1.09 1.09 0 012.14 0zm2.1-11.53v.13a.78.78 0 01-.8.8.7.7 0 01-.7-.64 14.21 14.21 0 00-.38-1.8 1.17 1.17 0 010-.26.69.69 0 01.72-.66.77.77 0 01.74.56 11.46 11.46 0 01.42 1.87zm3.32-1.66a1.58 1.58 0 01.12.58 1.06 1.06 0 01-1.08 1.06 1.22 1.22 0 01-1.1-.85 16.69 16.69 0 00-1.26-2.44 1.07 1.07 0 01-.2-.6 1 1 0 011.08-1 1.15 1.15 0 01.94.52 15.92 15.92 0 011.5 2.73zm-.78 13.25c-1.92 0-2.62-.6-2.62-2.24V103a1.1 1.1 0 012.16 0v5.93c0 .46.24.64.66.64h5.8c.42 0 .66-.18.66-.64v-5.77a1.1 1.1 0 012.16 0v6.09c0 1.64-.7 2.24-2.62 2.24zm5.8-4.72a1.17 1.17 0 01.34.78 1 1 0 01-1 1 1 1 0 01-.78-.38c-.28-.34-.6-.68-.94-1a15.64 15.64 0 01-1.74 1.72 1.17 1.17 0 01-.72.3 1 1 0 01-.94-.94 1 1 0 01.4-.78 13.28 13.28 0 001.6-1.65c-.42-.36-.84-.68-1.22-1a1 1 0 01-.48-.8 1 1 0 011-.94 1 1 0 01.56.18 13.73 13.73 0 011.32 1 14.52 14.52 0 001-1.74 1 1 0 01.94-.62.94.94 0 011 .9 1.05 1.05 0 01-.12.46 17.48 17.48 0 01-1.36 2.32 14.54 14.54 0 011.14 1.19zm-1.56-9.17a1.11 1.11 0 01.08.42 1.1 1.1 0 01-1.12 1.08 1 1 0 01-1-.76 19.92 19.92 0 00-1.16-2.7 1.07 1.07 0 01-.14-.52 1 1 0 011-.9 1.14 1.14 0 011 .56 15 15 0 011.34 2.82zm2.24 3a1.12 1.12 0 01-1 .58 1 1 0 01-1.08-1 1.19 1.19 0 01.2-.64A20.16 20.16 0 00103.1 95a1 1 0 011-.72 1.08 1.08 0 011.12 1 1.21 1.21 0 01-.08.44 24.32 24.32 0 01-2.28 4.89zm12-5.57a3 3 0 01.6 0 1.71 1.71 0 011.94 1.76 2.2 2.2 0 010 .5 39.24 39.24 0 01-1.06 4.34 22.21 22.21 0 013.9 1 20 20 0 00.38-3 1 1 0 011.12-.94 1.08 1.08 0 011.16 1.06 17.56 17.56 0 01-.54 3.8 23.59 23.59 0 012.94 1.62 1.2 1.2 0 01-.56 2.21 1.25 1.25 0 01-.7-.22 24.55 24.55 0 00-2.36-1.39 13.93 13.93 0 01-3.2 5.11 1.39 1.39 0 01-1 .46 1.14 1.14 0 01-1.12-1.12 1.1 1.1 0 01.34-.78 12.42 12.42 0 002.9-4.63 18.07 18.07 0 00-3.94-1.12 29.68 29.68 0 01-1.24 2.87c-1 2-2.06 2.66-3.5 2.66-1.66 0-2.88-1.08-2.88-3.15 0-2.5 2.26-4.56 5.6-4.56h.46a23.28 23.28 0 00.94-3.88v-.16c0-.04-.12-.2-.4-.16l-2.8.46a.9.9 0 01-.22 0 1 1 0 01-1-1.08 1 1 0 01.94-1.06zm-2.5 10.7a21.18 21.18 0 001-2.32c-2.08 0-3.18 1.2-3.18 2.46 0 .73.32 1 .72 1 .6.08.92-.1 1.46-1.11zm22.08-8.03h.14c.78 0 1.44 0 2.06-.1h.1a1 1 0 011 1.06 1 1 0 01-.86 1 21 21 0 01-2.22.1h-.56c-.12.94-.28 1.86-.42 2.8h.32a19.17 19.17 0 003.14-.26.68.68 0 01.2 0 1 1 0 011 1.06 1 1 0 01-.86 1.06 18.73 18.73 0 01-3.48.32h-.56c-.06.7-.08 1.26-.08 1.75 0 2.16.9 2.9 2.66 2.9 2.2 0 3.38-.78 3.38-2.76a5.52 5.52 0 00-.24-1.49 1.54 1.54 0 010-.3 1 1 0 011.14-1 1.18 1.18 0 011.18.86 6 6 0 01.3 1.84c0 3.43-2.32 5.09-5.68 5.09-3.12 0-5-1.6-5-5a19.18 19.18 0 01.1-2 16.15 16.15 0 01-2.4-.4 1.09 1.09 0 01-.84-1.08 1 1 0 011-1.1 1.11 1.11 0 01.36 0 16.34 16.34 0 002.12.38c.12-.94.26-1.86.42-2.8a14.56 14.56 0 01-2.1-.32 1 1 0 01-.86-1 1 1 0 011-1.08 1 1 0 01.24 0 18.63 18.63 0 002.06.32l.5-2.88a1.07 1.07 0 011.14-.84 1 1 0 011.12.94.75.75 0 010 .2zm-96.33 25.74h4.56a1 1 0 011 1.08 1 1 0 01-1 1h-4.54q0 1.05.06 2.1c1.32-.08 2.6-.18 3.76-.32h.16a1 1 0 011.06 1 1.06 1.06 0 01-1 1.06c-1.22.16-2.54.26-3.88.34 0 .88.12 1.76.2 2.64a18.4 18.4 0 015 2.18 1.28 1.28 0 01.68 1.08 1.18 1.18 0 01-1.86 1 18.67 18.67 0 00-3.7-1.92v.14c0 2.16-1.88 3.2-4.2 3.2-2.54 0-4.1-1.22-4.1-3.08s1.44-3.08 4.3-3.08a15 15 0 011.62.1c-.06-.72-.14-1.44-.16-2.14H35c-1.2 0-2.42 0-3.12-.12a1 1 0 01-1-1.06 1 1 0 011-1.06h.14a27.62 27.62 0 002.88.14H36c0-.72-.06-1.42-.08-2.14-1.7 0-3.36.1-4.76.16a1.06 1.06 0 010-2.12c1.4-.06 3.06-.14 4.76-.16v-2c0-.6.56-.9 1.12-.9a1 1 0 011.1.9zm-1.64 11.08v-.44a9.31 9.31 0 00-1.8-.18c-1.56 0-2 .48-2 1.08s.52 1 1.82 1 1.98-.62 1.98-1.46zm16.1-6.12a6.91 6.91 0 012.54-.5c3.12 0 5.16 1.7 5.16 4.48 0 3.5-2.52 5.74-6.42 5.74-2.74 0-4.48-1.4-4.48-3.18a2.49 2.49 0 012.78-2.56c1.92 0 3.26 1.28 3.84 3.28a3.43 3.43 0 001.94-3.26c0-1.42-1.12-2.56-3-2.56s-4 .7-6.44 2.6a1.39 1.39 0 01-.84.32 1.13 1.13 0 01-1.12-1.1 1.18 1.18 0 01.5-.94 45 45 0 006.76-6.76c-1 .16-2.28.3-3.28.38-.08 0-.6.06-.86.06a1 1 0 01-1-1.08 1 1 0 011-1c1.62-.08 3.74-.34 5.66-.64a1.32 1.32 0 01.28 0 1.3 1.3 0 011.38 1.26 1.59 1.59 0 01-.36.94 44 44 0 01-4 4.52zm1.32 7.72c-.34-1.28-.94-2-1.78-2a.73.73 0 00-.72.78c0 .66.76 1.18 2.34 1.18zm22.92-4.5c0 3.12-2.34 5.32-6.82 6a.68.68 0 01-.2 0 1 1 0 01-.1-1.92c3.8-.66 5.1-1.94 5.1-4.06 0-1.28-.92-2.28-2.9-2.28a19.63 19.63 0 00-7.58 2 1 1 0 01-.48.1.94.94 0 01-.94-.94 1 1 0 01.68-.94 21.8 21.8 0 018.32-2c2.92-.06 4.92 1.52 4.92 4.04zm6.4-9.68a1.16 1.16 0 012.32 0 35 35 0 00.46 5.86 27.38 27.38 0 013.94-1.56 1.13 1.13 0 01.36-.06 1.09 1.09 0 011 1.12 1 1 0 01-.74 1 23.58 23.58 0 00-5.26 2.32c-1.72 1.12-2.32 2.22-2.32 3.24 0 1.24.82 1.88 4 1.88a22 22 0 004.14-.36 1.23 1.23 0 01.26 0 1.05 1.05 0 011.08 1.1 1.1 1.1 0 01-.9 1.12 23.13 23.13 0 01-4.6.38c-4.2 0-6.3-1.28-6.3-4 0-1.64.76-3.26 3.26-5a31.86 31.86 0 01-.7-7.04zm18.18 3.28c1.4 0 2 .52 2 1.86V137c0 1.3-.76 1.84-2 1.84a6.35 6.35 0 01-1.14-.08 1 1 0 010-1.94h.16a4.87 4.87 0 00.76.06c.22 0 .32-.08.32-.34v-3h-3.7a14.9 14.9 0 01-1.06 4.72 1.07 1.07 0 01-1 .68.92.92 0 01-1-.88 1.21 1.21 0 01.12-.48 17.13 17.13 0 001.18-7.1v-3.46a2.2 2.2 0 01.16-.94 1.08 1.08 0 01-.62.2.93.93 0 01-1-.84 1 1 0 01.3-.7 16.17 16.17 0 002.38-3.92.9.9 0 01.86-.56.92.92 0 011 .82 1 1 0 01-.06.34c-.1.28-.24.56-.36.84h1.1c1 0 1.48.56 1.48 1.2a1.34 1.34 0 01-.08.48 8.29 8.29 0 01-.5 1.22zm-2.64 0a5.91 5.91 0 00.48-1 .22.22 0 000-.1q0-.18-.3-.18h-1.04q-.51.81-1.08 1.56a2.81 2.81 0 011.28-.24zm.14 6.7v-1.8h-1v1.8zm-.68-5.08c-.26 0-.32.08-.32.38v1.3h1v-1.68zm3.38.38c0-.3-.06-.38-.32-.38h-.74v1.68h1.06zm0 2.9h-1.06v1.8h1.06zm6.76-7.1a7.36 7.36 0 01-3 4.52 1.13 1.13 0 01-.66.22 1 1 0 01-1-.94 1.06 1.06 0 01.52-.88 5.12 5.12 0 002.1-2.92h-1.7a.82.82 0 01-.78-.9.81.81 0 01.78-.9h5.88c1.46 0 2.06.58 2.06 1.56a9.92 9.92 0 01-.42 2.58 2 2 0 01-2.28 1.68 7.68 7.68 0 01-1.1-.08 1 1 0 01-.88-1 .9.9 0 01.92-.92h.18a5.51 5.51 0 00.68.06c.28 0 .42-.08.54-.4a4.75 4.75 0 00.3-1.44c0-.26-.1-.3-.56-.3zm-.58 6.54v-1.36c0-.54.52-.82 1-.82s1 .28 1 .82v1.36h2.26a.9.9 0 010 1.76h-2.26V133h2.88c.48 0 .72.44.72.9s-.24.9-.72.9h-2.88v3.48c0 .54-.52.82-1 .82s-1-.28-1-.82v-3.48h-3.06a.82.82 0 01-.74-.9.81.81 0 01.74-.9h3.06v-1.66h-1.58a6.08 6.08 0 01-.38.72 1.06 1.06 0 01-.94.56.86.86 0 01-.92-.82 1.18 1.18 0 01.2-.62 10.38 10.38 0 001.1-2.64.89.89 0 01.9-.66.88.88 0 01.94.82 1 1 0 010 .24l-.18.64zm10.72-2.2a1.19 1.19 0 01.36.82 1.12 1.12 0 01-1.12 1.08 1 1 0 01-.76-.34 19.83 19.83 0 00-1.76-1.58 1 1 0 01-.42-.76 1.1 1.1 0 011.12-1 1.25 1.25 0 01.7.22 11.75 11.75 0 011.88 1.56zm.44 3.9a1.12 1.12 0 011.18 1 1 1 0 01-.06.34 21.79 21.79 0 01-2.44 5.22 1.27 1.27 0 01-1.08.62 1.07 1.07 0 01-1.12-1 1.19 1.19 0 01.22-.68 21.75 21.75 0 002.3-4.84 1 1 0 011-.66zm1-8.68a1.19 1.19 0 01.36.82 1.05 1.05 0 01-1.86.68 21.39 21.39 0 00-1.66-1.52 1 1 0 01-.4-.76 1.06 1.06 0 011.1-1 1.23 1.23 0 01.7.24 12.62 12.62 0 011.72 1.54zm7.72 8.52a11.43 11.43 0 004.8 5.26 1.17 1.17 0 01.66 1 1.18 1.18 0 01-1.14 1.16 1.11 1.11 0 01-.58-.16 12.94 12.94 0 01-5.14-5.84 10.78 10.78 0 01-5.36 6.1 1.07 1.07 0 01-.52.14 1 1 0 01-.42-2 8.55 8.55 0 004.48-5.72H121a.86.86 0 01-.8-.94.85.85 0 01.8-.94h3.76a16.41 16.41 0 00.1-2v-1.14h-2.88a1 1 0 010-1.9h2.88v-2.88a1.1 1.1 0 012.16 0v2.88h1.84c1.7 0 2.48.76 2.48 2.2v2.82h1.16a.84.84 0 01.8.94.85.85 0 01-.8.94zm1.56-1.88v-2.52c0-.48-.16-.6-.64-.6H127v1.26c0 .62 0 1.24-.08 1.86zm11.28 6.81a1.52 1.52 0 01-3 0 1.52 1.52 0 013 0zm-2.94-13.08a1.42 1.42 0 012.84 0c0 .54-.12 1.74-.16 2.32-.14 1.94-.28 4.9-.34 7.12a.86.86 0 01-.94.84.83.83 0 01-.9-.84c-.08-2.2-.2-5.16-.34-7.12-.02-.35-.16-1.77-.16-2.31zM82 59.93a.34.34 0 01-.5-.06l-5.1-6.56a4.58 4.58 0 01.06-5.67l5-6.32a.36.36 0 01.5-.06l1.33 1.05a.36.36 0 010 .51l-5 6.33a2.18 2.18 0 000 2.69l5.09 6.55a.36.36 0 01-.06.51z"/><rect class="cls-3" x="71.32" y="42.52" width="2.41" height="16.16" rx=".36"/><path class="cls-3" d="M95.48 58.67h-.79a5.41 5.41 0 01-5.41-5.4V42.88a.37.37 0 01.37-.36h1.68a.36.36 0 01.36.36v10.39a3 3 0 003 3h.79a3 3 0 003-3V42.88a.36.36 0 01.36-.36h1.69a.36.36 0 01.36.36v10.39a5.4 5.4 0 01-5.41 5.4zm22.13 0h-5.21a5.76 5.76 0 01-5.76-5.76v-4.63a5.76 5.76 0 015.76-5.76h5.21a.36.36 0 01.36.36v1.68a.37.37 0 01-.36.37h-5.21a3.35 3.35 0 00-3.35 3.35v4.63a3.35 3.35 0 003.35 3.35h5.21a.36.36 0 01.36.36v1.69a.36.36 0 01-.36.36z"/><rect class="cls-3" x="110.94" y="49.39" width="6.18" height="2.41" rx=".36"/><path class="cls-3" d="M62.59 54.58h-5.17a.36.36 0 01-.34-.47l.54-1.69a.36.36 0 01.34-.25h4.63zm-21.7-2.68h-1.24a.48.48 0 00-.42.72l3.31 5.87a.38.38 0 00.32.18h1.93a.37.37 0 00.32-.54l-2.37-4.2a4.74 4.74 0 002.88-4.35v-2.15a4.82 4.82 0 00-4.82-4.82h-5.47a1.21 1.21 0 00-1.21 1.2v14.5a.36.36 0 00.36.36h1.69a.36.36 0 00.36-.36V45.5A.49.49 0 0137 45h3.8a2.41 2.41 0 012.41 2.41v2.15a2.32 2.32 0 01-2.32 2.34z"/><path class="cls-3" d="M65 58.67a.36.36 0 00.34-.47l-4.21-13.55a3 3 0 00-5.76 0L51 58.2a.36.36 0 00.35.47h1.77a.37.37 0 00.35-.25l4.21-13.05a.61.61 0 011.16 0l4.09 13.05a.37.37 0 00.35.25zm54.82-.94a.94.94 0 111.87 0 .94.94 0 11-1.87 0zm1.73 0a.79.79 0 10-.79.8.77.77 0 00.79-.8zm-1.1.52v-1h.38a.29.29 0 01.33.31.27.27 0 01-.2.29l.2.4h-.08l-.2-.4h-.23v.38zm.56-.74c0-.1-.05-.17-.18-.17h-.26v.31h.25c.18.02.18-.04.18-.14z"/><rect class="cls-3" x="126.51" y="48.78" width="13.7" height="3.64" rx=".36"/><rect class="cls-3" x="131.55" y="43.74" width="3.64" height="13.7" rx=".36"/></g></g></svg>