<svg xmlns="http://www.w3.org/2000/svg" viewBox="0 0 175.1 31.07"><defs><style>.cls-1{fill:#006795}</style></defs><g id="Layer_2" data-name="Layer 2"><g id="レイヤー_1" data-name="レイヤー 1"><path class="cls-1" d="M79 30.94a.6.6 0 01-.84-.1L69.79 20a7.54 7.54 0 01.1-9.35L78.2.22a.6.6 0 01.8-.09l2.18 1.73a.6.6 0 01.1.84L73 13.14a3.59 3.59 0 000 4.44l8.35 10.82a.6.6 0 01-.11.84z"/><rect class="cls-1" x="61.38" y="2.2" width="3.98" height="26.66" rx=".6"/><path class="cls-1" d="M101.26 28.86H100a8.92 8.92 0 01-9-8.92V2.79a.58.58 0 01.59-.59h2.79a.58.58 0 01.59.59v17.15a5 5 0 005.03 4.94h1.3a4.94 4.94 0 004.94-4.94V2.79a.59.59 0 01.6-.59h2.78a.59.59 0 01.6.59v17.15a8.92 8.92 0 01-8.96 8.92zm36.53 0h-8.61a9.51 9.51 0 01-9.51-9.51v-7.64a9.51 9.51 0 019.51-9.51h8.61a.58.58 0 01.59.59v2.79a.58.58 0 01-.59.59h-8.61a5.54 5.54 0 00-5.53 5.54v7.64a5.54 5.54 0 005.53 5.53h8.61a.59.59 0 01.59.6v2.78a.59.59 0 01-.59.6z"/><rect class="cls-1" x="126.78" y="13.54" width="10.2" height="3.98" rx=".6"/><path class="cls-1" d="M47 22.11h-8.55a.6.6 0 01-.57-.78l.9-2.79a.6.6 0 01.57-.41H47zm-35.83-4.43h-2a.79.79 0 00-.69 1.18l5.46 9.69a.59.59 0 00.52.31h3.19a.59.59 0 00.52-.89L14.22 21A7.81 7.81 0 0019 13.85v-3.54a8 8 0 00-7.95-8H2a2 2 0 00-2 2v23.95a.6.6 0 00.6.6h2.78a.6.6 0 00.6-.6V7.12a.79.79 0 01.79-.79H11a4 4 0 014 4v3.54a3.82 3.82 0 01-3.83 3.81z"/><path class="cls-1" d="M51 28.86a.6.6 0 00.57-.78l-7-22.36a5 5 0 00-9.51 0l-7.22 22.4a.59.59 0 00.56.78h2.93a.6.6 0 00.57-.41l7-21.55a1 1 0 011-.7 1 1 0 011 .71l6.74 21.53a.6.6 0 00.57.42zm90.43-1.55a1.55 1.55 0 111.57 1.55 1.52 1.52 0 01-1.57-1.55zm2.85 0a1.3 1.3 0 10-1.3 1.32 1.28 1.28 0 001.3-1.32zm-1.81.86a.06.06 0 01-.07-.07v-1.59c0-.05 0-.08.07-.08h.63a.49.49 0 01.55.51.45.45 0 01-.34.47l.34.68c0 .05 0 .08-.05.08h-.14s-.06 0-.08-.06l-.33-.66h-.36v.64a.07.07 0 01-.07.07zm.93-1.23c0-.17-.09-.27-.3-.27h-.44v.51h.44c.21.02.3-.07.3-.24z"/><rect class="cls-1" x="152.48" y="12.53" width="22.62" height="6" rx=".6"/><rect class="cls-1" x="160.79" y="4.22" width="6" height="22.62" rx=".6"/></g></g></svg>